ISO-10303-21;
HEADER;
/* Generated by software containing ST-Developer
 * from STEP Tools, Inc. (www.steptools.com) 
 */

FILE_DESCRIPTION(
/* description */ (''),
/* implementation_level */ '2;1');

FILE_NAME(
/* name */ 'blad_battery_cap.step',
/* time_stamp */ '2026-08-30T16:21:32+09:00',
/* author */ (''),
/* organization */ (''),
/* preprocessor_version */ 'ST-DEVELOPER v20.1',
/* originating_system */ 'Autodesk Translation Framework v15.8.0.0',
/* authorisation */ '');

FILE_SCHEMA (('AUTOMOTIVE_DESIGN { 1 0 10303 214 3 1 1 }'));
ENDSEC;

DATA;
#10=MECHANICAL_DESIGN_GEOMETRIC_PRESENTATION_REPRESENTATION('',(#13),#1534);
#11=SHAPE_REPRESENTATION_RELATIONSHIP('SRR','None',#1541,#12);
#12=ADVANCED_BREP_SHAPE_REPRESENTATION('',(#14),#1533);
#13=STYLED_ITEM('',(#1551),#14);
#14=MANIFOLD_SOLID_BREP('\X2\30DC30C730A3\X0\2',#934);
#15=B_SPLINE_CURVE_WITH_KNOTS('',3,(#1418,#1419,#1420,#1421,#1422,#1423,
#1424,#1425),.UNSPECIFIED.,.F.,.F.,(4,2,2,4),(0.,0.0074219249710247,0.0148438499420494,
0.0199924829376604),.UNSPECIFIED.);
#16=B_SPLINE_CURVE_WITH_KNOTS('',3,(#1446,#1447,#1448,#1449,#1450,#1451,
#1452,#1453),.UNSPECIFIED.,.F.,.F.,(4,2,2,4),(0.0394729404614736,0.0446215734570849,
0.0520434984281097,0.0594654233991344),.UNSPECIFIED.);
#17=FACE_BOUND('',#115,.T.);
#18=FACE_BOUND('',#116,.T.);
#19=FACE_BOUND('',#142,.T.);
#20=FACE_BOUND('',#143,.T.);
#21=CIRCLE('',#969,0.396875);
#22=CIRCLE('',#970,0.396875);
#23=CIRCLE('',#972,8.5);
#24=CIRCLE('',#973,8.5);
#25=CIRCLE('',#975,0.396875);
#26=CIRCLE('',#977,0.396875);
#27=CIRCLE('',#980,0.196874999999999);
#28=CIRCLE('',#981,0.196874999999999);
#29=CIRCLE('',#983,0.196875);
#30=CIRCLE('',#984,0.196874999999999);
#31=CIRCLE('',#985,0.196875);
#32=CIRCLE('',#987,0.196875);
#33=CIRCLE('',#990,0.196874999999999);
#34=CIRCLE('',#993,0.196875);
#35=CYLINDRICAL_SURFACE('',#968,0.396875);
#36=CYLINDRICAL_SURFACE('',#971,8.5);
#37=CYLINDRICAL_SURFACE('',#976,0.396875);
#38=CYLINDRICAL_SURFACE('',#979,0.196874999999999);
#39=CYLINDRICAL_SURFACE('',#986,0.196875);
#40=CYLINDRICAL_SURFACE('',#989,0.196874999999999);
#41=CYLINDRICAL_SURFACE('',#992,0.196875);
#42=CYLINDRICAL_SURFACE('',#1010,1.5);
#43=FACE_OUTER_BOUND('',#92,.T.);
#44=FACE_OUTER_BOUND('',#93,.T.);
#45=FACE_OUTER_BOUND('',#94,.T.);
#46=FACE_OUTER_BOUND('',#95,.T.);
#47=FACE_OUTER_BOUND('',#96,.T.);
#48=FACE_OUTER_BOUND('',#97,.T.);
#49=FACE_OUTER_BOUND('',#98,.T.);
#50=FACE_OUTER_BOUND('',#99,.T.);
#51=FACE_OUTER_BOUND('',#100,.T.);
#52=FACE_OUTER_BOUND('',#101,.T.);
#53=FACE_OUTER_BOUND('',#102,.T.);
#54=FACE_OUTER_BOUND('',#103,.T.);
#55=FACE_OUTER_BOUND('',#104,.T.);
#56=FACE_OUTER_BOUND('',#105,.T.);
#57=FACE_OUTER_BOUND('',#106,.T.);
#58=FACE_OUTER_BOUND('',#107,.T.);
#59=FACE_OUTER_BOUND('',#108,.T.);
#60=FACE_OUTER_BOUND('',#109,.T.);
#61=FACE_OUTER_BOUND('',#110,.T.);
#62=FACE_OUTER_BOUND('',#111,.T.);
#63=FACE_OUTER_BOUND('',#112,.T.);
#64=FACE_OUTER_BOUND('',#113,.T.);
#65=FACE_OUTER_BOUND('',#114,.T.);
#66=FACE_OUTER_BOUND('',#117,.T.);
#67=FACE_OUTER_BOUND('',#118,.T.);
#68=FACE_OUTER_BOUND('',#119,.T.);
#69=FACE_OUTER_BOUND('',#120,.T.);
#70=FACE_OUTER_BOUND('',#121,.T.);
#71=FACE_OUTER_BOUND('',#122,.T.);
#72=FACE_OUTER_BOUND('',#123,.T.);
#73=FACE_OUTER_BOUND('',#124,.T.);
#74=FACE_OUTER_BOUND('',#125,.T.);
#75=FACE_OUTER_BOUND('',#126,.T.);
#76=FACE_OUTER_BOUND('',#127,.T.);
#77=FACE_OUTER_BOUND('',#128,.T.);
#78=FACE_OUTER_BOUND('',#129,.T.);
#79=FACE_OUTER_BOUND('',#130,.T.);
#80=FACE_OUTER_BOUND('',#131,.T.);
#81=FACE_OUTER_BOUND('',#132,.T.);
#82=FACE_OUTER_BOUND('',#133,.T.);
#83=FACE_OUTER_BOUND('',#134,.T.);
#84=FACE_OUTER_BOUND('',#135,.T.);
#85=FACE_OUTER_BOUND('',#136,.T.);
#86=FACE_OUTER_BOUND('',#137,.T.);
#87=FACE_OUTER_BOUND('',#138,.T.);
#88=FACE_OUTER_BOUND('',#139,.T.);
#89=FACE_OUTER_BOUND('',#140,.T.);
#90=FACE_OUTER_BOUND('',#141,.T.);
#91=FACE_OUTER_BOUND('',#144,.T.);
#92=EDGE_LOOP('',(#586,#587,#588,#589));
#93=EDGE_LOOP('',(#590,#591,#592,#593));
#94=EDGE_LOOP('',(#594,#595,#596,#597));
#95=EDGE_LOOP('',(#598,#599,#600,#601));
#96=EDGE_LOOP('',(#602,#603,#604,#605));
#97=EDGE_LOOP('',(#606,#607,#608,#609));
#98=EDGE_LOOP('',(#610,#611,#612,#613));
#99=EDGE_LOOP('',(#614,#615,#616,#617));
#100=EDGE_LOOP('',(#618,#619,#620,#621));
#101=EDGE_LOOP('',(#622,#623,#624,#625));
#102=EDGE_LOOP('',(#626,#627,#628,#629));
#103=EDGE_LOOP('',(#630,#631,#632,#633));
#104=EDGE_LOOP('',(#634,#635,#636,#637));
#105=EDGE_LOOP('',(#638,#639,#640,#641));
#106=EDGE_LOOP('',(#642,#643,#644,#645));
#107=EDGE_LOOP('',(#646,#647,#648,#649));
#108=EDGE_LOOP('',(#650,#651,#652,#653));
#109=EDGE_LOOP('',(#654,#655,#656,#657));
#110=EDGE_LOOP('',(#658,#659,#660,#661));
#111=EDGE_LOOP('',(#662,#663,#664,#665));
#112=EDGE_LOOP('',(#666,#667,#668,#669));
#113=EDGE_LOOP('',(#670,#671,#672,#673));
#114=EDGE_LOOP('',(#674,#675,#676,#677,#678,#679,#680,#681,#682,#683,#684,
#685,#686,#687,#688,#689,#690,#691,#692,#693,#694,#695));
#115=EDGE_LOOP('',(#696,#697,#698,#699));
#116=EDGE_LOOP('',(#700,#701,#702,#703));
#117=EDGE_LOOP('',(#704,#705,#706,#707));
#118=EDGE_LOOP('',(#708,#709,#710,#711));
#119=EDGE_LOOP('',(#712,#713,#714,#715,#716));
#120=EDGE_LOOP('',(#717,#718,#719,#720,#721,#722,#723,#724));
#121=EDGE_LOOP('',(#725,#726,#727,#728,#729));
#122=EDGE_LOOP('',(#730,#731,#732,#733));
#123=EDGE_LOOP('',(#734,#735,#736,#737));
#124=EDGE_LOOP('',(#738,#739,#740,#741));
#125=EDGE_LOOP('',(#742,#743,#744,#745));
#126=EDGE_LOOP('',(#746,#747,#748,#749));
#127=EDGE_LOOP('',(#750,#751,#752,#753,#754,#755,#756,#757,#758,#759,#760,
#761,#762,#763,#764,#765,#766,#767,#768,#769));
#128=EDGE_LOOP('',(#770,#771,#772,#773));
#129=EDGE_LOOP('',(#774,#775,#776,#777));
#130=EDGE_LOOP('',(#778,#779,#780,#781));
#131=EDGE_LOOP('',(#782,#783,#784,#785));
#132=EDGE_LOOP('',(#786,#787,#788,#789));
#133=EDGE_LOOP('',(#790,#791,#792,#793));
#134=EDGE_LOOP('',(#794,#795,#796,#797));
#135=EDGE_LOOP('',(#798,#799,#800,#801));
#136=EDGE_LOOP('',(#802,#803,#804,#805,#806,#807));
#137=EDGE_LOOP('',(#808,#809,#810,#811,#812,#813));
#138=EDGE_LOOP('',(#814,#815,#816,#817,#818,#819));
#139=EDGE_LOOP('',(#820,#821,#822,#823));
#140=EDGE_LOOP('',(#824,#825,#826,#827));
#141=EDGE_LOOP('',(#828,#829,#830,#831));
#142=EDGE_LOOP('',(#832,#833,#834,#835));
#143=EDGE_LOOP('',(#836,#837,#838,#839));
#144=EDGE_LOOP('',(#840,#841,#842,#843));
#145=LINE('',#1256,#258);
#146=LINE('',#1258,#259);
#147=LINE('',#1260,#260);
#148=LINE('',#1261,#261);
#149=LINE('',#1264,#262);
#150=LINE('',#1266,#263);
#151=LINE('',#1267,#264);
#152=LINE('',#1270,#265);
#153=LINE('',#1272,#266);
#154=LINE('',#1273,#267);
#155=LINE('',#1275,#268);
#156=LINE('',#1276,#269);
#157=LINE('',#1281,#270);
#158=LINE('',#1283,#271);
#159=LINE('',#1285,#272);
#160=LINE('',#1286,#273);
#161=LINE('',#1289,#274);
#162=LINE('',#1291,#275);
#163=LINE('',#1292,#276);
#164=LINE('',#1295,#277);
#165=LINE('',#1297,#278);
#166=LINE('',#1298,#279);
#167=LINE('',#1300,#280);
#168=LINE('',#1301,#281);
#169=LINE('',#1306,#282);
#170=LINE('',#1308,#283);
#171=LINE('',#1310,#284);
#172=LINE('',#1311,#285);
#173=LINE('',#1314,#286);
#174=LINE('',#1316,#287);
#175=LINE('',#1317,#288);
#176=LINE('',#1320,#289);
#177=LINE('',#1322,#290);
#178=LINE('',#1323,#291);
#179=LINE('',#1325,#292);
#180=LINE('',#1326,#293);
#181=LINE('',#1331,#294);
#182=LINE('',#1333,#295);
#183=LINE('',#1335,#296);
#184=LINE('',#1336,#297);
#185=LINE('',#1339,#298);
#186=LINE('',#1341,#299);
#187=LINE('',#1342,#300);
#188=LINE('',#1345,#301);
#189=LINE('',#1347,#302);
#190=LINE('',#1348,#303);
#191=LINE('',#1350,#304);
#192=LINE('',#1351,#305);
#193=LINE('',#1358,#306);
#194=LINE('',#1361,#307);
#195=LINE('',#1366,#308);
#196=LINE('',#1370,#309);
#197=LINE('',#1372,#310);
#198=LINE('',#1374,#311);
#199=LINE('',#1376,#312);
#200=LINE('',#1378,#313);
#201=LINE('',#1380,#314);
#202=LINE('',#1382,#315);
#203=LINE('',#1384,#316);
#204=LINE('',#1386,#317);
#205=LINE('',#1388,#318);
#206=LINE('',#1390,#319);
#207=LINE('',#1392,#320);
#208=LINE('',#1394,#321);
#209=LINE('',#1396,#322);
#210=LINE('',#1398,#323);
#211=LINE('',#1400,#324);
#212=LINE('',#1402,#325);
#213=LINE('',#1404,#326);
#214=LINE('',#1406,#327);
#215=LINE('',#1411,#328);
#216=LINE('',#1414,#329);
#217=LINE('',#1415,#330);
#218=LINE('',#1429,#331);
#219=LINE('',#1433,#332);
#220=LINE('',#1437,#333);
#221=LINE('',#1441,#334);
#222=LINE('',#1444,#335);
#223=LINE('',#1456,#336);
#224=LINE('',#1459,#337);
#225=LINE('',#1460,#338);
#226=LINE('',#1464,#339);
#227=LINE('',#1468,#340);
#228=LINE('',#1469,#341);
#229=LINE('',#1470,#342);
#230=LINE('',#1473,#343);
#231=LINE('',#1476,#344);
#232=LINE('',#1478,#345);
#233=LINE('',#1481,#346);
#234=LINE('',#1482,#347);
#235=LINE('',#1484,#348);
#236=LINE('',#1485,#349);
#237=LINE('',#1487,#350);
#238=LINE('',#1488,#351);
#239=LINE('',#1490,#352);
#240=LINE('',#1491,#353);
#241=LINE('',#1494,#354);
#242=LINE('',#1495,#355);
#243=LINE('',#1499,#356);
#244=LINE('',#1500,#357);
#245=LINE('',#1501,#358);
#246=LINE('',#1503,#359);
#247=LINE('',#1506,#360);
#248=LINE('',#1507,#361);
#249=LINE('',#1510,#362);
#250=LINE('',#1511,#363);
#251=LINE('',#1513,#364);
#252=LINE('',#1516,#365);
#253=LINE('',#1517,#366);
#254=LINE('',#1520,#367);
#255=LINE('',#1521,#368);
#256=LINE('',#1523,#369);
#257=LINE('',#1525,#370);
#258=VECTOR('',#1015,10.);
#259=VECTOR('',#1016,10.);
#260=VECTOR('',#1017,10.);
#261=VECTOR('',#1018,10.);
#262=VECTOR('',#1021,10.);
#263=VECTOR('',#1022,10.);
#264=VECTOR('',#1023,10.);
#265=VECTOR('',#1026,10.);
#266=VECTOR('',#1027,10.);
#267=VECTOR('',#1028,10.);
#268=VECTOR('',#1031,10.);
#269=VECTOR('',#1032,10.);
#270=VECTOR('',#1037,10.);
#271=VECTOR('',#1038,10.);
#272=VECTOR('',#1039,10.);
#273=VECTOR('',#1040,10.);
#274=VECTOR('',#1043,10.);
#275=VECTOR('',#1044,10.);
#276=VECTOR('',#1045,10.);
#277=VECTOR('',#1048,10.);
#278=VECTOR('',#1049,10.);
#279=VECTOR('',#1050,10.);
#280=VECTOR('',#1053,10.);
#281=VECTOR('',#1054,10.);
#282=VECTOR('',#1059,10.);
#283=VECTOR('',#1060,10.);
#284=VECTOR('',#1061,10.);
#285=VECTOR('',#1062,10.);
#286=VECTOR('',#1065,10.);
#287=VECTOR('',#1066,10.);
#288=VECTOR('',#1067,10.);
#289=VECTOR('',#1070,10.);
#290=VECTOR('',#1071,10.);
#291=VECTOR('',#1072,10.);
#292=VECTOR('',#1075,10.);
#293=VECTOR('',#1076,10.);
#294=VECTOR('',#1081,10.);
#295=VECTOR('',#1082,10.);
#296=VECTOR('',#1083,10.);
#297=VECTOR('',#1084,10.);
#298=VECTOR('',#1087,10.);
#299=VECTOR('',#1088,10.);
#300=VECTOR('',#1089,10.);
#301=VECTOR('',#1092,10.);
#302=VECTOR('',#1093,10.);
#303=VECTOR('',#1094,10.);
#304=VECTOR('',#1097,10.);
#305=VECTOR('',#1098,10.);
#306=VECTOR('',#1105,10.);
#307=VECTOR('',#1108,10.);
#308=VECTOR('',#1113,10.);
#309=VECTOR('',#1118,10.);
#310=VECTOR('',#1119,10.);
#311=VECTOR('',#1120,10.);
#312=VECTOR('',#1121,10.);
#313=VECTOR('',#1122,10.);
#314=VECTOR('',#1123,10.);
#315=VECTOR('',#1124,10.);
#316=VECTOR('',#1125,10.);
#317=VECTOR('',#1126,10.);
#318=VECTOR('',#1127,10.);
#319=VECTOR('',#1128,10.);
#320=VECTOR('',#1129,10.);
#321=VECTOR('',#1130,10.);
#322=VECTOR('',#1131,10.);
#323=VECTOR('',#1132,10.);
#324=VECTOR('',#1133,10.);
#325=VECTOR('',#1134,10.);
#326=VECTOR('',#1135,10.);
#327=VECTOR('',#1136,10.);
#328=VECTOR('',#1143,10.);
#329=VECTOR('',#1146,10.);
#330=VECTOR('',#1147,10.);
#331=VECTOR('',#1152,10.);
#332=VECTOR('',#1157,10.);
#333=VECTOR('',#1160,10.);
#334=VECTOR('',#1163,10.);
#335=VECTOR('',#1166,10.);
#336=VECTOR('',#1171,10.);
#337=VECTOR('',#1174,10.);
#338=VECTOR('',#1175,10.);
#339=VECTOR('',#1180,10.);
#340=VECTOR('',#1183,10.);
#341=VECTOR('',#1184,10.);
#342=VECTOR('',#1185,10.);
#343=VECTOR('',#1188,10.);
#344=VECTOR('',#1191,10.);
#345=VECTOR('',#1194,10.);
#346=VECTOR('',#1197,10.);
#347=VECTOR('',#1198,10.);
#348=VECTOR('',#1199,10.);
#349=VECTOR('',#1200,10.);
#350=VECTOR('',#1201,10.);
#351=VECTOR('',#1202,10.);
#352=VECTOR('',#1203,10.);
#353=VECTOR('',#1204,10.);
#354=VECTOR('',#1207,10.);
#355=VECTOR('',#1208,10.);
#356=VECTOR('',#1211,10.);
#357=VECTOR('',#1212,10.);
#358=VECTOR('',#1213,10.);
#359=VECTOR('',#1216,10.);
#360=VECTOR('',#1219,10.);
#361=VECTOR('',#1220,10.);
#362=VECTOR('',#1223,10.);
#363=VECTOR('',#1224,10.);
#364=VECTOR('',#1227,10.);
#365=VECTOR('',#1230,10.);
#366=VECTOR('',#1231,10.);
#367=VECTOR('',#1234,10.);
#368=VECTOR('',#1235,10.);
#369=VECTOR('',#1238,10.);
#370=VECTOR('',#1241,10.);
#371=VERTEX_POINT('',#1254);
#372=VERTEX_POINT('',#1255);
#373=VERTEX_POINT('',#1257);
#374=VERTEX_POINT('',#1259);
#375=VERTEX_POINT('',#1263);
#376=VERTEX_POINT('',#1265);
#377=VERTEX_POINT('',#1269);
#378=VERTEX_POINT('',#1271);
#379=VERTEX_POINT('',#1279);
#380=VERTEX_POINT('',#1280);
#381=VERTEX_POINT('',#1282);
#382=VERTEX_POINT('',#1284);
#383=VERTEX_POINT('',#1288);
#384=VERTEX_POINT('',#1290);
#385=VERTEX_POINT('',#1294);
#386=VERTEX_POINT('',#1296);
#387=VERTEX_POINT('',#1304);
#388=VERTEX_POINT('',#1305);
#389=VERTEX_POINT('',#1307);
#390=VERTEX_POINT('',#1309);
#391=VERTEX_POINT('',#1313);
#392=VERTEX_POINT('',#1315);
#393=VERTEX_POINT('',#1319);
#394=VERTEX_POINT('',#1321);
#395=VERTEX_POINT('',#1329);
#396=VERTEX_POINT('',#1330);
#397=VERTEX_POINT('',#1332);
#398=VERTEX_POINT('',#1334);
#399=VERTEX_POINT('',#1338);
#400=VERTEX_POINT('',#1340);
#401=VERTEX_POINT('',#1344);
#402=VERTEX_POINT('',#1346);
#403=VERTEX_POINT('',#1354);
#404=VERTEX_POINT('',#1355);
#405=VERTEX_POINT('',#1357);
#406=VERTEX_POINT('',#1359);
#407=VERTEX_POINT('',#1363);
#408=VERTEX_POINT('',#1365);
#409=VERTEX_POINT('',#1369);
#410=VERTEX_POINT('',#1371);
#411=VERTEX_POINT('',#1373);
#412=VERTEX_POINT('',#1375);
#413=VERTEX_POINT('',#1377);
#414=VERTEX_POINT('',#1379);
#415=VERTEX_POINT('',#1381);
#416=VERTEX_POINT('',#1383);
#417=VERTEX_POINT('',#1385);
#418=VERTEX_POINT('',#1387);
#419=VERTEX_POINT('',#1389);
#420=VERTEX_POINT('',#1391);
#421=VERTEX_POINT('',#1393);
#422=VERTEX_POINT('',#1395);
#423=VERTEX_POINT('',#1397);
#424=VERTEX_POINT('',#1399);
#425=VERTEX_POINT('',#1401);
#426=VERTEX_POINT('',#1403);
#427=VERTEX_POINT('',#1405);
#428=VERTEX_POINT('',#1409);
#429=VERTEX_POINT('',#1413);
#430=VERTEX_POINT('',#1417);
#431=VERTEX_POINT('',#1426);
#432=VERTEX_POINT('',#1428);
#433=VERTEX_POINT('',#1432);
#434=VERTEX_POINT('',#1434);
#435=VERTEX_POINT('',#1436);
#436=VERTEX_POINT('',#1438);
#437=VERTEX_POINT('',#1440);
#438=VERTEX_POINT('',#1442);
#439=VERTEX_POINT('',#1454);
#440=VERTEX_POINT('',#1458);
#441=VERTEX_POINT('',#1462);
#442=VERTEX_POINT('',#1466);
#443=VERTEX_POINT('',#1467);
#444=VERTEX_POINT('',#1472);
#445=VERTEX_POINT('',#1474);
#446=VERTEX_POINT('',#1480);
#447=VERTEX_POINT('',#1483);
#448=VERTEX_POINT('',#1486);
#449=VERTEX_POINT('',#1489);
#450=VERTEX_POINT('',#1493);
#451=VERTEX_POINT('',#1497);
#452=VERTEX_POINT('',#1498);
#453=VERTEX_POINT('',#1505);
#454=VERTEX_POINT('',#1509);
#455=VERTEX_POINT('',#1515);
#456=VERTEX_POINT('',#1519);
#457=EDGE_CURVE('',#371,#372,#145,.T.);
#458=EDGE_CURVE('',#373,#372,#146,.T.);
#459=EDGE_CURVE('',#374,#373,#147,.T.);
#460=EDGE_CURVE('',#374,#371,#148,.T.);
#461=EDGE_CURVE('',#372,#375,#149,.T.);
#462=EDGE_CURVE('',#376,#375,#150,.T.);
#463=EDGE_CURVE('',#373,#376,#151,.T.);
#464=EDGE_CURVE('',#375,#377,#152,.T.);
#465=EDGE_CURVE('',#378,#377,#153,.T.);
#466=EDGE_CURVE('',#376,#378,#154,.T.);
#467=EDGE_CURVE('',#377,#371,#155,.T.);
#468=EDGE_CURVE('',#378,#374,#156,.T.);
#469=EDGE_CURVE('',#379,#380,#157,.T.);
#470=EDGE_CURVE('',#381,#380,#158,.T.);
#471=EDGE_CURVE('',#382,#381,#159,.T.);
#472=EDGE_CURVE('',#382,#379,#160,.T.);
#473=EDGE_CURVE('',#380,#383,#161,.T.);
#474=EDGE_CURVE('',#384,#383,#162,.T.);
#475=EDGE_CURVE('',#381,#384,#163,.T.);
#476=EDGE_CURVE('',#383,#385,#164,.T.);
#477=EDGE_CURVE('',#386,#385,#165,.T.);
#478=EDGE_CURVE('',#384,#386,#166,.T.);
#479=EDGE_CURVE('',#385,#379,#167,.T.);
#480=EDGE_CURVE('',#386,#382,#168,.T.);
#481=EDGE_CURVE('',#387,#388,#169,.T.);
#482=EDGE_CURVE('',#389,#388,#170,.T.);
#483=EDGE_CURVE('',#390,#389,#171,.T.);
#484=EDGE_CURVE('',#390,#387,#172,.T.);
#485=EDGE_CURVE('',#388,#391,#173,.T.);
#486=EDGE_CURVE('',#392,#391,#174,.T.);
#487=EDGE_CURVE('',#389,#392,#175,.T.);
#488=EDGE_CURVE('',#391,#393,#176,.T.);
#489=EDGE_CURVE('',#394,#393,#177,.T.);
#490=EDGE_CURVE('',#392,#394,#178,.T.);
#491=EDGE_CURVE('',#393,#387,#179,.T.);
#492=EDGE_CURVE('',#394,#390,#180,.T.);
#493=EDGE_CURVE('',#395,#396,#181,.T.);
#494=EDGE_CURVE('',#397,#396,#182,.T.);
#495=EDGE_CURVE('',#398,#397,#183,.T.);
#496=EDGE_CURVE('',#398,#395,#184,.T.);
#497=EDGE_CURVE('',#396,#399,#185,.T.);
#498=EDGE_CURVE('',#400,#399,#186,.T.);
#499=EDGE_CURVE('',#397,#400,#187,.T.);
#500=EDGE_CURVE('',#399,#401,#188,.T.);
#501=EDGE_CURVE('',#402,#401,#189,.T.);
#502=EDGE_CURVE('',#400,#402,#190,.T.);
#503=EDGE_CURVE('',#401,#395,#191,.T.);
#504=EDGE_CURVE('',#402,#398,#192,.T.);
#505=EDGE_CURVE('',#403,#404,#21,.T.);
#506=EDGE_CURVE('',#404,#405,#193,.T.);
#507=EDGE_CURVE('',#405,#406,#22,.T.);
#508=EDGE_CURVE('',#406,#403,#194,.T.);
#509=EDGE_CURVE('',#407,#404,#23,.T.);
#510=EDGE_CURVE('',#408,#407,#195,.T.);
#511=EDGE_CURVE('',#405,#408,#24,.T.);
#512=EDGE_CURVE('',#403,#409,#196,.T.);
#513=EDGE_CURVE('',#409,#410,#197,.F.);
#514=EDGE_CURVE('',#410,#411,#198,.T.);
#515=EDGE_CURVE('',#412,#411,#199,.F.);
#516=EDGE_CURVE('',#412,#413,#200,.T.);
#517=EDGE_CURVE('',#413,#414,#201,.T.);
#518=EDGE_CURVE('',#415,#414,#202,.T.);
#519=EDGE_CURVE('',#416,#415,#203,.T.);
#520=EDGE_CURVE('',#417,#416,#204,.T.);
#521=EDGE_CURVE('',#417,#418,#205,.T.);
#522=EDGE_CURVE('',#418,#419,#206,.T.);
#523=EDGE_CURVE('',#420,#419,#207,.T.);
#524=EDGE_CURVE('',#420,#421,#208,.T.);
#525=EDGE_CURVE('',#421,#422,#209,.T.);
#526=EDGE_CURVE('',#422,#423,#210,.T.);
#527=EDGE_CURVE('',#424,#423,#211,.F.);
#528=EDGE_CURVE('',#424,#425,#212,.T.);
#529=EDGE_CURVE('',#425,#426,#213,.F.);
#530=EDGE_CURVE('',#426,#427,#214,.T.);
#531=EDGE_CURVE('',#407,#427,#25,.T.);
#532=EDGE_CURVE('',#428,#408,#26,.T.);
#533=EDGE_CURVE('',#427,#428,#215,.T.);
#534=EDGE_CURVE('',#429,#426,#216,.F.);
#535=EDGE_CURVE('',#428,#429,#217,.T.);
#536=EDGE_CURVE('',#418,#430,#15,.T.);
#537=EDGE_CURVE('',#431,#430,#27,.T.);
#538=EDGE_CURVE('',#431,#432,#218,.T.);
#539=EDGE_CURVE('',#419,#432,#28,.F.);
#540=EDGE_CURVE('',#433,#430,#219,.T.);
#541=EDGE_CURVE('',#433,#434,#29,.T.);
#542=EDGE_CURVE('',#435,#434,#220,.T.);
#543=EDGE_CURVE('',#435,#436,#30,.T.);
#544=EDGE_CURVE('',#436,#437,#221,.T.);
#545=EDGE_CURVE('',#437,#438,#31,.T.);
#546=EDGE_CURVE('',#431,#438,#222,.T.);
#547=EDGE_CURVE('',#433,#417,#16,.T.);
#548=EDGE_CURVE('',#439,#416,#32,.F.);
#549=EDGE_CURVE('',#434,#439,#223,.T.);
#550=EDGE_CURVE('',#440,#439,#224,.F.);
#551=EDGE_CURVE('',#435,#440,#225,.T.);
#552=EDGE_CURVE('',#441,#440,#33,.F.);
#553=EDGE_CURVE('',#436,#441,#226,.T.);
#554=EDGE_CURVE('',#442,#443,#227,.T.);
#555=EDGE_CURVE('',#442,#415,#228,.T.);
#556=EDGE_CURVE('',#414,#443,#229,.T.);
#557=EDGE_CURVE('',#437,#444,#230,.T.);
#558=EDGE_CURVE('',#445,#444,#34,.F.);
#559=EDGE_CURVE('',#438,#445,#231,.T.);
#560=EDGE_CURVE('',#432,#445,#232,.F.);
#561=EDGE_CURVE('',#420,#446,#233,.T.);
#562=EDGE_CURVE('',#444,#441,#234,.T.);
#563=EDGE_CURVE('',#447,#442,#235,.F.);
#564=EDGE_CURVE('',#447,#410,#236,.F.);
#565=EDGE_CURVE('',#448,#409,#237,.T.);
#566=EDGE_CURVE('',#429,#448,#238,.F.);
#567=EDGE_CURVE('',#449,#425,#239,.T.);
#568=EDGE_CURVE('',#446,#449,#240,.F.);
#569=EDGE_CURVE('',#450,#446,#241,.T.);
#570=EDGE_CURVE('',#450,#421,#242,.T.);
#571=EDGE_CURVE('',#451,#452,#243,.T.);
#572=EDGE_CURVE('',#423,#451,#244,.F.);
#573=EDGE_CURVE('',#452,#422,#245,.T.);
#574=EDGE_CURVE('',#452,#450,#246,.T.);
#575=EDGE_CURVE('',#453,#443,#247,.T.);
#576=EDGE_CURVE('',#453,#413,#248,.T.);
#577=EDGE_CURVE('',#454,#453,#249,.T.);
#578=EDGE_CURVE('',#454,#412,#250,.F.);
#579=EDGE_CURVE('',#448,#406,#251,.T.);
#580=EDGE_CURVE('',#455,#447,#252,.T.);
#581=EDGE_CURVE('',#411,#455,#253,.T.);
#582=EDGE_CURVE('',#456,#424,#254,.T.);
#583=EDGE_CURVE('',#449,#456,#255,.T.);
#584=EDGE_CURVE('',#456,#451,#256,.F.);
#585=EDGE_CURVE('',#454,#455,#257,.F.);
#586=ORIENTED_EDGE('',*,*,#457,.T.);
#587=ORIENTED_EDGE('',*,*,#458,.F.);
#588=ORIENTED_EDGE('',*,*,#459,.F.);
#589=ORIENTED_EDGE('',*,*,#460,.T.);
#590=ORIENTED_EDGE('',*,*,#461,.T.);
#591=ORIENTED_EDGE('',*,*,#462,.F.);
#592=ORIENTED_EDGE('',*,*,#463,.F.);
#593=ORIENTED_EDGE('',*,*,#458,.T.);
#594=ORIENTED_EDGE('',*,*,#464,.T.);
#595=ORIENTED_EDGE('',*,*,#465,.F.);
#596=ORIENTED_EDGE('',*,*,#466,.F.);
#597=ORIENTED_EDGE('',*,*,#462,.T.);
#598=ORIENTED_EDGE('',*,*,#467,.T.);
#599=ORIENTED_EDGE('',*,*,#460,.F.);
#600=ORIENTED_EDGE('',*,*,#468,.F.);
#601=ORIENTED_EDGE('',*,*,#465,.T.);
#602=ORIENTED_EDGE('',*,*,#457,.F.);
#603=ORIENTED_EDGE('',*,*,#467,.F.);
#604=ORIENTED_EDGE('',*,*,#464,.F.);
#605=ORIENTED_EDGE('',*,*,#461,.F.);
#606=ORIENTED_EDGE('',*,*,#469,.T.);
#607=ORIENTED_EDGE('',*,*,#470,.F.);
#608=ORIENTED_EDGE('',*,*,#471,.F.);
#609=ORIENTED_EDGE('',*,*,#472,.T.);
#610=ORIENTED_EDGE('',*,*,#473,.T.);
#611=ORIENTED_EDGE('',*,*,#474,.F.);
#612=ORIENTED_EDGE('',*,*,#475,.F.);
#613=ORIENTED_EDGE('',*,*,#470,.T.);
#614=ORIENTED_EDGE('',*,*,#476,.T.);
#615=ORIENTED_EDGE('',*,*,#477,.F.);
#616=ORIENTED_EDGE('',*,*,#478,.F.);
#617=ORIENTED_EDGE('',*,*,#474,.T.);
#618=ORIENTED_EDGE('',*,*,#479,.T.);
#619=ORIENTED_EDGE('',*,*,#472,.F.);
#620=ORIENTED_EDGE('',*,*,#480,.F.);
#621=ORIENTED_EDGE('',*,*,#477,.T.);
#622=ORIENTED_EDGE('',*,*,#469,.F.);
#623=ORIENTED_EDGE('',*,*,#479,.F.);
#624=ORIENTED_EDGE('',*,*,#476,.F.);
#625=ORIENTED_EDGE('',*,*,#473,.F.);
#626=ORIENTED_EDGE('',*,*,#481,.T.);
#627=ORIENTED_EDGE('',*,*,#482,.F.);
#628=ORIENTED_EDGE('',*,*,#483,.F.);
#629=ORIENTED_EDGE('',*,*,#484,.T.);
#630=ORIENTED_EDGE('',*,*,#485,.T.);
#631=ORIENTED_EDGE('',*,*,#486,.F.);
#632=ORIENTED_EDGE('',*,*,#487,.F.);
#633=ORIENTED_EDGE('',*,*,#482,.T.);
#634=ORIENTED_EDGE('',*,*,#488,.T.);
#635=ORIENTED_EDGE('',*,*,#489,.F.);
#636=ORIENTED_EDGE('',*,*,#490,.F.);
#637=ORIENTED_EDGE('',*,*,#486,.T.);
#638=ORIENTED_EDGE('',*,*,#491,.T.);
#639=ORIENTED_EDGE('',*,*,#484,.F.);
#640=ORIENTED_EDGE('',*,*,#492,.F.);
#641=ORIENTED_EDGE('',*,*,#489,.T.);
#642=ORIENTED_EDGE('',*,*,#481,.F.);
#643=ORIENTED_EDGE('',*,*,#491,.F.);
#644=ORIENTED_EDGE('',*,*,#488,.F.);
#645=ORIENTED_EDGE('',*,*,#485,.F.);
#646=ORIENTED_EDGE('',*,*,#493,.T.);
#647=ORIENTED_EDGE('',*,*,#494,.F.);
#648=ORIENTED_EDGE('',*,*,#495,.F.);
#649=ORIENTED_EDGE('',*,*,#496,.T.);
#650=ORIENTED_EDGE('',*,*,#497,.T.);
#651=ORIENTED_EDGE('',*,*,#498,.F.);
#652=ORIENTED_EDGE('',*,*,#499,.F.);
#653=ORIENTED_EDGE('',*,*,#494,.T.);
#654=ORIENTED_EDGE('',*,*,#500,.T.);
#655=ORIENTED_EDGE('',*,*,#501,.F.);
#656=ORIENTED_EDGE('',*,*,#502,.F.);
#657=ORIENTED_EDGE('',*,*,#498,.T.);
#658=ORIENTED_EDGE('',*,*,#503,.T.);
#659=ORIENTED_EDGE('',*,*,#496,.F.);
#660=ORIENTED_EDGE('',*,*,#504,.F.);
#661=ORIENTED_EDGE('',*,*,#501,.T.);
#662=ORIENTED_EDGE('',*,*,#493,.F.);
#663=ORIENTED_EDGE('',*,*,#503,.F.);
#664=ORIENTED_EDGE('',*,*,#500,.F.);
#665=ORIENTED_EDGE('',*,*,#497,.F.);
#666=ORIENTED_EDGE('',*,*,#505,.T.);
#667=ORIENTED_EDGE('',*,*,#506,.T.);
#668=ORIENTED_EDGE('',*,*,#507,.T.);
#669=ORIENTED_EDGE('',*,*,#508,.T.);
#670=ORIENTED_EDGE('',*,*,#506,.F.);
#671=ORIENTED_EDGE('',*,*,#509,.F.);
#672=ORIENTED_EDGE('',*,*,#510,.F.);
#673=ORIENTED_EDGE('',*,*,#511,.F.);
#674=ORIENTED_EDGE('',*,*,#505,.F.);
#675=ORIENTED_EDGE('',*,*,#512,.T.);
#676=ORIENTED_EDGE('',*,*,#513,.T.);
#677=ORIENTED_EDGE('',*,*,#514,.T.);
#678=ORIENTED_EDGE('',*,*,#515,.F.);
#679=ORIENTED_EDGE('',*,*,#516,.T.);
#680=ORIENTED_EDGE('',*,*,#517,.T.);
#681=ORIENTED_EDGE('',*,*,#518,.F.);
#682=ORIENTED_EDGE('',*,*,#519,.F.);
#683=ORIENTED_EDGE('',*,*,#520,.F.);
#684=ORIENTED_EDGE('',*,*,#521,.T.);
#685=ORIENTED_EDGE('',*,*,#522,.T.);
#686=ORIENTED_EDGE('',*,*,#523,.F.);
#687=ORIENTED_EDGE('',*,*,#524,.T.);
#688=ORIENTED_EDGE('',*,*,#525,.T.);
#689=ORIENTED_EDGE('',*,*,#526,.T.);
#690=ORIENTED_EDGE('',*,*,#527,.F.);
#691=ORIENTED_EDGE('',*,*,#528,.T.);
#692=ORIENTED_EDGE('',*,*,#529,.T.);
#693=ORIENTED_EDGE('',*,*,#530,.T.);
#694=ORIENTED_EDGE('',*,*,#531,.F.);
#695=ORIENTED_EDGE('',*,*,#509,.T.);
#696=ORIENTED_EDGE('',*,*,#459,.T.);
#697=ORIENTED_EDGE('',*,*,#463,.T.);
#698=ORIENTED_EDGE('',*,*,#466,.T.);
#699=ORIENTED_EDGE('',*,*,#468,.T.);
#700=ORIENTED_EDGE('',*,*,#471,.T.);
#701=ORIENTED_EDGE('',*,*,#475,.T.);
#702=ORIENTED_EDGE('',*,*,#478,.T.);
#703=ORIENTED_EDGE('',*,*,#480,.T.);
#704=ORIENTED_EDGE('',*,*,#532,.T.);
#705=ORIENTED_EDGE('',*,*,#510,.T.);
#706=ORIENTED_EDGE('',*,*,#531,.T.);
#707=ORIENTED_EDGE('',*,*,#533,.T.);
#708=ORIENTED_EDGE('',*,*,#533,.F.);
#709=ORIENTED_EDGE('',*,*,#530,.F.);
#710=ORIENTED_EDGE('',*,*,#534,.F.);
#711=ORIENTED_EDGE('',*,*,#535,.F.);
#712=ORIENTED_EDGE('',*,*,#536,.T.);
#713=ORIENTED_EDGE('',*,*,#537,.F.);
#714=ORIENTED_EDGE('',*,*,#538,.T.);
#715=ORIENTED_EDGE('',*,*,#539,.F.);
#716=ORIENTED_EDGE('',*,*,#522,.F.);
#717=ORIENTED_EDGE('',*,*,#540,.F.);
#718=ORIENTED_EDGE('',*,*,#541,.T.);
#719=ORIENTED_EDGE('',*,*,#542,.F.);
#720=ORIENTED_EDGE('',*,*,#543,.T.);
#721=ORIENTED_EDGE('',*,*,#544,.T.);
#722=ORIENTED_EDGE('',*,*,#545,.T.);
#723=ORIENTED_EDGE('',*,*,#546,.F.);
#724=ORIENTED_EDGE('',*,*,#537,.T.);
#725=ORIENTED_EDGE('',*,*,#547,.T.);
#726=ORIENTED_EDGE('',*,*,#520,.T.);
#727=ORIENTED_EDGE('',*,*,#548,.F.);
#728=ORIENTED_EDGE('',*,*,#549,.F.);
#729=ORIENTED_EDGE('',*,*,#541,.F.);
#730=ORIENTED_EDGE('',*,*,#542,.T.);
#731=ORIENTED_EDGE('',*,*,#549,.T.);
#732=ORIENTED_EDGE('',*,*,#550,.F.);
#733=ORIENTED_EDGE('',*,*,#551,.F.);
#734=ORIENTED_EDGE('',*,*,#543,.F.);
#735=ORIENTED_EDGE('',*,*,#551,.T.);
#736=ORIENTED_EDGE('',*,*,#552,.F.);
#737=ORIENTED_EDGE('',*,*,#553,.F.);
#738=ORIENTED_EDGE('',*,*,#554,.F.);
#739=ORIENTED_EDGE('',*,*,#555,.T.);
#740=ORIENTED_EDGE('',*,*,#518,.T.);
#741=ORIENTED_EDGE('',*,*,#556,.T.);
#742=ORIENTED_EDGE('',*,*,#545,.F.);
#743=ORIENTED_EDGE('',*,*,#557,.T.);
#744=ORIENTED_EDGE('',*,*,#558,.F.);
#745=ORIENTED_EDGE('',*,*,#559,.F.);
#746=ORIENTED_EDGE('',*,*,#546,.T.);
#747=ORIENTED_EDGE('',*,*,#559,.T.);
#748=ORIENTED_EDGE('',*,*,#560,.F.);
#749=ORIENTED_EDGE('',*,*,#538,.F.);
#750=ORIENTED_EDGE('',*,*,#561,.F.);
#751=ORIENTED_EDGE('',*,*,#523,.T.);
#752=ORIENTED_EDGE('',*,*,#539,.T.);
#753=ORIENTED_EDGE('',*,*,#560,.T.);
#754=ORIENTED_EDGE('',*,*,#558,.T.);
#755=ORIENTED_EDGE('',*,*,#562,.T.);
#756=ORIENTED_EDGE('',*,*,#552,.T.);
#757=ORIENTED_EDGE('',*,*,#550,.T.);
#758=ORIENTED_EDGE('',*,*,#548,.T.);
#759=ORIENTED_EDGE('',*,*,#519,.T.);
#760=ORIENTED_EDGE('',*,*,#555,.F.);
#761=ORIENTED_EDGE('',*,*,#563,.F.);
#762=ORIENTED_EDGE('',*,*,#564,.T.);
#763=ORIENTED_EDGE('',*,*,#513,.F.);
#764=ORIENTED_EDGE('',*,*,#565,.F.);
#765=ORIENTED_EDGE('',*,*,#566,.F.);
#766=ORIENTED_EDGE('',*,*,#534,.T.);
#767=ORIENTED_EDGE('',*,*,#529,.F.);
#768=ORIENTED_EDGE('',*,*,#567,.F.);
#769=ORIENTED_EDGE('',*,*,#568,.F.);
#770=ORIENTED_EDGE('',*,*,#561,.T.);
#771=ORIENTED_EDGE('',*,*,#569,.F.);
#772=ORIENTED_EDGE('',*,*,#570,.T.);
#773=ORIENTED_EDGE('',*,*,#524,.F.);
#774=ORIENTED_EDGE('',*,*,#571,.F.);
#775=ORIENTED_EDGE('',*,*,#572,.F.);
#776=ORIENTED_EDGE('',*,*,#526,.F.);
#777=ORIENTED_EDGE('',*,*,#573,.F.);
#778=ORIENTED_EDGE('',*,*,#574,.F.);
#779=ORIENTED_EDGE('',*,*,#573,.T.);
#780=ORIENTED_EDGE('',*,*,#525,.F.);
#781=ORIENTED_EDGE('',*,*,#570,.F.);
#782=ORIENTED_EDGE('',*,*,#575,.T.);
#783=ORIENTED_EDGE('',*,*,#556,.F.);
#784=ORIENTED_EDGE('',*,*,#517,.F.);
#785=ORIENTED_EDGE('',*,*,#576,.F.);
#786=ORIENTED_EDGE('',*,*,#577,.T.);
#787=ORIENTED_EDGE('',*,*,#576,.T.);
#788=ORIENTED_EDGE('',*,*,#516,.F.);
#789=ORIENTED_EDGE('',*,*,#578,.F.);
#790=ORIENTED_EDGE('',*,*,#508,.F.);
#791=ORIENTED_EDGE('',*,*,#579,.F.);
#792=ORIENTED_EDGE('',*,*,#565,.T.);
#793=ORIENTED_EDGE('',*,*,#512,.F.);
#794=ORIENTED_EDGE('',*,*,#514,.F.);
#795=ORIENTED_EDGE('',*,*,#564,.F.);
#796=ORIENTED_EDGE('',*,*,#580,.F.);
#797=ORIENTED_EDGE('',*,*,#581,.F.);
#798=ORIENTED_EDGE('',*,*,#528,.F.);
#799=ORIENTED_EDGE('',*,*,#582,.F.);
#800=ORIENTED_EDGE('',*,*,#583,.F.);
#801=ORIENTED_EDGE('',*,*,#567,.T.);
#802=ORIENTED_EDGE('',*,*,#569,.T.);
#803=ORIENTED_EDGE('',*,*,#568,.T.);
#804=ORIENTED_EDGE('',*,*,#583,.T.);
#805=ORIENTED_EDGE('',*,*,#584,.T.);
#806=ORIENTED_EDGE('',*,*,#571,.T.);
#807=ORIENTED_EDGE('',*,*,#574,.T.);
#808=ORIENTED_EDGE('',*,*,#554,.T.);
#809=ORIENTED_EDGE('',*,*,#575,.F.);
#810=ORIENTED_EDGE('',*,*,#577,.F.);
#811=ORIENTED_EDGE('',*,*,#585,.T.);
#812=ORIENTED_EDGE('',*,*,#580,.T.);
#813=ORIENTED_EDGE('',*,*,#563,.T.);
#814=ORIENTED_EDGE('',*,*,#507,.F.);
#815=ORIENTED_EDGE('',*,*,#511,.T.);
#816=ORIENTED_EDGE('',*,*,#532,.F.);
#817=ORIENTED_EDGE('',*,*,#535,.T.);
#818=ORIENTED_EDGE('',*,*,#566,.T.);
#819=ORIENTED_EDGE('',*,*,#579,.T.);
#820=ORIENTED_EDGE('',*,*,#582,.T.);
#821=ORIENTED_EDGE('',*,*,#527,.T.);
#822=ORIENTED_EDGE('',*,*,#572,.T.);
#823=ORIENTED_EDGE('',*,*,#584,.F.);
#824=ORIENTED_EDGE('',*,*,#581,.T.);
#825=ORIENTED_EDGE('',*,*,#585,.F.);
#826=ORIENTED_EDGE('',*,*,#578,.T.);
#827=ORIENTED_EDGE('',*,*,#515,.T.);
#828=ORIENTED_EDGE('',*,*,#562,.F.);
#829=ORIENTED_EDGE('',*,*,#557,.F.);
#830=ORIENTED_EDGE('',*,*,#544,.F.);
#831=ORIENTED_EDGE('',*,*,#553,.T.);
#832=ORIENTED_EDGE('',*,*,#483,.T.);
#833=ORIENTED_EDGE('',*,*,#487,.T.);
#834=ORIENTED_EDGE('',*,*,#490,.T.);
#835=ORIENTED_EDGE('',*,*,#492,.T.);
#836=ORIENTED_EDGE('',*,*,#495,.T.);
#837=ORIENTED_EDGE('',*,*,#499,.T.);
#838=ORIENTED_EDGE('',*,*,#502,.T.);
#839=ORIENTED_EDGE('',*,*,#504,.T.);
#840=ORIENTED_EDGE('',*,*,#521,.F.);
#841=ORIENTED_EDGE('',*,*,#547,.F.);
#842=ORIENTED_EDGE('',*,*,#540,.T.);
#843=ORIENTED_EDGE('',*,*,#536,.F.);
#844=PLANE('',#948);
#845=PLANE('',#949);
#846=PLANE('',#950);
#847=PLANE('',#951);
#848=PLANE('',#952);
#849=PLANE('',#953);
#850=PLANE('',#954);
#851=PLANE('',#955);
#852=PLANE('',#956);
#853=PLANE('',#957);
#854=PLANE('',#958);
#855=PLANE('',#959);
#856=PLANE('',#960);
#857=PLANE('',#961);
#858=PLANE('',#962);
#859=PLANE('',#963);
#860=PLANE('',#964);
#861=PLANE('',#965);
#862=PLANE('',#966);
#863=PLANE('',#967);
#864=PLANE('',#974);
#865=PLANE('',#978);
#866=PLANE('',#982);
#867=PLANE('',#988);
#868=PLANE('',#991);
#869=PLANE('',#994);
#870=PLANE('',#995);
#871=PLANE('',#996);
#872=PLANE('',#997);
#873=PLANE('',#998);
#874=PLANE('',#999);
#875=PLANE('',#1000);
#876=PLANE('',#1001);
#877=PLANE('',#1002);
#878=PLANE('',#1003);
#879=PLANE('',#1004);
#880=PLANE('',#1005);
#881=PLANE('',#1006);
#882=PLANE('',#1007);
#883=PLANE('',#1008);
#884=PLANE('',#1009);
#885=ADVANCED_FACE('',(#43),#844,.T.);
#886=ADVANCED_FACE('',(#44),#845,.T.);
#887=ADVANCED_FACE('',(#45),#846,.T.);
#888=ADVANCED_FACE('',(#46),#847,.T.);
#889=ADVANCED_FACE('',(#47),#848,.T.);
#890=ADVANCED_FACE('',(#48),#849,.T.);
#891=ADVANCED_FACE('',(#49),#850,.T.);
#892=ADVANCED_FACE('',(#50),#851,.T.);
#893=ADVANCED_FACE('',(#51),#852,.T.);
#894=ADVANCED_FACE('',(#52),#853,.T.);
#895=ADVANCED_FACE('',(#53),#854,.T.);
#896=ADVANCED_FACE('',(#54),#855,.T.);
#897=ADVANCED_FACE('',(#55),#856,.T.);
#898=ADVANCED_FACE('',(#56),#857,.T.);
#899=ADVANCED_FACE('',(#57),#858,.T.);
#900=ADVANCED_FACE('',(#58),#859,.T.);
#901=ADVANCED_FACE('',(#59),#860,.T.);
#902=ADVANCED_FACE('',(#60),#861,.T.);
#903=ADVANCED_FACE('',(#61),#862,.T.);
#904=ADVANCED_FACE('',(#62),#863,.T.);
#905=ADVANCED_FACE('',(#63),#35,.T.);
#906=ADVANCED_FACE('',(#64),#36,.F.);
#907=ADVANCED_FACE('',(#65,#17,#18),#864,.F.);
#908=ADVANCED_FACE('',(#66),#37,.T.);
#909=ADVANCED_FACE('',(#67),#865,.F.);
#910=ADVANCED_FACE('',(#68),#38,.T.);
#911=ADVANCED_FACE('',(#69),#866,.T.);
#912=ADVANCED_FACE('',(#70),#39,.T.);
#913=ADVANCED_FACE('',(#71),#867,.T.);
#914=ADVANCED_FACE('',(#72),#40,.T.);
#915=ADVANCED_FACE('',(#73),#868,.F.);
#916=ADVANCED_FACE('',(#74),#41,.T.);
#917=ADVANCED_FACE('',(#75),#869,.T.);
#918=ADVANCED_FACE('',(#76),#870,.F.);
#919=ADVANCED_FACE('',(#77),#871,.F.);
#920=ADVANCED_FACE('',(#78),#872,.T.);
#921=ADVANCED_FACE('',(#79),#873,.T.);
#922=ADVANCED_FACE('',(#80),#874,.T.);
#923=ADVANCED_FACE('',(#81),#875,.T.);
#924=ADVANCED_FACE('',(#82),#876,.F.);
#925=ADVANCED_FACE('',(#83),#877,.F.);
#926=ADVANCED_FACE('',(#84),#878,.F.);
#927=ADVANCED_FACE('',(#85),#879,.T.);
#928=ADVANCED_FACE('',(#86),#880,.T.);
#929=ADVANCED_FACE('',(#87),#881,.T.);
#930=ADVANCED_FACE('',(#88),#882,.T.);
#931=ADVANCED_FACE('',(#89),#883,.T.);
#932=ADVANCED_FACE('',(#90,#19,#20),#884,.F.);
#933=ADVANCED_FACE('',(#91),#42,.T.);
#934=CLOSED_SHELL('',(#885,#886,#887,#888,#889,#890,#891,#892,#893,#894,
#895,#896,#897,#898,#899,#900,#901,#902,#903,#904,#905,#906,#907,#908,#909,
#910,#911,#912,#913,#914,#915,#916,#917,#918,#919,#920,#921,#922,#923,#924,
#925,#926,#927,#928,#929,#930,#931,#932,#933));
#935=DERIVED_UNIT_ELEMENT(#937,1.);
#936=DERIVED_UNIT_ELEMENT(#1536,-3.);
#937=(
MASS_UNIT()
NAMED_UNIT(*)
SI_UNIT(.KILO.,.GRAM.)
);
#938=DERIVED_UNIT((#935,#936));
#939=MEASURE_REPRESENTATION_ITEM('density measure',
POSITIVE_RATIO_MEASURE(7850.),#938);
#940=PROPERTY_DEFINITION_REPRESENTATION(#945,#942);
#941=PROPERTY_DEFINITION_REPRESENTATION(#946,#943);
#942=REPRESENTATION('material name',(#944),#1533);
#943=REPRESENTATION('density',(#939),#1533);
#944=DESCRIPTIVE_REPRESENTATION_ITEM('\X2\92FC\X0\','\X2\92FC\X0\');
#945=PROPERTY_DEFINITION('material property','material name',#1543);
#946=PROPERTY_DEFINITION('material property','density of part',#1543);
#947=AXIS2_PLACEMENT_3D('',#1252,#1011,#1012);
#948=AXIS2_PLACEMENT_3D('',#1253,#1013,#1014);
#949=AXIS2_PLACEMENT_3D('',#1262,#1019,#1020);
#950=AXIS2_PLACEMENT_3D('',#1268,#1024,#1025);
#951=AXIS2_PLACEMENT_3D('',#1274,#1029,#1030);
#952=AXIS2_PLACEMENT_3D('',#1277,#1033,#1034);
#953=AXIS2_PLACEMENT_3D('',#1278,#1035,#1036);
#954=AXIS2_PLACEMENT_3D('',#1287,#1041,#1042);
#955=AXIS2_PLACEMENT_3D('',#1293,#1046,#1047);
#956=AXIS2_PLACEMENT_3D('',#1299,#1051,#1052);
#957=AXIS2_PLACEMENT_3D('',#1302,#1055,#1056);
#958=AXIS2_PLACEMENT_3D('',#1303,#1057,#1058);
#959=AXIS2_PLACEMENT_3D('',#1312,#1063,#1064);
#960=AXIS2_PLACEMENT_3D('',#1318,#1068,#1069);
#961=AXIS2_PLACEMENT_3D('',#1324,#1073,#1074);
#962=AXIS2_PLACEMENT_3D('',#1327,#1077,#1078);
#963=AXIS2_PLACEMENT_3D('',#1328,#1079,#1080);
#964=AXIS2_PLACEMENT_3D('',#1337,#1085,#1086);
#965=AXIS2_PLACEMENT_3D('',#1343,#1090,#1091);
#966=AXIS2_PLACEMENT_3D('',#1349,#1095,#1096);
#967=AXIS2_PLACEMENT_3D('',#1352,#1099,#1100);
#968=AXIS2_PLACEMENT_3D('',#1353,#1101,#1102);
#969=AXIS2_PLACEMENT_3D('',#1356,#1103,#1104);
#970=AXIS2_PLACEMENT_3D('',#1360,#1106,#1107);
#971=AXIS2_PLACEMENT_3D('',#1362,#1109,#1110);
#972=AXIS2_PLACEMENT_3D('',#1364,#1111,#1112);
#973=AXIS2_PLACEMENT_3D('',#1367,#1114,#1115);
#974=AXIS2_PLACEMENT_3D('',#1368,#1116,#1117);
#975=AXIS2_PLACEMENT_3D('',#1407,#1137,#1138);
#976=AXIS2_PLACEMENT_3D('',#1408,#1139,#1140);
#977=AXIS2_PLACEMENT_3D('',#1410,#1141,#1142);
#978=AXIS2_PLACEMENT_3D('',#1412,#1144,#1145);
#979=AXIS2_PLACEMENT_3D('',#1416,#1148,#1149);
#980=AXIS2_PLACEMENT_3D('',#1427,#1150,#1151);
#981=AXIS2_PLACEMENT_3D('',#1430,#1153,#1154);
#982=AXIS2_PLACEMENT_3D('',#1431,#1155,#1156);
#983=AXIS2_PLACEMENT_3D('',#1435,#1158,#1159);
#984=AXIS2_PLACEMENT_3D('',#1439,#1161,#1162);
#985=AXIS2_PLACEMENT_3D('',#1443,#1164,#1165);
#986=AXIS2_PLACEMENT_3D('',#1445,#1167,#1168);
#987=AXIS2_PLACEMENT_3D('',#1455,#1169,#1170);
#988=AXIS2_PLACEMENT_3D('',#1457,#1172,#1173);
#989=AXIS2_PLACEMENT_3D('',#1461,#1176,#1177);
#990=AXIS2_PLACEMENT_3D('',#1463,#1178,#1179);
#991=AXIS2_PLACEMENT_3D('',#1465,#1181,#1182);
#992=AXIS2_PLACEMENT_3D('',#1471,#1186,#1187);
#993=AXIS2_PLACEMENT_3D('',#1475,#1189,#1190);
#994=AXIS2_PLACEMENT_3D('',#1477,#1192,#1193);
#995=AXIS2_PLACEMENT_3D('',#1479,#1195,#1196);
#996=AXIS2_PLACEMENT_3D('',#1492,#1205,#1206);
#997=AXIS2_PLACEMENT_3D('',#1496,#1209,#1210);
#998=AXIS2_PLACEMENT_3D('',#1502,#1214,#1215);
#999=AXIS2_PLACEMENT_3D('',#1504,#1217,#1218);
#1000=AXIS2_PLACEMENT_3D('',#1508,#1221,#1222);
#1001=AXIS2_PLACEMENT_3D('',#1512,#1225,#1226);
#1002=AXIS2_PLACEMENT_3D('',#1514,#1228,#1229);
#1003=AXIS2_PLACEMENT_3D('',#1518,#1232,#1233);
#1004=AXIS2_PLACEMENT_3D('',#1522,#1236,#1237);
#1005=AXIS2_PLACEMENT_3D('',#1524,#1239,#1240);
#1006=AXIS2_PLACEMENT_3D('',#1526,#1242,#1243);
#1007=AXIS2_PLACEMENT_3D('',#1527,#1244,#1245);
#1008=AXIS2_PLACEMENT_3D('',#1528,#1246,#1247);
#1009=AXIS2_PLACEMENT_3D('',#1529,#1248,#1249);
#1010=AXIS2_PLACEMENT_3D('',#1530,#1250,#1251);
#1011=DIRECTION('axis',(0.,0.,1.));
#1012=DIRECTION('refdir',(1.,0.,0.));
#1013=DIRECTION('center_axis',(0.707106781186548,-0.707106781186548,0.));
#1014=DIRECTION('ref_axis',(0.,0.,1.));
#1015=DIRECTION('',(0.,0.,-1.));
#1016=DIRECTION('',(-0.57735026918963,-0.57735026918963,0.577350269189617));
#1017=DIRECTION('',(0.,0.,-1.));
#1018=DIRECTION('',(-0.57735026918963,-0.57735026918963,-0.577350269189617));
#1019=DIRECTION('center_axis',(0.,-0.70710678118654,-0.707106781186555));
#1020=DIRECTION('ref_axis',(1.,0.,0.));
#1021=DIRECTION('',(-1.,0.,0.));
#1022=DIRECTION('',(0.57735026918963,-0.57735026918963,0.577350269189617));
#1023=DIRECTION('',(-1.,0.,0.));
#1024=DIRECTION('center_axis',(-0.707106781186548,-0.707106781186548,0.));
#1025=DIRECTION('ref_axis',(0.,0.,-1.));
#1026=DIRECTION('',(0.,0.,1.));
#1027=DIRECTION('',(0.57735026918963,-0.57735026918963,-0.577350269189617));
#1028=DIRECTION('',(0.,0.,1.));
#1029=DIRECTION('center_axis',(0.,-0.70710678118654,0.707106781186555));
#1030=DIRECTION('ref_axis',(-1.,0.,0.));
#1031=DIRECTION('',(1.,0.,0.));
#1032=DIRECTION('',(1.,0.,0.));
#1033=DIRECTION('center_axis',(0.,-1.,0.));
#1034=DIRECTION('ref_axis',(1.,0.,0.));
#1035=DIRECTION('center_axis',(0.,-0.70710678118654,0.707106781186555));
#1036=DIRECTION('ref_axis',(-1.,0.,0.));
#1037=DIRECTION('',(1.,0.,0.));
#1038=DIRECTION('',(-0.57735026918963,-0.57735026918963,-0.577350269189617));
#1039=DIRECTION('',(1.,0.,0.));
#1040=DIRECTION('',(0.57735026918963,-0.57735026918963,-0.577350269189617));
#1041=DIRECTION('center_axis',(0.707106781186548,-0.707106781186548,0.));
#1042=DIRECTION('ref_axis',(0.,0.,1.));
#1043=DIRECTION('',(0.,0.,-1.));
#1044=DIRECTION('',(-0.57735026918963,-0.57735026918963,0.577350269189617));
#1045=DIRECTION('',(0.,0.,-1.));
#1046=DIRECTION('center_axis',(0.,-0.70710678118654,-0.707106781186555));
#1047=DIRECTION('ref_axis',(1.,0.,0.));
#1048=DIRECTION('',(-1.,0.,0.));
#1049=DIRECTION('',(0.57735026918963,-0.57735026918963,0.577350269189617));
#1050=DIRECTION('',(-1.,0.,0.));
#1051=DIRECTION('center_axis',(-0.707106781186548,-0.707106781186548,0.));
#1052=DIRECTION('ref_axis',(0.,0.,-1.));
#1053=DIRECTION('',(0.,0.,1.));
#1054=DIRECTION('',(0.,0.,1.));
#1055=DIRECTION('center_axis',(0.,-1.,0.));
#1056=DIRECTION('ref_axis',(1.,0.,0.));
#1057=DIRECTION('center_axis',(-0.707106781186548,0.707106781186548,0.));
#1058=DIRECTION('ref_axis',(0.,0.,1.));
#1059=DIRECTION('',(0.,0.,-1.));
#1060=DIRECTION('',(0.57735026918963,0.57735026918963,0.577350269189617));
#1061=DIRECTION('',(0.,0.,-1.));
#1062=DIRECTION('',(0.57735026918963,0.57735026918963,-0.577350269189617));
#1063=DIRECTION('center_axis',(0.,0.70710678118654,-0.707106781186555));
#1064=DIRECTION('ref_axis',(-1.,0.,0.));
#1065=DIRECTION('',(1.,0.,0.));
#1066=DIRECTION('',(-0.57735026918963,0.57735026918963,0.577350269189617));
#1067=DIRECTION('',(1.,0.,0.));
#1068=DIRECTION('center_axis',(0.707106781186548,0.707106781186548,0.));
#1069=DIRECTION('ref_axis',(0.,0.,-1.));
#1070=DIRECTION('',(0.,0.,1.));
#1071=DIRECTION('',(-0.57735026918963,0.57735026918963,-0.577350269189617));
#1072=DIRECTION('',(0.,0.,1.));
#1073=DIRECTION('center_axis',(0.,0.70710678118654,0.707106781186555));
#1074=DIRECTION('ref_axis',(1.,0.,0.));
#1075=DIRECTION('',(-1.,0.,0.));
#1076=DIRECTION('',(-1.,0.,0.));
#1077=DIRECTION('center_axis',(0.,1.,0.));
#1078=DIRECTION('ref_axis',(-1.,0.,0.));
#1079=DIRECTION('center_axis',(-0.707106781186548,0.707106781186548,0.));
#1080=DIRECTION('ref_axis',(0.,0.,1.));
#1081=DIRECTION('',(0.,0.,-1.));
#1082=DIRECTION('',(0.57735026918963,0.57735026918963,0.577350269189617));
#1083=DIRECTION('',(0.,0.,-1.));
#1084=DIRECTION('',(0.57735026918963,0.57735026918963,-0.577350269189617));
#1085=DIRECTION('center_axis',(0.,0.70710678118654,-0.707106781186555));
#1086=DIRECTION('ref_axis',(-1.,0.,0.));
#1087=DIRECTION('',(1.,0.,0.));
#1088=DIRECTION('',(-0.57735026918963,0.57735026918963,0.577350269189617));
#1089=DIRECTION('',(1.,0.,0.));
#1090=DIRECTION('center_axis',(0.707106781186548,0.707106781186548,0.));
#1091=DIRECTION('ref_axis',(0.,0.,-1.));
#1092=DIRECTION('',(0.,0.,1.));
#1093=DIRECTION('',(-0.57735026918963,0.57735026918963,-0.577350269189617));
#1094=DIRECTION('',(0.,0.,1.));
#1095=DIRECTION('center_axis',(0.,0.70710678118654,0.707106781186555));
#1096=DIRECTION('ref_axis',(1.,0.,0.));
#1097=DIRECTION('',(-1.,0.,0.));
#1098=DIRECTION('',(-1.,0.,0.));
#1099=DIRECTION('center_axis',(0.,1.,0.));
#1100=DIRECTION('ref_axis',(-1.,0.,0.));
#1101=DIRECTION('center_axis',(0.,-1.,0.));
#1102=DIRECTION('ref_axis',(0.519043729077392,0.,-0.854747686341083));
#1103=DIRECTION('center_axis',(0.,1.,0.));
#1104=DIRECTION('ref_axis',(0.519043729077392,0.,-0.854747686341083));
#1105=DIRECTION('',(0.,1.,0.));
#1106=DIRECTION('center_axis',(7.91407946744081E-61,-1.,2.22044604925031E-16));
#1107=DIRECTION('ref_axis',(0.519043729077392,0.,-0.854747686341083));
#1108=DIRECTION('',(0.,-1.,0.));
#1109=DIRECTION('center_axis',(0.,1.,0.));
#1110=DIRECTION('ref_axis',(1.,0.,0.));
#1111=DIRECTION('center_axis',(0.,1.,0.));
#1112=DIRECTION('ref_axis',(1.,0.,0.));
#1113=DIRECTION('',(0.,-1.,0.));
#1114=DIRECTION('center_axis',(7.91407946744081E-61,-1.,2.22044604925031E-16));
#1115=DIRECTION('ref_axis',(1.,0.,0.));
#1116=DIRECTION('center_axis',(0.,1.,0.));
#1117=DIRECTION('ref_axis',(1.,0.,0.));
#1118=DIRECTION('',(-5.58998808339097E-13,0.,1.));
#1119=DIRECTION('',(-1.,0.,0.));
#1120=DIRECTION('',(0.0871557427476578,0.,-0.996194698091746));
#1121=DIRECTION('',(1.,0.,-3.77852457441085E-11));
#1122=DIRECTION('',(0.447213595499958,-7.01881291551183E-42,0.894427190999916));
#1123=DIRECTION('',(-0.316227766016838,2.9290613035371E-42,0.948683298050514));
#1124=DIRECTION('',(0.,0.,-1.));
#1125=DIRECTION('',(-1.,0.,0.));
#1126=DIRECTION('',(0.,0.,-1.));
#1127=DIRECTION('',(-1.,0.,0.));
#1128=DIRECTION('',(0.,0.,-1.));
#1129=DIRECTION('',(-1.,0.,0.));
#1130=DIRECTION('',(0.,0.,-1.));
#1131=DIRECTION('',(-0.316227766016838,-2.9290613035371E-42,-0.948683298050514));
#1132=DIRECTION('',(0.447213595499959,7.01881291551183E-42,-0.894427190999915));
#1133=DIRECTION('',(1.,0.,-3.77852457441085E-11));
#1134=DIRECTION('',(0.0871557427476578,0.,0.996194698091746));
#1135=DIRECTION('',(-1.,0.,0.));
#1136=DIRECTION('',(-5.5941226899623E-13,0.,-1.));
#1137=DIRECTION('center_axis',(0.,1.,0.));
#1138=DIRECTION('ref_axis',(-0.519043729077384,0.,-0.854747686341088));
#1139=DIRECTION('center_axis',(0.,1.,0.));
#1140=DIRECTION('ref_axis',(-0.519043729077384,0.,-0.854747686341088));
#1141=DIRECTION('center_axis',(7.91407946744081E-61,-1.,2.22044604925031E-16));
#1142=DIRECTION('ref_axis',(-0.519043729077384,0.,-0.854747686341088));
#1143=DIRECTION('',(0.,1.,0.));
#1144=DIRECTION('center_axis',(1.,0.,-5.5941226899623E-13));
#1145=DIRECTION('ref_axis',(5.5941226899623E-13,0.,1.));
#1146=DIRECTION('',(0.,1.,0.));
#1147=DIRECTION('',(5.5941226899623E-13,2.22044604925031E-16,1.));
#1148=DIRECTION('center_axis',(0.,0.,-1.));
#1149=DIRECTION('ref_axis',(-1.,0.,0.));
#1150=DIRECTION('center_axis',(0.,0.,1.));
#1151=DIRECTION('ref_axis',(-1.,0.,0.));
#1152=DIRECTION('',(0.,0.,-1.));
#1153=DIRECTION('center_axis',(0.,0.,1.));
#1154=DIRECTION('ref_axis',(-1.,0.,0.));
#1155=DIRECTION('center_axis',(2.18839403411794E-11,0.,1.));
#1156=DIRECTION('ref_axis',(1.,-4.85921088726014E-27,-2.18839403411794E-11));
#1157=DIRECTION('',(-1.,4.85921088726014E-27,2.18839403411794E-11));
#1158=DIRECTION('center_axis',(0.,0.,1.));
#1159=DIRECTION('ref_axis',(0.,-1.,0.));
#1160=DIRECTION('',(0.,-1.,0.));
#1161=DIRECTION('center_axis',(0.,0.,1.));
#1162=DIRECTION('ref_axis',(1.,0.,0.));
#1163=DIRECTION('',(-1.,0.,2.18839403411794E-11));
#1164=DIRECTION('center_axis',(0.,0.,1.));
#1165=DIRECTION('ref_axis',(-1.12784561231762E-14,1.,0.));
#1166=DIRECTION('',(4.10244073764492E-16,1.,0.));
#1167=DIRECTION('center_axis',(0.,0.,-1.));
#1168=DIRECTION('ref_axis',(0.,-1.,0.));
#1169=DIRECTION('center_axis',(0.,0.,1.));
#1170=DIRECTION('ref_axis',(0.,-1.,0.));
#1171=DIRECTION('',(0.,0.,-1.));
#1172=DIRECTION('center_axis',(1.,0.,0.));
#1173=DIRECTION('ref_axis',(0.,-1.,0.));
#1174=DIRECTION('',(0.,1.,0.));
#1175=DIRECTION('',(0.,0.,-1.));
#1176=DIRECTION('center_axis',(0.,0.,-1.));
#1177=DIRECTION('ref_axis',(1.,0.,0.));
#1178=DIRECTION('center_axis',(0.,0.,1.));
#1179=DIRECTION('ref_axis',(1.,0.,0.));
#1180=DIRECTION('',(0.,0.,-1.));
#1181=DIRECTION('center_axis',(-1.,0.,0.));
#1182=DIRECTION('ref_axis',(0.,1.,0.));
#1183=DIRECTION('',(0.,-2.22044604925031E-16,-1.));
#1184=DIRECTION('',(0.,-1.,0.));
#1185=DIRECTION('',(0.,1.,0.));
#1186=DIRECTION('center_axis',(0.,0.,-1.));
#1187=DIRECTION('ref_axis',(-1.12784561231762E-14,1.,0.));
#1188=DIRECTION('',(0.,0.,-1.));
#1189=DIRECTION('center_axis',(0.,0.,1.));
#1190=DIRECTION('ref_axis',(-1.12784561231762E-14,1.,0.));
#1191=DIRECTION('',(0.,0.,-1.));
#1192=DIRECTION('center_axis',(-1.,4.10244073764492E-16,0.));
#1193=DIRECTION('ref_axis',(4.10244073764492E-16,1.,0.));
#1194=DIRECTION('',(-4.10244073764492E-16,-1.,0.));
#1195=DIRECTION('center_axis',(0.,0.,1.));
#1196=DIRECTION('ref_axis',(1.,0.,0.));
#1197=DIRECTION('',(0.,1.,0.));
#1198=DIRECTION('',(1.,0.,0.));
#1199=DIRECTION('',(-1.,-7.91407946744081E-61,0.));
#1200=DIRECTION('',(0.,1.,0.));
#1201=DIRECTION('',(0.,-1.,0.));
#1202=DIRECTION('',(-1.,-7.91407946744081E-61,0.));
#1203=DIRECTION('',(0.,-1.,0.));
#1204=DIRECTION('',(-1.,-7.91407946744081E-61,0.));
#1205=DIRECTION('center_axis',(1.,0.,0.));
#1206=DIRECTION('ref_axis',(0.,-1.,0.));
#1207=DIRECTION('',(0.,2.22044604925031E-16,1.));
#1208=DIRECTION('',(0.,-1.,0.));
#1209=DIRECTION('center_axis',(-0.894427190999915,0.,-0.447213595499959));
#1210=DIRECTION('ref_axis',(0.447213595499959,7.01881291551183E-42,-0.894427190999915));
#1211=DIRECTION('',(-0.447213595499959,-7.01881291551183E-42,0.894427190999915));
#1212=DIRECTION('',(0.,-1.,0.));
#1213=DIRECTION('',(0.,-1.,0.));
#1214=DIRECTION('center_axis',(-0.948683298050514,0.,0.316227766016838));
#1215=DIRECTION('ref_axis',(-0.316227766016838,-2.9290613035371E-42,-0.948683298050514));
#1216=DIRECTION('',(0.316227766016838,2.9290613035371E-42,0.948683298050514));
#1217=DIRECTION('center_axis',(0.948683298050514,0.,0.316227766016838));
#1218=DIRECTION('ref_axis',(-0.316227766016838,2.9290613035371E-42,0.948683298050514));
#1219=DIRECTION('',(-0.316227766016838,2.9290613035371E-42,0.948683298050514));
#1220=DIRECTION('',(0.,-1.,0.));
#1221=DIRECTION('center_axis',(0.894427190999916,0.,-0.447213595499958));
#1222=DIRECTION('ref_axis',(0.447213595499958,-7.01881291551183E-42,0.894427190999916));
#1223=DIRECTION('',(0.447213595499958,-7.01881291551183E-42,0.894427190999916));
#1224=DIRECTION('',(0.,1.,0.));
#1225=DIRECTION('center_axis',(-1.,0.,-5.58998808339097E-13));
#1226=DIRECTION('ref_axis',(5.58998808339097E-13,0.,-1.));
#1227=DIRECTION('',(5.58998808339097E-13,-2.22044604925031E-16,-1.));
#1228=DIRECTION('center_axis',(0.996194698091746,0.,0.0871557427476578));
#1229=DIRECTION('ref_axis',(-0.0871557427476578,0.,0.996194698091746));
#1230=DIRECTION('',(-0.0871557427476578,2.21199658166192E-16,0.996194698091746));
#1231=DIRECTION('',(0.,1.,0.));
#1232=DIRECTION('center_axis',(-0.996194698091746,0.,0.0871557427476578));
#1233=DIRECTION('ref_axis',(-0.0871557427476578,0.,-0.996194698091746));
#1234=DIRECTION('',(0.,-1.,0.));
#1235=DIRECTION('',(-0.0871557427476578,-2.21199658166192E-16,-0.996194698091746));
#1236=DIRECTION('center_axis',(-7.91407946744081E-61,1.,-2.22044604925031E-16));
#1237=DIRECTION('ref_axis',(-1.,-7.91407946744081E-61,1.75727864869319E-76));
#1238=DIRECTION('',(1.,-8.39000996324578E-27,-3.77852457441085E-11));
#1239=DIRECTION('center_axis',(-7.91407946744081E-61,1.,-2.22044604925031E-16));
#1240=DIRECTION('ref_axis',(-1.,-7.91407946744081E-61,1.75727864869319E-76));
#1241=DIRECTION('',(1.,-8.39000996324578E-27,-3.77852457441085E-11));
#1242=DIRECTION('center_axis',(-7.91407946744081E-61,1.,-2.22044604925031E-16));
#1243=DIRECTION('ref_axis',(-1.,-7.91407946744081E-61,1.75727864869319E-76));
#1244=DIRECTION('center_axis',(-3.77852457441085E-11,0.,-1.));
#1245=DIRECTION('ref_axis',(-1.,8.39000996324577E-27,3.77852457441085E-11));
#1246=DIRECTION('center_axis',(-3.77852457441085E-11,0.,-1.));
#1247=DIRECTION('ref_axis',(-1.,8.39000996324577E-27,3.77852457441085E-11));
#1248=DIRECTION('center_axis',(0.,-1.,0.));
#1249=DIRECTION('ref_axis',(-1.,0.,0.));
#1250=DIRECTION('center_axis',(-1.,4.85921088726014E-27,2.18839403411794E-11));
#1251=DIRECTION('ref_axis',(1.54748312727873E-11,-0.707106781186549,0.707106781186546));
#1252=CARTESIAN_POINT('',(0.,0.,0.));
#1253=CARTESIAN_POINT('Origin',(-4.6187,1.31000000000001,39.949999772793));
#1254=CARTESIAN_POINT('',(-4.7187,1.21000000000001,39.849999772793));
#1255=CARTESIAN_POINT('',(-4.7187,1.21000000000001,39.249999772793));
#1256=CARTESIAN_POINT('',(-4.7187,1.21000000000001,39.149999772793));
#1257=CARTESIAN_POINT('',(-4.6187,1.31000000000001,39.149999772793));
#1258=CARTESIAN_POINT('',(-4.75203333333333,1.17666666666668,39.2833331061263));
#1259=CARTESIAN_POINT('',(-4.6187,1.31000000000001,39.949999772793));
#1260=CARTESIAN_POINT('',(-4.6187,1.31000000000001,40.124999772793));
#1261=CARTESIAN_POINT('',(-4.75203333333334,1.17666666666667,39.8166664394597));
#1262=CARTESIAN_POINT('Origin',(-4.6187,1.31000000000001,39.149999772793));
#1263=CARTESIAN_POINT('',(-5.3187,1.21000000000001,39.249999772793));
#1264=CARTESIAN_POINT('',(-5.4187,1.21000000000001,39.249999772793));
#1265=CARTESIAN_POINT('',(-5.4187,1.31000000000001,39.149999772793));
#1266=CARTESIAN_POINT('',(-5.28536666666667,1.17666666666667,39.2833331061263));
#1267=CARTESIAN_POINT('',(-5.1858875,1.31000000000001,39.149999772793));
#1268=CARTESIAN_POINT('Origin',(-5.4187,1.31000000000001,39.149999772793));
#1269=CARTESIAN_POINT('',(-5.3187,1.21000000000001,39.849999772793));
#1270=CARTESIAN_POINT('',(-5.3187,1.21000000000001,39.949999772793));
#1271=CARTESIAN_POINT('',(-5.4187,1.31000000000001,39.949999772793));
#1272=CARTESIAN_POINT('',(-5.28536666666667,1.17666666666668,39.8166664394597));
#1273=CARTESIAN_POINT('',(-5.4187,1.31000000000001,39.724999772793));
#1274=CARTESIAN_POINT('Origin',(-5.4187,1.31000000000001,39.949999772793));
#1275=CARTESIAN_POINT('',(-4.6187,1.21000000000001,39.849999772793));
#1276=CARTESIAN_POINT('',(-5.5858875,1.31000000000001,39.949999772793));
#1277=CARTESIAN_POINT('Origin',(-5.0187,1.21000000000001,39.549999772793));
#1278=CARTESIAN_POINT('Origin',(9.3813,1.31000000000001,39.949999772793));
#1279=CARTESIAN_POINT('',(9.4813,1.21000000000001,39.849999772793));
#1280=CARTESIAN_POINT('',(10.0813,1.21000000000001,39.849999772793));
#1281=CARTESIAN_POINT('',(10.1813,1.21000000000001,39.849999772793));
#1282=CARTESIAN_POINT('',(10.1813,1.31000000000001,39.949999772793));
#1283=CARTESIAN_POINT('',(10.0479666666667,1.17666666666667,39.8166664394597));
#1284=CARTESIAN_POINT('',(9.3813,1.31000000000001,39.949999772793));
#1285=CARTESIAN_POINT('',(1.8141125,1.31000000000001,39.949999772793));
#1286=CARTESIAN_POINT('',(9.51463333333333,1.17666666666668,39.8166664394597));
#1287=CARTESIAN_POINT('Origin',(10.1813,1.31000000000001,39.949999772793));
#1288=CARTESIAN_POINT('',(10.0813,1.21000000000001,39.249999772793));
#1289=CARTESIAN_POINT('',(10.0813,1.21000000000001,39.149999772793));
#1290=CARTESIAN_POINT('',(10.1813,1.31000000000001,39.149999772793));
#1291=CARTESIAN_POINT('',(10.0479666666667,1.17666666666668,39.2833331061263));
#1292=CARTESIAN_POINT('',(10.1813,1.31000000000001,40.124999772793));
#1293=CARTESIAN_POINT('Origin',(10.1813,1.31000000000001,39.149999772793));
#1294=CARTESIAN_POINT('',(9.4813,1.21000000000001,39.249999772793));
#1295=CARTESIAN_POINT('',(9.3813,1.21000000000001,39.249999772793));
#1296=CARTESIAN_POINT('',(9.3813,1.31000000000001,39.149999772793));
#1297=CARTESIAN_POINT('',(9.51463333333334,1.17666666666667,39.2833331061263));
#1298=CARTESIAN_POINT('',(2.2141125,1.31000000000001,39.149999772793));
#1299=CARTESIAN_POINT('Origin',(9.3813,1.31000000000001,39.149999772793));
#1300=CARTESIAN_POINT('',(9.4813,1.21000000000001,39.949999772793));
#1301=CARTESIAN_POINT('',(9.3813,1.31000000000001,39.724999772793));
#1302=CARTESIAN_POINT('Origin',(9.7813,1.21000000000001,39.549999772793));
#1303=CARTESIAN_POINT('Origin',(-5.4187,4.41000000000001,39.949999772793));
#1304=CARTESIAN_POINT('',(-5.3187,4.51000000000001,39.849999772793));
#1305=CARTESIAN_POINT('',(-5.3187,4.51000000000001,39.249999772793));
#1306=CARTESIAN_POINT('',(-5.3187,4.51000000000001,39.949999772793));
#1307=CARTESIAN_POINT('',(-5.4187,4.41000000000001,39.149999772793));
#1308=CARTESIAN_POINT('',(-5.28536666666667,4.54333333333334,39.2833331061263));
#1309=CARTESIAN_POINT('',(-5.4187,4.41000000000001,39.949999772793));
#1310=CARTESIAN_POINT('',(-5.4187,4.41000000000001,40.124999772793));
#1311=CARTESIAN_POINT('',(-5.28536666666667,4.54333333333335,39.8166664394597));
#1312=CARTESIAN_POINT('Origin',(-5.4187,4.41000000000001,39.149999772793));
#1313=CARTESIAN_POINT('',(-4.7187,4.51000000000001,39.249999772793));
#1314=CARTESIAN_POINT('',(-5.4187,4.51000000000001,39.249999772793));
#1315=CARTESIAN_POINT('',(-4.6187,4.41000000000001,39.149999772793));
#1316=CARTESIAN_POINT('',(-4.75203333333334,4.54333333333335,39.2833331061263));
#1317=CARTESIAN_POINT('',(2.5484875,4.41000000000001,39.149999772793));
#1318=CARTESIAN_POINT('Origin',(-4.6187,4.41000000000001,39.149999772793));
#1319=CARTESIAN_POINT('',(-4.7187,4.51000000000001,39.849999772793));
#1320=CARTESIAN_POINT('',(-4.7187,4.51000000000001,39.149999772793));
#1321=CARTESIAN_POINT('',(-4.6187,4.41000000000001,39.949999772793));
#1322=CARTESIAN_POINT('',(-4.75203333333333,4.54333333333334,39.8166664394597));
#1323=CARTESIAN_POINT('',(-4.6187,4.41000000000001,39.724999772793));
#1324=CARTESIAN_POINT('Origin',(-4.6187,4.41000000000001,39.949999772793));
#1325=CARTESIAN_POINT('',(-4.6187,4.51000000000001,39.849999772793));
#1326=CARTESIAN_POINT('',(2.9484875,4.41000000000001,39.949999772793));
#1327=CARTESIAN_POINT('Origin',(-5.0187,4.51000000000001,39.549999772793));
#1328=CARTESIAN_POINT('Origin',(9.3813,4.41000000000001,39.949999772793));
#1329=CARTESIAN_POINT('',(9.4813,4.51000000000001,39.849999772793));
#1330=CARTESIAN_POINT('',(9.4813,4.51000000000001,39.249999772793));
#1331=CARTESIAN_POINT('',(9.4813,4.51000000000001,39.949999772793));
#1332=CARTESIAN_POINT('',(9.3813,4.41000000000001,39.149999772793));
#1333=CARTESIAN_POINT('',(9.51463333333333,4.54333333333334,39.2833331061263));
#1334=CARTESIAN_POINT('',(9.3813,4.41000000000001,39.949999772793));
#1335=CARTESIAN_POINT('',(9.3813,4.41000000000001,40.124999772793));
#1336=CARTESIAN_POINT('',(9.51463333333334,4.54333333333335,39.8166664394597));
#1337=CARTESIAN_POINT('Origin',(9.3813,4.41000000000001,39.149999772793));
#1338=CARTESIAN_POINT('',(10.0813,4.51000000000001,39.249999772793));
#1339=CARTESIAN_POINT('',(9.3813,4.51000000000001,39.249999772793));
#1340=CARTESIAN_POINT('',(10.1813,4.41000000000001,39.149999772793));
#1341=CARTESIAN_POINT('',(10.0479666666667,4.54333333333335,39.2833331061263));
#1342=CARTESIAN_POINT('',(9.9484875,4.41000000000001,39.149999772793));
#1343=CARTESIAN_POINT('Origin',(10.1813,4.41000000000001,39.149999772793));
#1344=CARTESIAN_POINT('',(10.0813,4.51000000000001,39.849999772793));
#1345=CARTESIAN_POINT('',(10.0813,4.51000000000001,39.149999772793));
#1346=CARTESIAN_POINT('',(10.1813,4.41000000000001,39.949999772793));
#1347=CARTESIAN_POINT('',(10.0479666666667,4.54333333333334,39.8166664394597));
#1348=CARTESIAN_POINT('',(10.1813,4.41000000000001,39.724999772793));
#1349=CARTESIAN_POINT('Origin',(10.1813,4.41000000000001,39.949999772793));
#1350=CARTESIAN_POINT('',(10.1813,4.51000000000001,39.849999772793));
#1351=CARTESIAN_POINT('',(10.3484875,4.41000000000001,39.949999772793));
#1352=CARTESIAN_POINT('Origin',(9.7813,4.51000000000001,39.549999772793));
#1353=CARTESIAN_POINT('Origin',(6.48442499999559,1.11000000000001,36.9692225709715));
#1354=CARTESIAN_POINT('',(6.88129999999559,1.31000000000001,36.9692225709717));
#1355=CARTESIAN_POINT('',(6.3013913241967,1.31000000000001,36.6170742511565));
#1356=CARTESIAN_POINT('Origin',(6.48442499999559,1.31000000000001,36.9692225709715));
#1357=CARTESIAN_POINT('',(6.3013913241967,3.41,36.6170742511565));
#1358=CARTESIAN_POINT('',(6.3013913241967,1.11000000000001,36.6170742511565));
#1359=CARTESIAN_POINT('',(6.88129999999559,3.41000000000001,36.9692225709717));
#1360=CARTESIAN_POINT('Origin',(6.48442499999559,3.41,36.9692225709715));
#1361=CARTESIAN_POINT('',(6.88129999999559,1.11000000000001,36.9692225709717));
#1362=CARTESIAN_POINT('Origin',(2.3813,1.11000000000001,29.075));
#1363=CARTESIAN_POINT('',(-1.5387913241967,1.31000000000001,36.6170742511565));
#1364=CARTESIAN_POINT('Origin',(2.3813,1.31000000000001,29.075));
#1365=CARTESIAN_POINT('',(-1.5387913241967,3.41,36.6170742511565));
#1366=CARTESIAN_POINT('',(-1.5387913241967,1.11000000000001,36.6170742511565));
#1367=CARTESIAN_POINT('Origin',(2.3813,3.41,29.075));
#1368=CARTESIAN_POINT('Origin',(-5.753075,1.31000000000001,40.299999772793));
#1369=CARTESIAN_POINT('',(6.88129999999457,1.31000000000001,38.799999772793));
#1370=CARTESIAN_POINT('',(6.88129999999429,1.31000000000001,39.2999997726457));
#1371=CARTESIAN_POINT('',(8.97193066821073,1.31000000000001,38.799999772793));
#1372=CARTESIAN_POINT('',(-6.05073125,1.31000000000001,38.799999772793));
#1373=CARTESIAN_POINT('',(9.39898470706522,1.31000000000001,33.9187497725806));
#1374=CARTESIAN_POINT('',(9.06441314023725,1.31000000000001,37.7429202804411));
#1375=CARTESIAN_POINT('',(10.515675,1.31000000000001,33.9187497725384));
#1376=CARTESIAN_POINT('',(2.95297099986168,1.31000000000001,33.9187497728242));
#1377=CARTESIAN_POINT('',(10.915675,1.31,34.7187497731532));
#1378=CARTESIAN_POINT('',(10.515675,1.31,33.9187497731532));
#1379=CARTESIAN_POINT('',(10.515675,1.31,35.9187497731532));
#1380=CARTESIAN_POINT('',(10.915675,1.31,34.7187497731532));
#1381=CARTESIAN_POINT('',(10.515675,1.31000000000001,38.799999772793));
#1382=CARTESIAN_POINT('',(10.515675,1.31000000000001,40.299999772793));
#1383=CARTESIAN_POINT('',(11.509425,1.31000000000001,38.799999772793));
#1384=CARTESIAN_POINT('',(-6.05073125,1.31000000000001,38.799999772793));
#1385=CARTESIAN_POINT('',(11.509425,1.31000000000001,40.2966627272725));
#1386=CARTESIAN_POINT('',(11.509425,1.31000000000001,40.299999772793));
#1387=CARTESIAN_POINT('',(-6.746825,1.31000000000001,40.2966627276285));
#1388=CARTESIAN_POINT('',(10.5156749999672,1.31000000000001,40.2966627272725));
#1389=CARTESIAN_POINT('',(-6.746825,1.31000000000001,38.799999772793));
#1390=CARTESIAN_POINT('',(-6.746825,1.31000000000001,40.299999772793));
#1391=CARTESIAN_POINT('',(-5.753075,1.31000000000001,38.799999772793));
#1392=CARTESIAN_POINT('',(-6.05073125,1.31000000000001,38.799999772793));
#1393=CARTESIAN_POINT('',(-5.753075,1.31,35.9187497731532));
#1394=CARTESIAN_POINT('',(-5.753075,1.31000000000001,40.299999772793));
#1395=CARTESIAN_POINT('',(-6.153075,1.31,34.7187497731532));
#1396=CARTESIAN_POINT('',(-6.153075,1.31,34.7187497731532));
#1397=CARTESIAN_POINT('',(-5.753075,1.31000000000001,33.9187497731532));
#1398=CARTESIAN_POINT('',(-5.753075,1.31,33.9187497731532));
#1399=CARTESIAN_POINT('',(-4.63638470701882,1.31000000000001,33.918749773111));
#1400=CARTESIAN_POINT('',(2.95297099986168,1.31000000000001,33.9187497728242));
#1401=CARTESIAN_POINT('',(-4.20933066821072,1.31000000000001,38.799999772793));
#1402=CARTESIAN_POINT('',(-4.1719480037739,1.31000000000001,39.2272855825225));
#1403=CARTESIAN_POINT('',(-2.11869999999456,1.31000000000001,38.799999772793));
#1404=CARTESIAN_POINT('',(-6.05073125,1.31000000000001,38.799999772793));
#1405=CARTESIAN_POINT('',(-2.11869999999559,1.31000000000001,36.9692225709717));
#1406=CARTESIAN_POINT('',(-2.11869999999485,1.31000000000001,38.2930511618607));
#1407=CARTESIAN_POINT('Origin',(-1.72182499999559,1.31000000000001,36.9692225709715));
#1408=CARTESIAN_POINT('Origin',(-1.72182499999559,1.11000000000001,36.9692225709715));
#1409=CARTESIAN_POINT('',(-2.11869999999559,3.41000000000001,36.9692225709717));
#1410=CARTESIAN_POINT('Origin',(-1.72182499999559,3.41,36.9692225709715));
#1411=CARTESIAN_POINT('',(-2.11869999999559,1.11000000000001,36.9692225709717));
#1412=CARTESIAN_POINT('Origin',(-2.11869999999597,3.41,36.2861025509305));
#1413=CARTESIAN_POINT('',(-2.11869999999456,3.41000000000001,38.799999772793));
#1414=CARTESIAN_POINT('',(-2.11869999999456,3.13500000000001,38.799999772793));
#1415=CARTESIAN_POINT('',(-2.11870000000612,3.41000000000001,18.143051161696));
#1416=CARTESIAN_POINT('Origin',(-6.746825,1.50687500000001,40.299999772793));
#1417=CARTESIAN_POINT('',(-6.91821636501003,1.41000000000001,40.299999772793));
#1418=CARTESIAN_POINT('Ctrl Pts',(-6.746825,1.31000000000001,40.2966627276285));
#1419=CARTESIAN_POINT('Ctrl Pts',(-6.77156474990342,1.31000000000001,40.2966627276285));
#1420=CARTESIAN_POINT('Ctrl Pts',(-6.79794696724733,1.31494794495927,40.2970241343671));
#1421=CARTESIAN_POINT('Ctrl Pts',(-6.84647084064674,1.33506020892898,40.2981556972012));
#1422=CARTESIAN_POINT('Ctrl Pts',(-6.86861277952209,1.35022470731648,40.2989104849339));
#1423=CARTESIAN_POINT('Ctrl Pts',(-6.89822343872848,1.37986043682585,40.2997461044345));
#1424=CARTESIAN_POINT('Ctrl Pts',(-6.90929123662895,1.39420965227229,40.2999997729189));
#1425=CARTESIAN_POINT('Ctrl Pts',(-6.91821636501003,1.41000000000001,40.2999997729189));
#1426=CARTESIAN_POINT('',(-6.9437,1.50687500000001,40.299999772793));
#1427=CARTESIAN_POINT('Origin',(-6.746825,1.50687500000001,40.299999772793));
#1428=CARTESIAN_POINT('',(-6.9437,1.50687500000001,38.799999772793));
#1429=CARTESIAN_POINT('',(-6.9437,1.50687500000001,40.299999772793));
#1430=CARTESIAN_POINT('Origin',(-6.746825,1.50687500000001,38.799999772793));
#1431=CARTESIAN_POINT('Origin',(-112.712500071604,1.11000000000001,40.2999997752596));
#1432=CARTESIAN_POINT('',(11.68081636501,1.41000000000001,40.299999772793));
#1433=CARTESIAN_POINT('',(-56.3562500353537,1.41000000000001,40.2999997740263));
#1434=CARTESIAN_POINT('',(11.7063,1.50687500000001,40.299999772793));
#1435=CARTESIAN_POINT('Origin',(11.509425,1.50687500000001,40.299999772793));
#1436=CARTESIAN_POINT('',(11.7063,4.21312500000001,40.299999772793));
#1437=CARTESIAN_POINT('',(11.7063,4.21312500000001,40.299999772793));
#1438=CARTESIAN_POINT('',(11.509425,4.41000000000001,40.299999772793));
#1439=CARTESIAN_POINT('Origin',(11.509425,4.21312500000001,40.299999772793));
#1440=CARTESIAN_POINT('',(-6.746825,4.41000000000001,40.299999772793));
#1441=CARTESIAN_POINT('',(-51.0984125358021,4.41000000000001,40.2999997739113));
#1442=CARTESIAN_POINT('',(-6.9437,4.21312500000001,40.299999772793));
#1443=CARTESIAN_POINT('Origin',(-6.746825,4.21312500000001,40.299999772793));
#1444=CARTESIAN_POINT('',(-6.9437,1.50687500000001,40.299999772793));
#1445=CARTESIAN_POINT('Origin',(11.509425,1.50687500000001,40.299999772793));
#1446=CARTESIAN_POINT('Ctrl Pts',(11.68081636501,1.41000000000001,40.2999997725629));
#1447=CARTESIAN_POINT('Ctrl Pts',(11.6718912366289,1.39420965227229,40.2999997725629));
#1448=CARTESIAN_POINT('Ctrl Pts',(11.6608234387285,1.37986043682585,40.2997461040785));
#1449=CARTESIAN_POINT('Ctrl Pts',(11.6312127795221,1.35022470731649,40.2989104845778));
#1450=CARTESIAN_POINT('Ctrl Pts',(11.6090708406467,1.33506020892898,40.2981556968452));
#1451=CARTESIAN_POINT('Ctrl Pts',(11.5605469672473,1.31494794495927,40.2970241340111));
#1452=CARTESIAN_POINT('Ctrl Pts',(11.5341647499034,1.31000000000001,40.2966627272725));
#1453=CARTESIAN_POINT('Ctrl Pts',(11.509425,1.31000000000001,40.2966627272725));
#1454=CARTESIAN_POINT('',(11.7063,1.50687500000001,38.799999772793));
#1455=CARTESIAN_POINT('Origin',(11.509425,1.50687500000001,38.799999772793));
#1456=CARTESIAN_POINT('',(11.7063,1.50687500000001,40.299999772793));
#1457=CARTESIAN_POINT('Origin',(11.7063,4.21312500000001,40.299999772793));
#1458=CARTESIAN_POINT('',(11.7063,4.21312500000001,38.799999772793));
#1459=CARTESIAN_POINT('',(11.7063,3.53656250000001,38.799999772793));
#1460=CARTESIAN_POINT('',(11.7063,4.21312500000001,40.299999772793));
#1461=CARTESIAN_POINT('Origin',(11.509425,4.21312500000001,40.299999772793));
#1462=CARTESIAN_POINT('',(11.509425,4.41000000000001,38.799999772793));
#1463=CARTESIAN_POINT('Origin',(11.509425,4.21312500000001,38.799999772793));
#1464=CARTESIAN_POINT('',(11.509425,4.41000000000001,40.299999772793));
#1465=CARTESIAN_POINT('Origin',(10.515675,1.31000000000001,40.299999772793));
#1466=CARTESIAN_POINT('',(10.515675,3.41000000000001,38.799999772793));
#1467=CARTESIAN_POINT('',(10.515675,3.41,35.9187497731532));
#1468=CARTESIAN_POINT('',(10.515675,3.41000000000001,20.1499997726266));
#1469=CARTESIAN_POINT('',(10.515675,2.08500000000001,38.799999772793));
#1470=CARTESIAN_POINT('',(10.515675,2.36000000000001,35.9187497731532));
#1471=CARTESIAN_POINT('Origin',(-6.746825,4.21312500000001,40.299999772793));
#1472=CARTESIAN_POINT('',(-6.746825,4.41000000000001,38.799999772793));
#1473=CARTESIAN_POINT('',(-6.746825,4.41000000000001,40.299999772793));
#1474=CARTESIAN_POINT('',(-6.9437,4.21312500000001,38.799999772793));
#1475=CARTESIAN_POINT('Origin',(-6.746825,4.21312500000001,38.799999772793));
#1476=CARTESIAN_POINT('',(-6.9437,4.21312500000001,40.299999772793));
#1477=CARTESIAN_POINT('Origin',(-6.9437,1.50687500000001,40.299999772793));
#1478=CARTESIAN_POINT('',(-6.9437,2.18343750000001,38.799999772793));
#1479=CARTESIAN_POINT('Origin',(-6.3483875,2.86000000000001,38.799999772793));
#1480=CARTESIAN_POINT('',(-5.753075,3.41000000000001,38.799999772793));
#1481=CARTESIAN_POINT('',(-5.753075,3.63500000000001,38.799999772793));
#1482=CARTESIAN_POINT('',(2.08364375,4.41000000000001,38.799999772793));
#1483=CARTESIAN_POINT('',(8.97193066821072,3.41000000000001,38.799999772793));
#1484=CARTESIAN_POINT('',(-3.17419374999249,3.41000000000001,38.799999772793));
#1485=CARTESIAN_POINT('',(8.97193066821072,3.13500000000001,38.799999772793));
#1486=CARTESIAN_POINT('',(6.88129999999457,3.41000000000001,38.799999772793));
#1487=CARTESIAN_POINT('',(6.88129999999457,3.13500000000001,38.799999772793));
#1488=CARTESIAN_POINT('',(-3.17419374999249,3.41000000000001,38.799999772793));
#1489=CARTESIAN_POINT('',(-4.20933066821072,3.41000000000001,38.799999772793));
#1490=CARTESIAN_POINT('',(-4.20933066821072,3.13500000000001,38.799999772793));
#1491=CARTESIAN_POINT('',(-3.17419374999249,3.41000000000001,38.799999772793));
#1492=CARTESIAN_POINT('Origin',(-5.753075,4.41000000000001,40.299999772793));
#1493=CARTESIAN_POINT('',(-5.753075,3.41,35.9187497731532));
#1494=CARTESIAN_POINT('',(-5.753075,3.41000000000001,20.1499997726266));
#1495=CARTESIAN_POINT('',(-5.753075,3.91000000000001,35.9187497731532));
#1496=CARTESIAN_POINT('Origin',(-6.153075,3.41,34.7187497731532));
#1497=CARTESIAN_POINT('',(-5.753075,3.41000000000001,33.9187497731532));
#1498=CARTESIAN_POINT('',(-6.153075,3.41,34.7187497731532));
#1499=CARTESIAN_POINT('',(-5.753075,3.41,33.9187497731532));
#1500=CARTESIAN_POINT('',(-5.753075,2.76000000000001,33.9187497731532));
#1501=CARTESIAN_POINT('',(-6.153075,3.41,34.7187497731532));
#1502=CARTESIAN_POINT('Origin',(-5.753075,3.41,35.9187497731532));
#1503=CARTESIAN_POINT('',(-6.153075,3.41,34.7187497731532));
#1504=CARTESIAN_POINT('Origin',(10.915675,3.41,34.7187497731532));
#1505=CARTESIAN_POINT('',(10.915675,3.41,34.7187497731532));
#1506=CARTESIAN_POINT('',(10.915675,3.41,34.7187497731532));
#1507=CARTESIAN_POINT('',(10.915675,3.41,34.7187497731532));
#1508=CARTESIAN_POINT('Origin',(10.515675,3.41,33.9187497731532));
#1509=CARTESIAN_POINT('',(10.515675,3.41000000000001,33.9187497725384));
#1510=CARTESIAN_POINT('',(10.515675,3.41,33.9187497731532));
#1511=CARTESIAN_POINT('',(10.515675,1.21000000000001,33.9187497725384));
#1512=CARTESIAN_POINT('Origin',(6.88129999999485,3.41,38.2999997724913));
#1513=CARTESIAN_POINT('',(6.88130000000555,3.41000000000001,19.1499997724777));
#1514=CARTESIAN_POINT('Origin',(9.39898470701803,3.41,33.9187497731201));
#1515=CARTESIAN_POINT('',(9.39898470701803,3.41,33.9187497731201));
#1516=CARTESIAN_POINT('',(10.8357690643309,3.41000000000001,17.4962294212446));
#1517=CARTESIAN_POINT('',(9.39898470706522,2.26000000000001,33.9187497725806));
#1518=CARTESIAN_POINT('Origin',(-4.253075,3.41,38.2999997724922));
#1519=CARTESIAN_POINT('',(-4.63638470701802,3.41,33.9187497731201));
#1520=CARTESIAN_POINT('',(-4.63638470701882,2.26000000000001,33.918749773111));
#1521=CARTESIAN_POINT('',(-5.89960285969778,3.41000000000001,19.4801002181928));
#1522=CARTESIAN_POINT('Origin',(1.50279788613261E-11,3.41,-2.27539747044148E-7));
#1523=CARTESIAN_POINT('',(5.82950850063057,3.41000000000001,33.9187497727155));
#1524=CARTESIAN_POINT('Origin',(1.50279788613261E-11,3.41,-2.27539747044148E-7));
#1525=CARTESIAN_POINT('',(5.82950850063057,3.41000000000001,33.9187497727155));
#1526=CARTESIAN_POINT('Origin',(1.50279788613261E-11,3.41,-2.27539747044148E-7));
#1527=CARTESIAN_POINT('Origin',(11.6590169999645,1.11000000000001,33.9187497724952));
#1528=CARTESIAN_POINT('Origin',(11.6590169999645,1.11000000000001,33.9187497724952));
#1529=CARTESIAN_POINT('Origin',(10.515675,4.41000000000001,40.299999772793));
#1530=CARTESIAN_POINT('Origin',(-56.3562500353865,1.41000000000001,38.7999997740263));
#1531=UNCERTAINTY_MEASURE_WITH_UNIT(LENGTH_MEASURE(0.01),#1535,
'DISTANCE_ACCURACY_VALUE',
'Maximum model space distance between geometric entities at asserted c
onnectivities');
#1532=UNCERTAINTY_MEASURE_WITH_UNIT(LENGTH_MEASURE(0.01),#1535,
'DISTANCE_ACCURACY_VALUE',
'Maximum model space distance between geometric entities at asserted c
onnectivities');
#1533=(
GEOMETRIC_REPRESENTATION_CONTEXT(3)
GLOBAL_UNCERTAINTY_ASSIGNED_CONTEXT((#1531))
GLOBAL_UNIT_ASSIGNED_CONTEXT((#1535,#1537,#1538))
REPRESENTATION_CONTEXT('','3D')
);
#1534=(
GEOMETRIC_REPRESENTATION_CONTEXT(3)
GLOBAL_UNCERTAINTY_ASSIGNED_CONTEXT((#1532))
GLOBAL_UNIT_ASSIGNED_CONTEXT((#1535,#1537,#1538))
REPRESENTATION_CONTEXT('','3D')
);
#1535=(
LENGTH_UNIT()
NAMED_UNIT(*)
SI_UNIT(.MILLI.,.METRE.)
);
#1536=(
LENGTH_UNIT()
NAMED_UNIT(*)
SI_UNIT($,.METRE.)
);
#1537=(
NAMED_UNIT(*)
PLANE_ANGLE_UNIT()
SI_UNIT($,.RADIAN.)
);
#1538=(
NAMED_UNIT(*)
SI_UNIT($,.STERADIAN.)
SOLID_ANGLE_UNIT()
);
#1539=SHAPE_DEFINITION_REPRESENTATION(#1540,#1541);
#1540=PRODUCT_DEFINITION_SHAPE('',$,#1543);
#1541=SHAPE_REPRESENTATION('',(#947),#1533);
#1542=PRODUCT_DEFINITION_CONTEXT('part definition',#1547,'design');
#1543=PRODUCT_DEFINITION('blad_battery_cap','blad_battery_cap',#1544,
#1542);
#1544=PRODUCT_DEFINITION_FORMATION('',$,#1549);
#1545=PRODUCT_RELATED_PRODUCT_CATEGORY('blad_battery_cap',
'blad_battery_cap',(#1549));
#1546=APPLICATION_PROTOCOL_DEFINITION('international standard',
'automotive_design',2009,#1547);
#1547=APPLICATION_CONTEXT(
'Core Data for Automotive Mechanical Design Process');
#1548=PRODUCT_CONTEXT('part definition',#1547,'mechanical');
#1549=PRODUCT('blad_battery_cap','blad_battery_cap',$,(#1548));
#1550=PRESENTATION_STYLE_ASSIGNMENT((#1552));
#1551=PRESENTATION_STYLE_ASSIGNMENT((#1553));
#1552=SURFACE_STYLE_USAGE(.BOTH.,#1554);
#1553=SURFACE_STYLE_USAGE(.BOTH.,#1555);
#1554=SURFACE_SIDE_STYLE('',(#1556));
#1555=SURFACE_SIDE_STYLE('',(#1557));
#1556=SURFACE_STYLE_FILL_AREA(#1558);
#1557=SURFACE_STYLE_FILL_AREA(#1559);
#1558=FILL_AREA_STYLE('\X2\92FC\X0\ - \X2\30B530C630F3\X0\',(#1560));
#1559=FILL_AREA_STYLE('\X2\30D730E930B930C130C330AF\X0\ - \X2\534A900F660E\X0\ 
\X2\51496CA2\X0\(\X2\70708272\X0\)',(#1561));
#1560=FILL_AREA_STYLE_COLOUR('\X2\92FC\X0\ - \X2\30B530C630F3\X0\',#1562);
#1561=FILL_AREA_STYLE_COLOUR(
'\X2\30D730E930B930C130C330AF\X0\ - \X2\534A900F660E\X0\ \X2\51496CA2\X0\(
\X2\70708272\X0\)',#1563);
#1562=COLOUR_RGB('\X2\92FC\X0\ - \X2\30B530C630F3\X0\',0.627450980392157,
0.627450980392157,0.627450980392157);
#1563=COLOUR_RGB('\X2\30D730E930B930C130C330AF\X0\ - \X2\534A900F660E\X0\ 
\X2\51496CA2\X0\(\X2\70708272\X0\)',0.701960784313725,0.701960784313725,
0.701960784313725);
ENDSEC;
END-ISO-10303-21;
