ISO-10303-21;
HEADER;
/* Generated by software containing ST-Developer
 * from STEP Tools, Inc. (www.steptools.com) 
 */

FILE_DESCRIPTION(
/* description */ (''),
/* implementation_level */ '2;1');

FILE_NAME(
/* name */ 'blad_bottom_plate.step',
/* time_stamp */ '2026-09-19T23:07:06+09:00',
/* author */ (''),
/* organization */ (''),
/* preprocessor_version */ 'ST-DEVELOPER v20.2',
/* originating_system */ 'Autodesk Translation Framework v15.15.0.0',
/* authorisation */ '');

FILE_SCHEMA (('AUTOMOTIVE_DESIGN { 1 0 10303 214 3 1 1 }'));
ENDSEC;

DATA;
#10=MECHANICAL_DESIGN_GEOMETRIC_PRESENTATION_REPRESENTATION('',(#13),#955);
#11=SHAPE_REPRESENTATION_RELATIONSHIP('SRR','None',#962,#12);
#12=ADVANCED_BREP_SHAPE_REPRESENTATION('',(#14),#954);
#13=STYLED_ITEM('',(#972),#14);
#14=MANIFOLD_SOLID_BREP('\X2\30DC30C730A3\X0\1',#555);
#15=FACE_BOUND('',#68,.T.);
#16=FACE_BOUND('',#69,.T.);
#17=FACE_BOUND('',#70,.T.);
#18=FACE_BOUND('',#71,.T.);
#19=FACE_BOUND('',#73,.T.);
#20=FACE_BOUND('',#74,.T.);
#21=FACE_BOUND('',#75,.T.);
#22=FACE_BOUND('',#76,.T.);
#23=PLANE('',#572);
#24=PLANE('',#573);
#25=PLANE('',#574);
#26=PLANE('',#589);
#27=PLANE('',#606);
#28=PLANE('',#607);
#29=PLANE('',#610);
#30=PLANE('',#611);
#31=PLANE('',#614);
#32=PLANE('',#615);
#33=PLANE('',#618);
#34=PLANE('',#619);
#35=PLANE('',#622);
#36=FACE_OUTER_BOUND('',#64,.T.);
#37=FACE_OUTER_BOUND('',#65,.T.);
#38=FACE_OUTER_BOUND('',#66,.T.);
#39=FACE_OUTER_BOUND('',#67,.T.);
#40=FACE_OUTER_BOUND('',#72,.T.);
#41=FACE_OUTER_BOUND('',#77,.T.);
#42=FACE_OUTER_BOUND('',#78,.T.);
#43=FACE_OUTER_BOUND('',#79,.T.);
#44=FACE_OUTER_BOUND('',#80,.T.);
#45=FACE_OUTER_BOUND('',#81,.T.);
#46=FACE_OUTER_BOUND('',#82,.T.);
#47=FACE_OUTER_BOUND('',#83,.T.);
#48=FACE_OUTER_BOUND('',#84,.T.);
#49=FACE_OUTER_BOUND('',#85,.T.);
#50=FACE_OUTER_BOUND('',#86,.T.);
#51=FACE_OUTER_BOUND('',#87,.T.);
#52=FACE_OUTER_BOUND('',#88,.T.);
#53=FACE_OUTER_BOUND('',#89,.T.);
#54=FACE_OUTER_BOUND('',#90,.T.);
#55=FACE_OUTER_BOUND('',#91,.T.);
#56=FACE_OUTER_BOUND('',#92,.T.);
#57=FACE_OUTER_BOUND('',#93,.T.);
#58=FACE_OUTER_BOUND('',#94,.T.);
#59=FACE_OUTER_BOUND('',#95,.T.);
#60=FACE_OUTER_BOUND('',#96,.T.);
#61=FACE_OUTER_BOUND('',#97,.T.);
#62=FACE_OUTER_BOUND('',#98,.T.);
#63=FACE_OUTER_BOUND('',#99,.T.);
#64=EDGE_LOOP('',(#356,#357,#358,#359));
#65=EDGE_LOOP('',(#360,#361,#362,#363));
#66=EDGE_LOOP('',(#364,#365,#366,#367));
#67=EDGE_LOOP('',(#368,#369,#370,#371,#372,#373,#374,#375,#376,#377,#378,
#379,#380,#381,#382,#383,#384,#385,#386,#387,#388,#389));
#68=EDGE_LOOP('',(#390));
#69=EDGE_LOOP('',(#391));
#70=EDGE_LOOP('',(#392));
#71=EDGE_LOOP('',(#393));
#72=EDGE_LOOP('',(#394,#395,#396,#397,#398,#399,#400,#401,#402,#403,#404,
#405,#406,#407,#408,#409,#410,#411,#412,#413,#414,#415));
#73=EDGE_LOOP('',(#416));
#74=EDGE_LOOP('',(#417));
#75=EDGE_LOOP('',(#418));
#76=EDGE_LOOP('',(#419));
#77=EDGE_LOOP('',(#420,#421,#422,#423));
#78=EDGE_LOOP('',(#424,#425,#426,#427));
#79=EDGE_LOOP('',(#428,#429,#430,#431));
#80=EDGE_LOOP('',(#432,#433,#434,#435));
#81=EDGE_LOOP('',(#436,#437,#438,#439));
#82=EDGE_LOOP('',(#440,#441,#442,#443));
#83=EDGE_LOOP('',(#444,#445,#446,#447));
#84=EDGE_LOOP('',(#448,#449,#450,#451));
#85=EDGE_LOOP('',(#452,#453,#454,#455));
#86=EDGE_LOOP('',(#456,#457,#458,#459));
#87=EDGE_LOOP('',(#460,#461,#462,#463));
#88=EDGE_LOOP('',(#464,#465,#466,#467));
#89=EDGE_LOOP('',(#468,#469,#470,#471));
#90=EDGE_LOOP('',(#472,#473,#474,#475));
#91=EDGE_LOOP('',(#476,#477,#478,#479));
#92=EDGE_LOOP('',(#480,#481,#482,#483));
#93=EDGE_LOOP('',(#484,#485,#486,#487));
#94=EDGE_LOOP('',(#488,#489,#490,#491));
#95=EDGE_LOOP('',(#492,#493,#494,#495));
#96=EDGE_LOOP('',(#496,#497,#498,#499));
#97=EDGE_LOOP('',(#500,#501,#502,#503));
#98=EDGE_LOOP('',(#504,#505,#506,#507));
#99=EDGE_LOOP('',(#508,#509,#510,#511));
#100=CIRCLE('',#570,1.587414703989);
#101=CIRCLE('',#571,1.587414703989);
#102=CIRCLE('',#575,0.500049140802);
#103=CIRCLE('',#576,0.500049140802);
#104=CIRCLE('',#577,0.500050848841);
#105=CIRCLE('',#578,0.499950128859);
#106=CIRCLE('',#579,1.587462496696);
#107=CIRCLE('',#580,0.500003040706);
#108=CIRCLE('',#581,10.0000005);
#109=CIRCLE('',#582,0.499997919359);
#110=CIRCLE('',#583,1.587416410798);
#111=CIRCLE('',#584,1.587464203682);
#112=CIRCLE('',#585,1.1);
#113=CIRCLE('',#586,1.1);
#114=CIRCLE('',#587,1.1);
#115=CIRCLE('',#588,1.1);
#116=CIRCLE('',#590,1.587464203682);
#117=CIRCLE('',#591,1.587416410798);
#118=CIRCLE('',#592,0.499997919359);
#119=CIRCLE('',#593,10.0000005);
#120=CIRCLE('',#594,0.500003040706);
#121=CIRCLE('',#595,1.587462496696);
#122=CIRCLE('',#596,0.499950128859);
#123=CIRCLE('',#597,0.500050848841);
#124=CIRCLE('',#598,0.500049140802);
#125=CIRCLE('',#599,0.500049140802);
#126=CIRCLE('',#600,1.1);
#127=CIRCLE('',#601,1.1);
#128=CIRCLE('',#602,1.1);
#129=CIRCLE('',#603,1.1);
#130=LINE('',#797,#178);
#131=LINE('',#801,#179);
#132=LINE('',#806,#180);
#133=LINE('',#807,#181);
#134=LINE('',#808,#182);
#135=LINE('',#811,#183);
#136=LINE('',#813,#184);
#137=LINE('',#814,#185);
#138=LINE('',#819,#186);
#139=LINE('',#823,#187);
#140=LINE('',#827,#188);
#141=LINE('',#831,#189);
#142=LINE('',#835,#190);
#143=LINE('',#839,#191);
#144=LINE('',#843,#192);
#145=LINE('',#847,#193);
#146=LINE('',#851,#194);
#147=LINE('',#865,#195);
#148=LINE('',#869,#196);
#149=LINE('',#873,#197);
#150=LINE('',#877,#198);
#151=LINE('',#881,#199);
#152=LINE('',#885,#200);
#153=LINE('',#889,#201);
#154=LINE('',#893,#202);
#155=LINE('',#897,#203);
#156=LINE('',#908,#204);
#157=LINE('',#910,#205);
#158=LINE('',#912,#206);
#159=LINE('',#914,#207);
#160=LINE('',#916,#208);
#161=LINE('',#918,#209);
#162=LINE('',#920,#210);
#163=LINE('',#922,#211);
#164=LINE('',#924,#212);
#165=LINE('',#926,#213);
#166=LINE('',#928,#214);
#167=LINE('',#930,#215);
#168=LINE('',#932,#216);
#169=LINE('',#934,#217);
#170=LINE('',#936,#218);
#171=LINE('',#938,#219);
#172=LINE('',#940,#220);
#173=LINE('',#942,#221);
#174=LINE('',#945,#222);
#175=LINE('',#947,#223);
#176=LINE('',#949,#224);
#177=LINE('',#951,#225);
#178=VECTOR('',#631,1.);
#179=VECTOR('',#634,1.);
#180=VECTOR('',#639,1.);
#181=VECTOR('',#640,1.);
#182=VECTOR('',#641,1.);
#183=VECTOR('',#644,1.);
#184=VECTOR('',#645,1.);
#185=VECTOR('',#646,1.);
#186=VECTOR('',#651,1.00000000000001);
#187=VECTOR('',#654,1.);
#188=VECTOR('',#657,1.);
#189=VECTOR('',#660,1.);
#190=VECTOR('',#663,1.);
#191=VECTOR('',#666,1.00000000000001);
#192=VECTOR('',#669,1.00000000000001);
#193=VECTOR('',#672,1.);
#194=VECTOR('',#675,1.);
#195=VECTOR('',#690,1.);
#196=VECTOR('',#693,1.);
#197=VECTOR('',#696,1.00000000000001);
#198=VECTOR('',#699,1.00000000000001);
#199=VECTOR('',#702,1.);
#200=VECTOR('',#705,1.);
#201=VECTOR('',#708,1.);
#202=VECTOR('',#711,1.);
#203=VECTOR('',#714,1.00000000000001);
#204=VECTOR('',#727,1.);
#205=VECTOR('',#730,1.);
#206=VECTOR('',#733,1.);
#207=VECTOR('',#736,1.);
#208=VECTOR('',#739,1.);
#209=VECTOR('',#742,1.);
#210=VECTOR('',#745,1.);
#211=VECTOR('',#748,1.);
#212=VECTOR('',#751,1.);
#213=VECTOR('',#754,1.);
#214=VECTOR('',#757,1.);
#215=VECTOR('',#760,1.);
#216=VECTOR('',#763,1.);
#217=VECTOR('',#766,1.);
#218=VECTOR('',#769,1.);
#219=VECTOR('',#772,1.);
#220=VECTOR('',#775,1.);
#221=VECTOR('',#778,1.);
#222=VECTOR('',#783,1.1);
#223=VECTOR('',#786,1.1);
#224=VECTOR('',#789,1.1);
#225=VECTOR('',#792,1.1);
#226=VERTEX_POINT('',#795);
#227=VERTEX_POINT('',#796);
#228=VERTEX_POINT('',#798);
#229=VERTEX_POINT('',#800);
#230=VERTEX_POINT('',#804);
#231=VERTEX_POINT('',#805);
#232=VERTEX_POINT('',#810);
#233=VERTEX_POINT('',#812);
#234=VERTEX_POINT('',#816);
#235=VERTEX_POINT('',#818);
#236=VERTEX_POINT('',#820);
#237=VERTEX_POINT('',#822);
#238=VERTEX_POINT('',#824);
#239=VERTEX_POINT('',#826);
#240=VERTEX_POINT('',#828);
#241=VERTEX_POINT('',#830);
#242=VERTEX_POINT('',#832);
#243=VERTEX_POINT('',#834);
#244=VERTEX_POINT('',#836);
#245=VERTEX_POINT('',#838);
#246=VERTEX_POINT('',#840);
#247=VERTEX_POINT('',#842);
#248=VERTEX_POINT('',#844);
#249=VERTEX_POINT('',#846);
#250=VERTEX_POINT('',#848);
#251=VERTEX_POINT('',#850);
#252=VERTEX_POINT('',#853);
#253=VERTEX_POINT('',#855);
#254=VERTEX_POINT('',#857);
#255=VERTEX_POINT('',#859);
#256=VERTEX_POINT('',#862);
#257=VERTEX_POINT('',#864);
#258=VERTEX_POINT('',#866);
#259=VERTEX_POINT('',#868);
#260=VERTEX_POINT('',#870);
#261=VERTEX_POINT('',#872);
#262=VERTEX_POINT('',#874);
#263=VERTEX_POINT('',#876);
#264=VERTEX_POINT('',#878);
#265=VERTEX_POINT('',#880);
#266=VERTEX_POINT('',#882);
#267=VERTEX_POINT('',#884);
#268=VERTEX_POINT('',#886);
#269=VERTEX_POINT('',#888);
#270=VERTEX_POINT('',#890);
#271=VERTEX_POINT('',#892);
#272=VERTEX_POINT('',#894);
#273=VERTEX_POINT('',#896);
#274=VERTEX_POINT('',#899);
#275=VERTEX_POINT('',#901);
#276=VERTEX_POINT('',#903);
#277=VERTEX_POINT('',#905);
#278=EDGE_CURVE('',#226,#227,#130,.T.);
#279=EDGE_CURVE('',#227,#228,#100,.T.);
#280=EDGE_CURVE('',#229,#228,#131,.T.);
#281=EDGE_CURVE('',#226,#229,#101,.T.);
#282=EDGE_CURVE('',#230,#231,#132,.T.);
#283=EDGE_CURVE('',#231,#227,#133,.T.);
#284=EDGE_CURVE('',#230,#226,#134,.T.);
#285=EDGE_CURVE('',#228,#232,#135,.T.);
#286=EDGE_CURVE('',#233,#232,#136,.T.);
#287=EDGE_CURVE('',#229,#233,#137,.T.);
#288=EDGE_CURVE('',#233,#234,#102,.T.);
#289=EDGE_CURVE('',#234,#235,#138,.T.);
#290=EDGE_CURVE('',#235,#236,#103,.T.);
#291=EDGE_CURVE('',#236,#237,#139,.T.);
#292=EDGE_CURVE('',#237,#238,#104,.T.);
#293=EDGE_CURVE('',#238,#239,#140,.T.);
#294=EDGE_CURVE('',#239,#240,#105,.T.);
#295=EDGE_CURVE('',#240,#241,#141,.T.);
#296=EDGE_CURVE('',#241,#242,#106,.T.);
#297=EDGE_CURVE('',#242,#243,#142,.T.);
#298=EDGE_CURVE('',#243,#244,#107,.T.);
#299=EDGE_CURVE('',#244,#245,#143,.T.);
#300=EDGE_CURVE('',#245,#246,#108,.T.);
#301=EDGE_CURVE('',#246,#247,#144,.T.);
#302=EDGE_CURVE('',#247,#248,#109,.T.);
#303=EDGE_CURVE('',#248,#249,#145,.T.);
#304=EDGE_CURVE('',#249,#250,#110,.T.);
#305=EDGE_CURVE('',#250,#251,#146,.T.);
#306=EDGE_CURVE('',#251,#230,#111,.T.);
#307=EDGE_CURVE('',#252,#252,#112,.T.);
#308=EDGE_CURVE('',#253,#253,#113,.T.);
#309=EDGE_CURVE('',#254,#254,#114,.T.);
#310=EDGE_CURVE('',#255,#255,#115,.T.);
#311=EDGE_CURVE('',#256,#231,#116,.T.);
#312=EDGE_CURVE('',#257,#256,#147,.T.);
#313=EDGE_CURVE('',#258,#257,#117,.T.);
#314=EDGE_CURVE('',#259,#258,#148,.T.);
#315=EDGE_CURVE('',#260,#259,#118,.T.);
#316=EDGE_CURVE('',#261,#260,#149,.T.);
#317=EDGE_CURVE('',#262,#261,#119,.T.);
#318=EDGE_CURVE('',#263,#262,#150,.T.);
#319=EDGE_CURVE('',#264,#263,#120,.T.);
#320=EDGE_CURVE('',#265,#264,#151,.T.);
#321=EDGE_CURVE('',#266,#265,#121,.T.);
#322=EDGE_CURVE('',#267,#266,#152,.T.);
#323=EDGE_CURVE('',#268,#267,#122,.T.);
#324=EDGE_CURVE('',#269,#268,#153,.T.);
#325=EDGE_CURVE('',#270,#269,#123,.T.);
#326=EDGE_CURVE('',#271,#270,#154,.T.);
#327=EDGE_CURVE('',#272,#271,#124,.T.);
#328=EDGE_CURVE('',#273,#272,#155,.T.);
#329=EDGE_CURVE('',#232,#273,#125,.T.);
#330=EDGE_CURVE('',#274,#274,#126,.T.);
#331=EDGE_CURVE('',#275,#275,#127,.T.);
#332=EDGE_CURVE('',#276,#276,#128,.T.);
#333=EDGE_CURVE('',#277,#277,#129,.T.);
#334=EDGE_CURVE('',#251,#256,#156,.T.);
#335=EDGE_CURVE('',#234,#273,#157,.T.);
#336=EDGE_CURVE('',#250,#257,#158,.T.);
#337=EDGE_CURVE('',#235,#272,#159,.T.);
#338=EDGE_CURVE('',#249,#258,#160,.T.);
#339=EDGE_CURVE('',#236,#271,#161,.T.);
#340=EDGE_CURVE('',#248,#259,#162,.T.);
#341=EDGE_CURVE('',#237,#270,#163,.T.);
#342=EDGE_CURVE('',#247,#260,#164,.T.);
#343=EDGE_CURVE('',#238,#269,#165,.T.);
#344=EDGE_CURVE('',#246,#261,#166,.T.);
#345=EDGE_CURVE('',#239,#268,#167,.T.);
#346=EDGE_CURVE('',#245,#262,#168,.T.);
#347=EDGE_CURVE('',#240,#267,#169,.T.);
#348=EDGE_CURVE('',#244,#263,#170,.T.);
#349=EDGE_CURVE('',#241,#266,#171,.T.);
#350=EDGE_CURVE('',#243,#264,#172,.T.);
#351=EDGE_CURVE('',#242,#265,#173,.T.);
#352=EDGE_CURVE('',#274,#252,#174,.T.);
#353=EDGE_CURVE('',#275,#253,#175,.T.);
#354=EDGE_CURVE('',#276,#254,#176,.T.);
#355=EDGE_CURVE('',#277,#255,#177,.T.);
#356=ORIENTED_EDGE('',*,*,#278,.T.);
#357=ORIENTED_EDGE('',*,*,#279,.T.);
#358=ORIENTED_EDGE('',*,*,#280,.F.);
#359=ORIENTED_EDGE('',*,*,#281,.F.);
#360=ORIENTED_EDGE('',*,*,#282,.T.);
#361=ORIENTED_EDGE('',*,*,#283,.T.);
#362=ORIENTED_EDGE('',*,*,#278,.F.);
#363=ORIENTED_EDGE('',*,*,#284,.F.);
#364=ORIENTED_EDGE('',*,*,#280,.T.);
#365=ORIENTED_EDGE('',*,*,#285,.T.);
#366=ORIENTED_EDGE('',*,*,#286,.F.);
#367=ORIENTED_EDGE('',*,*,#287,.F.);
#368=ORIENTED_EDGE('',*,*,#281,.T.);
#369=ORIENTED_EDGE('',*,*,#287,.T.);
#370=ORIENTED_EDGE('',*,*,#288,.T.);
#371=ORIENTED_EDGE('',*,*,#289,.T.);
#372=ORIENTED_EDGE('',*,*,#290,.T.);
#373=ORIENTED_EDGE('',*,*,#291,.T.);
#374=ORIENTED_EDGE('',*,*,#292,.T.);
#375=ORIENTED_EDGE('',*,*,#293,.T.);
#376=ORIENTED_EDGE('',*,*,#294,.T.);
#377=ORIENTED_EDGE('',*,*,#295,.T.);
#378=ORIENTED_EDGE('',*,*,#296,.T.);
#379=ORIENTED_EDGE('',*,*,#297,.T.);
#380=ORIENTED_EDGE('',*,*,#298,.T.);
#381=ORIENTED_EDGE('',*,*,#299,.T.);
#382=ORIENTED_EDGE('',*,*,#300,.T.);
#383=ORIENTED_EDGE('',*,*,#301,.T.);
#384=ORIENTED_EDGE('',*,*,#302,.T.);
#385=ORIENTED_EDGE('',*,*,#303,.T.);
#386=ORIENTED_EDGE('',*,*,#304,.T.);
#387=ORIENTED_EDGE('',*,*,#305,.T.);
#388=ORIENTED_EDGE('',*,*,#306,.T.);
#389=ORIENTED_EDGE('',*,*,#284,.T.);
#390=ORIENTED_EDGE('',*,*,#307,.F.);
#391=ORIENTED_EDGE('',*,*,#308,.F.);
#392=ORIENTED_EDGE('',*,*,#309,.F.);
#393=ORIENTED_EDGE('',*,*,#310,.F.);
#394=ORIENTED_EDGE('',*,*,#279,.F.);
#395=ORIENTED_EDGE('',*,*,#283,.F.);
#396=ORIENTED_EDGE('',*,*,#311,.F.);
#397=ORIENTED_EDGE('',*,*,#312,.F.);
#398=ORIENTED_EDGE('',*,*,#313,.F.);
#399=ORIENTED_EDGE('',*,*,#314,.F.);
#400=ORIENTED_EDGE('',*,*,#315,.F.);
#401=ORIENTED_EDGE('',*,*,#316,.F.);
#402=ORIENTED_EDGE('',*,*,#317,.F.);
#403=ORIENTED_EDGE('',*,*,#318,.F.);
#404=ORIENTED_EDGE('',*,*,#319,.F.);
#405=ORIENTED_EDGE('',*,*,#320,.F.);
#406=ORIENTED_EDGE('',*,*,#321,.F.);
#407=ORIENTED_EDGE('',*,*,#322,.F.);
#408=ORIENTED_EDGE('',*,*,#323,.F.);
#409=ORIENTED_EDGE('',*,*,#324,.F.);
#410=ORIENTED_EDGE('',*,*,#325,.F.);
#411=ORIENTED_EDGE('',*,*,#326,.F.);
#412=ORIENTED_EDGE('',*,*,#327,.F.);
#413=ORIENTED_EDGE('',*,*,#328,.F.);
#414=ORIENTED_EDGE('',*,*,#329,.F.);
#415=ORIENTED_EDGE('',*,*,#285,.F.);
#416=ORIENTED_EDGE('',*,*,#330,.T.);
#417=ORIENTED_EDGE('',*,*,#331,.T.);
#418=ORIENTED_EDGE('',*,*,#332,.T.);
#419=ORIENTED_EDGE('',*,*,#333,.T.);
#420=ORIENTED_EDGE('',*,*,#334,.T.);
#421=ORIENTED_EDGE('',*,*,#311,.T.);
#422=ORIENTED_EDGE('',*,*,#282,.F.);
#423=ORIENTED_EDGE('',*,*,#306,.F.);
#424=ORIENTED_EDGE('',*,*,#286,.T.);
#425=ORIENTED_EDGE('',*,*,#329,.T.);
#426=ORIENTED_EDGE('',*,*,#335,.F.);
#427=ORIENTED_EDGE('',*,*,#288,.F.);
#428=ORIENTED_EDGE('',*,*,#336,.T.);
#429=ORIENTED_EDGE('',*,*,#312,.T.);
#430=ORIENTED_EDGE('',*,*,#334,.F.);
#431=ORIENTED_EDGE('',*,*,#305,.F.);
#432=ORIENTED_EDGE('',*,*,#335,.T.);
#433=ORIENTED_EDGE('',*,*,#328,.T.);
#434=ORIENTED_EDGE('',*,*,#337,.F.);
#435=ORIENTED_EDGE('',*,*,#289,.F.);
#436=ORIENTED_EDGE('',*,*,#338,.T.);
#437=ORIENTED_EDGE('',*,*,#313,.T.);
#438=ORIENTED_EDGE('',*,*,#336,.F.);
#439=ORIENTED_EDGE('',*,*,#304,.F.);
#440=ORIENTED_EDGE('',*,*,#337,.T.);
#441=ORIENTED_EDGE('',*,*,#327,.T.);
#442=ORIENTED_EDGE('',*,*,#339,.F.);
#443=ORIENTED_EDGE('',*,*,#290,.F.);
#444=ORIENTED_EDGE('',*,*,#340,.T.);
#445=ORIENTED_EDGE('',*,*,#314,.T.);
#446=ORIENTED_EDGE('',*,*,#338,.F.);
#447=ORIENTED_EDGE('',*,*,#303,.F.);
#448=ORIENTED_EDGE('',*,*,#339,.T.);
#449=ORIENTED_EDGE('',*,*,#326,.T.);
#450=ORIENTED_EDGE('',*,*,#341,.F.);
#451=ORIENTED_EDGE('',*,*,#291,.F.);
#452=ORIENTED_EDGE('',*,*,#342,.T.);
#453=ORIENTED_EDGE('',*,*,#315,.T.);
#454=ORIENTED_EDGE('',*,*,#340,.F.);
#455=ORIENTED_EDGE('',*,*,#302,.F.);
#456=ORIENTED_EDGE('',*,*,#341,.T.);
#457=ORIENTED_EDGE('',*,*,#325,.T.);
#458=ORIENTED_EDGE('',*,*,#343,.F.);
#459=ORIENTED_EDGE('',*,*,#292,.F.);
#460=ORIENTED_EDGE('',*,*,#344,.T.);
#461=ORIENTED_EDGE('',*,*,#316,.T.);
#462=ORIENTED_EDGE('',*,*,#342,.F.);
#463=ORIENTED_EDGE('',*,*,#301,.F.);
#464=ORIENTED_EDGE('',*,*,#343,.T.);
#465=ORIENTED_EDGE('',*,*,#324,.T.);
#466=ORIENTED_EDGE('',*,*,#345,.F.);
#467=ORIENTED_EDGE('',*,*,#293,.F.);
#468=ORIENTED_EDGE('',*,*,#346,.T.);
#469=ORIENTED_EDGE('',*,*,#317,.T.);
#470=ORIENTED_EDGE('',*,*,#344,.F.);
#471=ORIENTED_EDGE('',*,*,#300,.F.);
#472=ORIENTED_EDGE('',*,*,#345,.T.);
#473=ORIENTED_EDGE('',*,*,#323,.T.);
#474=ORIENTED_EDGE('',*,*,#347,.F.);
#475=ORIENTED_EDGE('',*,*,#294,.F.);
#476=ORIENTED_EDGE('',*,*,#348,.T.);
#477=ORIENTED_EDGE('',*,*,#318,.T.);
#478=ORIENTED_EDGE('',*,*,#346,.F.);
#479=ORIENTED_EDGE('',*,*,#299,.F.);
#480=ORIENTED_EDGE('',*,*,#347,.T.);
#481=ORIENTED_EDGE('',*,*,#322,.T.);
#482=ORIENTED_EDGE('',*,*,#349,.F.);
#483=ORIENTED_EDGE('',*,*,#295,.F.);
#484=ORIENTED_EDGE('',*,*,#350,.T.);
#485=ORIENTED_EDGE('',*,*,#319,.T.);
#486=ORIENTED_EDGE('',*,*,#348,.F.);
#487=ORIENTED_EDGE('',*,*,#298,.F.);
#488=ORIENTED_EDGE('',*,*,#349,.T.);
#489=ORIENTED_EDGE('',*,*,#321,.T.);
#490=ORIENTED_EDGE('',*,*,#351,.F.);
#491=ORIENTED_EDGE('',*,*,#296,.F.);
#492=ORIENTED_EDGE('',*,*,#351,.T.);
#493=ORIENTED_EDGE('',*,*,#320,.T.);
#494=ORIENTED_EDGE('',*,*,#350,.F.);
#495=ORIENTED_EDGE('',*,*,#297,.F.);
#496=ORIENTED_EDGE('',*,*,#330,.F.);
#497=ORIENTED_EDGE('',*,*,#352,.T.);
#498=ORIENTED_EDGE('',*,*,#307,.T.);
#499=ORIENTED_EDGE('',*,*,#352,.F.);
#500=ORIENTED_EDGE('',*,*,#331,.F.);
#501=ORIENTED_EDGE('',*,*,#353,.T.);
#502=ORIENTED_EDGE('',*,*,#308,.T.);
#503=ORIENTED_EDGE('',*,*,#353,.F.);
#504=ORIENTED_EDGE('',*,*,#332,.F.);
#505=ORIENTED_EDGE('',*,*,#354,.T.);
#506=ORIENTED_EDGE('',*,*,#309,.T.);
#507=ORIENTED_EDGE('',*,*,#354,.F.);
#508=ORIENTED_EDGE('',*,*,#333,.F.);
#509=ORIENTED_EDGE('',*,*,#355,.T.);
#510=ORIENTED_EDGE('',*,*,#310,.T.);
#511=ORIENTED_EDGE('',*,*,#355,.F.);
#512=CYLINDRICAL_SURFACE('',#569,1.587414703989);
#513=CYLINDRICAL_SURFACE('',#604,1.587464203682);
#514=CYLINDRICAL_SURFACE('',#605,0.500049140802);
#515=CYLINDRICAL_SURFACE('',#608,1.587416410798);
#516=CYLINDRICAL_SURFACE('',#609,0.500049140802);
#517=CYLINDRICAL_SURFACE('',#612,0.499997919359);
#518=CYLINDRICAL_SURFACE('',#613,0.500050848841);
#519=CYLINDRICAL_SURFACE('',#616,10.0000005);
#520=CYLINDRICAL_SURFACE('',#617,0.499950128859);
#521=CYLINDRICAL_SURFACE('',#620,0.500003040706);
#522=CYLINDRICAL_SURFACE('',#621,1.587462496696);
#523=CYLINDRICAL_SURFACE('',#623,1.1);
#524=CYLINDRICAL_SURFACE('',#624,1.1);
#525=CYLINDRICAL_SURFACE('',#625,1.1);
#526=CYLINDRICAL_SURFACE('',#626,1.1);
#527=ADVANCED_FACE('',(#36),#512,.T.);
#528=ADVANCED_FACE('',(#37),#23,.T.);
#529=ADVANCED_FACE('',(#38),#24,.T.);
#530=ADVANCED_FACE('',(#39,#15,#16,#17,#18),#25,.F.);
#531=ADVANCED_FACE('',(#40,#19,#20,#21,#22),#26,.T.);
#532=ADVANCED_FACE('',(#41),#513,.T.);
#533=ADVANCED_FACE('',(#42),#514,.T.);
#534=ADVANCED_FACE('',(#43),#27,.T.);
#535=ADVANCED_FACE('',(#44),#28,.T.);
#536=ADVANCED_FACE('',(#45),#515,.T.);
#537=ADVANCED_FACE('',(#46),#516,.F.);
#538=ADVANCED_FACE('',(#47),#29,.T.);
#539=ADVANCED_FACE('',(#48),#30,.T.);
#540=ADVANCED_FACE('',(#49),#517,.T.);
#541=ADVANCED_FACE('',(#50),#518,.F.);
#542=ADVANCED_FACE('',(#51),#31,.T.);
#543=ADVANCED_FACE('',(#52),#32,.T.);
#544=ADVANCED_FACE('',(#53),#519,.F.);
#545=ADVANCED_FACE('',(#54),#520,.T.);
#546=ADVANCED_FACE('',(#55),#33,.T.);
#547=ADVANCED_FACE('',(#56),#34,.T.);
#548=ADVANCED_FACE('',(#57),#521,.T.);
#549=ADVANCED_FACE('',(#58),#522,.T.);
#550=ADVANCED_FACE('',(#59),#35,.T.);
#551=ADVANCED_FACE('',(#60),#523,.F.);
#552=ADVANCED_FACE('',(#61),#524,.F.);
#553=ADVANCED_FACE('',(#62),#525,.F.);
#554=ADVANCED_FACE('',(#63),#526,.F.);
#555=CLOSED_SHELL('',(#527,#528,#529,#530,#531,#532,#533,#534,#535,#536,
#537,#538,#539,#540,#541,#542,#543,#544,#545,#546,#547,#548,#549,#550,#551,
#552,#553,#554));
#556=DERIVED_UNIT_ELEMENT(#558,1.);
#557=DERIVED_UNIT_ELEMENT(#957,-3.);
#558=(
MASS_UNIT()
NAMED_UNIT(*)
SI_UNIT(.KILO.,.GRAM.)
);
#559=DERIVED_UNIT((#556,#557));
#560=MEASURE_REPRESENTATION_ITEM('density measure',
POSITIVE_RATIO_MEASURE(7850.),#559);
#561=PROPERTY_DEFINITION_REPRESENTATION(#566,#563);
#562=PROPERTY_DEFINITION_REPRESENTATION(#567,#564);
#563=REPRESENTATION('material name',(#565),#954);
#564=REPRESENTATION('density',(#560),#954);
#565=DESCRIPTIVE_REPRESENTATION_ITEM('\X2\92FC\X0\','\X2\92FC\X0\');
#566=PROPERTY_DEFINITION('material property','material name',#964);
#567=PROPERTY_DEFINITION('material property','density of part',#964);
#568=AXIS2_PLACEMENT_3D('',#793,#627,#628);
#569=AXIS2_PLACEMENT_3D('',#794,#629,#630);
#570=AXIS2_PLACEMENT_3D('',#799,#632,#633);
#571=AXIS2_PLACEMENT_3D('',#802,#635,#636);
#572=AXIS2_PLACEMENT_3D('',#803,#637,#638);
#573=AXIS2_PLACEMENT_3D('',#809,#642,#643);
#574=AXIS2_PLACEMENT_3D('',#815,#647,#648);
#575=AXIS2_PLACEMENT_3D('',#817,#649,#650);
#576=AXIS2_PLACEMENT_3D('',#821,#652,#653);
#577=AXIS2_PLACEMENT_3D('',#825,#655,#656);
#578=AXIS2_PLACEMENT_3D('',#829,#658,#659);
#579=AXIS2_PLACEMENT_3D('',#833,#661,#662);
#580=AXIS2_PLACEMENT_3D('',#837,#664,#665);
#581=AXIS2_PLACEMENT_3D('',#841,#667,#668);
#582=AXIS2_PLACEMENT_3D('',#845,#670,#671);
#583=AXIS2_PLACEMENT_3D('',#849,#673,#674);
#584=AXIS2_PLACEMENT_3D('',#852,#676,#677);
#585=AXIS2_PLACEMENT_3D('',#854,#678,#679);
#586=AXIS2_PLACEMENT_3D('',#856,#680,#681);
#587=AXIS2_PLACEMENT_3D('',#858,#682,#683);
#588=AXIS2_PLACEMENT_3D('',#860,#684,#685);
#589=AXIS2_PLACEMENT_3D('',#861,#686,#687);
#590=AXIS2_PLACEMENT_3D('',#863,#688,#689);
#591=AXIS2_PLACEMENT_3D('',#867,#691,#692);
#592=AXIS2_PLACEMENT_3D('',#871,#694,#695);
#593=AXIS2_PLACEMENT_3D('',#875,#697,#698);
#594=AXIS2_PLACEMENT_3D('',#879,#700,#701);
#595=AXIS2_PLACEMENT_3D('',#883,#703,#704);
#596=AXIS2_PLACEMENT_3D('',#887,#706,#707);
#597=AXIS2_PLACEMENT_3D('',#891,#709,#710);
#598=AXIS2_PLACEMENT_3D('',#895,#712,#713);
#599=AXIS2_PLACEMENT_3D('',#898,#715,#716);
#600=AXIS2_PLACEMENT_3D('',#900,#717,#718);
#601=AXIS2_PLACEMENT_3D('',#902,#719,#720);
#602=AXIS2_PLACEMENT_3D('',#904,#721,#722);
#603=AXIS2_PLACEMENT_3D('',#906,#723,#724);
#604=AXIS2_PLACEMENT_3D('',#907,#725,#726);
#605=AXIS2_PLACEMENT_3D('',#909,#728,#729);
#606=AXIS2_PLACEMENT_3D('',#911,#731,#732);
#607=AXIS2_PLACEMENT_3D('',#913,#734,#735);
#608=AXIS2_PLACEMENT_3D('',#915,#737,#738);
#609=AXIS2_PLACEMENT_3D('',#917,#740,#741);
#610=AXIS2_PLACEMENT_3D('',#919,#743,#744);
#611=AXIS2_PLACEMENT_3D('',#921,#746,#747);
#612=AXIS2_PLACEMENT_3D('',#923,#749,#750);
#613=AXIS2_PLACEMENT_3D('',#925,#752,#753);
#614=AXIS2_PLACEMENT_3D('',#927,#755,#756);
#615=AXIS2_PLACEMENT_3D('',#929,#758,#759);
#616=AXIS2_PLACEMENT_3D('',#931,#761,#762);
#617=AXIS2_PLACEMENT_3D('',#933,#764,#765);
#618=AXIS2_PLACEMENT_3D('',#935,#767,#768);
#619=AXIS2_PLACEMENT_3D('',#937,#770,#771);
#620=AXIS2_PLACEMENT_3D('',#939,#773,#774);
#621=AXIS2_PLACEMENT_3D('',#941,#776,#777);
#622=AXIS2_PLACEMENT_3D('',#943,#779,#780);
#623=AXIS2_PLACEMENT_3D('',#944,#781,#782);
#624=AXIS2_PLACEMENT_3D('',#946,#784,#785);
#625=AXIS2_PLACEMENT_3D('',#948,#787,#788);
#626=AXIS2_PLACEMENT_3D('',#950,#790,#791);
#627=DIRECTION('axis',(0.,0.,1.));
#628=DIRECTION('refdir',(1.,0.,0.));
#629=DIRECTION('center_axis',(0.,0.,-1.));
#630=DIRECTION('ref_axis',(-5.37340677107975E-5,0.999999998556325,0.));
#631=DIRECTION('',(0.,0.,1.));
#632=DIRECTION('center_axis',(0.,0.,-1.));
#633=DIRECTION('ref_axis',(-5.37340677107975E-5,0.999999998556325,0.));
#634=DIRECTION('',(0.,0.,1.));
#635=DIRECTION('center_axis',(0.,0.,-1.));
#636=DIRECTION('ref_axis',(-5.37340677107975E-5,0.999999998556325,0.));
#637=DIRECTION('center_axis',(0.,1.,0.));
#638=DIRECTION('ref_axis',(1.,0.,0.));
#639=DIRECTION('',(0.,0.,1.));
#640=DIRECTION('',(1.,0.,0.));
#641=DIRECTION('',(1.,0.,0.));
#642=DIRECTION('center_axis',(1.,0.,0.));
#643=DIRECTION('ref_axis',(0.,-1.,0.));
#644=DIRECTION('',(0.,-1.,0.));
#645=DIRECTION('',(0.,0.,1.));
#646=DIRECTION('',(0.,-1.,0.));
#647=DIRECTION('center_axis',(0.,0.,1.));
#648=DIRECTION('ref_axis',(1.,0.,0.));
#649=DIRECTION('center_axis',(0.,0.,-1.));
#650=DIRECTION('ref_axis',(0.999999995171787,-9.82671169997891E-5,0.));
#651=DIRECTION('',(-0.999999999999985,-1.72413792668097E-7,0.));
#652=DIRECTION('center_axis',(0.,0.,1.));
#653=DIRECTION('ref_axis',(-9.8267117283939E-5,0.999999995171787,0.));
#654=DIRECTION('',(0.,-1.,0.));
#655=DIRECTION('center_axis',(0.,0.,1.));
#656=DIRECTION('ref_axis',(-0.999999994625046,-0.000103681762116305,0.));
#657=DIRECTION('',(1.,0.,0.));
#658=DIRECTION('center_axis',(0.,0.,-1.));
#659=DIRECTION('ref_axis',(-9.97572077753649E-5,0.99999999502425,0.));
#660=DIRECTION('',(0.,-1.,0.));
#661=DIRECTION('center_axis',(0.,0.,-1.));
#662=DIRECTION('ref_axis',(0.999999999735614,2.29950297142611E-5,0.));
#663=DIRECTION('',(-1.,0.,0.));
#664=DIRECTION('center_axis',(0.,0.,-1.));
#665=DIRECTION('ref_axis',(-6.08135646780301E-6,-0.999999999981509,0.));
#666=DIRECTION('',(1.34453799250999E-7,0.999999999999991,0.));
#667=DIRECTION('center_axis',(0.,0.,1.));
#668=DIRECTION('ref_axis',(0.999999999999989,1.50000003489998E-7,0.));
#669=DIRECTION('',(-1.34453784994499E-7,-0.999999999999991,0.));
#670=DIRECTION('center_axis',(0.,0.,-1.));
#671=DIRECTION('ref_axis',(0.999999999997664,2.16129275370727E-6,0.));
#672=DIRECTION('',(-1.,0.,0.));
#673=DIRECTION('center_axis',(0.,0.,-1.));
#674=DIRECTION('ref_axis',(5.26587416180652E-5,-0.999999998613529,0.));
#675=DIRECTION('',(0.,1.,0.));
#676=DIRECTION('center_axis',(0.,0.,-1.));
#677=DIRECTION('ref_axis',(-0.999999999759764,-2.19196892368548E-5,0.));
#678=DIRECTION('center_axis',(0.,0.,-1.));
#679=DIRECTION('ref_axis',(-1.2918958832E-14,-1.,0.));
#680=DIRECTION('center_axis',(0.,0.,-1.));
#681=DIRECTION('ref_axis',(0.,-1.,0.));
#682=DIRECTION('center_axis',(0.,0.,-1.));
#683=DIRECTION('ref_axis',(0.,-1.,0.));
#684=DIRECTION('center_axis',(0.,0.,-1.));
#685=DIRECTION('ref_axis',(0.,-1.,0.));
#686=DIRECTION('center_axis',(0.,0.,1.));
#687=DIRECTION('ref_axis',(1.,0.,0.));
#688=DIRECTION('center_axis',(0.,0.,-1.));
#689=DIRECTION('ref_axis',(-0.999999999759764,-2.19196892368548E-5,0.));
#690=DIRECTION('',(0.,1.,0.));
#691=DIRECTION('center_axis',(0.,0.,-1.));
#692=DIRECTION('ref_axis',(5.26587416180652E-5,-0.999999998613529,0.));
#693=DIRECTION('',(-1.,0.,0.));
#694=DIRECTION('center_axis',(0.,0.,-1.));
#695=DIRECTION('ref_axis',(0.999999999997664,2.16129275370727E-6,0.));
#696=DIRECTION('',(-1.34453784994499E-7,-0.999999999999991,0.));
#697=DIRECTION('center_axis',(0.,0.,1.));
#698=DIRECTION('ref_axis',(0.999999999999989,1.50000003489998E-7,0.));
#699=DIRECTION('',(1.34453799250999E-7,0.999999999999991,0.));
#700=DIRECTION('center_axis',(0.,0.,-1.));
#701=DIRECTION('ref_axis',(-6.08135646780301E-6,-0.999999999981509,0.));
#702=DIRECTION('',(-1.,0.,0.));
#703=DIRECTION('center_axis',(0.,0.,-1.));
#704=DIRECTION('ref_axis',(0.999999999735614,2.29950297142611E-5,0.));
#705=DIRECTION('',(0.,-1.,0.));
#706=DIRECTION('center_axis',(0.,0.,-1.));
#707=DIRECTION('ref_axis',(-9.97572077753649E-5,0.99999999502425,0.));
#708=DIRECTION('',(1.,0.,0.));
#709=DIRECTION('center_axis',(0.,0.,1.));
#710=DIRECTION('ref_axis',(-0.999999994625046,-0.000103681762116305,0.));
#711=DIRECTION('',(0.,-1.,0.));
#712=DIRECTION('center_axis',(0.,0.,1.));
#713=DIRECTION('ref_axis',(-9.8267117283939E-5,0.999999995171787,0.));
#714=DIRECTION('',(-0.999999999999985,-1.72413792668097E-7,0.));
#715=DIRECTION('center_axis',(0.,0.,-1.));
#716=DIRECTION('ref_axis',(0.999999995171787,-9.82671169997891E-5,0.));
#717=DIRECTION('center_axis',(0.,0.,-1.));
#718=DIRECTION('ref_axis',(-1.2918958832E-14,-1.,0.));
#719=DIRECTION('center_axis',(0.,0.,-1.));
#720=DIRECTION('ref_axis',(0.,-1.,0.));
#721=DIRECTION('center_axis',(0.,0.,-1.));
#722=DIRECTION('ref_axis',(0.,-1.,0.));
#723=DIRECTION('center_axis',(0.,0.,-1.));
#724=DIRECTION('ref_axis',(0.,-1.,0.));
#725=DIRECTION('center_axis',(0.,0.,-1.));
#726=DIRECTION('ref_axis',(-0.999999999759764,-2.19196892368548E-5,0.));
#727=DIRECTION('',(0.,0.,1.));
#728=DIRECTION('center_axis',(0.,0.,-1.));
#729=DIRECTION('ref_axis',(0.999999995171787,-9.82671169997891E-5,0.));
#730=DIRECTION('',(0.,0.,1.));
#731=DIRECTION('center_axis',(-1.,0.,0.));
#732=DIRECTION('ref_axis',(0.,1.,0.));
#733=DIRECTION('',(0.,0.,1.));
#734=DIRECTION('center_axis',(1.72413792668097E-7,-0.999999999999985,0.));
#735=DIRECTION('ref_axis',(-0.999999999999985,-1.72413792668097E-7,0.));
#736=DIRECTION('',(0.,0.,1.));
#737=DIRECTION('center_axis',(0.,0.,-1.));
#738=DIRECTION('ref_axis',(5.26587416180652E-5,-0.999999998613529,0.));
#739=DIRECTION('',(0.,0.,1.));
#740=DIRECTION('center_axis',(0.,0.,-1.));
#741=DIRECTION('ref_axis',(-9.8267117283939E-5,0.999999995171787,0.));
#742=DIRECTION('',(0.,0.,1.));
#743=DIRECTION('center_axis',(0.,-1.,0.));
#744=DIRECTION('ref_axis',(-1.,0.,0.));
#745=DIRECTION('',(0.,0.,1.));
#746=DIRECTION('center_axis',(1.,0.,0.));
#747=DIRECTION('ref_axis',(0.,-1.,0.));
#748=DIRECTION('',(0.,0.,1.));
#749=DIRECTION('center_axis',(0.,0.,-1.));
#750=DIRECTION('ref_axis',(0.999999999997664,2.16129275370727E-6,0.));
#751=DIRECTION('',(0.,0.,1.));
#752=DIRECTION('center_axis',(0.,0.,-1.));
#753=DIRECTION('ref_axis',(-0.999999994625046,-0.000103681762116305,0.));
#754=DIRECTION('',(0.,0.,1.));
#755=DIRECTION('center_axis',(0.999999999999991,-1.34453784994499E-7,0.));
#756=DIRECTION('ref_axis',(-1.34453784994499E-7,-0.999999999999991,0.));
#757=DIRECTION('',(0.,0.,1.));
#758=DIRECTION('center_axis',(0.,1.,0.));
#759=DIRECTION('ref_axis',(1.,0.,0.));
#760=DIRECTION('',(0.,0.,1.));
#761=DIRECTION('center_axis',(0.,0.,-1.));
#762=DIRECTION('ref_axis',(0.999999999999989,1.50000003489998E-7,0.));
#763=DIRECTION('',(0.,0.,1.));
#764=DIRECTION('center_axis',(0.,0.,-1.));
#765=DIRECTION('ref_axis',(-9.97572077753649E-5,0.99999999502425,0.));
#766=DIRECTION('',(0.,0.,1.));
#767=DIRECTION('center_axis',(-0.999999999999991,1.34453799250999E-7,0.));
#768=DIRECTION('ref_axis',(1.34453799250999E-7,0.999999999999991,0.));
#769=DIRECTION('',(0.,0.,1.));
#770=DIRECTION('center_axis',(1.,0.,0.));
#771=DIRECTION('ref_axis',(0.,-1.,0.));
#772=DIRECTION('',(0.,0.,1.));
#773=DIRECTION('center_axis',(0.,0.,-1.));
#774=DIRECTION('ref_axis',(-6.08135646780301E-6,-0.999999999981509,0.));
#775=DIRECTION('',(0.,0.,1.));
#776=DIRECTION('center_axis',(0.,0.,-1.));
#777=DIRECTION('ref_axis',(0.999999999735614,2.29950297142611E-5,0.));
#778=DIRECTION('',(0.,0.,1.));
#779=DIRECTION('center_axis',(0.,-1.,0.));
#780=DIRECTION('ref_axis',(-1.,0.,0.));
#781=DIRECTION('center_axis',(0.,0.,-1.));
#782=DIRECTION('ref_axis',(-1.2918958832E-14,-1.,0.));
#783=DIRECTION('',(0.,0.,-1.));
#784=DIRECTION('center_axis',(0.,0.,-1.));
#785=DIRECTION('ref_axis',(0.,-1.,0.));
#786=DIRECTION('',(0.,0.,-1.));
#787=DIRECTION('center_axis',(0.,0.,-1.));
#788=DIRECTION('ref_axis',(0.,-1.,0.));
#789=DIRECTION('',(0.,0.,-1.));
#790=DIRECTION('center_axis',(0.,0.,-1.));
#791=DIRECTION('ref_axis',(0.,-1.,0.));
#792=DIRECTION('',(0.,0.,-1.));
#793=CARTESIAN_POINT('',(0.,0.,0.));
#794=CARTESIAN_POINT('Origin',(316.70633529824,-111.1249147016,0.));
#795=CARTESIAN_POINT('',(316.70625,-109.5375,0.));
#796=CARTESIAN_POINT('',(316.70625,-109.5375,1.2));
#797=CARTESIAN_POINT('',(316.70625,-109.5375,0.));
#798=CARTESIAN_POINT('',(318.29375,-111.124999,1.2));
#799=CARTESIAN_POINT('Origin',(316.70633529824,-111.1249147016,1.2));
#800=CARTESIAN_POINT('',(318.29375,-111.124999,0.));
#801=CARTESIAN_POINT('',(318.29375,-111.124999,0.));
#802=CARTESIAN_POINT('Origin',(316.70633529824,-111.1249147016,0.));
#803=CARTESIAN_POINT('Origin',(91.28125,-109.5375,0.));
#804=CARTESIAN_POINT('',(91.28125,-109.5375,0.));
#805=CARTESIAN_POINT('',(91.28125,-109.5375,1.2));
#806=CARTESIAN_POINT('',(91.28125,-109.5375,0.));
#807=CARTESIAN_POINT('',(91.28125,-109.5375,1.2));
#808=CARTESIAN_POINT('',(91.28125,-109.5375,0.));
#809=CARTESIAN_POINT('Origin',(318.29375,-111.124999,0.));
#810=CARTESIAN_POINT('',(318.29375,-146.106249,1.2));
#811=CARTESIAN_POINT('',(318.29375,-111.124999,1.2));
#812=CARTESIAN_POINT('',(318.29375,-146.106249,0.));
#813=CARTESIAN_POINT('',(318.29375,-146.106249,0.));
#814=CARTESIAN_POINT('',(318.29375,-111.124999,0.));
#815=CARTESIAN_POINT('Origin',(0.,0.,0.));
#816=CARTESIAN_POINT('',(317.79375,-146.606249,0.));
#817=CARTESIAN_POINT('Origin',(317.79370086161,-146.1061998616,0.));
#818=CARTESIAN_POINT('',(311.99375,-146.60625,0.));
#819=CARTESIAN_POINT('',(317.79375,-146.606249,0.));
#820=CARTESIAN_POINT('',(311.49375,-147.10625,0.));
#821=CARTESIAN_POINT('Origin',(311.99379913838,-147.1062991383,0.));
#822=CARTESIAN_POINT('',(311.49375,-156.10625,0.));
#823=CARTESIAN_POINT('',(311.49375,-147.10625,0.));
#824=CARTESIAN_POINT('',(311.993749,-156.606249,0.));
#825=CARTESIAN_POINT('Origin',(311.99380084615,-156.1061981538,0.));
#826=CARTESIAN_POINT('',(317.79375,-156.606249,0.));
#827=CARTESIAN_POINT('',(311.993749,-156.606249,0.));
#828=CARTESIAN_POINT('',(318.29375,-157.106249,0.));
#829=CARTESIAN_POINT('Origin',(317.79379987362,-157.1061991263,0.));
#830=CARTESIAN_POINT('',(318.29375,-184.149999,0.));
#831=CARTESIAN_POINT('',(318.29375,-157.106249,0.));
#832=CARTESIAN_POINT('',(316.70625,-185.737498,0.));
#833=CARTESIAN_POINT('Origin',(316.70628750372,-184.1500355037,0.));
#834=CARTESIAN_POINT('',(212.112499,-185.737498,0.));
#835=CARTESIAN_POINT('',(316.70625,-185.737498,0.));
#836=CARTESIAN_POINT('',(211.612499,-185.237498,0.));
#837=CARTESIAN_POINT('Origin',(212.11250204069,-185.2374949593,0.));
#838=CARTESIAN_POINT('',(211.6125,-177.799999,0.));
#839=CARTESIAN_POINT('',(211.612499,-185.237498,0.));
#840=CARTESIAN_POINT('',(191.612499,-177.799999,0.));
#841=CARTESIAN_POINT('Origin',(201.6124995,-177.8000005,0.));
#842=CARTESIAN_POINT('',(191.612498,-185.237499,0.));
#843=CARTESIAN_POINT('',(191.612499,-177.799999,0.));
#844=CARTESIAN_POINT('',(191.112499,-185.737498,0.));
#845=CARTESIAN_POINT('Origin',(191.11250008064,-185.2375000806,0.));
#846=CARTESIAN_POINT('',(91.28125,-185.737498,0.));
#847=CARTESIAN_POINT('',(191.112499,-185.737498,0.));
#848=CARTESIAN_POINT('',(89.69375,-184.149999,0.));
#849=CARTESIAN_POINT('Origin',(91.281166408649,-184.1500815914,0.));
#850=CARTESIAN_POINT('',(89.69375,-111.124999,0.));
#851=CARTESIAN_POINT('',(89.69375,-184.149999,0.));
#852=CARTESIAN_POINT('Origin',(91.2812142033,-111.1249642032,0.));
#853=CARTESIAN_POINT('',(112.315625,-175.1125,0.));
#854=CARTESIAN_POINT('Origin',(112.315625,-176.2125,0.));
#855=CARTESIAN_POINT('',(295.671875,-175.1125,0.));
#856=CARTESIAN_POINT('Origin',(295.671875,-176.2125,0.));
#857=CARTESIAN_POINT('',(119.459375,-128.678125,0.));
#858=CARTESIAN_POINT('Origin',(119.459375,-129.778125,0.));
#859=CARTESIAN_POINT('',(295.671875,-128.678125,0.));
#860=CARTESIAN_POINT('Origin',(295.671875,-129.778125,0.));
#861=CARTESIAN_POINT('Origin',(0.,0.,1.2));
#862=CARTESIAN_POINT('',(89.69375,-111.124999,1.2));
#863=CARTESIAN_POINT('Origin',(91.2812142033,-111.1249642032,1.2));
#864=CARTESIAN_POINT('',(89.69375,-184.149999,1.2));
#865=CARTESIAN_POINT('',(89.69375,-184.149999,1.2));
#866=CARTESIAN_POINT('',(91.28125,-185.737498,1.2));
#867=CARTESIAN_POINT('Origin',(91.281166408649,-184.1500815914,1.2));
#868=CARTESIAN_POINT('',(191.112499,-185.737498,1.2));
#869=CARTESIAN_POINT('',(191.112499,-185.737498,1.2));
#870=CARTESIAN_POINT('',(191.612498,-185.237499,1.2));
#871=CARTESIAN_POINT('Origin',(191.11250008064,-185.2375000806,1.2));
#872=CARTESIAN_POINT('',(191.612499,-177.799999,1.2));
#873=CARTESIAN_POINT('',(191.612499,-177.799999,1.2));
#874=CARTESIAN_POINT('',(211.6125,-177.799999,1.2));
#875=CARTESIAN_POINT('Origin',(201.6124995,-177.8000005,1.2));
#876=CARTESIAN_POINT('',(211.612499,-185.237498,1.2));
#877=CARTESIAN_POINT('',(211.612499,-185.237498,1.2));
#878=CARTESIAN_POINT('',(212.112499,-185.737498,1.2));
#879=CARTESIAN_POINT('Origin',(212.11250204069,-185.2374949593,1.2));
#880=CARTESIAN_POINT('',(316.70625,-185.737498,1.2));
#881=CARTESIAN_POINT('',(316.70625,-185.737498,1.2));
#882=CARTESIAN_POINT('',(318.29375,-184.149999,1.2));
#883=CARTESIAN_POINT('Origin',(316.70628750372,-184.1500355037,1.2));
#884=CARTESIAN_POINT('',(318.29375,-157.106249,1.2));
#885=CARTESIAN_POINT('',(318.29375,-157.106249,1.2));
#886=CARTESIAN_POINT('',(317.79375,-156.606249,1.2));
#887=CARTESIAN_POINT('Origin',(317.79379987362,-157.1061991263,1.2));
#888=CARTESIAN_POINT('',(311.993749,-156.606249,1.2));
#889=CARTESIAN_POINT('',(311.993749,-156.606249,1.2));
#890=CARTESIAN_POINT('',(311.49375,-156.10625,1.2));
#891=CARTESIAN_POINT('Origin',(311.99380084615,-156.1061981538,1.2));
#892=CARTESIAN_POINT('',(311.49375,-147.10625,1.2));
#893=CARTESIAN_POINT('',(311.49375,-147.10625,1.2));
#894=CARTESIAN_POINT('',(311.99375,-146.60625,1.2));
#895=CARTESIAN_POINT('Origin',(311.99379913838,-147.1062991383,1.2));
#896=CARTESIAN_POINT('',(317.79375,-146.606249,1.2));
#897=CARTESIAN_POINT('',(317.79375,-146.606249,1.2));
#898=CARTESIAN_POINT('Origin',(317.79370086161,-146.1061998616,1.2));
#899=CARTESIAN_POINT('',(112.315625,-175.1125,1.2));
#900=CARTESIAN_POINT('Origin',(112.315625,-176.2125,1.2));
#901=CARTESIAN_POINT('',(295.671875,-175.1125,1.2));
#902=CARTESIAN_POINT('Origin',(295.671875,-176.2125,1.2));
#903=CARTESIAN_POINT('',(119.459375,-128.678125,1.2));
#904=CARTESIAN_POINT('Origin',(119.459375,-129.778125,1.2));
#905=CARTESIAN_POINT('',(295.671875,-128.678125,1.2));
#906=CARTESIAN_POINT('Origin',(295.671875,-129.778125,1.2));
#907=CARTESIAN_POINT('Origin',(91.2812142033,-111.1249642032,0.));
#908=CARTESIAN_POINT('',(89.69375,-111.124999,0.));
#909=CARTESIAN_POINT('Origin',(317.79370086161,-146.1061998616,0.));
#910=CARTESIAN_POINT('',(317.79375,-146.606249,0.));
#911=CARTESIAN_POINT('Origin',(89.69375,-184.149999,0.));
#912=CARTESIAN_POINT('',(89.69375,-184.149999,0.));
#913=CARTESIAN_POINT('Origin',(317.79375,-146.606249,0.));
#914=CARTESIAN_POINT('',(311.99375,-146.60625,0.));
#915=CARTESIAN_POINT('Origin',(91.281166408649,-184.1500815914,0.));
#916=CARTESIAN_POINT('',(91.28125,-185.737498,0.));
#917=CARTESIAN_POINT('Origin',(311.99379913838,-147.1062991383,0.));
#918=CARTESIAN_POINT('',(311.49375,-147.10625,0.));
#919=CARTESIAN_POINT('Origin',(191.112499,-185.737498,0.));
#920=CARTESIAN_POINT('',(191.112499,-185.737498,0.));
#921=CARTESIAN_POINT('Origin',(311.49375,-147.10625,0.));
#922=CARTESIAN_POINT('',(311.49375,-156.10625,0.));
#923=CARTESIAN_POINT('Origin',(191.11250008064,-185.2375000806,0.));
#924=CARTESIAN_POINT('',(191.612498,-185.237499,0.));
#925=CARTESIAN_POINT('Origin',(311.99380084615,-156.1061981538,0.));
#926=CARTESIAN_POINT('',(311.993749,-156.606249,0.));
#927=CARTESIAN_POINT('Origin',(191.612499,-177.799999,0.));
#928=CARTESIAN_POINT('',(191.612499,-177.799999,0.));
#929=CARTESIAN_POINT('Origin',(311.993749,-156.606249,0.));
#930=CARTESIAN_POINT('',(317.79375,-156.606249,0.));
#931=CARTESIAN_POINT('Origin',(201.6124995,-177.8000005,0.));
#932=CARTESIAN_POINT('',(211.6125,-177.799999,0.));
#933=CARTESIAN_POINT('Origin',(317.79379987362,-157.1061991263,0.));
#934=CARTESIAN_POINT('',(318.29375,-157.106249,0.));
#935=CARTESIAN_POINT('Origin',(211.612499,-185.237498,0.));
#936=CARTESIAN_POINT('',(211.612499,-185.237498,0.));
#937=CARTESIAN_POINT('Origin',(318.29375,-157.106249,0.));
#938=CARTESIAN_POINT('',(318.29375,-184.149999,0.));
#939=CARTESIAN_POINT('Origin',(212.11250204069,-185.2374949593,0.));
#940=CARTESIAN_POINT('',(212.112499,-185.737498,0.));
#941=CARTESIAN_POINT('Origin',(316.70628750372,-184.1500355037,0.));
#942=CARTESIAN_POINT('',(316.70625,-185.737498,0.));
#943=CARTESIAN_POINT('Origin',(316.70625,-185.737498,0.));
#944=CARTESIAN_POINT('Origin',(112.315625,-176.2125,-0.046));
#945=CARTESIAN_POINT('',(112.315625,-175.1125,-0.046));
#946=CARTESIAN_POINT('Origin',(295.671875,-176.2125,-0.046));
#947=CARTESIAN_POINT('',(295.671875,-175.1125,-0.046));
#948=CARTESIAN_POINT('Origin',(119.459375,-129.778125,-0.046));
#949=CARTESIAN_POINT('',(119.459375,-128.678125,-0.046));
#950=CARTESIAN_POINT('Origin',(295.671875,-129.778125,-0.046));
#951=CARTESIAN_POINT('',(295.671875,-128.678125,-0.046));
#952=UNCERTAINTY_MEASURE_WITH_UNIT(LENGTH_MEASURE(0.01),#956,
'DISTANCE_ACCURACY_VALUE',
'Maximum model space distance between geometric entities at asserted c
onnectivities');
#953=UNCERTAINTY_MEASURE_WITH_UNIT(LENGTH_MEASURE(0.01),#956,
'DISTANCE_ACCURACY_VALUE',
'Maximum model space distance between geometric entities at asserted c
onnectivities');
#954=(
GEOMETRIC_REPRESENTATION_CONTEXT(3)
GLOBAL_UNCERTAINTY_ASSIGNED_CONTEXT((#952))
GLOBAL_UNIT_ASSIGNED_CONTEXT((#956,#958,#959))
REPRESENTATION_CONTEXT('','3D')
);
#955=(
GEOMETRIC_REPRESENTATION_CONTEXT(3)
GLOBAL_UNCERTAINTY_ASSIGNED_CONTEXT((#953))
GLOBAL_UNIT_ASSIGNED_CONTEXT((#956,#958,#959))
REPRESENTATION_CONTEXT('','3D')
);
#956=(
LENGTH_UNIT()
NAMED_UNIT(*)
SI_UNIT(.MILLI.,.METRE.)
);
#957=(
LENGTH_UNIT()
NAMED_UNIT(*)
SI_UNIT($,.METRE.)
);
#958=(
NAMED_UNIT(*)
PLANE_ANGLE_UNIT()
SI_UNIT($,.RADIAN.)
);
#959=(
NAMED_UNIT(*)
SI_UNIT($,.STERADIAN.)
SOLID_ANGLE_UNIT()
);
#960=SHAPE_DEFINITION_REPRESENTATION(#961,#962);
#961=PRODUCT_DEFINITION_SHAPE('',$,#964);
#962=SHAPE_REPRESENTATION('',(#568),#954);
#963=PRODUCT_DEFINITION_CONTEXT('part definition',#968,'design');
#964=PRODUCT_DEFINITION('blad_bottom_plate_PCB','blad_bottom_plate_PCB',
#965,#963);
#965=PRODUCT_DEFINITION_FORMATION('',$,#970);
#966=PRODUCT_RELATED_PRODUCT_CATEGORY('blad_bottom_plate_PCB',
'blad_bottom_plate_PCB',(#970));
#967=APPLICATION_PROTOCOL_DEFINITION('international standard',
'automotive_design',2009,#968);
#968=APPLICATION_CONTEXT(
'Core Data for Automotive Mechanical Design Process');
#969=PRODUCT_CONTEXT('part definition',#968,'mechanical');
#970=PRODUCT('blad_bottom_plate_PCB','blad_bottom_plate_PCB',$,(#969));
#971=PRESENTATION_STYLE_ASSIGNMENT((#973));
#972=PRESENTATION_STYLE_ASSIGNMENT((#974));
#973=SURFACE_STYLE_USAGE(.BOTH.,#975);
#974=SURFACE_STYLE_USAGE(.BOTH.,#976);
#975=SURFACE_SIDE_STYLE('',(#977));
#976=SURFACE_SIDE_STYLE('',(#978));
#977=SURFACE_STYLE_FILL_AREA(#979);
#978=SURFACE_STYLE_FILL_AREA(#980);
#979=FILL_AREA_STYLE('\X2\92FC\X0\ - \X2\30B530C630F3\X0\',(#981));
#980=FILL_AREA_STYLE('\X2\30A230EB30DF30CB30A630E0\X0\ - \X2\30D330FC30BA\X0\ 
\X2\30D630E930B930C8\X0\',(#982));
#981=FILL_AREA_STYLE_COLOUR('\X2\92FC\X0\ - \X2\30B530C630F3\X0\',#983);
#982=FILL_AREA_STYLE_COLOUR(
'\X2\30A230EB30DF30CB30A630E0\X0\ - \X2\30D330FC30BA\X0\ \X2\30D630E930B930C8\X0\',
#984);
#983=COLOUR_RGB('\X2\92FC\X0\ - \X2\30B530C630F3\X0\',0.627450980392157,
0.627450980392157,0.627450980392157);
#984=COLOUR_RGB('\X2\30A230EB30DF30CB30A630E0\X0\ - \X2\30D330FC30BA\X0\ 
\X2\30D630E930B930C8\X0\',0.96078431372549,0.96078431372549,0.964705882352941);
ENDSEC;
END-ISO-10303-21;
