999
dxfrw 0.6.3
  0
SECTION
  2
HEADER
  9
$ACADVER
  1
AC1021
  9
$DWGCODEPAGE
  3
ANSI_1252
  9
$INSBASE
 10
0
 20
0
 30
0
  9
$EXTMIN
 10
89.69374999785143
 20
-185.737498002198
 30
0
  9
$EXTMAX
 10
318.2937500024877
 20
-109.537499997611
 30
0
  9
$LIMMIN
 10
0
 20
0
  9
$LIMMAX
 10
420
 20
297
  9
$ORTHOMODE
 70
    0
  9
$REGENMODE
 70
    1
  9
$FILLMODE
 70
    1
  9
$QTEXTMODE
 70
    0
  9
$MIRRTEXT
 70
    0
  9
$LTSCALE
 40
1
  9
$ATTMODE
 70
    0
  9
$TEXTSIZE
 40
2.5
  9
$TRACEWID
 40
15.68
  9
$TEXTSTYLE
  7
STANDARD
  9
$CLAYER
  8
edge
  9
$CELTYPE
  6
BYLAYER
  9
$CECOLOR
 62
  256
  9
$CELTSCALE
 40
1
  9
$DISPSILH
 70
    0
  9
$DIMSCALE
 40
2.5
  9
$DIMASZ
 40
2.5
  9
$DIMEXO
 40
0.625
  9
$DIMDLI
 40
3.75
  9
$DIMRND
 40
0
  9
$DIMDLE
 40
0
  9
$DIMEXE
 40
1.25
  9
$DIMTP
 40
0
  9
$DIMTM
 40
0
  9
$DIMTXT
 40
2.5
  9
$DIMCEN
 40
2.5
  9
$DIMTSZ
 40
0
  9
$DIMTOL
 70
    0
  9
$DIMLIM
 70
    0
  9
$DIMTIH
 70
    0
  9
$DIMTOH
 70
    0
  9
$DIMSE1
 70
    0
  9
$DIMSE2
 70
    0
  9
$DIMTAD
 70
    1
  9
$DIMZIN
 70
    8
  9
$DIMBLK
  1

  9
$DIMASO
 70
    1
  9
$DIMSHO
 70
    1
  9
$DIMPOST
  1

  9
$DIMAPOST
  1

  9
$DIMALT
 70
    0
  9
$DIMALTD
 70
    3
  9
$DIMALTF
 40
0.03937
  9
$DIMLFAC
 40
1
  9
$DIMTOFL
 70
    1
  9
$DIMTVP
 40
0
  9
$DIMTIX
 70
    0
  9
$DIMSOXD
 70
    0
  9
$DIMSAH
 70
    0
  9
$DIMBLK1
  1

  9
$DIMBLK2
  1

  9
$DIMSTYLE
  2
Standard
  9
$DIMCLRD
 70
    0
  9
$DIMCLRE
 70
    0
  9
$DIMCLRT
 70
    0
  9
$DIMTFAC
 40
1
  9
$DIMGAP
 40
0.625
  9
$DIMJUST
 70
    0
  9
$DIMSD1
 70
    0
  9
$DIMSD2
 70
    0
  9
$DIMTOLJ
 70
    0
  9
$DIMTZIN
 70
    8
  9
$DIMALTZ
 70
    0
  9
$DIMALTTZ
 70
    0
  9
$DIMUPT
 70
    0
  9
$DIMDEC
 70
    2
  9
$DIMTDEC
 70
    2
  9
$DIMALTU
 70
    2
  9
$DIMALTTD
 70
    3
  9
$DIMTXSTY
  7
STANDARD
  9
$DIMAUNIT
 70
    0
  9
$DIMADEC
 70
    0
  9
$DIMALTRND
 40
0
  9
$DIMAZIN
 70
    0
  9
$DIMDSEP
 70
   44
  9
$DIMATFIT
 70
    3
  9
$DIMFRAC
 70
    0
  9
$DIMLDRBLK
  1
STANDARD
  9
$DIMLUNIT
 70
    2
  9
$DIMLWD
 70
   -2
  9
$DIMLWE
 70
   -2
  9
$DIMTMOVE
 70
    0
  9
$DIMFXL
 40
1
  9
$DIMFXLON
 70
    0
  9
$DIMJOGANG
 40
0.7854
  9
$DIMTFILL
 70
    0
  9
$DIMTFILLCLR
 70
    0
  9
$DIMARCSYM
 70
    0
  9
$DIMLTYPE
  6

  9
$DIMLTEX1
  6

  9
$DIMLTEX2
  6

  9
$LUNITS
 70
    2
  9
$LUPREC
 70
    4
  9
$SKETCHINC
 40
1
  9
$FILLETRAD
 40
0
  9
$AUNITS
 70
    0
  9
$AUPREC
 70
    2
  9
$MENU
  1
.
  9
$ELEVATION
 40
0
  9
$PELEVATION
 40
0
  9
$THICKNESS
 40
0
  9
$LIMCHECK
 70
    0
  9
$CHAMFERA
 40
0
  9
$CHAMFERB
 40
0
  9
$CHAMFERC
 40
0
  9
$CHAMFERD
 40
0
  9
$SKPOLY
 70
    0
  9
$USRTIMER
 70
    1
  9
$ANGBASE
 50
0
  9
$ANGDIR
 70
    0
  9
$PDMODE
 70
   96
  9
$PDSIZE
 40
-2
  9
$PLINEWID
 40
0
  9
$SPLFRAME
 70
    0
  9
$SPLINETYPE
 70
    2
  9
$SPLINESEGS
 70
    8
  9
$HANDSEED
  5
20000
  9
$SURFTAB1
 70
    6
  9
$SURFTAB2
 70
    6
  9
$SURFTYPE
 70
    6
  9
$SURFU
 70
    6
  9
$SURFV
 70
    6
  9
$UCSBASE
  2

  9
$UCSNAME
  2

  9
$UCSORG
 10
0
 20
0
 30
0
  9
$UCSXDIR
 10
1
 20
0
 30
0
  9
$UCSYDIR
 10
0
 20
1
 30
0
  9
$UCSORTHOREF
  2

  9
$UCSORTHOVIEW
 70
    0
  9
$UCSORGTOP
 10
0
 20
0
 30
0
  9
$UCSORGBOTTOM
 10
0
 20
0
 30
0
  9
$UCSORGLEFT
 10
0
 20
0
 30
0
  9
$UCSORGRIGHT
 10
0
 20
0
 30
0
  9
$UCSORGFRONT
 10
0
 20
0
 30
0
  9
$UCSORGBACK
 10
0
 20
0
 30
0
  9
$PUCSBASE
  2

  9
$PUCSNAME
  2

  9
$PUCSORG
 10
0
 20
0
 30
0
  9
$PUCSXDIR
 10
1
 20
0
 30
0
  9
$PUCSYDIR
 10
0
 20
1
 30
0
  9
$PUCSORTHOREF
  2

  9
$PUCSORTHOVIEW
 70
    0
  9
$PUCSORGTOP
 10
0
 20
0
 30
0
  9
$PUCSORGBOTTOM
 10
0
 20
0
 30
0
  9
$PUCSORGLEFT
 10
0
 20
0
 30
0
  9
$PUCSORGRIGHT
 10
0
 20
0
 30
0
  9
$PUCSORGFRONT
 10
0
 20
0
 30
0
  9
$PUCSORGBACK
 10
0
 20
0
 30
0
  9
$USERI1
 70
    0
  9
$USERI2
 70
    0
  9
$USERI3
 70
    0
  9
$USERI4
 70
    0
  9
$USERI5
 70
    0
  9
$USERR1
 40
0
  9
$USERR2
 40
0
  9
$USERR3
 40
0
  9
$USERR4
 40
0
  9
$USERR5
 40
0
  9
$WORLDVIEW
 70
    1
  9
$SHADEDGE
 70
    3
  9
$SHADEDIF
 70
   70
  9
$TILEMODE
 70
    1
  9
$MAXACTVP
 70
   64
  9
$PINSBASE
 10
0
 20
0
 30
0
  9
$PLIMCHECK
 70
    0
  9
$PEXTMIN
 10
0
 20
0
 30
0
  9
$PEXTMAX
 10
0
 20
0
 30
0
  9
$SNAPSTYLE
 70
    0
  9
$PLIMMIN
 10
0
 20
0
  9
$PLIMMAX
 10
210
 20
297
  9
$UNITMODE
 70
    0
  9
$VISRETAIN
 70
    1
  9
$PLINEGEN
 70
    0
  9
$PSLTSCALE
 70
    1
  9
$TREEDEPTH
 70
 3020
  9
$CMLSTYLE
  2
Standard
  9
$CMLJUST
 70
    0
  9
$CMLSCALE
 40
20
  9
$PROXYGRAPHICS
 70
    1
  9
$MEASUREMENT
 70
    1
  9
$CELWEIGHT
370
   -1
  9
$ENDCAPS
280
    0
  9
$JOINSTYLE
280
    0
  9
$LWDISPLAY
290
    0
  9
$INSUNITS
 70
    4
  9
$HYPERLINKBASE
  1

  9
$STYLESHEET
  1

  9
$XEDIT
290
    1
  9
$CEPSNTYPE
380
    0
  9
$PSTYLEMODE
290
    1
  9
$EXTNAMES
290
    1
  9
$PSVPSCALE
 40
1
  9
$OLESTARTUP
290
    0
  9
$SORTENTS
280
  127
  9
$INDEXCTL
280
    0
  9
$HIDETEXT
280
    1
  9
$XCLIPFRAME
290
    0
  9
$HALOGAP
280
    0
  9
$OBSCOLOR
 70
  257
  9
$OBSLTYPE
280
    0
  9
$INTERSECTIONDISPLAY
280
    0
  9
$INTERSECTIONCOLOR
 70
  257
  9
$DIMASSOC
280
    1
  9
$PROJECTNAME
  1

  9
$CAMERADISPLAY
290
    0
  9
$LENSLENGTH
 40
50
  9
$CAMERAHEIGHT
 40
0
  9
$STEPSPERSEC
 40
2
  9
$STEPSIZE
 40
50
  9
$3DDWFPREC
 40
2
  9
$PSOLWIDTH
 40
5
  9
$PSOLHEIGHT
 40
80
  9
$LOFTANG1
 40
1.570796326794897
  9
$LOFTANG2
 40
1.570796326794897
  9
$LOFTMAG1
 40
0
  9
$LOFTMAG2
 40
0
  9
$LOFTPARAM
 70
    7
  9
$LOFTNORMALS
280
    1
  9
$LATITUDE
 40
1
  9
$LONGITUDE
 40
1
  9
$NORTHDIRECTION
 40
0
  9
$TIMEZONE
 70
-8000
  9
$LIGHTGLYPHDISPLAY
280
    1
  9
$TILEMODELIGHTSYNCH
280
    1
  9
$SOLIDHIST
280
    1
  9
$SHOWHIST
280
    1
  9
$DWFFRAME
280
    2
  9
$DGNFRAME
280
    0
  9
$REALWORLDSCALE
290
    1
  9
$INTERFERECOLOR
 62
    1
  9
$CSHADOW
280
    0
  9
$SHADOWPLANELOCATION
 40
0
  0
ENDSEC
  0
SECTION
  2
CLASSES
  0
ENDSEC
  0
SECTION
  2
TABLES
  0
TABLE
  2
VPORT
  5
8
330
0
100
AcDbSymbolTable
 70
    1
  0
VPORT
  5
31
330
2
100
AcDbSymbolTableRecord
100
AcDbViewportTableRecord
  2
*ACTIVE
 70
    0
 10
0
 20
0
 11
1
 21
1
 12
174.5000000000007
 22
-4.250000000000018
 13
0
 23
0
 14
10
 24
10
 15
10
 25
10
 16
0
 26
0
 36
1
 17
0
 27
0
 37
0
 40
230.750000000001
 41
1.422535211267606
 42
50
 43
0
 44
0
 50
0
 51
0
 71
    0
 72
  100
 73
    1
 74
    3
 75
    0
 76
    1
 77
    0
 78
    0
281
    0
 65
    1
110
0
120
0
130
0
111
1
121
0
131
0
112
0
122
1
132
0
 79
    0
146
0
348
10020
 60
    7
 61
    5
292
1
282
    1
141
0
142
0
 63
  250
421
3358443
  0
ENDTAB
  0
TABLE
  2
LTYPE
  5
5
330
0
100
AcDbSymbolTable
 70
    4
  0
LTYPE
  5
14
330
5
100
AcDbSymbolTableRecord
100
AcDbLinetypeTableRecord
  2
ByBlock
 70
    0
  3

 72
   65
 73
    0
 40
0
  0
LTYPE
  5
15
330
5
100
AcDbSymbolTableRecord
100
AcDbLinetypeTableRecord
  2
ByLayer
 70
    0
  3

 72
   65
 73
    0
 40
0
  0
LTYPE
  5
16
330
5
100
AcDbSymbolTableRecord
100
AcDbLinetypeTableRecord
  2
Continuous
 70
    0
  3
Solid line
 72
   65
 73
    0
 40
0
  0
LTYPE
  5
32
330
5
100
AcDbSymbolTableRecord
100
AcDbLinetypeTableRecord
  2
DOT
 70
    0
  3
Dot . . . . . . . . . . . . . . . . . . . . . .
 72
   65
 73
    2
 40
6.35
 49
0
 74
    0
 49
-6.35
 74
    0
  0
LTYPE
  5
33
330
5
100
AcDbSymbolTableRecord
100
AcDbLinetypeTableRecord
  2
DOTTINY
 70
    0
  3
Dot (.15x) .....................................
 72
   65
 73
    2
 40
0.9525
 49
0
 74
    0
 49
-0.9525
 74
    0
  0
LTYPE
  5
34
330
5
100
AcDbSymbolTableRecord
100
AcDbLinetypeTableRecord
  2
DOT2
 70
    0
  3
Dot (.5x) .....................................
 72
   65
 73
    2
 40
3.175
 49
0
 74
    0
 49
-3.175
 74
    0
  0
LTYPE
  5
35
330
5
100
AcDbSymbolTableRecord
100
AcDbLinetypeTableRecord
  2
DOTX2
 70
    0
  3
Dot (2x) .  .  .  .  .  .  .  .  .  .  .  .  .
 72
   65
 73
    2
 40
12.7
 49
0
 74
    0
 49
-12.7
 74
    0
  0
LTYPE
  5
36
330
5
100
AcDbSymbolTableRecord
100
AcDbLinetypeTableRecord
  2
DASHED
 70
    0
  3
Dashed _ _ _ _ _ _ _ _ _ _ _ _ _ _ _ _ _
 72
   65
 73
    2
 40
19.05
 49
12.7
 74
    0
 49
-6.35
 74
    0
  0
LTYPE
  5
37
330
5
100
AcDbSymbolTableRecord
100
AcDbLinetypeTableRecord
  2
DASHEDTINY
 70
    0
  3
Dashed (.15x) _ _ _ _ _ _ _ _ _ _ _ _ _ _ _ _ _
 72
   65
 73
    2
 40
2.8575
 49
1.905
 74
    0
 49
-0.9525
 74
    0
  0
LTYPE
  5
38
330
5
100
AcDbSymbolTableRecord
100
AcDbLinetypeTableRecord
  2
DASHED2
 70
    0
  3
Dashed (.5x) _ _ _ _ _ _ _ _ _ _ _ _ _ _ _ _ _
 72
   65
 73
    2
 40
9.524999999999999
 49
6.35
 74
    0
 49
-3.175
 74
    0
  0
LTYPE
  5
39
330
5
100
AcDbSymbolTableRecord
100
AcDbLinetypeTableRecord
  2
DASHEDX2
 70
    0
  3
Dashed (2x) ____  ____  ____  ____  ____  ___
 72
   65
 73
    2
 40
38.09999999999999
 49
25.4
 74
    0
 49
-12.7
 74
    0
  0
LTYPE
  5
3A
330
5
100
AcDbSymbolTableRecord
100
AcDbLinetypeTableRecord
  2
DASHDOT
 70
    0
  3
Dash dot __ . __ . __ . __ . __ . __ . __ . __
 72
   65
 73
    4
 40
25.4
 49
12.7
 74
    0
 49
-6.35
 74
    0
 49
0
 74
    0
 49
-6.35
 74
    0
  0
LTYPE
  5
3B
330
5
100
AcDbSymbolTableRecord
100
AcDbLinetypeTableRecord
  2
DASHDOTTINY
 70
    0
  3
Dash dot (.15x) _._._._._._._._._._._._._._._.
 72
   65
 73
    4
 40
3.81
 49
1.905
 74
    0
 49
-0.9525
 74
    0
 49
0
 74
    0
 49
-0.9525
 74
    0
  0
LTYPE
  5
3C
330
5
100
AcDbSymbolTableRecord
100
AcDbLinetypeTableRecord
  2
DASHDOT2
 70
    0
  3
Dash dot (.5x) _._._._._._._._._._._._._._._.
 72
   65
 73
    4
 40
12.7
 49
6.35
 74
    0
 49
-3.175
 74
    0
 49
0
 74
    0
 49
-3.175
 74
    0
  0
LTYPE
  5
3D
330
5
100
AcDbSymbolTableRecord
100
AcDbLinetypeTableRecord
  2
DASHDOTX2
 70
    0
  3
Dash dot (2x) ____  .  ____  .  ____  .  ___
 72
   65
 73
    4
 40
50.8
 49
25.4
 74
    0
 49
-12.7
 74
    0
 49
0
 74
    0
 49
-12.7
 74
    0
  0
LTYPE
  5
3E
330
5
100
AcDbSymbolTableRecord
100
AcDbLinetypeTableRecord
  2
DIVIDE
 70
    0
  3
Divide ____ . . ____ . . ____ . . ____ . . ____
 72
   65
 73
    6
 40
31.75
 49
12.7
 74
    0
 49
-6.35
 74
    0
 49
0
 74
    0
 49
-6.35
 74
    0
 49
0
 74
    0
 49
-6.35
 74
    0
  0
LTYPE
  5
3F
330
5
100
AcDbSymbolTableRecord
100
AcDbLinetypeTableRecord
  2
DIVIDETINY
 70
    0
  3
Divide (.15x) __..__..__..__..__..__..__..__.._
 72
   65
 73
    6
 40
4.7625
 49
1.905
 74
    0
 49
-0.9525
 74
    0
 49
0
 74
    0
 49
-0.9525
 74
    0
 49
0
 74
    0
 49
-0.9525
 74
    0
  0
LTYPE
  5
40
330
5
100
AcDbSymbolTableRecord
100
AcDbLinetypeTableRecord
  2
DIVIDE2
 70
    0
  3
Divide (.5x) __..__..__..__..__..__..__..__.._
 72
   65
 73
    6
 40
15.875
 49
6.35
 74
    0
 49
-3.175
 74
    0
 49
0
 74
    0
 49
-3.175
 74
    0
 49
0
 74
    0
 49
-3.175
 74
    0
  0
LTYPE
  5
41
330
5
100
AcDbSymbolTableRecord
100
AcDbLinetypeTableRecord
  2
DIVIDEX2
 70
    0
  3
Divide (2x) ________  .  .  ________  .  .  _
 72
   65
 73
    6
 40
63.5
 49
25.4
 74
    0
 49
-12.7
 74
    0
 49
0
 74
    0
 49
-12.7
 74
    0
 49
0
 74
    0
 49
-12.7
 74
    0
  0
LTYPE
  5
42
330
5
100
AcDbSymbolTableRecord
100
AcDbLinetypeTableRecord
  2
BORDER
 70
    0
  3
Border __ __ . __ __ . __ __ . __ __ . __ __ .
 72
   65
 73
    6
 40
44.45
 49
12.7
 74
    0
 49
-6.35
 74
    0
 49
12.7
 74
    0
 49
-6.35
 74
    0
 49
0
 74
    0
 49
-6.35
 74
    0
  0
LTYPE
  5
43
330
5
100
AcDbSymbolTableRecord
100
AcDbLinetypeTableRecord
  2
BORDERTINY
 70
    0
  3
Border (.15x) __.__.__.__.__.__.__.__.__.__.__.
 72
   65
 73
    6
 40
6.6675
 49
1.905
 74
    0
 49
-0.9525
 74
    0
 49
1.905
 74
    0
 49
-0.9525
 74
    0
 49
0
 74
    0
 49
-0.9525
 74
    0
  0
LTYPE
  5
44
330
5
100
AcDbSymbolTableRecord
100
AcDbLinetypeTableRecord
  2
BORDER2
 70
    0
  3
Border (.5x) __.__.__.__.__.__.__.__.__.__.__.
 72
   65
 73
    6
 40
22.225
 49
6.35
 74
    0
 49
-3.175
 74
    0
 49
6.35
 74
    0
 49
-3.175
 74
    0
 49
0
 74
    0
 49
-3.175
 74
    0
  0
LTYPE
  5
45
330
5
100
AcDbSymbolTableRecord
100
AcDbLinetypeTableRecord
  2
BORDERX2
 70
    0
  3
Border (2x) ____  ____  .  ____  ____  .  ___
 72
   65
 73
    6
 40
88.89999999999999
 49
25.4
 74
    0
 49
-12.7
 74
    0
 49
25.4
 74
    0
 49
-12.7
 74
    0
 49
0
 74
    0
 49
-12.7
 74
    0
  0
LTYPE
  5
46
330
5
100
AcDbSymbolTableRecord
100
AcDbLinetypeTableRecord
  2
CENTER
 70
    0
  3
Center ____ _ ____ _ ____ _ ____ _ ____ _ ____
 72
   65
 73
    4
 40
50.8
 49
31.75
 74
    0
 49
-6.35
 74
    0
 49
6.35
 74
    0
 49
-6.35
 74
    0
  0
LTYPE
  5
47
330
5
100
AcDbSymbolTableRecord
100
AcDbLinetypeTableRecord
  2
CENTERTINY
 70
    0
  3
Center (.15x) ___ _ ___ _ ___ _ ___ _ ___ _ ___
 72
   65
 73
    4
 40
7.619999999999999
 49
4.7625
 74
    0
 49
-0.9525
 74
    0
 49
0.9525
 74
    0
 49
-0.9525
 74
    0
  0
LTYPE
  5
48
330
5
100
AcDbSymbolTableRecord
100
AcDbLinetypeTableRecord
  2
CENTER2
 70
    0
  3
Center (.5x) ___ _ ___ _ ___ _ ___ _ ___ _ ___
 72
   65
 73
    4
 40
28.575
 49
19.05
 74
    0
 49
-3.175
 74
    0
 49
3.175
 74
    0
 49
-3.175
 74
    0
  0
LTYPE
  5
49
330
5
100
AcDbSymbolTableRecord
100
AcDbLinetypeTableRecord
  2
CENTERX2
 70
    0
  3
Center (2x) ________  __  ________  __  _____
 72
   65
 73
    4
 40
101.6
 49
63.5
 74
    0
 49
-12.7
 74
    0
 49
12.7
 74
    0
 49
-12.7
 74
    0
  0
ENDTAB
  0
TABLE
  2
LAYER
  5
2
330
0
100
AcDbSymbolTable
 70
    1
  0
LAYER
  5
10
330
2
100
AcDbSymbolTableRecord
100
AcDbLayerTableRecord
  2
0
 70
    0
 62
    7
  6
CONTINUOUS
370
   20
390
F
  0
LAYER
  5
4A
330
2
100
AcDbSymbolTableRecord
100
AcDbLayerTableRecord
  2
edge
 70
    0
 62
    6
  6
CONTINUOUS
370
   20
390
F
  0
ENDTAB
  0
TABLE
  2
STYLE
  5
3
330
0
100
AcDbSymbolTable
 70
    3
  0
STYLE
  5
4B
330
2
100
AcDbSymbolTableRecord
100
AcDbTextStyleTableRecord
  2
Standard
 70
    0
 40
0
 41
1
 50
0
 71
    0
 42
1
  3
txt
  4

  0
ENDTAB
  0
TABLE
  2
VIEW
  5
6
330
0
100
AcDbSymbolTable
 70
    0
  0
ENDTAB
  0
TABLE
  2
UCS
  5
7
330
0
100
AcDbSymbolTable
 70
    0
  0
ENDTAB
  0
TABLE
  2
APPID
  5
9
330
0
100
AcDbSymbolTable
 70
    1
  0
APPID
  5
12
330
9
100
AcDbSymbolTableRecord
100
AcDbRegAppTableRecord
  2
ACAD
 70
    0
  0
APPID
  5
4C
330
9
100
AcDbSymbolTableRecord
100
AcDbRegAppTableRecord
  2
LibreCad
 70
    0
  0
ENDTAB
  0
TABLE
  2
DIMSTYLE
  5
A
330
0
100
AcDbSymbolTable
 70
    1
100
AcDbDimStyleTable
 71
    1
  0
DIMSTYLE
105
4D
330
A
100
AcDbSymbolTableRecord
100
AcDbDimStyleTableRecord
  2
Standard
 70
    0
 40
1
 41
2.5
 42
0.625
 43
0.38
 44
1.25
 45
0
 46
0
 47
0
 48
0
 49
1
140
2.5
141
0.09
142
2.5
143
25.4
144
1
145
0
146
1
147
0.625
148
0
 71
    0
 72
    0
 73
    0
 74
    1
 75
    0
 76
    0
 77
    0
 78
    1
 79
    0
170
    0
171
    2
172
    0
173
    0
174
    0
175
    0
176
    0
177
    0
178
    0
179
    0
271
    2
272
    4
273
    2
274
    2
275
    0
276
    0
277
    2
278
    0
279
    0
280
    0
281
    0
282
    0
283
    1
284
    0
285
    0
286
    0
288
    0
289
    3
340
4B
  0
ENDTAB
  0
TABLE
  2
BLOCK_RECORD
  5
1
330
0
100
AcDbSymbolTable
 70
    2
  0
BLOCK_RECORD
  5
1F
330
1
100
AcDbSymbolTableRecord
100
AcDbBlockTableRecord
  2
*Model_Space
 70
    0
280
    1
281
    0
  0
BLOCK_RECORD
  5
1E
330
1
100
AcDbSymbolTableRecord
100
AcDbBlockTableRecord
  2
*Paper_Space
 70
    0
280
    1
281
    0
  0
ENDTAB
  0
ENDSEC
  0
SECTION
  2
BLOCKS
  0
BLOCK
  5
20
330
1F
100
AcDbEntity
  8
0
100
AcDbBlockBegin
  2
*Model_Space
 70
    0
 10
0
 20
0
 30
0
  3
*Model_Space
  1

  0
ENDBLK
  5
21
330
1F
100
AcDbEntity
  8
0
100
AcDbBlockEnd
  0
BLOCK
  5
1C
330
1B
100
AcDbEntity
  8
0
100
AcDbBlockBegin
  2
*Paper_Space
 70
    0
 10
0
 20
0
 30
0
  3
*Paper_Space
  1

  0
ENDBLK
  5
1D
330
1F
100
AcDbEntity
  8
0
100
AcDbBlockEnd
  0
ENDSEC
  0
SECTION
  2
ENTITIES
  0
CIRCLE
  5
4E
100
AcDbEntity
  8
0
  6
ByLayer
 62
  256
370
   -1
100
AcDbCircle
 10
96.83750000000002
 20
-116.68125
 40
4
  0
CIRCLE
  5
4F
100
AcDbEntity
  8
0
  6
ByLayer
 62
  256
370
   -1
100
AcDbCircle
 10
96.850995
 20
-178.59375
 40
4
  0
CIRCLE
  5
50
100
AcDbEntity
  8
0
  6
ByLayer
 62
  256
370
   -1
100
AcDbCircle
 10
311.15
 20
-116.68125
 40
4
  0
CIRCLE
  5
51
100
AcDbEntity
  8
0
  6
ByLayer
 62
  256
370
   -1
100
AcDbCircle
 10
311.15
 20
-178.59375
 40
4
  0
LWPOLYLINE
  5
52
100
AcDbEntity
  8
0
  6
ByLayer
 62
  256
370
   -1
100
AcDbPolyline
 90
   48
 70
    1
 43
0
 10
317.083451
 20
-172.310432
 10
317.154009
 20
-172.321632
 10
317.219234
 20
-172.339798
 10
317.281536
 20
-172.365811
 10
317.336132
 20
-172.397953
 10
317.383853
 20
-172.436213
 10
317.425373
 20
-172.481049
 10
317.459969
 20
-172.532049
 10
317.48784
 20
-172.589903
 10
317.507428
 20
-172.651266
 10
317.519626
 20
-172.719498
 10
317.523866
 20
-172.795616
 10
317.519569
 20
-172.873923
 10
317.50721
 20
-172.944098
 10
317.487378
 20
-173.007171
 10
317.460362
 20
-173.064039
 10
317.42517
 20
-173.116875
 10
317.383667
 20
-173.162449
 10
317.335476
 20
-173.201345
 10
317.279928
 20
-173.233849
 10
317.200042
 20
-173.265105
 10
317.109201
 20
-173.284647
 10
317.00546
 20
-173.29149
 10
316.928354
 20
-173.287801
 10
316.85804
 20
-173.277127
 10
316.793763
 20
-173.259922
 10
316.732349
 20
-173.235073
 10
316.677459
 20
-173.203552
 10
316.62841
 20
-173.165278
 10
316.5856680000001
 20
-173.120294
 10
316.550061
 20
-173.06884
 10
316.521371
 20
-173.010184
 10
316.501289
 20
-172.947879
 10
316.488742
 20
-172.878095
 10
316.484368
 20
-172.799707
 10
316.484445
 20
-172.798364
 10
316.48883
 20
-172.721867
 10
316.501694
 20
-172.651824
 10
316.522409
 20
-172.588559
 10
316.551744
 20
-172.528987
 10
316.587502
 20
-172.477341
 10
316.629815
 20
-172.432793
 10
316.678454
 20
-172.395023
 10
316.73375
 20
-172.363573
 10
316.79651
 20
-172.338455
 10
316.862104
 20
-172.320963
 10
316.932037
 20
-172.310244
 10
317.006864
 20
-172.306581
  0
LWPOLYLINE
  5
53
100
AcDbEntity
  8
0
  6
ByLayer
 62
  256
370
   -1
100
AcDbPolyline
 90
   34
 70
    1
 43
0
 10
316.648499
 20
-172.798364
 10
316.652858
 20
-172.848827
 10
316.665729
 20
-172.89591
 10
316.687212
 20
-172.940391
 10
316.716856
 20
-172.979686
 10
316.756262
 20
-173.014009
 10
316.807013
 20
-173.043523
 10
316.862386
 20
-173.064063
 10
316.928344
 20
-173.077225
 10
317.006864
 20
-173.08193
 10
317.079459
 20
-173.077691
 10
317.142401
 20
-173.065669
 10
317.197069
 20
-173.046637
 10
317.247414
 20
-173.01901
 10
317.287466
 20
-172.985505
 10
317.318579
 20
-172.945887
 10
317.341215
 20
-172.900694
 10
317.354994
 20
-172.850958
 10
317.359734
 20
-172.795616
 10
317.353935
 20
-172.737019
 10
317.336959
 20
-172.684058
 10
317.309071
 20
-172.63655
 10
317.270647
 20
-172.595948
 10
317.222586
 20
-172.563702
 10
317.159272
 20
-172.5375739999999
 10
317.088959
 20
-172.521738
 10
317.006864
 20
-172.516141
 10
316.924041
 20
-172.521728
 10
316.852686
 20
-172.5375739999999
 10
316.788364
 20
-172.564108
 10
316.738564
 20
-172.597963
 10
316.698703
 20
-172.64028
 10
316.670908
 20
-172.687478
 10
316.654224
 20
-172.739843
  0
LWPOLYLINE
  5
54
100
AcDbEntity
  8
0
  6
ByLayer
 62
  256
370
   -1
100
AcDbPolyline
 90
   41
 70
    1
 43
0
 10
317.344103
 20
-174.061283
 10
317.344103
 20
-173.663655
 10
317.093998
 20
-173.663655
 10
317.093998
 20
-173.995703
 10
317.088065
 20
-174.038812
 10
317.072566
 20
-174.066412
 10
317.048044
 20
-174.083862
 10
317.015474
 20
-174.0899199999999
 10
316.983042
 20
-174.083773
 10
316.958749
 20
-174.066045
 10
316.943492
 20
-174.038307
 10
316.937683
 20
-173.995703
 10
316.937683
 20
-173.663655
 10
316.609909
 20
-173.663655
 10
316.568426
 20
-173.659923
 10
316.537763
 20
-173.649926
 10
316.515326
 20
-173.634713
 10
316.498198
 20
-173.613758
 10
316.487931
 20
-173.589402
 10
316.484368
 20
-173.560585
 10
316.487971
 20
-173.531336
 10
316.49833
 20
-173.506749
 10
316.51557
 20
-173.485724
 10
316.538174
 20
-173.470502
 10
316.568722
 20
-173.460544
 10
316.609665
 20
-173.456843
 10
317.378358
 20
-173.456843
 10
317.420039
 20
-173.460448
 10
317.450471
 20
-173.470032
 10
317.474803
 20
-173.487022
 10
317.491442
 20
-173.511431
 10
317.500815
 20
-173.541884
 10
317.504326
 20
-173.583116
 10
317.504326
 20
-174.061283
 10
317.4982
 20
-174.106262
 10
317.482283
 20
-174.134739
 10
317.45716
 20
-174.152737
 10
317.424581
 20
-174.158919
 10
317.391371
 20
-174.152705
 10
317.366146
 20
-174.134739
 10
317.350229
 20
-174.106262
  0
LWPOLYLINE
  5
55
100
AcDbEntity
  8
0
  6
ByLayer
 62
  256
370
   -1
100
AcDbPolyline
 90
   41
 70
    1
 43
0
 10
317.344103
 20
-174.906363
 10
317.344103
 20
-174.508736
 10
317.093998
 20
-174.508736
 10
317.093998
 20
-174.840784
 10
317.088065
 20
-174.883892
 10
317.072566
 20
-174.911492
 10
317.048044
 20
-174.9289419999999
 10
317.015474
 20
-174.935
 10
316.983042
 20
-174.928853
 10
316.958749
 20
-174.911126
 10
316.943492
 20
-174.883387
 10
316.937683
 20
-174.840784
 10
316.937683
 20
-174.508736
 10
316.609909
 20
-174.508736
 10
316.568426
 20
-174.505003
 10
316.537763
 20
-174.495006
 10
316.515326
 20
-174.479793
 10
316.498198
 20
-174.458838
 10
316.487931
 20
-174.434482
 10
316.484368
 20
-174.405665
 10
316.487971
 20
-174.376417
 10
316.49833
 20
-174.351829
 10
316.51557
 20
-174.330805
 10
316.538174
 20
-174.315583
 10
316.568722
 20
-174.305625
 10
316.609665
 20
-174.301923
 10
317.378358
 20
-174.301923
 10
317.420039
 20
-174.305529
 10
317.450471
 20
-174.315112
 10
317.474803
 20
-174.332102
 10
317.491442
 20
-174.356511
 10
317.500815
 20
-174.386965
 10
317.504326
 20
-174.428196
 10
317.504326
 20
-174.906363
 10
317.4982
 20
-174.951342
 10
317.482283
 20
-174.979819
 10
317.45716
 20
-174.997817
 10
317.424581
 20
-175.003999
 10
317.391371
 20
-174.997785
 10
317.366146
 20
-174.979819
 10
317.350229
 20
-174.951342
  0
LWPOLYLINE
  5
56
100
AcDbEntity
  8
0
  6
ByLayer
 62
  256
370
   -1
100
AcDbPolyline
 90
   48
 70
    1
 43
0
 10
317.083451
 20
-168.552102
 10
317.154009
 20
-168.563302
 10
317.219234
 20
-168.581468
 10
317.281536
 20
-168.607481
 10
317.336132
 20
-168.639623
 10
317.383853
 20
-168.677883
 10
317.425373
 20
-168.722719
 10
317.459969
 20
-168.773719
 10
317.48784
 20
-168.831573
 10
317.507428
 20
-168.892936
 10
317.519626
 20
-168.961168
 10
317.523866
 20
-169.037286
 10
317.519569
 20
-169.115593
 10
317.50721
 20
-169.185768
 10
317.487378
 20
-169.248841
 10
317.460362
 20
-169.305709
 10
317.42517
 20
-169.358545
 10
317.383667
 20
-169.404119
 10
317.335476
 20
-169.443015
 10
317.279928
 20
-169.475519
 10
317.200042
 20
-169.506775
 10
317.109201
 20
-169.526317
 10
317.00546
 20
-169.53316
 10
316.928354
 20
-169.529471
 10
316.85804
 20
-169.518797
 10
316.793763
 20
-169.501592
 10
316.732349
 20
-169.476743
 10
316.677459
 20
-169.445222
 10
316.62841
 20
-169.406948
 10
316.5856680000001
 20
-169.361964
 10
316.550061
 20
-169.31051
 10
316.521371
 20
-169.251854
 10
316.501289
 20
-169.189549
 10
316.488742
 20
-169.119765
 10
316.484368
 20
-169.041377
 10
316.484445
 20
-169.040034
 10
316.48883
 20
-168.963537
 10
316.501694
 20
-168.893494
 10
316.522409
 20
-168.830229
 10
316.551744
 20
-168.770657
 10
316.587502
 20
-168.719011
 10
316.629815
 20
-168.674463
 10
316.678454
 20
-168.636693
 10
316.73375
 20
-168.605243
 10
316.79651
 20
-168.580125
 10
316.862104
 20
-168.562633
 10
316.932037
 20
-168.551914
 10
317.006864
 20
-168.548251
  0
LWPOLYLINE
  5
57
100
AcDbEntity
  8
0
  6
ByLayer
 62
  256
370
   -1
100
AcDbPolyline
 90
   34
 70
    1
 43
0
 10
316.648499
 20
-169.040034
 10
316.652858
 20
-169.090497
 10
316.665729
 20
-169.13758
 10
316.687212
 20
-169.182061
 10
316.716856
 20
-169.221356
 10
316.756262
 20
-169.255679
 10
316.807013
 20
-169.285193
 10
316.862386
 20
-169.305733
 10
316.928344
 20
-169.318895
 10
317.006864
 20
-169.3236
 10
317.079459
 20
-169.319361
 10
317.142401
 20
-169.307339
 10
317.197069
 20
-169.288307
 10
317.247414
 20
-169.26068
 10
317.287466
 20
-169.227175
 10
317.318579
 20
-169.187557
 10
317.341215
 20
-169.142364
 10
317.354994
 20
-169.092628
 10
317.359734
 20
-169.037286
 10
317.353935
 20
-168.978689
 10
317.336959
 20
-168.925728
 10
317.309071
 20
-168.87822
 10
317.270647
 20
-168.837618
 10
317.222586
 20
-168.805372
 10
317.159272
 20
-168.779244
 10
317.088959
 20
-168.763408
 10
317.006864
 20
-168.757811
 10
316.924041
 20
-168.763398
 10
316.852686
 20
-168.779244
 10
316.788364
 20
-168.805778
 10
316.738564
 20
-168.839633
 10
316.698703
 20
-168.88195
 10
316.670908
 20
-168.929148
 10
316.654224
 20
-168.981513
  0
LWPOLYLINE
  5
58
100
AcDbEntity
  8
0
  6
ByLayer
 62
  256
370
   -1
100
AcDbPolyline
 90
   53
 70
    1
 43
0
 10
317.400767
 20
-169.970599
 10
316.813302
 20
-170.357052
 10
317.405225
 20
-170.357052
 10
317.443892
 20
-170.360337
 10
317.472746
 20
-170.369147
 10
317.494068
 20
-170.382515
 10
317.510488
 20
-170.401253
 10
317.520393
 20
-170.423762
 10
317.523866
 20
-170.451208
 10
317.520373
 20
-170.479612
 10
317.510474
 20
-170.502663
 10
317.49419
 20
-170.521611
 10
317.472918
 20
-170.535192
 10
317.444199
 20
-170.544117
 10
317.405774
 20
-170.54744
 10
316.618152
 20
-170.54744
 10
316.565584
 20
-170.542013
 10
316.529312
 20
-170.527778
 10
316.504875
 20
-170.506248
 10
316.489848
 20
-170.476662
 10
316.484368
 20
-170.436187
 10
316.486449
 20
-170.40934
 10
316.4923670000001
 20
-170.386239
 10
316.50249
 20
-170.365024
 10
316.517585
 20
-170.344718
 10
316.557885
 20
-170.308937
 10
316.6048410000001
 20
-170.276025
 10
317.183147
 20
-169.899158
 10
316.60252
 20
-169.899158
 10
316.5646779999999
 20
-169.895704
 10
316.535988
 20
-169.886344
 10
316.514349
 20
-169.871925
 10
316.4977190000001
 20
-169.85215
 10
316.4878
 20
-169.829259
 10
316.484368
 20
-169.802255
 10
316.487884
 20
-169.774321
 10
316.4979440000001
 20
-169.751214
 10
316.514654
 20
-169.731791
 10
316.536404
 20
-169.717785
 10
316.565009
 20
-169.708698
 10
316.602459
 20
-169.705351
 10
317.375061
 20
-169.705351
 10
317.42179
 20
-169.708482
 10
317.452974
 20
-169.716403
 10
317.481198
 20
-169.73379
 10
317.504082
 20
-169.760184
 10
317.518954
 20
-169.792097
 10
317.523866
 20
-169.826191
 10
317.52145
 20
-169.852665
 10
317.514767
 20
-169.873757
 10
317.504126
 20
-169.892396
 10
317.490404
 20
-169.908439
 10
317.450959
 20
-169.938726
  0
LWPOLYLINE
  5
59
100
AcDbEntity
  8
0
  6
ByLayer
 62
  256
370
   -1
100
AcDbPolyline
 90
   41
 70
    1
 43
0
 10
214.28049
 20
-172.996364
 10
213.564761
 20
-172.996364
 10
213.564761
 20
-173.446552
 10
214.162448
 20
-173.446552
 10
214.240043
 20
-173.457231
 10
214.289723
 20
-173.48513
 10
214.321132
 20
-173.52927
 10
214.332038
 20
-173.587895
 10
214.320972
 20
-173.646272
 10
214.289063
 20
-173.690001
 10
214.239134
 20
-173.717463
 10
214.162448
 20
-173.72792
 10
213.564761
 20
-173.72792
 10
213.564761
 20
-174.317913
 10
213.558043
 20
-174.392581
 10
213.540049
 20
-174.447775
 10
213.512664
 20
-174.488162
 10
213.474946
 20
-174.518992
 10
213.431105
 20
-174.537472
 10
213.379234
 20
-174.543886
 10
213.326587
 20
-174.5374
 10
213.28233
 20
-174.518755
 10
213.244485
 20
-174.487723
 10
213.217086
 20
-174.447035
 10
213.199161
 20
-174.392049
 10
213.192498
 20
-174.318352
 10
213.192498
 20
-172.934704
 10
213.198988
 20
-172.859679
 10
213.216239
 20
-172.804902
 10
213.246821
 20
-172.761103
 10
213.290757
 20
-172.731153
 10
213.345573
 20
-172.714282
 10
213.419791
 20
-172.707962
 10
214.28049
 20
-172.707962
 10
214.361453
 20
-172.718988
 10
214.412711
 20
-172.747639
 10
214.445108
 20
-172.792861
 10
214.456235
 20
-172.851503
 10
214.44505
 20
-172.911282
 10
214.412711
 20
-172.956686
 10
214.361453
 20
-172.985337
  0
LWPOLYLINE
  5
5A
100
AcDbEntity
  8
0
  6
ByLayer
 62
  256
370
   -1
100
AcDbPolyline
 90
   89
 70
    1
 43
0
 10
216.263803
 20
-173.941254
 10
216.253738
 20
-174.028692
 10
216.221048
 20
-174.128649
 10
216.167871
 20
-174.225897
 10
216.086959
 20
-174.326156
 10
216.022086
 20
-174.385365
 10
215.944794
 20
-174.437824
 10
215.853512
 20
-174.483436
 10
215.756966
 20
-174.516146
 10
215.647347
 20
-174.536686
 10
215.522575
 20
-174.543886
 10
215.383034
 20
-174.536822
 10
215.2622
 20
-174.516849
 10
215.149302
 20
-174.482004
 10
215.049086
 20
-174.432878
 10
214.958294
 20
-174.367594
 10
214.873121
 20
-174.282412
 10
214.807074
 20
-174.192527
 10
214.750792
 20
-174.09139
 10
214.706753
 20
-173.982842
 10
214.674955
 20
-173.866076
 10
214.656143
 20
-173.744074
 10
214.649675
 20
-173.611746
 10
214.65716
 20
-173.46712
 10
214.678688
 20
-173.337257
 10
214.713203
 20
-173.220359
 10
214.762496
 20
-173.109134
 10
214.823201
 20
-173.010916
 10
214.895433
 20
-172.924373
 10
214.979077
 20
-172.848852
 10
215.071394
 20
-172.786609
 10
215.173283
 20
-172.737088
 10
215.281067
 20
-172.70155
 10
215.393866
 20
-172.680064
 10
215.512683
 20
-172.672791
 10
215.657108
 20
-172.682992
 10
215.786839
 20
-172.712493
 10
215.90418
 20
-172.760388
 10
216.013107
 20
-172.825802
 10
216.099841
 20
-172.89807
 10
216.167303
 20
-172.977239
 10
216.220502
 20
-173.066641
 10
216.249693
 20
-173.147389
 10
216.258857
 20
-173.221788
 10
216.247654
 20
-173.281806
 10
216.213575
 20
-173.334884
 10
216.163372
 20
-173.371677
 10
216.104105
 20
-173.383794
 10
216.038964
 20
-173.374452
 10
215.996834
 20
-173.349832
 10
215.962466
 20
-173.30859
 10
215.917809
 20
-173.233987
 10
215.865298
 20
-173.148929
 10
215.809759
 20
-173.083328
 10
215.751186
 20
-173.034282
 10
215.684491
 20
-172.998417
 10
215.606681
 20
-172.976089
 10
215.515211
 20
-172.968227
 10
215.407212
 20
-172.979298
 10
215.313758
 20
-173.01118
 10
215.231772
 20
-173.063583
 10
215.159325
 20
-173.138476
 10
215.104727
 20
-173.225783
 10
215.063353
 20
-173.332868
 10
215.036558
 20
-173.463735
 10
215.026884
 20
-173.623176
 10
215.034199
 20
-173.762708
 10
215.054447
 20
-173.877856
 10
215.085576
 20
-173.972468
 10
215.131708
 20
-174.05978
 10
215.186961
 20
-174.128033
 10
215.251539
 20
-174.179977
 10
215.325734
 20
-174.217476
 10
215.408856
 20
-174.240478
 10
215.502901
 20
-174.24845
 10
215.604602
 20
-174.239285
 10
215.691708
 20
-174.213139
 10
215.767013
 20
-174.170854
 10
215.831383
 20
-174.11286
 10
215.885684
 20
-174.037781
 10
215.929899
 20
-173.942573
 10
215.957336
 20
-173.875032
 10
215.98848
 20
-173.82464
 10
216.015204
 20
-173.800053
 10
216.051821
 20
-173.784452
 10
216.101687
 20
-173.778698
 10
216.163548
 20
-173.790369
 10
216.215993
 20
-173.825409
 10
216.251738
 20
-173.877398
  0
LWPOLYLINE
  5
5B
100
AcDbEntity
  8
0
  6
ByLayer
 62
  256
370
   -1
100
AcDbPolyline
 90
   89
 70
    1
 43
0
 10
218.127865
 20
-173.941254
 10
218.117799
 20
-174.028692
 10
218.08511
 20
-174.128649
 10
218.031932
 20
-174.225897
 10
217.951021
 20
-174.326156
 10
217.886147
 20
-174.385365
 10
217.808856
 20
-174.437824
 10
217.717573
 20
-174.483436
 10
217.621027
 20
-174.516146
 10
217.511409
 20
-174.536686
 10
217.386636
 20
-174.543886
 10
217.247096
 20
-174.536822
 10
217.126261
 20
-174.516849
 10
217.013363
 20
-174.482004
 10
216.913147
 20
-174.432878
 10
216.822355
 20
-174.367594
 10
216.737182
 20
-174.282412
 10
216.671135
 20
-174.192527
 10
216.614853
 20
-174.09139
 10
216.570815
 20
-173.982842
 10
216.539016
 20
-173.866076
 10
216.520205
 20
-173.744074
 10
216.513737
 20
-173.611746
 10
216.521222
 20
-173.46712
 10
216.542749
 20
-173.337257
 10
216.577264
 20
-173.220359
 10
216.626557
 20
-173.109134
 10
216.687262
 20
-173.010916
 10
216.759494
 20
-172.924373
 10
216.843138
 20
-172.848852
 10
216.935456
 20
-172.786609
 10
217.037345
 20
-172.737088
 10
217.145129
 20
-172.70155
 10
217.257928
 20
-172.680064
 10
217.376745
 20
-172.672791
 10
217.521169
 20
-172.682992
 10
217.6509
 20
-172.712493
 10
217.768241
 20
-172.760388
 10
217.877169
 20
-172.825802
 10
217.963903
 20
-172.89807
 10
218.031364
 20
-172.977239
 10
218.084564
 20
-173.066641
 10
218.113754
 20
-173.147389
 10
218.122919
 20
-173.221788
 10
218.111715
 20
-173.281806
 10
218.077636
 20
-173.334884
 10
218.027434
 20
-173.371677
 10
217.968166
 20
-173.383794
 10
217.903026
 20
-173.374452
 10
217.860895
 20
-173.349832
 10
217.826528
 20
-173.30859
 10
217.78187
 20
-173.233987
 10
217.729359
 20
-173.148929
 10
217.673821
 20
-173.083328
 10
217.615248
 20
-173.034282
 10
217.548552
 20
-172.998417
 10
217.470742
 20
-172.976089
 10
217.379272
 20
-172.968227
 10
217.271273
 20
-172.979298
 10
217.177819
 20
-173.01118
 10
217.095834
 20
-173.063583
 10
217.023386
 20
-173.138476
 10
216.968788
 20
-173.225783
 10
216.927415
 20
-173.332868
 10
216.90062
 20
-173.463735
 10
216.890946
 20
-173.623176
 10
216.898261
 20
-173.762708
 10
216.918509
 20
-173.877856
 10
216.949637
 20
-173.972468
 10
216.99577
 20
-174.05978
 10
217.051022
 20
-174.128033
 10
217.1156
 20
-174.179977
 10
217.189796
 20
-174.217476
 10
217.272917
 20
-174.240478
 10
217.366963
 20
-174.24845
 10
217.468663
 20
-174.239285
 10
217.555769
 20
-174.213139
 10
217.631075
 20
-174.170854
 10
217.695444
 20
-174.11286
 10
217.749745
 20
-174.037781
 10
217.79396
 20
-173.942573
 10
217.821398
 20
-173.875032
 10
217.852542
 20
-173.82464
 10
217.879266
 20
-173.800053
 10
217.915883
 20
-173.784452
 10
217.965748
 20
-173.778698
 10
218.02761
 20
-173.790369
 10
218.080054
 20
-173.825409
 10
218.115799
 20
-173.877398
  0
LWPOLYLINE
  5
5C
100
AcDbEntity
  8
0
  6
ByLayer
 62
  256
370
   -1
100
AcDbPolyline
 90
   22
 70
    1
 43
0
 10
218.651802
 20
-174.543886
 10
218.579378
 20
-174.531176
 10
218.517823
 20
-174.493328
 10
218.487123
 20
-174.456218
 10
218.468191
 20
-174.410047
 10
218.461439
 20
-174.352095
 10
218.467479
 20
-174.30297
 10
218.485222
 20
-174.259305
 10
218.515295
 20
-174.219654
 10
218.554097
 20
-174.188696
 10
218.59784
 20
-174.170338
 10
218.648175
 20
-174.16404
 10
218.69847
 20
-174.170229
 10
218.742802
 20
-174.188355
 10
218.782704
 20
-174.218994
 10
218.813869
 20
-174.258405
 10
218.832261
 20
-174.30225
 10
218.838538
 20
-174.352095
 10
218.831887
 20
-174.409296
 10
218.813163
 20
-174.455338
 10
218.782704
 20
-174.492778
 10
218.721992
 20
-174.531136
  0
LWPOLYLINE
  5
5D
100
AcDbEntity
  8
0
  6
ByLayer
 62
  256
370
   -1
100
AcDbPolyline
 90
   22
 70
    1
 43
0
 10
218.461439
 20
-173.357965
 10
218.468126
 20
-173.301504
 10
218.486862
 20
-173.256727
 10
218.517273
 20
-173.220908
 10
218.578305
 20
-173.184579
 10
218.651802
 20
-173.172218
 10
218.723149
 20
-173.184655
 10
218.783364
 20
-173.221568
 10
218.813475
 20
-173.257703
 10
218.831966
 20
-173.302319
 10
218.838538
 20
-173.357965
 10
218.832188
 20
-173.402315
 10
218.812799
 20
-173.444741
 10
218.778418
 20
-173.486559
 10
218.735749
 20
-173.519972
 10
218.692755
 20
-173.538852
 10
218.648175
 20
-173.545031
 10
218.599496
 20
-173.538789
 10
218.556098
 20
-173.520382
 10
218.516504
 20
-173.488977
 10
218.485569
 20
-173.448872
 10
218.467522
 20
-173.405655
  0
LWPOLYLINE
  5
5E
100
AcDbEntity
  8
0
  6
ByLayer
 62
  256
370
   -1
100
AcDbPolyline
 90
   74
 70
    1
 43
0
 10
220.24175
 20
-174.220313
 10
220.877135
 20
-174.220313
 10
220.966662
 20
-174.231388
 10
221.025733
 20
-174.26032
 10
221.054397
 20
-174.290154
 10
221.07145
 20
-174.325827
 10
221.07739
 20
-174.36924
 10
221.067046
 20
-174.42614
 10
221.036394
 20
-174.473215
 10
220.987794
 20
-174.504139
 10
220.912746
 20
-174.51575
 10
220.007753
 20
-174.51575
 10
219.947389
 20
-174.509435
 10
219.899518
 20
-174.491875
 10
219.861354
 20
-174.463872
 10
219.821682
 20
-174.406943
 10
219.808707
 20
-174.341873
 10
219.81581
 20
-174.294346
 10
219.84212
 20
-174.223391
 10
219.878818
 20
-174.1552
 10
219.915429
 20
-174.107766
 10
220.210755
 20
-173.815298
 10
220.334399
 20
-173.705329
 10
220.39925
 20
-173.65505
 10
220.493772
 20
-173.581319
 10
220.566422
 20
-173.511618
 10
220.626206
 20
-173.437222
 10
220.667868
 20
-173.36423
 10
220.694302
 20
-173.2883619999999
 10
220.702709
 20
-173.216732
 10
220.693255
 20
-173.142006
 10
220.66567
 20
-173.077037
 10
220.621996
 20
-173.022371
 10
220.564883
 20
-172.981306
 10
220.498592
 20
-172.955754
 10
220.425848
 20
-172.947124
 10
220.350057
 20
-172.956014
 10
220.284485
 20
-172.981787
 10
220.226714
 20
-173.024819
 10
220.175474
 20
-173.087698
 10
220.134368
 20
-173.188705
 10
220.101658
 20
-173.265614
 10
220.068423
 20
-173.316969
 10
220.024268
 20
-173.350393
 10
219.959832
 20
-173.362362
 10
219.901725
 20
-173.351792
 10
219.855199
 20
-173.320816
 10
219.824571
 20
-173.273245
 10
219.813653
 20
-173.207939
 10
219.822862
 20
-173.122509
 10
219.852011
 20
-173.029886
 10
219.899422
 20
-172.942215
 10
219.966537
 20
-172.861835
 10
220.05096
 20
-172.794928
 10
220.159538
 20
-172.740165
 10
220.28252
 20
-172.706123
 10
220.433212
 20
-172.693893
 10
220.558223
 20
-172.701016
 10
220.664769
 20
-172.721053
 10
220.755576
 20
-172.752475
 10
220.837005
 20
-172.799671
 10
220.90791
 20
-172.861725
 10
220.966072
 20
-172.936357
 10
221.010016
 20
-173.022412
 10
221.037471
 20
-173.11537
 10
221.046615
 20
-173.211676
 10
221.03799
 20
-173.312119
 10
221.012646
 20
-173.404776
 10
220.970558
 20
-173.491285
 10
220.890555
 20
-173.607551
 10
220.815696
 20
-173.688133
 10
220.551804
 20
-173.910699
 10
220.383742
 20
-174.056562
 10
220.298133
 20
-174.145795
  0
LWPOLYLINE
  5
5F
100
AcDbEntity
  8
0
  6
ByLayer
 62
  256
370
   -1
100
AcDbPolyline
 90
   43
 70
    1
 43
0
 10
222.139077
 20
-172.680623
 10
222.195058
 20
-172.702136
 10
222.242208
 20
-172.735957
 10
222.278589
 20
-172.777534
 10
222.331895
 20
-172.875903
 10
222.386739
 20
-173.015598
 10
222.857701
 20
-174.178768
 10
222.902252
 20
-174.304708
 10
222.913205
 20
-174.373197
 10
222.900435
 20
-174.433341
 10
222.859899
 20
-174.49058
 10
222.82168
 20
-174.520342
 10
222.779342
 20
-174.537901
 10
222.731415
 20
-174.543886
 10
222.68959
 20
-174.539764
 10
222.656017
 20
-174.528279
 10
222.62703
 20
-174.509915
 10
222.603261
 20
-174.486074
 10
222.557978
 20
-174.404851
 10
222.516652
 20
-174.30879
 10
222.431362
 20
-174.086664
 10
221.703433
 20
-174.086664
 10
221.618254
 20
-174.313626
 10
221.566411
 20
-174.436335
 10
221.531205
 20
-174.496076
 10
221.503549
 20
-174.521569
 10
221.465082
 20
-174.537847
 10
221.412064
 20
-174.543886
 10
221.346272
 20
-174.531242
 10
221.287756
 20
-174.492559
 10
221.246919
 20
-174.436627
 10
221.233901
 20
-174.375615
 10
221.246321
 20
-174.298459
 10
221.286987
 20
-174.188659
 10
221.437978
 20
-173.805296
 10
221.748056
 20
-173.018016
 10
221.795427
 20
-172.896786
 10
221.825352
 20
-172.829546
 10
221.854888
 20
-172.778743
 10
221.891428
 20
-172.736167
 10
221.938419
 20
-172.702136
 10
221.994333
 20
-172.680584
 10
222.066134
 20
-172.672791
  0
LWPOLYLINE
  5
60
100
AcDbEntity
  8
0
  6
ByLayer
 62
  256
370
   -1
100
AcDbPolyline
 90
    3
 70
    1
 43
0
 10
221.801912
 20
-173.805296
 10
222.330466
 20
-173.805296
 10
222.063716
 20
-173.07352
  0
LWPOLYLINE
  5
61
100
AcDbEntity
  8
0
  6
ByLayer
 62
  256
370
   -1
100
AcDbPolyline
 90
   48
 70
    1
 43
0
 10
224.105976
 20
-172.712291
 10
224.205298
 20
-172.724008
 10
224.29648
 20
-172.747864
 10
224.375987
 20
-172.785997
 10
224.436602
 20
-172.829216
 10
224.490073
 20
-172.882937
 10
224.533827
 20
-172.944846
 10
224.565691
 20
-173.01274
 10
224.585156
 20
-173.085363
 10
224.591739
 20
-173.162876
 10
224.580905
 20
-173.266803
 10
224.549843
 20
-173.355589
 10
224.498929
 20
-173.43247
 10
224.426167
 20
-173.499415
 10
224.327407
 20
-173.556901
 10
224.440379
 20
-173.603314
 10
224.52706
 20
-173.659945
 10
224.591985
 20
-173.726275
 10
224.638119
 20
-173.803139
 10
224.666595
 20
-173.892648
 10
224.676589
 20
-173.997967
 10
224.667724
 20
-174.097225
 10
224.641722
 20
-174.188114
 10
224.598554
 20
-174.27241
 10
224.540269
 20
-174.346873
 10
224.470513
 20
-174.40658
 10
224.387967
 20
-174.452662
 10
224.301167
 20
-174.481617
 10
224.197715
 20
-174.501571
 10
224.086069
 20
-174.511943
 10
223.947561
 20
-174.51575
 10
223.396806
 20
-174.51575
 10
223.318047
 20
-174.508557
 10
223.26243
 20
-174.489647
 10
223.223918
 20
-174.461344
 10
223.196783
 20
-174.421637
 10
223.178739
 20
-174.365857
 10
223.171931
 20
-174.288677
 10
223.171931
 20
-174.234382
 10
223.171931
 20
-173.446552
 10
223.171931
 20
-172.935034
 10
223.178969
 20
-172.856312
 10
223.197503
 20
-172.800338
 10
223.225237
 20
-172.761268
 10
223.26433
 20
-172.73344
 10
223.319683
 20
-172.71495
 10
223.396806
 20
-172.707962
 10
223.980754
 20
-172.707962
  0
LWPOLYLINE
  5
62
100
AcDbEntity
  8
0
  6
ByLayer
 62
  256
370
   -1
100
AcDbPolyline
 90
   15
 70
    1
 43
0
 10
223.544084
 20
-174.234382
 10
223.932833
 20
-174.234382
 10
224.060026
 20
-174.224665
 10
224.152085
 20
-174.199028
 10
224.217422
 20
-174.16109
 10
224.262215
 20
-174.111893
 10
224.289673
 20
-174.04971
 10
224.299491
 20
-173.97038
 10
224.288059
 20
-173.88552
 10
224.256447
 20
-173.822072
 10
224.204859
 20
-173.774631
 10
224.138648
 20
-173.743332
 10
224.046436
 20
-173.721962
 10
223.920523
 20
-173.713851
 10
223.544084
 20
-173.713851
  0
LWPOLYLINE
  5
63
100
AcDbEntity
  8
0
  6
ByLayer
 62
  256
370
   -1
100
AcDbPolyline
 90
   16
 70
    1
 43
0
 10
223.544084
 20
-173.446552
 10
223.875021
 20
-173.446552
 10
224.002992
 20
-173.439232
 10
224.084398
 20
-173.421163
 10
224.129468
 20
-173.399196
 10
224.166547
 20
-173.36739
 10
224.196615
 20
-173.324553
 10
224.219255
 20
-173.271303
 10
224.22695
 20
-173.211236
 10
224.21504
 20
-173.128075
 10
224.182996
 20
-173.0712
 10
224.131109
 20
-173.033403
 10
224.065273
 20
-173.011131
 10
223.970134
 20
-172.995403
 10
223.836992
 20
-172.989329
 10
223.544084
 20
-172.989329
  0
LWPOLYLINE
  5
64
100
AcDbEntity
  8
0
  6
ByLayer
 62
  256
370
   -1
100
AcDbPolyline
 90
   64
 70
    1
 43
0
 10
224.940591
 20
-173.76452
 10
224.940591
 20
-172.897665
 10
224.947096
 20
-172.824618
 10
224.964609
 20
-172.769919
 10
224.991369
 20
-172.729284
 10
225.028437
 20
-172.698107
 10
225.072256
 20
-172.679341
 10
225.124909
 20
-172.672791
 10
225.179984
 20
-172.679437
 10
225.224924
 20
-172.698296
 10
225.262076
 20
-172.729284
 10
225.288837
 20
-172.769988
 10
225.30635
 20
-172.824762
 10
225.312854
 20
-172.897885
 10
225.312854
 20
-173.785402
 10
225.322033
 20
-173.929575
 10
225.346376
 20
-174.036985
 10
225.374844
 20
-174.099731
 10
225.414132
 20
-174.151249
 10
225.464969
 20
-174.193056
 10
225.524426
 20
-174.222093
 10
225.602478
 20
-174.241324
 10
225.704021
 20
-174.24845
 10
225.81076
 20
-174.240028
 10
225.893081
 20
-174.21717
 10
225.956169
 20
-174.182248
 10
226.003854
 20
-174.135793
 10
226.049397
 20
-174.055587
 10
226.080009
 20
-173.944424
 10
226.091561
 20
-173.792766
 10
226.091561
 20
-172.897885
 10
226.098032
 20
-172.823872
 10
226.115364
 20
-172.769001
 10
226.14168
 20
-172.728734
 10
226.1784
 20
-172.697968
 10
226.222397
 20
-172.679332
 10
226.275879
 20
-172.672791
 10
226.329352
 20
-172.679279
 10
226.373946
 20
-172.697856
 10
226.411727
 20
-172.728625
 10
226.439154
 20
-172.768992
 10
226.457129
 20
-172.823865
 10
226.463824
 20
-172.897775
 10
226.463824
 20
-173.765179
 10
226.452456
 20
-173.968216
 10
226.422388
 20
-174.119527
 10
226.386931
 20
-174.209779
 10
226.335234
 20
-174.2927
 10
226.265987
 20
-174.36935
 10
226.196554
 20
-174.424454
 10
226.120159
 20
-174.468601
 10
226.035947
 20
-174.502121
 10
225.898774
 20
-174.532778
 10
225.72985
 20
-174.543886
 10
225.591041
 20
-174.538366
 10
225.472189
 20
-174.522879
 10
225.370776
 20
-174.498823
 10
225.274035
 20
-174.462039
 10
225.192767
 20
-174.41536
 10
225.124909
 20
-174.359019
 10
225.068102
 20
-174.291584
 10
225.021456
 20
-174.211473
 10
224.985105
 20
-174.116779
 10
224.952562
 20
-173.961432
  0
LWPOLYLINE
  5
65
100
AcDbEntity
  8
0
  6
ByLayer
 62
  256
370
   -1
100
AcDbPolyline
 90
   72
 70
    1
 43
0
 10
227.52514
 20
-172.701206
 10
227.61748
 20
-172.722242
 10
227.699974
 20
-172.756212
 10
227.776274
 20
-172.802869
 10
227.836242
 20
-172.854463
 10
227.882093
 20
-172.911074
 10
227.917533
 20
-172.974871
 10
227.937265
 20
-173.033686
 10
227.943533
 20
-173.088907
 10
227.934008
 20
-173.138096
 10
227.904405
 20
-173.183759
 10
227.860222
 20
-173.21553
 10
227.804717
 20
-173.226294
 10
227.754303
 20
-173.217876
 10
227.706788
 20
-173.192002
 10
227.668127
 20
-173.151859
 10
227.640403
 20
-173.09704
 10
227.604037
 20
-173.029894
 10
227.551816
 20
-172.978009
 10
227.486929
 20
-172.944458
 10
227.411352
 20
-172.933056
 10
227.34839
 20
-172.942094
 10
227.283308
 20
-172.970535
 10
227.224753
 20
-173.014243
 10
227.175597
 20
-173.071761
 10
227.140653
 20
-173.137033
 10
227.110102
 20
-173.229664
 10
227.085951
 20
-173.357256
 10
227.070963
 20
-173.528544
 10
227.154769
 20
-173.447161
 10
227.247477
 20
-173.389069
 10
227.350999
 20
-173.353362
 10
227.469054
 20
-173.341039
 10
227.583188
 20
-173.352185
 10
227.686235
 20
-173.384783
 10
227.779591
 20
-173.437699
 10
227.860771
 20
-173.50931
 10
227.926761
 20
-173.596517
 10
227.976506
 20
-173.699563
 10
228.007035
 20
-173.811208
 10
228.017282
 20
-173.928394
 10
228.008184
 20
-174.041898
 10
227.981526
 20
-174.14636
 10
227.937488
 20
-174.243504
 10
227.877165
 20
-174.331119
 10
227.80336
 20
-174.404406
 10
227.714812
 20
-174.464532
 10
227.616899
 20
-174.508119
 10
227.509795
 20
-174.534735
 10
227.391568
 20
-174.543886
 10
227.25626
 20
-174.532046
 10
227.137802
 20
-174.497989
 10
227.033044
 20
-174.44255
 10
226.942366
 20
-174.366349
 10
226.865588
 20
-174.267789
 10
226.802455
 20
-174.143157
 10
226.759997
 20
-174.008772
 10
226.743859
 20
-173.914436
 10
226.732663
 20
-173.848988
 10
226.72288
 20
-173.659446
 10
226.728619
 20
-173.504634
 10
226.745019
 20
-173.366461
 10
226.771021
 20
-173.24322
 10
226.809464
 20
-173.123358
 10
226.855783
 20
-173.022638
 10
226.909286
 20
-172.938551
 10
226.974484
 20
-172.863696
 10
227.0472
 20
-172.803146
 10
227.128116
 20
-172.755772
 10
227.215877
 20
-172.721985
 10
227.313003
 20
-172.701118
 10
227.421134
 20
-172.693893
  0
LWPOLYLINE
  5
66
100
AcDbEntity
  8
0
  6
ByLayer
 62
  256
370
   -1
100
AcDbPolyline
 90
   24
 70
    1
 43
0
 10
227.099979
 20
-173.914436
 10
227.110081
 20
-174.021217
 10
227.138787
 20
-174.111414
 10
227.185159
 20
-174.18833
 10
227.248173
 20
-174.250105
 10
227.318436
 20
-174.285669
 10
227.398932
 20
-174.297689
 10
227.475896
 20
-174.286575
 10
227.542538
 20
-174.253883
 10
227.601715
 20
-174.197562
 10
227.644961
 20
-174.126702
 10
227.672203
 20
-174.040182
 10
227.681949
 20
-173.934
 10
227.671935
 20
-173.828153
 10
227.64414
 20
-173.743527
 10
227.598672
 20
-173.672366
 10
227.540935
 20
-173.622077
 10
227.47221
 20
-173.590709
 10
227.396514
 20
-173.580202
 10
227.323358
 20
-173.59007
 10
227.252533
 20
-173.620209
 10
227.191209
 20
-173.668563
 10
227.141964
 20
-173.736163
 10
227.110913
 20
-173.816869
  0
LWPOLYLINE
  5
67
100
AcDbEntity
  8
0
  6
ByLayer
 62
  256
370
   -1
100
AcDbPolyline
 90
   19
 70
    1
 43
0
 10
228.72213
 20
-174.009288
 10
228.333491
 20
-174.009288
 10
228.251187
 20
-173.997799
 10
228.196434
 20
-173.967302
 10
228.161227
 20
-173.919466
 10
228.149283
 20
-173.858712
 10
228.161027
 20
-173.796741
 10
228.195225
 20
-173.748912
 10
228.249272
 20
-173.718458
 10
228.333491
 20
-173.706817
 10
228.72213
 20
-173.706817
 10
228.806331
 20
-173.718462
 10
228.860286
 20
-173.748912
 10
228.89457
 20
-173.79675
 10
228.906338
 20
-173.858712
 10
228.894802
 20
-173.919621
 10
228.861055
 20
-173.967302
 10
228.828255
 20
-173.989335
 10
228.783237
 20
-174.003856
  0
LWPOLYLINE
  5
68
100
AcDbEntity
  8
0
  6
ByLayer
 62
  256
370
   -1
100
AcDbPolyline
 90
   65
 70
    1
 43
0
 10
229.748133
 20
-174.239108
 10
229.462589
 20
-173.091325
 10
229.466106
 20
-174.334069
 10
229.460067
 20
-174.402188
 10
229.443804
 20
-174.453255
 10
229.418955
 20
-174.49124
 10
229.384566
 20
-174.520248
 10
229.343616
 20
-174.537757
 10
229.294098
 20
-174.543886
 10
229.246193
 20
-174.537904
 10
229.205793
 20
-174.52067
 10
229.171109
 20
-174.491899
 10
229.146026
 20
-174.454318
 10
229.129551
 20
-174.403188
 10
229.123409
 20
-174.334289
 10
229.123409
 20
-172.911404
 10
229.131742
 20
-172.834516
 10
229.153383
 20
-172.783154
 10
229.186057
 20
-172.749947
 10
229.255865
 20
-172.719391
 10
229.354328
 20
-172.707962
 10
229.467535
 20
-172.707962
 10
229.563101
 20
-172.713571
 10
229.617231
 20
-172.726756
 10
229.657961
 20
-172.752684
 10
229.686804
 20
-172.794021
 10
229.737692
 20
-172.950751
 10
229.996198
 20
-173.9218
 10
230.254705
 20
-172.950751
 10
230.305483
 20
-172.794021
 10
230.334394
 20
-172.752672
 10
230.375056
 20
-172.726756
 10
230.429295
 20
-172.71357
 10
230.524972
 20
-172.707962
 10
230.638069
 20
-172.707962
 10
230.736613
 20
-172.719398
 10
230.80634
 20
-172.749947
 10
230.839078
 20
-172.783164
 10
230.860754
 20
-172.834528
 10
230.869098
 20
-172.911404
 10
230.869098
 20
-174.334289
 10
230.863056
 20
-174.402407
 10
230.846792
 20
-174.453432
 10
230.821947
 20
-174.49135
 10
230.787537
 20
-174.520229
 10
230.746215
 20
-174.537736
 10
230.695881
 20
-174.543886
 10
230.648826
 20
-174.537874
 10
230.608806
 20
-174.520471
 10
230.574101
 20
-174.49124
 10
230.548941
 20
-174.453209
 10
230.532501
 20
-174.402139
 10
230.526401
 20
-174.334069
 10
230.529918
 20
-173.091325
 10
230.244374
 20
-174.239108
 10
230.198102
 20
-174.403752
 10
230.173043
 20
-174.453177
 10
230.131167
 20
-174.500142
 10
230.075434
 20
-174.53216
 10
229.996308
 20
-174.543886
 10
229.934913
 20
-174.536493
 10
229.886179
 20
-174.51575
 10
229.845899
 20
-174.483513
 10
229.816167
 20
-174.444089
 10
229.777039
 20
-174.348028
  0
LWPOLYLINE
  5
69
100
AcDbEntity
  8
0
  6
ByLayer
 62
  256
370
   -1
100
AcDbPolyline
 90
  104
 70
    1
 43
0
 10
232.614128
 20
-173.96939
 10
232.604482
 20
-174.076407
 10
232.576209
 20
-174.174196
 10
232.529278
 20
-174.264717
 10
232.465555
 20
-174.344233
 10
232.383835
 20
-174.412475
 10
232.281432
 20
-174.469807
 10
232.17033
 20
-174.509783
 10
232.042466
 20
-174.535001
 10
231.894991
 20
-174.543886
 10
231.718727
 20
-174.531475
 10
231.57322
 20
-174.496895
 10
231.453046
 20
-174.44288
 10
231.375604
 20
-174.388791
 10
231.30882
 20
-174.324176
 10
231.251912
 20
-174.24823
 10
231.207526
 20
-174.164423
 10
231.182541
 20
-174.085898
 10
231.174536
 20
-174.011046
 10
231.186331
 20
-173.94816
 10
231.221687
 20
-173.894982
 10
231.274663
 20
-173.858946
 10
231.341598
 20
-173.846622
 10
231.39655
 20
-173.856174
 10
231.441506
 20
-173.884211
 10
231.477729
 20
-173.928227
 10
231.510968
 20
-173.995109
 10
231.547875
 20
-174.076381
 10
231.584717
 20
-174.138101
 10
231.63139
 20
-174.18946
 10
231.696165
 20
-174.232513
 10
231.774709
 20
-174.259369
 10
231.885099
 20
-174.269553
 10
231.990179
 20
-174.260444
 10
232.076035
 20
-174.235011
 10
232.146464
 20
-174.194814
 10
232.203496
 20
-174.139238
 10
232.235937
 20
-174.078075
 10
232.246811
 20
-174.008738
 10
232.240461
 20
-173.952031
 10
232.222397
 20
-173.904931
 10
232.192845
 20
-173.865306
 10
232.132271
 20
-173.817464
 10
232.052711
 20
-173.780786
 10
231.821682
 20
-173.718248
 10
231.635815
 20
-173.666486
 10
231.495361
 20
-173.611526
 10
231.412317
 20
-173.564784
 10
231.343189
 20
-173.50912
 10
231.286424
 20
-173.444244
 10
231.244369
 20
-173.37004
 10
231.218246
 20
-173.283223
 10
231.209047
 20
-173.180791
 10
231.218356
 20
-173.083373
 10
231.245585
 20
-172.995201
 10
231.29082
 20
-172.914261
 10
231.351773
 20
-172.844137
 10
231.429633
 20
-172.784543
 10
231.527125
 20
-172.735329
 10
231.631953
 20
-172.701606
 10
231.752124
 20
-172.680296
 10
231.890045
 20
-172.672791
 10
232.050261
 20
-172.683887
 10
232.178337
 20
-172.714336
 10
232.292171
 20
-172.763968
 10
232.380461
 20
-172.824575
 10
232.451854
 20
-172.897134
 10
232.498173
 20
-172.969106
 10
232.526476
 20
-173.045392
 10
232.535433
 20
-173.117044
 10
232.523847
 20
-173.179836
 10
232.488282
 20
-173.237065
 10
232.454007
 20
-173.266943
 10
232.415364
 20
-173.284486
 10
232.370788
 20
-173.290481
 10
232.312275
 20
-173.281885
 10
232.273409
 20
-173.258937
 10
232.24147
 20
-173.2212
 10
232.201638
 20
-173.156282
 10
232.146087
 20
-173.062828
 10
232.084585
 20
-172.997023
 10
232.035667
 20
-172.967723
 10
231.965055
 20
-172.94774
 10
231.865426
 20
-172.94009
 10
231.773702
 20
-172.947635
 10
231.699609
 20
-172.968558
 10
231.639672
 20
-173.00131
 10
231.590448
 20
-173.046941
 10
231.563133
 20
-173.095196
 10
231.554163
 20
-173.148038
 10
231.561558
 20
-173.197864
 10
231.583069
 20
-173.239483
 10
231.616573
 20
-173.274626
 10
231.663083
 20
-173.306088
 10
231.766947
 20
-173.350052
 10
231.941373
 20
-173.396653
 10
232.089991
 20
-173.435084
 10
232.217795
 20
-173.475458
 10
232.33535
 20
-173.524715
 10
232.428931
 20
-173.580531
 10
232.506624
 20
-173.650589
 10
232.565108
 20
-173.737152
 10
232.591446
 20
-173.802165
 10
232.608179
 20
-173.878832
  0
LWPOLYLINE
  5
6A
100
AcDbEntity
  8
0
  6
ByLayer
 62
  256
370
   -1
100
AcDbPolyline
 90
   60
 70
    1
 43
0
 10
233.600488
 20
-172.70406
 10
233.717067
 20
-172.732362
 10
233.820973
 20
-172.779106
 10
233.902704
 20
-172.838424
 10
233.967977
 20
-172.911281
 10
234.012943
 20
-172.991308
 10
234.039822
 20
-173.078634
 10
234.048883
 20
-173.171999
 10
234.041733
 20
-173.251373
 10
234.020832
 20
-173.323409
 10
233.986235
 20
-173.389619
 10
233.939464
 20
-173.448144
 10
233.880276
 20
-173.499052
 10
233.806973
 20
-173.542613
 10
233.898405
 20
-173.587986
 10
233.973925
 20
-173.646477
 10
234.034972
 20
-173.71797
 10
234.078669
 20
-173.799581
 10
234.104946
 20
-173.889942
 10
234.11406
 20
-173.992691
 10
234.105479
 20
-174.094123
 10
234.080297
 20
-174.187511
 10
234.038552
 20
-174.274499
 10
233.981258
 20
-174.351762
 10
233.90814
 20
-174.417539
 10
233.817085
 20
-174.472445
 10
233.717388
 20
-174.511151
 10
233.603724
 20
-174.535388
 10
233.473618
 20
-174.543886
 10
233.338505
 20
-174.535281
 10
233.222541
 20
-174.510942
 10
233.122788
 20
-174.472445
 10
233.031706
 20
-174.417569
 10
232.95903
 20
-174.352214
 10
232.90253
 20
-174.275818
 10
232.861519
 20
-174.189667
 10
232.836707
 20
-174.096655
 10
232.828231
 20
-173.995109
 10
232.829021
 20
-173.985767
 10
232.837401
 20
-173.886633
 10
232.863412
 20
-173.794514
 10
232.905106
 20
-173.715734
 10
232.962841
 20
-173.648095
 10
233.038453
 20
-173.590409
 10
233.135098
 20
-173.542613
 10
233.043212
 20
-173.488229
 10
232.975337
 20
-173.424824
 10
232.927726
 20
-173.351891
 10
232.898623
 20
-173.267536
 10
232.890608
 20
-173.189584
 10
232.888461
 20
-173.168701
 10
232.895909
 20
-173.087844
 10
232.918189
 20
-173.010328
 10
232.955946
 20
-172.934924
 10
233.00694
 20
-172.867769
 10
233.0723
 20
-172.809424
 10
233.154002
 20
-172.759509
 10
233.243263
 20
-172.72386
 10
233.344193
 20
-172.70165
 10
233.45889
 20
-172.693893
  0
LWPOLYLINE
  5
6B
100
AcDbEntity
  8
0
  6
ByLayer
 62
  256
370
   -1
100
AcDbPolyline
 90
   24
 70
    1
 43
0
 10
233.172137
 20
-173.985767
 10
233.182354
 20
-174.076659
 10
233.211594
 20
-174.153269
 10
233.258595
 20
-174.217812
 10
233.319196
 20
-174.265266
 10
233.390585
 20
-174.294702
 10
233.47109
 20
-174.304724
 10
233.552604
 20
-174.294509
 10
233.624194
 20
-174.264607
 10
233.684641
 20
-174.216596
 10
233.731136
 20
-174.15151
 10
233.759976
 20
-174.074355
 10
233.770044
 20
-173.983239
 10
233.75991
 20
-173.892582
 10
233.731136
 20
-173.817606
 10
233.684352
 20
-173.755216
 10
233.621776
 20
-173.709345
 10
233.547934
 20
-173.681286
 10
233.463726
 20
-173.671646
 10
233.384466
 20
-173.681098
 10
233.316045
 20
-173.708498
 10
233.255888
 20
-173.754298
 10
233.21067
 20
-173.814324
 10
233.182335
 20
-173.889964
  0
LWPOLYLINE
  5
6C
100
AcDbEntity
  8
0
  6
ByLayer
 62
  256
370
   -1
100
AcDbPolyline
 90
   26
 70
    1
 43
0
 10
233.212694
 20
-173.189584
 10
233.220855
 20
-173.256099
 10
233.244509
 20
-173.313231
 10
233.284135
 20
-173.363241
 10
233.33552
 20
-173.40121
 10
233.396154
 20
-173.424365
 10
233.468672
 20
-173.432484
 10
233.524034
 20
-173.427744
 10
233.572427
 20
-173.414129
 10
233.616165
 20
-173.391933
 10
233.652441
 20
-173.363241
 10
233.681838
 20
-173.327827
 10
233.703878
 20
-173.285975
 10
233.717434
 20
-173.239591
 10
233.722123
 20
-173.187166
 10
233.713885
 20
-173.117585
 10
233.68992
 20
-173.056924
 10
233.651387
 20
-173.005449
 10
233.599684
 20
-172.966139
 10
233.53822
 20
-172.941574
 10
233.466144
 20
-172.933056
 10
233.393124
 20
-172.941495
 10
233.332826
 20
-172.965488
 10
233.282376
 20
-173.004827
 10
233.244141
 20
-173.05638
 10
233.220851
 20
-173.117092
  0
LWPOLYLINE
  5
6D
100
AcDbEntity
  8
0
  6
ByLayer
 62
  256
370
   -1
100
AcDbPolyline
 90
   60
 70
    1
 43
0
 10
235.097013
 20
-172.70406
 10
235.213592
 20
-172.732362
 10
235.317498
 20
-172.779106
 10
235.399229
 20
-172.838424
 10
235.464502
 20
-172.911281
 10
235.509468
 20
-172.991308
 10
235.536347
 20
-173.078634
 10
235.545408
 20
-173.171999
 10
235.538257
 20
-173.251373
 10
235.517357
 20
-173.323409
 10
235.48276
 20
-173.389619
 10
235.435989
 20
-173.448144
 10
235.376801
 20
-173.499052
 10
235.303498
 20
-173.542613
 10
235.394929
 20
-173.587986
 10
235.47045
 20
-173.646477
 10
235.531497
 20
-173.71797
 10
235.575194
 20
-173.799581
 10
235.60147
 20
-173.889942
 10
235.610584
 20
-173.992691
 10
235.602004
 20
-174.094123
 10
235.576822
 20
-174.187511
 10
235.535077
 20
-174.274499
 10
235.477782
 20
-174.351762
 10
235.404664
 20
-174.417539
 10
235.313609
 20
-174.472445
 10
235.213913
 20
-174.511151
 10
235.100248
 20
-174.535388
 10
234.970143
 20
-174.543886
 10
234.835029
 20
-174.535281
 10
234.719066
 20
-174.510942
 10
234.619313
 20
-174.472445
 10
234.528231
 20
-174.417569
 10
234.455555
 20
-174.352214
 10
234.399054
 20
-174.275818
 10
234.358044
 20
-174.189667
 10
234.333231
 20
-174.096655
 10
234.324756
 20
-173.995109
 10
234.325546
 20
-173.985767
 10
234.333926
 20
-173.886633
 10
234.359937
 20
-173.794514
 10
234.401631
 20
-173.715734
 10
234.459366
 20
-173.648095
 10
234.534978
 20
-173.590409
 10
234.631622
 20
-173.542613
 10
234.539736
 20
-173.488229
 10
234.471862
 20
-173.424824
 10
234.42425
 20
-173.351891
 10
234.395148
 20
-173.267536
 10
234.387133
 20
-173.189584
 10
234.384986
 20
-173.168701
 10
234.392434
 20
-173.087844
 10
234.414713
 20
-173.010328
 10
234.45247
 20
-172.934924
 10
234.503465
 20
-172.867769
 10
234.568825
 20
-172.809424
 10
234.650527
 20
-172.759509
 10
234.739788
 20
-172.72386
 10
234.840718
 20
-172.70165
 10
234.955415
 20
-172.693893
  0
LWPOLYLINE
  5
6E
100
AcDbEntity
  8
0
  6
ByLayer
 62
  256
370
   -1
100
AcDbPolyline
 90
   24
 70
    1
 43
0
 10
234.668662
 20
-173.985767
 10
234.678878
 20
-174.076659
 10
234.708119
 20
-174.153269
 10
234.75512
 20
-174.217812
 10
234.81572
 20
-174.265266
 10
234.887109
 20
-174.294702
 10
234.967615
 20
-174.304724
 10
235.049129
 20
-174.294509
 10
235.120719
 20
-174.264607
 10
235.181166
 20
-174.216596
 10
235.22766
 20
-174.15151
 10
235.256501
 20
-174.074355
 10
235.266568
 20
-173.983239
 10
235.256434
 20
-173.892582
 10
235.22766
 20
-173.817606
 10
235.180877
 20
-173.755216
 10
235.118301
 20
-173.709345
 10
235.044458
 20
-173.681286
 10
234.960251
 20
-173.671646
 10
234.88099
 20
-173.681098
 10
234.81257
 20
-173.708498
 10
234.752413
 20
-173.754298
 10
234.707195
 20
-173.814324
 10
234.67886
 20
-173.889964
  0
LWPOLYLINE
  5
6F
100
AcDbEntity
  8
0
  6
ByLayer
 62
  256
370
   -1
100
AcDbPolyline
 90
   26
 70
    1
 43
0
 10
234.709218
 20
-173.189584
 10
234.71738
 20
-173.256099
 10
234.741034
 20
-173.313231
 10
234.780659
 20
-173.363241
 10
234.832045
 20
-173.40121
 10
234.892679
 20
-173.424365
 10
234.965197
 20
-173.432484
 10
235.020559
 20
-173.427744
 10
235.068951
 20
-173.414129
 10
235.112689
 20
-173.391933
 10
235.148965
 20
-173.363241
 10
235.178363
 20
-173.327827
 10
235.200403
 20
-173.285975
 10
235.213959
 20
-173.239591
 10
235.218648
 20
-173.187166
 10
235.21041
 20
-173.117585
 10
235.186444
 20
-173.056924
 10
235.147912
 20
-173.005449
 10
235.096209
 20
-172.966139
 10
235.034745
 20
-172.941574
 10
234.962669
 20
-172.933056
 10
234.889648
 20
-172.941495
 10
234.829351
 20
-172.965488
 10
234.778901
 20
-173.004827
 10
234.740665
 20
-173.05638
 10
234.717376
 20
-173.117092
  0
LWPOLYLINE
  5
70
100
AcDbEntity
  8
0
  6
ByLayer
 62
  256
370
   -1
100
AcDbPolyline
 90
  104
 70
    1
 43
0
 10
237.286591
 20
-173.96939
 10
237.276945
 20
-174.076407
 10
237.248672
 20
-174.174196
 10
237.201741
 20
-174.264717
 10
237.138018
 20
-174.344233
 10
237.056299
 20
-174.412475
 10
236.953896
 20
-174.469807
 10
236.842793
 20
-174.509783
 10
236.714929
 20
-174.535001
 10
236.567455
 20
-174.543886
 10
236.39119
 20
-174.531475
 10
236.245683
 20
-174.496895
 10
236.125509
 20
-174.44288
 10
236.048067
 20
-174.388791
 10
235.981284
 20
-174.324176
 10
235.924375
 20
-174.24823
 10
235.879989
 20
-174.164423
 10
235.855005
 20
-174.085898
 10
235.846999
 20
-174.011046
 10
235.858794
 20
-173.94816
 10
235.89415
 20
-173.894982
 10
235.947126
 20
-173.858946
 10
236.014061
 20
-173.846622
 10
236.069014
 20
-173.856174
 10
236.113969
 20
-173.884211
 10
236.150192
 20
-173.928227
 10
236.183432
 20
-173.995109
 10
236.220338
 20
-174.076381
 10
236.257181
 20
-174.138101
 10
236.303853
 20
-174.18946
 10
236.368629
 20
-174.232513
 10
236.447172
 20
-174.259369
 10
236.557563
 20
-174.269553
 10
236.662642
 20
-174.260444
 10
236.748499
 20
-174.235011
 10
236.818927
 20
-174.194814
 10
236.875959
 20
-174.139238
 10
236.9084
 20
-174.078075
 10
236.919274
 20
-174.008738
 10
236.912924
 20
-173.952031
 10
236.89486
 20
-173.904931
 10
236.865309
 20
-173.865306
 10
236.804734
 20
-173.817464
 10
236.725174
 20
-173.780786
 10
236.494145
 20
-173.718248
 10
236.308279
 20
-173.666486
 10
236.167824
 20
-173.611526
 10
236.084781
 20
-173.564784
 10
236.015652
 20
-173.50912
 10
235.958887
 20
-173.444244
 10
235.916833
 20
-173.37004
 10
235.890709
 20
-173.283223
 10
235.881511
 20
-173.180791
 10
235.890819
 20
-173.083373
 10
235.918048
 20
-172.995201
 10
235.963283
 20
-172.914261
 10
236.024237
 20
-172.844137
 10
236.102097
 20
-172.784543
 10
236.199588
 20
-172.735329
 10
236.304416
 20
-172.701606
 10
236.424588
 20
-172.680296
 10
236.562509
 20
-172.672791
 10
236.722724
 20
-172.683887
 10
236.850801
 20
-172.714336
 10
236.964635
 20
-172.763968
 10
237.052924
 20
-172.824575
 10
237.124317
 20
-172.897134
 10
237.170637
 20
-172.969106
 10
237.19894
 20
-173.045392
 10
237.207896
 20
-173.117044
 10
237.19631
 20
-173.179836
 10
237.160745
 20
-173.237065
 10
237.12647
 20
-173.266943
 10
237.087827
 20
-173.284486
 10
237.043252
 20
-173.290481
 10
236.984738
 20
-173.281885
 10
236.945872
 20
-173.258937
 10
236.913934
 20
-173.2212
 10
236.874101
 20
-173.156282
 10
236.81855
 20
-173.062828
 10
236.757048
 20
-172.997023
 10
236.70813
 20
-172.967723
 10
236.637518
 20
-172.94774
 10
236.537889
 20
-172.94009
 10
236.446166
 20
-172.947635
 10
236.372072
 20
-172.968558
 10
236.312135
 20
-173.00131
 10
236.262911
 20
-173.046941
 10
236.235596
 20
-173.095196
 10
236.226626
 20
-173.148038
 10
236.234021
 20
-173.197864
 10
236.255532
 20
-173.239483
 10
236.289036
 20
-173.274626
 10
236.335546
 20
-173.306088
 10
236.43941
 20
-173.350052
 10
236.613836
 20
-173.396653
 10
236.762454
 20
-173.435084
 10
236.890258
 20
-173.475458
 10
237.007813
 20
-173.524715
 10
237.101394
 20
-173.580531
 10
237.179088
 20
-173.650589
 10
237.237571
 20
-173.737152
 10
237.26391
 20
-173.802165
 10
237.280642
 20
-173.878832
  0
LWPOLYLINE
  5
71
100
AcDbEntity
  8
0
  6
ByLayer
 62
  256
370
   -1
100
AcDbPolyline
 90
   41
 70
    1
 43
0
 10
238.669799
 20
-172.996364
 10
237.95407
 20
-172.996364
 10
237.95407
 20
-173.446552
 10
238.551757
 20
-173.446552
 10
238.629352
 20
-173.457231
 10
238.679032
 20
-173.48513
 10
238.710441
 20
-173.52927
 10
238.721347
 20
-173.587895
 10
238.710281
 20
-173.646272
 10
238.678372
 20
-173.690001
 10
238.628443
 20
-173.717463
 10
238.551757
 20
-173.72792
 10
237.95407
 20
-173.72792
 10
237.95407
 20
-174.317913
 10
237.947352
 20
-174.392581
 10
237.929358
 20
-174.447775
 10
237.901973
 20
-174.488162
 10
237.864255
 20
-174.518992
 10
237.820414
 20
-174.537472
 10
237.768543
 20
-174.543886
 10
237.715896
 20
-174.5374
 10
237.671639
 20
-174.518755
 10
237.633794
 20
-174.487723
 10
237.606395
 20
-174.447035
 10
237.588471
 20
-174.392049
 10
237.581807
 20
-174.318352
 10
237.581807
 20
-172.934704
 10
237.588298
 20
-172.859679
 10
237.605548
 20
-172.804902
 10
237.63613
 20
-172.761103
 10
237.680066
 20
-172.731153
 10
237.734883
 20
-172.714282
 10
237.8091
 20
-172.707962
 10
238.669799
 20
-172.707962
 10
238.750762
 20
-172.718988
 10
238.80202
 20
-172.747639
 10
238.834417
 20
-172.792861
 10
238.845544
 20
-172.851503
 10
238.834359
 20
-172.911282
 10
238.80202
 20
-172.956686
 10
238.750762
 20
-172.985337
  0
LWPOLYLINE
  5
72
100
AcDbEntity
  8
0
  6
ByLayer
 62
  256
370
   -1
100
AcDbPolyline
 90
   74
 70
    1
 43
0
 10
239.485546
 20
-174.220313
 10
240.120932
 20
-174.220313
 10
240.210458
 20
-174.231388
 10
240.269529
 20
-174.26032
 10
240.298193
 20
-174.290154
 10
240.315246
 20
-174.325827
 10
240.321186
 20
-174.36924
 10
240.310842
 20
-174.42614
 10
240.28019
 20
-174.473215
 10
240.23159
 20
-174.504139
 10
240.156542
 20
-174.51575
 10
239.251549
 20
-174.51575
 10
239.191185
 20
-174.509435
 10
239.143314
 20
-174.491875
 10
239.10515
 20
-174.463872
 10
239.065478
 20
-174.406943
 10
239.052503
 20
-174.341873
 10
239.059606
 20
-174.294346
 10
239.085916
 20
-174.223391
 10
239.122614
 20
-174.1552
 10
239.159225
 20
-174.107766
 10
239.454552
 20
-173.815298
 10
239.578196
 20
-173.705329
 10
239.643046
 20
-173.65505
 10
239.737568
 20
-173.581319
 10
239.810218
 20
-173.511618
 10
239.870003
 20
-173.437222
 10
239.911664
 20
-173.36423
 10
239.938098
 20
-173.2883619999999
 10
239.946506
 20
-173.216732
 10
239.937051
 20
-173.142006
 10
239.909466
 20
-173.077037
 10
239.865793
 20
-173.022371
 10
239.808679
 20
-172.981306
 10
239.742388
 20
-172.955754
 10
239.669644
 20
-172.947124
 10
239.593853
 20
-172.956014
 10
239.528281
 20
-172.981787
 10
239.47051
 20
-173.024819
 10
239.419271
 20
-173.087698
 10
239.378165
 20
-173.188705
 10
239.345454
 20
-173.265614
 10
239.312219
 20
-173.316969
 10
239.268064
 20
-173.350393
 10
239.203629
 20
-173.362362
 10
239.145522
 20
-173.351792
 10
239.098995
 20
-173.320816
 10
239.068367
 20
-173.273245
 10
239.057449
 20
-173.207939
 10
239.066658
 20
-173.122509
 10
239.095808
 20
-173.029886
 10
239.143218
 20
-172.942215
 10
239.210333
 20
-172.861835
 10
239.294756
 20
-172.794928
 10
239.403334
 20
-172.740165
 10
239.526316
 20
-172.706123
 10
239.677008
 20
-172.693893
 10
239.802019
 20
-172.701016
 10
239.908565
 20
-172.721053
 10
239.999372
 20
-172.752475
 10
240.080801
 20
-172.799671
 10
240.151706
 20
-172.861725
 10
240.209868
 20
-172.936357
 10
240.253812
 20
-173.022412
 10
240.281267
 20
-173.11537
 10
240.290412
 20
-173.211676
 10
240.281787
 20
-173.312119
 10
240.256443
 20
-173.404776
 10
240.214354
 20
-173.491285
 10
240.134351
 20
-173.607551
 10
240.059492
 20
-173.688133
 10
239.7956
 20
-173.910699
 10
239.627538
 20
-174.056562
 10
239.541929
 20
-174.145795
  0
LWPOLYLINE
  5
73
100
AcDbEntity
  8
0
  6
ByLayer
 62
  256
370
   -1
100
AcDbPolyline
 90
   26
 70
    1
 43
0
 10
213.21459
 20
-177.817803
 10
213.21459
 20
-176.397665
 10
213.221156
 20
-176.324667
 10
213.238845
 20
-176.269965
 10
213.265918
 20
-176.229284
 10
213.303359
 20
-176.19802
 10
213.347037
 20
-176.179293
 10
213.398908
 20
-176.172791
 10
213.452381
 20
-176.179279
 10
213.496975
 20
-176.197856
 10
213.534756
 20
-176.228625
 10
213.562187
 20
-176.26899
 10
213.580159
 20
-176.323831
 10
213.586853
 20
-176.397665
 10
213.586853
 20
-177.817803
 10
213.580176
 20
-177.891642
 10
213.562214
 20
-177.946735
 10
213.534756
 20
-177.987503
 10
213.496934
 20
-178.018599
 10
213.452341
 20
-178.037344
 10
213.398908
 20
-178.043886
 10
213.34793
 20
-178.037382
 10
213.304431
 20
-178.018532
 10
213.266577
 20
-177.986843
 10
213.239104
 20
-177.945704
 10
213.221212
 20
-177.890748
  0
LWPOLYLINE
  5
74
100
AcDbEntity
  8
0
  6
ByLayer
 62
  256
370
   -1
100
AcDbPolyline
 90
   89
 70
    1
 43
0
 10
215.530488
 20
-177.441254
 10
215.520423
 20
-177.528692
 10
215.487734
 20
-177.628649
 10
215.434556
 20
-177.725897
 10
215.353644
 20
-177.826156
 10
215.288771
 20
-177.885365
 10
215.211479
 20
-177.937824
 10
215.120197
 20
-177.983436
 10
215.023651
 20
-178.016146
 10
214.914032
 20
-178.036686
 10
214.78926
 20
-178.043886
 10
214.64972
 20
-178.036822
 10
214.528885
 20
-178.016849
 10
214.415987
 20
-177.982004
 10
214.315771
 20
-177.932878
 10
214.224979
 20
-177.867594
 10
214.139806
 20
-177.782412
 10
214.073759
 20
-177.692527
 10
214.017477
 20
-177.59139
 10
213.973438
 20
-177.482842
 10
213.94164
 20
-177.366076
 10
213.922829
 20
-177.244074
 10
213.916361
 20
-177.111746
 10
213.923846
 20
-176.96712
 10
213.945373
 20
-176.837257
 10
213.979888
 20
-176.720359
 10
214.029181
 20
-176.609134
 10
214.089886
 20
-176.510916
 10
214.162118
 20
-176.424373
 10
214.245762
 20
-176.348852
 10
214.33808
 20
-176.286609
 10
214.439969
 20
-176.237088
 10
214.547752
 20
-176.20155
 10
214.660551
 20
-176.180064
 10
214.779368
 20
-176.172791
 10
214.923793
 20
-176.182992
 10
215.053524
 20
-176.212493
 10
215.170865
 20
-176.260388
 10
215.279793
 20
-176.325802
 10
215.366527
 20
-176.39807
 10
215.433988
 20
-176.477239
 10
215.487188
 20
-176.566641
 10
215.516378
 20
-176.647389
 10
215.525543
 20
-176.721788
 10
215.514339
 20
-176.781806
 10
215.48026
 20
-176.834884
 10
215.430058
 20
-176.871677
 10
215.37079
 20
-176.883794
 10
215.30565
 20
-176.874452
 10
215.263519
 20
-176.849832
 10
215.229152
 20
-176.80859
 10
215.184494
 20
-176.733987
 10
215.131983
 20
-176.648929
 10
215.076444
 20
-176.583328
 10
215.017872
 20
-176.534282
 10
214.951176
 20
-176.498417
 10
214.873366
 20
-176.476089
 10
214.781896
 20
-176.468227
 10
214.673897
 20
-176.479298
 10
214.580443
 20
-176.51118
 10
214.498457
 20
-176.563583
 10
214.42601
 20
-176.638476
 10
214.371412
 20
-176.725783
 10
214.330038
 20
-176.832868
 10
214.303244
 20
-176.963735
 10
214.293569
 20
-177.123176
 10
214.300885
 20
-177.262708
 10
214.321133
 20
-177.377856
 10
214.352261
 20
-177.472468
 10
214.398393
 20
-177.55978
 10
214.453646
 20
-177.628033
 10
214.518224
 20
-177.679977
 10
214.59242
 20
-177.717476
 10
214.675541
 20
-177.740478
 10
214.769586
 20
-177.74845
 10
214.871287
 20
-177.739285
 10
214.958393
 20
-177.713139
 10
215.033698
 20
-177.670854
 10
215.098068
 20
-177.61286
 10
215.152369
 20
-177.537781
 10
215.196584
 20
-177.442573
 10
215.224022
 20
-177.375032
 10
215.255166
 20
-177.32464
 10
215.28189
 20
-177.300053
 10
215.318507
 20
-177.284452
 10
215.368372
 20
-177.278698
 10
215.430234
 20
-177.290369
 10
215.482678
 20
-177.325409
 10
215.518423
 20
-177.377398
  0
LWPOLYLINE
  5
75
100
AcDbEntity
  8
0
  6
ByLayer
 62
  256
370
   -1
100
AcDbPolyline
 90
   22
 70
    1
 43
0
 10
216.054426
 20
-178.043886
 10
215.982002
 20
-178.031176
 10
215.920447
 20
-177.993328
 10
215.889747
 20
-177.956218
 10
215.870815
 20
-177.910047
 10
215.864063
 20
-177.852095
 10
215.870102
 20
-177.80297
 10
215.887846
 20
-177.759305
 10
215.917919
 20
-177.719654
 10
215.956721
 20
-177.688696
 10
216.000464
 20
-177.670338
 10
216.050799
 20
-177.66404
 10
216.101094
 20
-177.670229
 10
216.145426
 20
-177.688355
 10
216.185328
 20
-177.718994
 10
216.216493
 20
-177.758405
 10
216.234885
 20
-177.80225
 10
216.241162
 20
-177.852095
 10
216.234511
 20
-177.909296
 10
216.215787
 20
-177.955338
 10
216.185328
 20
-177.992778
 10
216.124616
 20
-178.031136
  0
LWPOLYLINE
  5
76
100
AcDbEntity
  8
0
  6
ByLayer
 62
  256
370
   -1
100
AcDbPolyline
 90
   22
 70
    1
 43
0
 10
215.864063
 20
-176.857965
 10
215.87075
 20
-176.801504
 10
215.889485
 20
-176.756727
 10
215.919897
 20
-176.720908
 10
215.980929
 20
-176.684579
 10
216.054426
 20
-176.672218
 10
216.125773
 20
-176.684655
 10
216.185987
 20
-176.721568
 10
216.216098
 20
-176.757703
 10
216.234589
 20
-176.802319
 10
216.241162
 20
-176.857965
 10
216.234811
 20
-176.902315
 10
216.215423
 20
-176.944741
 10
216.181041
 20
-176.986559
 10
216.138373
 20
-177.019972
 10
216.095379
 20
-177.038852
 10
216.050799
 20
-177.045031
 10
216.00212
 20
-177.038789
 10
215.958722
 20
-177.020382
 10
215.919128
 20
-176.988977
 10
215.888193
 20
-176.948872
 10
215.870146
 20
-176.905655
  0
LWPOLYLINE
  5
77
100
AcDbEntity
  8
0
  6
ByLayer
 62
  256
370
   -1
100
AcDbPolyline
 90
   74
 70
    1
 43
0
 10
217.644374
 20
-177.720313
 10
218.279759
 20
-177.720313
 10
218.369286
 20
-177.731388
 10
218.428357
 20
-177.76032
 10
218.457021
 20
-177.790154
 10
218.474074
 20
-177.825827
 10
218.480014
 20
-177.86924
 10
218.46967
 20
-177.92614
 10
218.439018
 20
-177.973215
 10
218.390418
 20
-178.004139
 10
218.31537
 20
-178.01575
 10
217.410377
 20
-178.01575
 10
217.350013
 20
-178.009435
 10
217.302141
 20
-177.991875
 10
217.263978
 20
-177.963872
 10
217.224305
 20
-177.906943
 10
217.211331
 20
-177.841873
 10
217.218434
 20
-177.794346
 10
217.244743
 20
-177.723391
 10
217.281442
 20
-177.6552
 10
217.318053
 20
-177.607766
 10
217.613379
 20
-177.315298
 10
217.737023
 20
-177.205329
 10
217.801874
 20
-177.15505
 10
217.896396
 20
-177.081319
 10
217.969046
 20
-177.011618
 10
218.02883
 20
-176.937222
 10
218.070492
 20
-176.86423
 10
218.096926
 20
-176.7883619999999
 10
218.105333
 20
-176.716732
 10
218.095879
 20
-176.642006
 10
218.068294
 20
-176.577037
 10
218.02462
 20
-176.522371
 10
217.967507
 20
-176.481306
 10
217.901216
 20
-176.455754
 10
217.828472
 20
-176.447124
 10
217.752681
 20
-176.456014
 10
217.687109
 20
-176.481787
 10
217.629338
 20
-176.524819
 10
217.578098
 20
-176.587698
 10
217.536992
 20
-176.688705
 10
217.504281
 20
-176.765614
 10
217.471047
 20
-176.816969
 10
217.426891
 20
-176.850393
 10
217.362456
 20
-176.862362
 10
217.304349
 20
-176.851792
 10
217.257823
 20
-176.820816
 10
217.227195
 20
-176.773245
 10
217.216277
 20
-176.707939
 10
217.225486
 20
-176.622509
 10
217.254635
 20
-176.529886
 10
217.302046
 20
-176.442215
 10
217.369161
 20
-176.361835
 10
217.453584
 20
-176.294928
 10
217.562161
 20
-176.240165
 10
217.685143
 20
-176.206123
 10
217.835836
 20
-176.193893
 10
217.960847
 20
-176.201016
 10
218.067393
 20
-176.221053
 10
218.1582
 20
-176.252475
 10
218.239628
 20
-176.299671
 10
218.310534
 20
-176.361725
 10
218.368696
 20
-176.436357
 10
218.41264
 20
-176.522412
 10
218.440095
 20
-176.61537
 10
218.449239
 20
-176.711676
 10
218.440614
 20
-176.812119
 10
218.41527
 20
-176.904776
 10
218.373182
 20
-176.991285
 10
218.293179
 20
-177.107551
 10
218.21832
 20
-177.188133
 10
217.954428
 20
-177.410699
 10
217.786366
 20
-177.556562
 10
217.700757
 20
-177.645795
  0
LWPOLYLINE
  5
78
100
AcDbEntity
  8
0
  6
ByLayer
 62
  256
370
   -1
100
AcDbPolyline
 90
   41
 70
    1
 43
0
 10
219.435971
 20
-176.204584
 10
219.543936
 20
-176.235329
 10
219.641544
 20
-176.286333
 10
219.726385
 20
-176.356449
 10
219.797724
 20
-176.443784
 10
219.859375
 20
-176.553516
 10
219.896906
 20
-176.653882
 10
219.926426
 20
-176.779868
 10
219.945986
 20
-176.936363
 10
219.953128
 20
-177.128782
 10
219.946426
 20
-177.324574
 10
219.928398
 20
-177.477744
 10
219.892797
 20
-177.61838
 10
219.837064
 20
-177.742845
 10
219.774454
 20
-177.832937
 10
219.702086
 20
-177.906627
 10
219.619334
 20
-177.965521
 10
219.527593
 20
-178.00884
 10
219.4292
 20
-178.034981
 10
219.322469
 20
-178.043886
 10
219.200537
 20
-178.031959
 10
219.08899
 20
-177.996887
 10
218.985377
 20
-177.938263
 10
218.895285
 20
-177.860011
 10
218.820658
 20
-177.763497
 10
218.760942
 20
-177.646125
 10
218.728261
 20
-177.539816
 10
218.704778
 20
-177.418832
 10
218.691589
 20
-177.291827
 10
218.686973
 20
-177.149774
 10
218.687996
 20
-177.113944
 10
218.692171
 20
-176.967677
 10
218.706647
 20
-176.813452
 10
218.733047
 20
-176.669616
 10
218.768306
 20
-176.555825
 10
218.825938
 20
-176.444874
 10
218.896516
 20
-176.35611
 10
218.980431
 20
-176.286547
 10
219.077067
 20
-176.235932
 10
219.186828
 20
-176.204754
 10
219.312687
 20
-176.193893
  0
LWPOLYLINE
  5
79
100
AcDbEntity
  8
0
  6
ByLayer
 62
  256
370
   -1
100
AcDbPolyline
 90
   31
 70
    1
 43
0
 10
219.032198
 20
-177.113944
 10
219.039709
 20
-177.335278
 10
219.059126
 20
-177.493241
 10
219.083131
 20
-177.589828
 10
219.11357
 20
-177.662379
 10
219.149142
 20
-177.715697
 10
219.195737
 20
-177.757031
 10
219.25173
 20
-177.781929
 10
219.320051
 20
-177.790655
 10
219.390697
 20
-177.781525
 10
219.447837
 20
-177.755588
 10
219.494696
 20
-177.71262
 10
219.530359
 20
-177.657411
 10
219.560374
 20
-177.5840549999999
 10
219.583503
 20
-177.488295
 10
219.601993
 20
-177.330599
 10
219.609222
 20
-177.104052
 10
219.601707
 20
-176.888738
 10
219.582294
 20
-176.735306
 10
219.558319
 20
-176.641701
 10
219.527863
 20
-176.571369
 10
219.492168
 20
-176.519664
 10
219.445733
 20
-176.479977
 10
219.388635
 20
-176.455721
 10
219.317633
 20
-176.447124
 10
219.243339
 20
-176.45742
 10
219.183404
 20
-176.4868039999999
 10
219.134289
 20
-176.536082
 10
219.094956
 20
-176.6099
 10
219.063424
 20
-176.721306
 10
219.040925
 20
-176.88425
  0
LWPOLYLINE
  5
7A
100
AcDbEntity
  8
0
  6
ByLayer
 62
  256
370
   -1
100
AcDbPolyline
 90
   60
 70
    1
 43
0
 10
220.945973
 20
-176.20406
 10
221.062552
 20
-176.232362
 10
221.166458
 20
-176.279106
 10
221.248189
 20
-176.338424
 10
221.313462
 20
-176.411281
 10
221.358428
 20
-176.491308
 10
221.385307
 20
-176.578634
 10
221.394368
 20
-176.671999
 10
221.387218
 20
-176.751373
 10
221.366317
 20
-176.823409
 10
221.33172
 20
-176.889619
 10
221.284949
 20
-176.948144
 10
221.225761
 20
-176.999052
 10
221.152458
 20
-177.042613
 10
221.24389
 20
-177.087986
 10
221.31941
 20
-177.146477
 10
221.380457
 20
-177.21797
 10
221.424154
 20
-177.299581
 10
221.450431
 20
-177.389942
 10
221.459545
 20
-177.492691
 10
221.450964
 20
-177.594123
 10
221.425782
 20
-177.687511
 10
221.384037
 20
-177.774499
 10
221.326743
 20
-177.851762
 10
221.253625
 20
-177.917539
 10
221.16257
 20
-177.972445
 10
221.062873
 20
-178.011151
 10
220.949209
 20
-178.035388
 10
220.819103
 20
-178.043886
 10
220.68399
 20
-178.035281
 10
220.568026
 20
-178.010942
 10
220.468273
 20
-177.972445
 10
220.377191
 20
-177.917569
 10
220.304515
 20
-177.852214
 10
220.248015
 20
-177.775818
 10
220.207004
 20
-177.689667
 10
220.182192
 20
-177.596655
 10
220.173716
 20
-177.495109
 10
220.174506
 20
-177.485767
 10
220.182886
 20
-177.386633
 10
220.208897
 20
-177.294514
 10
220.250591
 20
-177.215734
 10
220.308326
 20
-177.148095
 10
220.383938
 20
-177.090409
 10
220.480583
 20
-177.042613
 10
220.388697
 20
-176.988229
 10
220.320822
 20
-176.924824
 10
220.273211
 20
-176.851891
 10
220.244108
 20
-176.767536
 10
220.236093
 20
-176.689584
 10
220.233946
 20
-176.668701
 10
220.241394
 20
-176.587844
 10
220.263674
 20
-176.510328
 10
220.301431
 20
-176.434924
 10
220.352425
 20
-176.367769
 10
220.417785
 20
-176.309424
 10
220.499487
 20
-176.259509
 10
220.588748
 20
-176.22386
 10
220.689678
 20
-176.20165
 10
220.804375
 20
-176.193893
  0
LWPOLYLINE
  5
7B
100
AcDbEntity
  8
0
  6
ByLayer
 62
  256
370
   -1
100
AcDbPolyline
 90
   24
 70
    1
 43
0
 10
220.517622
 20
-177.485767
 10
220.527839
 20
-177.576659
 10
220.557079
 20
-177.653269
 10
220.60408
 20
-177.717812
 10
220.664681
 20
-177.765266
 10
220.73607
 20
-177.794702
 10
220.816575
 20
-177.804724
 10
220.898089
 20
-177.794509
 10
220.969679
 20
-177.764607
 10
221.030126
 20
-177.716596
 10
221.076621
 20
-177.65151
 10
221.105461
 20
-177.574355
 10
221.115529
 20
-177.483239
 10
221.105395
 20
-177.392582
 10
221.076621
 20
-177.317606
 10
221.029837
 20
-177.255216
 10
220.967261
 20
-177.209345
 10
220.893419
 20
-177.181286
 10
220.809211
 20
-177.171646
 10
220.729951
 20
-177.181098
 10
220.66153
 20
-177.208498
 10
220.601373
 20
-177.254298
 10
220.556155
 20
-177.314324
 10
220.52782
 20
-177.389964
  0
LWPOLYLINE
  5
7C
100
AcDbEntity
  8
0
  6
ByLayer
 62
  256
370
   -1
100
AcDbPolyline
 90
   26
 70
    1
 43
0
 10
220.558179
 20
-176.689584
 10
220.56634
 20
-176.756099
 10
220.589994
 20
-176.813231
 10
220.62962
 20
-176.863241
 10
220.681005
 20
-176.90121
 10
220.741639
 20
-176.924365
 10
220.814157
 20
-176.932484
 10
220.869519
 20
-176.927744
 10
220.917912
 20
-176.914129
 10
220.96165
 20
-176.891933
 10
220.997926
 20
-176.863241
 10
221.027323
 20
-176.827827
 10
221.049363
 20
-176.785975
 10
221.062919
 20
-176.739591
 10
221.067608
 20
-176.687166
 10
221.05937
 20
-176.617585
 10
221.035405
 20
-176.556924
 10
220.996872
 20
-176.505449
 10
220.945169
 20
-176.466139
 10
220.883705
 20
-176.441574
 10
220.811629
 20
-176.433056
 10
220.738609
 20
-176.441495
 10
220.678311
 20
-176.465488
 10
220.627861
 20
-176.504827
 10
220.589626
 20
-176.55638
 10
220.566336
 20
-176.617092
  0
LWPOLYLINE
  5
7D
100
AcDbEntity
  8
0
  6
ByLayer
 62
  256
370
   -1
100
AcDbPolyline
 90
   72
 70
    1
 43
0
 10
222.370144
 20
-176.200691
 10
222.464405
 20
-176.220313
 10
222.549515
 20
-176.2520349999999
 10
222.628398
 20
-176.296633
 10
222.698214
 20
-176.352683
 10
222.759771
 20
-176.420966
 10
222.810503
 20
-176.498037
 10
222.854334
 20
-176.590161
 10
222.890673
 20
-176.699586
 10
222.924378
 20
-176.873734
 10
222.936396
 20
-177.079542
 10
222.930593
 20
-177.237118
 10
222.914133
 20
-177.375563
 10
222.888255
 20
-177.496978
 10
222.849829
 20
-177.614802
 10
222.802891
 20
-177.715394
 10
222.748011
 20
-177.800877
 10
222.681555
 20
-177.876894
 10
222.608208
 20
-177.937446
 10
222.527313
 20
-177.983876
 10
222.439731
 20
-178.016645
 10
222.343018
 20
-178.036884
 10
222.235614
 20
-178.043886
 10
222.129948
 20
-178.03658
 10
222.037467
 20
-178.015699
 10
221.956115
 20
-177.982227
 10
221.880957
 20
-177.936075
 10
221.82133
 20
-177.884885
 10
221.775204
 20
-177.828574
 10
221.739452
 20
-177.765103
 10
221.719543
 20
-177.706473
 10
221.713215
 20
-177.65129
 10
221.722826
 20
-177.601095
 10
221.752343
 20
-177.555889
 10
221.796481
 20
-177.524547
 10
221.852031
 20
-177.513904
 10
221.904523
 20
-177.521828
 10
221.951169
 20
-177.545448
 10
221.988858
 20
-177.583462
 10
222.017554
 20
-177.63964
 10
222.053209
 20
-177.707096
 10
222.106031
 20
-177.759441
 10
222.17172
 20
-177.793373
 10
222.245396
 20
-177.804724
 10
222.312466
 20
-177.795869
 10
222.376518
 20
-177.769003
 10
222.433316
 20
-177.726329
 10
222.48225
 20
-177.667557
 10
222.527497
 20
-177.574327
 10
222.564186
 20
-177.428637
 10
222.586884
 20
-177.211653
 10
222.505178
 20
-177.289991
 10
222.411029
 20
-177.348161
 10
222.305971
 20
-177.384328
 10
222.187694
 20
-177.39674
 10
222.074486
 20
-177.385332
 10
221.970403
 20
-177.351678
 10
221.876201
 20
-177.297516
 10
221.795867
 20
-177.225722
 10
221.731092
 20
-177.138728
 10
221.68266
 20
-177.037007
 10
221.653057
 20
-176.926852
 10
221.643093
 20
-176.810594
 10
221.643818
 20
-176.802571
 10
221.654319
 20
-176.686339
 10
221.687606
 20
-176.569563
 10
221.742088
 20
-176.462573
 10
221.815101
 20
-176.371617
 10
221.905298
 20
-176.297305
 10
222.012388
 20
-176.240825
 10
222.131047
 20
-176.205953
 10
222.26518
 20
-176.193893
  0
LWPOLYLINE
  5
7E
100
AcDbEntity
  8
0
  6
ByLayer
 62
  256
370
   -1
100
AcDbPolyline
 90
   26
 70
    1
 43
0
 10
221.977217
 20
-176.802571
 10
221.987035
 20
-176.908185
 10
222.014324
 20
-176.993015
 10
222.057451
 20
-177.061407
 10
222.116337
 20
-177.115306
 10
222.182988
 20
-177.146819
 10
222.260234
 20
-177.157578
 10
222.33332
 20
-177.147815
 10
222.404105
 20
-177.11801
 10
222.465846
 20
-177.070106
 10
222.515993
 20
-177.002935
 10
222.547939
 20
-176.922393
 10
222.559187
 20
-176.824663
 10
222.553358
 20
-176.743567
 10
222.536546
 20
-176.671229
 10
222.508981
 20
-176.604765
 10
222.473238
 20
-176.54967
 10
222.428357
 20
-176.50383
 10
222.375968
 20
-176.469326
 10
222.317373
 20
-176.447487
 10
222.25287
 20
-176.44009
 10
222.180687
 20
-176.450888
 10
222.116392
 20
-176.48308
 10
222.057451
 20
-176.539338
 10
222.014268
 20
-176.609595
 10
221.986998
 20
-176.695952
  0
LWPOLYLINE
  5
7F
100
AcDbEntity
  8
0
  6
ByLayer
 62
  256
370
   -1
100
AcDbPolyline
 90
   72
 70
    1
 43
0
 10
223.976389
 20
-176.201206
 10
224.068729
 20
-176.222242
 10
224.151223
 20
-176.256212
 10
224.227524
 20
-176.302869
 10
224.287491
 20
-176.354463
 10
224.333343
 20
-176.411074
 10
224.368782
 20
-176.474871
 10
224.388514
 20
-176.533686
 10
224.394782
 20
-176.588907
 10
224.385257
 20
-176.638096
 10
224.355654
 20
-176.683759
 10
224.311472
 20
-176.71553
 10
224.255966
 20
-176.726294
 10
224.205552
 20
-176.717876
 10
224.158037
 20
-176.692002
 10
224.119376
 20
-176.651859
 10
224.091652
 20
-176.59704
 10
224.055287
 20
-176.529894
 10
224.003065
 20
-176.478009
 10
223.938178
 20
-176.444458
 10
223.862601
 20
-176.433056
 10
223.799639
 20
-176.442094
 10
223.734557
 20
-176.470535
 10
223.676002
 20
-176.514243
 10
223.626846
 20
-176.571761
 10
223.591902
 20
-176.637033
 10
223.561352
 20
-176.729664
 10
223.537201
 20
-176.857256
 10
223.522212
 20
-177.028544
 10
223.606018
 20
-176.947161
 10
223.698726
 20
-176.889069
 10
223.802248
 20
-176.853362
 10
223.920303
 20
-176.841039
 10
224.034437
 20
-176.852185
 10
224.137484
 20
-176.884783
 10
224.23084
 20
-176.937699
 10
224.31202
 20
-177.00931
 10
224.378011
 20
-177.096517
 10
224.427755
 20
-177.199563
 10
224.458284
 20
-177.311208
 10
224.468531
 20
-177.428394
 10
224.459433
 20
-177.541898
 10
224.432775
 20
-177.64636
 10
224.388737
 20
-177.743504
 10
224.328414
 20
-177.831119
 10
224.254609
 20
-177.904406
 10
224.166061
 20
-177.964532
 10
224.068148
 20
-178.008119
 10
223.961044
 20
-178.034735
 10
223.842817
 20
-178.043886
 10
223.707509
 20
-178.032046
 10
223.589051
 20
-177.997989
 10
223.484293
 20
-177.94255
 10
223.393616
 20
-177.866349
 10
223.316838
 20
-177.767789
 10
223.253704
 20
-177.643157
 10
223.211246
 20
-177.508772
 10
223.195108
 20
-177.414436
 10
223.183912
 20
-177.348988
 10
223.174129
 20
-177.159446
 10
223.179868
 20
-177.004634
 10
223.196268
 20
-176.866461
 10
223.22227
 20
-176.74322
 10
223.260713
 20
-176.623358
 10
223.307032
 20
-176.522638
 10
223.360536
 20
-176.438551
 10
223.425734
 20
-176.363696
 10
223.498449
 20
-176.303146
 10
223.579365
 20
-176.255772
 10
223.667126
 20
-176.221985
 10
223.764252
 20
-176.201118
 10
223.872383
 20
-176.193893
  0
LWPOLYLINE
  5
80
100
AcDbEntity
  8
0
  6
ByLayer
 62
  256
370
   -1
100
AcDbPolyline
 90
   24
 70
    1
 43
0
 10
223.551228
 20
-177.414436
 10
223.56133
 20
-177.521217
 10
223.590036
 20
-177.611414
 10
223.636408
 20
-177.68833
 10
223.699422
 20
-177.750105
 10
223.769685
 20
-177.785669
 10
223.850181
 20
-177.797689
 10
223.927145
 20
-177.786575
 10
223.993787
 20
-177.753883
 10
224.052964
 20
-177.697562
 10
224.09621
 20
-177.626702
 10
224.123452
 20
-177.540182
 10
224.133198
 20
-177.434
 10
224.123185
 20
-177.328153
 10
224.095389
 20
-177.243527
 10
224.049922
 20
-177.172366
 10
223.992184
 20
-177.122077
 10
223.923459
 20
-177.090709
 10
223.847763
 20
-177.080202
 10
223.774607
 20
-177.09007
 10
223.703782
 20
-177.120209
 10
223.642459
 20
-177.168563
 10
223.593213
 20
-177.236163
 10
223.562162
 20
-177.316869
  0
LWPOLYLINE
  5
81
100
AcDbEntity
  8
0
  6
ByLayer
 62
  256
370
   -1
100
AcDbPolyline
 90
   19
 70
    1
 43
0
 10
225.173379
 20
-177.509288
 10
224.78474
 20
-177.509288
 10
224.702436
 20
-177.497799
 10
224.647683
 20
-177.467302
 10
224.612477
 20
-177.419466
 10
224.600532
 20
-177.358712
 10
224.612276
 20
-177.296741
 10
224.646474
 20
-177.248912
 10
224.700521
 20
-177.218458
 10
224.78474
 20
-177.206817
 10
225.173379
 20
-177.206817
 10
225.257581
 20
-177.218462
 10
225.311535
 20
-177.248912
 10
225.345819
 20
-177.29675
 10
225.357587
 20
-177.358712
 10
225.346051
 20
-177.4196209999999
 10
225.312305
 20
-177.467302
 10
225.279505
 20
-177.489335
 10
225.234486
 20
-177.503856
  0
LWPOLYLINE
  5
82
100
AcDbEntity
  8
0
  6
ByLayer
 62
  256
370
   -1
100
AcDbPolyline
 90
   65
 70
    1
 43
0
 10
226.199382
 20
-177.739108
 10
225.913838
 20
-176.591325
 10
225.917355
 20
-177.834069
 10
225.911316
 20
-177.902188
 10
225.895054
 20
-177.953255
 10
225.870204
 20
-177.99124
 10
225.835815
 20
-178.020248
 10
225.794866
 20
-178.037757
 10
225.745347
 20
-178.043886
 10
225.697442
 20
-178.037904
 10
225.657042
 20
-178.02067
 10
225.622359
 20
-177.991899
 10
225.597275
 20
-177.954318
 10
225.580801
 20
-177.903188
 10
225.574658
 20
-177.834289
 10
225.574658
 20
-176.411404
 10
225.582991
 20
-176.334516
 10
225.604632
 20
-176.283154
 10
225.637306
 20
-176.249947
 10
225.707114
 20
-176.219391
 10
225.805577
 20
-176.207962
 10
225.918784
 20
-176.207962
 10
226.01435
 20
-176.213571
 10
226.06848
 20
-176.226756
 10
226.10921
 20
-176.252684
 10
226.138053
 20
-176.294021
 10
226.188941
 20
-176.450751
 10
226.447448
 20
-177.4218
 10
226.705954
 20
-176.450751
 10
226.756732
 20
-176.294021
 10
226.785643
 20
-176.252672
 10
226.826305
 20
-176.226756
 10
226.880545
 20
-176.21357
 10
226.976221
 20
-176.207962
 10
227.089318
 20
-176.207962
 10
227.187862
 20
-176.219398
 10
227.257589
 20
-176.249947
 10
227.290327
 20
-176.283164
 10
227.312003
 20
-176.334528
 10
227.320347
 20
-176.411404
 10
227.320347
 20
-177.834289
 10
227.314306
 20
-177.902407
 10
227.298041
 20
-177.953432
 10
227.273196
 20
-177.99135
 10
227.238787
 20
-178.020229
 10
227.197464
 20
-178.037736
 10
227.14713
 20
-178.043886
 10
227.100075
 20
-178.037874
 10
227.060055
 20
-178.020471
 10
227.025351
 20
-177.99124
 10
227.00019
 20
-177.953209
 10
226.98375
 20
-177.902139
 10
226.97765
 20
-177.834069
 10
226.981167
 20
-176.591325
 10
226.695623
 20
-177.739108
 10
226.649351
 20
-177.903752
 10
226.624292
 20
-177.953177
 10
226.582416
 20
-178.000142
 10
226.526684
 20
-178.03216
 10
226.447558
 20
-178.043886
 10
226.386162
 20
-178.036493
 10
226.337428
 20
-178.01575
 10
226.297148
 20
-177.983513
 10
226.267416
 20
-177.944089
 10
226.228288
 20
-177.848028
  0
LWPOLYLINE
  5
83
100
AcDbEntity
  8
0
  6
ByLayer
 62
  256
370
   -1
100
AcDbPolyline
 90
  104
 70
    1
 43
0
 10
229.065377
 20
-177.46939
 10
229.055731
 20
-177.576407
 10
229.027458
 20
-177.674196
 10
228.980527
 20
-177.764717
 10
228.916804
 20
-177.844233
 10
228.835084
 20
-177.912475
 10
228.732681
 20
-177.969807
 10
228.621579
 20
-178.009783
 10
228.493715
 20
-178.035001
 10
228.34624
 20
-178.043886
 10
228.169976
 20
-178.031475
 10
228.024469
 20
-177.996895
 10
227.904295
 20
-177.94288
 10
227.826853
 20
-177.888791
 10
227.760069
 20
-177.824176
 10
227.703161
 20
-177.74823
 10
227.658775
 20
-177.664423
 10
227.63379
 20
-177.585898
 10
227.625785
 20
-177.511046
 10
227.63758
 20
-177.44816
 10
227.672936
 20
-177.394982
 10
227.725912
 20
-177.358946
 10
227.792847
 20
-177.346622
 10
227.847799
 20
-177.356174
 10
227.892755
 20
-177.384211
 10
227.928978
 20
-177.428227
 10
227.962217
 20
-177.495109
 10
227.999124
 20
-177.576381
 10
228.035966
 20
-177.638101
 10
228.082639
 20
-177.68946
 10
228.147414
 20
-177.732513
 10
228.225958
 20
-177.759369
 10
228.336349
 20
-177.769553
 10
228.441428
 20
-177.760444
 10
228.527284
 20
-177.735011
 10
228.597713
 20
-177.694814
 10
228.654745
 20
-177.639238
 10
228.687186
 20
-177.578075
 10
228.69806
 20
-177.508738
 10
228.69171
 20
-177.452031
 10
228.673646
 20
-177.404931
 10
228.644094
 20
-177.365306
 10
228.58352
 20
-177.317464
 10
228.50396
 20
-177.280786
 10
228.272931
 20
-177.218248
 10
228.087064
 20
-177.166486
 10
227.94661
 20
-177.111526
 10
227.863566
 20
-177.064784
 10
227.794438
 20
-177.00912
 10
227.737673
 20
-176.944244
 10
227.695618
 20
-176.87004
 10
227.669495
 20
-176.783223
 10
227.660297
 20
-176.680791
 10
227.669605
 20
-176.583373
 10
227.696834
 20
-176.495201
 10
227.742069
 20
-176.414261
 10
227.803022
 20
-176.344137
 10
227.880882
 20
-176.284543
 10
227.978374
 20
-176.235329
 10
228.083202
 20
-176.201606
 10
228.203374
 20
-176.180296
 10
228.341294
 20
-176.172791
 10
228.50151
 20
-176.183887
 10
228.629586
 20
-176.214336
 10
228.74342
 20
-176.263968
 10
228.83171
 20
-176.324575
 10
228.903103
 20
-176.397134
 10
228.949422
 20
-176.469106
 10
228.977726
 20
-176.545392
 10
228.986682
 20
-176.617044
 10
228.975096
 20
-176.679836
 10
228.939531
 20
-176.737065
 10
228.905256
 20
-176.766943
 10
228.866613
 20
-176.784486
 10
228.822038
 20
-176.790481
 10
228.763524
 20
-176.781885
 10
228.724658
 20
-176.758937
 10
228.692719
 20
-176.7212
 10
228.652887
 20
-176.656282
 10
228.597336
 20
-176.562828
 10
228.535834
 20
-176.497023
 10
228.486916
 20
-176.467723
 10
228.416304
 20
-176.44774
 10
228.316675
 20
-176.44009
 10
228.224951
 20
-176.447635
 10
228.150858
 20
-176.468558
 10
228.090921
 20
-176.50131
 10
228.041697
 20
-176.546941
 10
228.014382
 20
-176.595196
 10
228.005412
 20
-176.648038
 10
228.012807
 20
-176.697864
 10
228.034318
 20
-176.739483
 10
228.067822
 20
-176.774626
 10
228.114332
 20
-176.806088
 10
228.218196
 20
-176.850052
 10
228.392622
 20
-176.896653
 10
228.54124
 20
-176.935084
 10
228.669044
 20
-176.975458
 10
228.786599
 20
-177.024715
 10
228.88018
 20
-177.080531
 10
228.957873
 20
-177.150589
 10
229.016357
 20
-177.237152
 10
229.042695
 20
-177.302165
 10
229.059428
 20
-177.378832
  0
LWPOLYLINE
  5
84
100
AcDbEntity
  8
0
  6
ByLayer
 62
  256
370
   -1
100
AcDbPolyline
 90
   60
 70
    1
 43
0
 10
230.051737
 20
-176.20406
 10
230.168316
 20
-176.232362
 10
230.272223
 20
-176.279106
 10
230.353953
 20
-176.338424
 10
230.419227
 20
-176.411281
 10
230.464192
 20
-176.491308
 10
230.491071
 20
-176.578634
 10
230.500133
 20
-176.671999
 10
230.492982
 20
-176.751373
 10
230.472081
 20
-176.823409
 10
230.437484
 20
-176.889619
 10
230.390713
 20
-176.948144
 10
230.331525
 20
-176.999052
 10
230.258222
 20
-177.042613
 10
230.349654
 20
-177.087986
 10
230.425174
 20
-177.146477
 10
230.486221
 20
-177.21797
 10
230.529918
 20
-177.299581
 10
230.556195
 20
-177.389942
 10
230.565309
 20
-177.492691
 10
230.556728
 20
-177.594123
 10
230.531546
 20
-177.687511
 10
230.489801
 20
-177.774499
 10
230.432507
 20
-177.851762
 10
230.359389
 20
-177.917539
 10
230.268334
 20
-177.972445
 10
230.168638
 20
-178.011151
 10
230.054973
 20
-178.035388
 10
229.924867
 20
-178.043886
 10
229.789754
 20
-178.035281
 10
229.67379
 20
-178.010942
 10
229.574037
 20
-177.972445
 10
229.482955
 20
-177.917569
 10
229.410279
 20
-177.852214
 10
229.353779
 20
-177.775818
 10
229.312768
 20
-177.689667
 10
229.287956
 20
-177.596655
 10
229.27948
 20
-177.495109
 10
229.28027
 20
-177.485767
 10
229.288651
 20
-177.386633
 10
229.314661
 20
-177.294514
 10
229.356355
 20
-177.215734
 10
229.41409
 20
-177.148095
 10
229.489703
 20
-177.090409
 10
229.586347
 20
-177.042613
 10
229.494461
 20
-176.988229
 10
229.426586
 20
-176.924824
 10
229.378975
 20
-176.851891
 10
229.349872
 20
-176.767536
 10
229.341857
 20
-176.689584
 10
229.33971
 20
-176.668701
 10
229.347158
 20
-176.587844
 10
229.369438
 20
-176.510328
 10
229.407195
 20
-176.434924
 10
229.458189
 20
-176.367769
 10
229.523549
 20
-176.309424
 10
229.605251
 20
-176.259509
 10
229.694512
 20
-176.22386
 10
229.795442
 20
-176.20165
 10
229.91014
 20
-176.193893
  0
LWPOLYLINE
  5
85
100
AcDbEntity
  8
0
  6
ByLayer
 62
  256
370
   -1
100
AcDbPolyline
 90
   24
 70
    1
 43
0
 10
229.623386
 20
-177.485767
 10
229.633603
 20
-177.576659
 10
229.662844
 20
-177.653269
 10
229.709844
 20
-177.717812
 10
229.770445
 20
-177.765266
 10
229.841834
 20
-177.794702
 10
229.922339
 20
-177.804724
 10
230.003853
 20
-177.794509
 10
230.075443
 20
-177.764607
 10
230.13589
 20
-177.716596
 10
230.182385
 20
-177.65151
 10
230.211225
 20
-177.574355
 10
230.221293
 20
-177.483239
 10
230.211159
 20
-177.392582
 10
230.182385
 20
-177.317606
 10
230.135602
 20
-177.255216
 10
230.073025
 20
-177.209345
 10
229.999183
 20
-177.181286
 10
229.914976
 20
-177.171646
 10
229.835715
 20
-177.181098
 10
229.767294
 20
-177.208498
 10
229.707137
 20
-177.254298
 10
229.661919
 20
-177.314324
 10
229.633584
 20
-177.389964
  0
LWPOLYLINE
  5
86
100
AcDbEntity
  8
0
  6
ByLayer
 62
  256
370
   -1
100
AcDbPolyline
 90
   26
 70
    1
 43
0
 10
229.663943
 20
-176.689584
 10
229.672104
 20
-176.756099
 10
229.695758
 20
-176.813231
 10
229.735384
 20
-176.863241
 10
229.78677
 20
-176.90121
 10
229.847403
 20
-176.924365
 10
229.919921
 20
-176.932484
 10
229.975283
 20
-176.927744
 10
230.023676
 20
-176.914129
 10
230.067414
 20
-176.891933
 10
230.10369
 20
-176.863241
 10
230.133087
 20
-176.827827
 10
230.155127
 20
-176.785975
 10
230.168684
 20
-176.739591
 10
230.173372
 20
-176.687166
 10
230.165135
 20
-176.617585
 10
230.141169
 20
-176.556924
 10
230.102636
 20
-176.505449
 10
230.050933
 20
-176.466139
 10
229.989469
 20
-176.441574
 10
229.917394
 20
-176.433056
 10
229.844373
 20
-176.441495
 10
229.784075
 20
-176.465488
 10
229.733625
 20
-176.504827
 10
229.69539
 20
-176.55638
 10
229.6721
 20
-176.617092
  0
LWPOLYLINE
  5
87
100
AcDbEntity
  8
0
  6
ByLayer
 62
  256
370
   -1
100
AcDbPolyline
 90
   60
 70
    1
 43
0
 10
231.548262
 20
-176.20406
 10
231.664841
 20
-176.232362
 10
231.768747
 20
-176.279106
 10
231.850478
 20
-176.338424
 10
231.915751
 20
-176.411281
 10
231.960717
 20
-176.491308
 10
231.987596
 20
-176.578634
 10
231.996657
 20
-176.671999
 10
231.989506
 20
-176.751373
 10
231.968606
 20
-176.823409
 10
231.934009
 20
-176.889619
 10
231.887238
 20
-176.948144
 10
231.82805
 20
-176.999052
 10
231.754747
 20
-177.042613
 10
231.846178
 20
-177.087986
 10
231.921699
 20
-177.146477
 10
231.982746
 20
-177.21797
 10
232.026443
 20
-177.299581
 10
232.05272
 20
-177.389942
 10
232.061834
 20
-177.492691
 10
232.053253
 20
-177.594123
 10
232.028071
 20
-177.687511
 10
231.986326
 20
-177.774499
 10
231.929032
 20
-177.851762
 10
231.855914
 20
-177.917539
 10
231.764859
 20
-177.972445
 10
231.665162
 20
-178.011151
 10
231.551497
 20
-178.035388
 10
231.421392
 20
-178.043886
 10
231.286279
 20
-178.035281
 10
231.170315
 20
-178.010942
 10
231.070562
 20
-177.972445
 10
230.97948
 20
-177.917569
 10
230.906804
 20
-177.852214
 10
230.850303
 20
-177.775818
 10
230.809293
 20
-177.689667
 10
230.784481
 20
-177.596655
 10
230.776005
 20
-177.495109
 10
230.776795
 20
-177.485767
 10
230.785175
 20
-177.386633
 10
230.811186
 20
-177.294514
 10
230.85288
 20
-177.215734
 10
230.910615
 20
-177.148095
 10
230.986227
 20
-177.090409
 10
231.082872
 20
-177.042613
 10
230.990986
 20
-176.988229
 10
230.923111
 20
-176.924824
 10
230.8755
 20
-176.851891
 10
230.846397
 20
-176.767536
 10
230.838382
 20
-176.689584
 10
230.836235
 20
-176.668701
 10
230.843683
 20
-176.587844
 10
230.865963
 20
-176.510328
 10
230.903719
 20
-176.434924
 10
230.954714
 20
-176.367769
 10
231.020074
 20
-176.309424
 10
231.101776
 20
-176.259509
 10
231.191037
 20
-176.22386
 10
231.291967
 20
-176.20165
 10
231.406664
 20
-176.193893
  0
LWPOLYLINE
  5
88
100
AcDbEntity
  8
0
  6
ByLayer
 62
  256
370
   -1
100
AcDbPolyline
 90
   24
 70
    1
 43
0
 10
231.119911
 20
-177.485767
 10
231.130128
 20
-177.576659
 10
231.159368
 20
-177.653269
 10
231.206369
 20
-177.717812
 10
231.26697
 20
-177.765266
 10
231.338358
 20
-177.794702
 10
231.418864
 20
-177.804724
 10
231.500378
 20
-177.794509
 10
231.571968
 20
-177.764607
 10
231.632415
 20
-177.716596
 10
231.67891
 20
-177.65151
 10
231.70775
 20
-177.574355
 10
231.717817
 20
-177.483239
 10
231.707683
 20
-177.392582
 10
231.67891
 20
-177.317606
 10
231.632126
 20
-177.255216
 10
231.56955
 20
-177.209345
 10
231.495708
 20
-177.181286
 10
231.4115
 20
-177.171646
 10
231.33224
 20
-177.181098
 10
231.263819
 20
-177.208498
 10
231.203662
 20
-177.254298
 10
231.158444
 20
-177.314324
 10
231.130109
 20
-177.389964
  0
LWPOLYLINE
  5
89
100
AcDbEntity
  8
0
  6
ByLayer
 62
  256
370
   -1
100
AcDbPolyline
 90
   26
 70
    1
 43
0
 10
231.160467
 20
-176.689584
 10
231.168629
 20
-176.756099
 10
231.192283
 20
-176.813231
 10
231.231909
 20
-176.863241
 10
231.283294
 20
-176.90121
 10
231.343928
 20
-176.924365
 10
231.416446
 20
-176.932484
 10
231.471808
 20
-176.927744
 10
231.520201
 20
-176.914129
 10
231.563938
 20
-176.891933
 10
231.600215
 20
-176.863241
 10
231.629612
 20
-176.827827
 10
231.651652
 20
-176.785975
 10
231.665208
 20
-176.739591
 10
231.669897
 20
-176.687166
 10
231.661659
 20
-176.617585
 10
231.637694
 20
-176.556924
 10
231.599161
 20
-176.505449
 10
231.547458
 20
-176.466139
 10
231.485994
 20
-176.441574
 10
231.413918
 20
-176.433056
 10
231.340897
 20
-176.441495
 10
231.2806
 20
-176.465488
 10
231.23015
 20
-176.504827
 10
231.191915
 20
-176.55638
 10
231.168625
 20
-176.617092
  0
LWPOLYLINE
  5
8A
100
AcDbEntity
  8
0
  6
ByLayer
 62
  256
370
   -1
100
AcDbPolyline
 90
  104
 70
    1
 43
0
 10
233.73784
 20
-177.46939
 10
233.728194
 20
-177.576407
 10
233.699922
 20
-177.674196
 10
233.65299
 20
-177.764717
 10
233.589267
 20
-177.844233
 10
233.507548
 20
-177.912475
 10
233.405145
 20
-177.969807
 10
233.294042
 20
-178.009783
 10
233.166178
 20
-178.035001
 10
233.018704
 20
-178.043886
 10
232.842439
 20
-178.031475
 10
232.696932
 20
-177.996895
 10
232.576758
 20
-177.94288
 10
232.499316
 20
-177.888791
 10
232.432533
 20
-177.824176
 10
232.375625
 20
-177.74823
 10
232.331238
 20
-177.664423
 10
232.306254
 20
-177.585898
 10
232.298248
 20
-177.511046
 10
232.310043
 20
-177.44816
 10
232.345399
 20
-177.394982
 10
232.398375
 20
-177.358946
 10
232.46531
 20
-177.346622
 10
232.520263
 20
-177.356174
 10
232.565218
 20
-177.384211
 10
232.601441
 20
-177.428227
 10
232.634681
 20
-177.495109
 10
232.671587
 20
-177.576381
 10
232.70843
 20
-177.638101
 10
232.755102
 20
-177.68946
 10
232.819878
 20
-177.732513
 10
232.898421
 20
-177.759369
 10
233.008812
 20
-177.769553
 10
233.113892
 20
-177.760444
 10
233.199748
 20
-177.735011
 10
233.270176
 20
-177.694814
 10
233.327209
 20
-177.639238
 10
233.359649
 20
-177.578075
 10
233.370523
 20
-177.508738
 10
233.364173
 20
-177.452031
 10
233.346109
 20
-177.404931
 10
233.316558
 20
-177.365306
 10
233.255984
 20
-177.317464
 10
233.176424
 20
-177.280786
 10
232.945394
 20
-177.218248
 10
232.759528
 20
-177.166486
 10
232.619074
 20
-177.111526
 10
232.53603
 20
-177.064784
 10
232.466901
 20
-177.00912
 10
232.410136
 20
-176.944244
 10
232.368082
 20
-176.87004
 10
232.341958
 20
-176.783223
 10
232.33276
 20
-176.680791
 10
232.342068
 20
-176.583373
 10
232.369297
 20
-176.495201
 10
232.414532
 20
-176.414261
 10
232.475486
 20
-176.344137
 10
232.553346
 20
-176.284543
 10
232.650837
 20
-176.235329
 10
232.755665
 20
-176.201606
 10
232.875837
 20
-176.180296
 10
233.013758
 20
-176.172791
 10
233.173973
 20
-176.183887
 10
233.30205
 20
-176.214336
 10
233.415884
 20
-176.263968
 10
233.504173
 20
-176.324575
 10
233.575566
 20
-176.397134
 10
233.621886
 20
-176.469106
 10
233.650189
 20
-176.545392
 10
233.659145
 20
-176.617044
 10
233.647559
 20
-176.679836
 10
233.611994
 20
-176.737065
 10
233.577719
 20
-176.766943
 10
233.539076
 20
-176.784486
 10
233.494501
 20
-176.790481
 10
233.435988
 20
-176.781885
 10
233.397121
 20
-176.758937
 10
233.365183
 20
-176.7212
 10
233.325351
 20
-176.656282
 10
233.269799
 20
-176.562828
 10
233.208297
 20
-176.497023
 10
233.159379
 20
-176.467723
 10
233.088767
 20
-176.44774
 10
232.989138
 20
-176.44009
 10
232.897415
 20
-176.447635
 10
232.823321
 20
-176.468558
 10
232.763384
 20
-176.50131
 10
232.71416
 20
-176.546941
 10
232.686845
 20
-176.595196
 10
232.677875
 20
-176.648038
 10
232.685271
 20
-176.697864
 10
232.706781
 20
-176.739483
 10
232.740285
 20
-176.774626
 10
232.786795
 20
-176.806088
 10
232.890659
 20
-176.850052
 10
233.065085
 20
-176.896653
 10
233.213704
 20
-176.935084
 10
233.341507
 20
-176.975458
 10
233.459062
 20
-177.024715
 10
233.552643
 20
-177.080531
 10
233.630337
 20
-177.150589
 10
233.688821
 20
-177.237152
 10
233.715159
 20
-177.302165
 10
233.731891
 20
-177.378832
  0
LWPOLYLINE
  5
8B
100
AcDbEntity
  8
0
  6
ByLayer
 62
  256
370
   -1
100
AcDbPolyline
 90
   41
 70
    1
 43
0
 10
235.121048
 20
-176.496364
 10
234.405319
 20
-176.496364
 10
234.405319
 20
-176.946552
 10
235.003006
 20
-176.946552
 10
235.080602
 20
-176.957231
 10
235.130281
 20
-176.98513
 10
235.16169
 20
-177.02927
 10
235.172596
 20
-177.087895
 10
235.161531
 20
-177.146272
 10
235.129621
 20
-177.190001
 10
235.079693
 20
-177.217463
 10
235.003006
 20
-177.22792
 10
234.405319
 20
-177.22792
 10
234.405319
 20
-177.817913
 10
234.398601
 20
-177.892581
 10
234.380607
 20
-177.947775
 10
234.353222
 20
-177.988162
 10
234.315504
 20
-178.018992
 10
234.271663
 20
-178.037472
 10
234.219792
 20
-178.043886
 10
234.167145
 20
-178.0374
 10
234.122888
 20
-178.018755
 10
234.085044
 20
-177.987723
 10
234.057644
 20
-177.947035
 10
234.03972
 20
-177.892049
 10
234.033056
 20
-177.818352
 10
234.033056
 20
-176.434704
 10
234.039547
 20
-176.359679
 10
234.056797
 20
-176.304902
 10
234.087379
 20
-176.261103
 10
234.131315
 20
-176.231153
 10
234.186132
 20
-176.214282
 10
234.260349
 20
-176.207962
 10
235.121048
 20
-176.207962
 10
235.202011
 20
-176.218988
 10
235.253269
 20
-176.247639
 10
235.285667
 20
-176.292861
 10
235.296793
 20
-176.351503
 10
235.285608
 20
-176.411282
 10
235.253269
 20
-176.456686
 10
235.202011
 20
-176.485337
  0
LWPOLYLINE
  5
8C
100
AcDbEntity
  8
0
  6
ByLayer
 62
  256
370
   -1
100
AcDbPolyline
 90
   74
 70
    1
 43
0
 10
235.936795
 20
-177.720313
 10
236.572181
 20
-177.720313
 10
236.661708
 20
-177.731388
 10
236.720778
 20
-177.76032
 10
236.749442
 20
-177.790154
 10
236.766495
 20
-177.825827
 10
236.772435
 20
-177.86924
 10
236.762091
 20
-177.92614
 10
236.731439
 20
-177.973215
 10
236.682839
 20
-178.004139
 10
236.607791
 20
-178.01575
 10
235.702798
 20
-178.01575
 10
235.642434
 20
-178.009435
 10
235.594563
 20
-177.991875
 10
235.556399
 20
-177.963872
 10
235.516727
 20
-177.906943
 10
235.503753
 20
-177.841873
 10
235.510855
 20
-177.794346
 10
235.537165
 20
-177.723391
 10
235.573864
 20
-177.6552
 10
235.610474
 20
-177.607766
 10
235.905801
 20
-177.315298
 10
236.029445
 20
-177.205329
 10
236.094295
 20
-177.15505
 10
236.188817
 20
-177.081319
 10
236.261467
 20
-177.011618
 10
236.321252
 20
-176.937222
 10
236.362913
 20
-176.86423
 10
236.389348
 20
-176.7883619999999
 10
236.397755
 20
-176.716732
 10
236.3883
 20
-176.642006
 10
236.360715
 20
-176.577037
 10
236.317042
 20
-176.522371
 10
236.259928
 20
-176.481306
 10
236.193637
 20
-176.455754
 10
236.120893
 20
-176.447124
 10
236.045102
 20
-176.456014
 10
235.97953
 20
-176.481787
 10
235.92176
 20
-176.524819
 10
235.87052
 20
-176.587698
 10
235.829414
 20
-176.688705
 10
235.796703
 20
-176.765614
 10
235.763468
 20
-176.816969
 10
235.719313
 20
-176.850393
 10
235.654878
 20
-176.862362
 10
235.596771
 20
-176.851792
 10
235.550244
 20
-176.820816
 10
235.519616
 20
-176.773245
 10
235.508698
 20
-176.707939
 10
235.517908
 20
-176.622509
 10
235.547057
 20
-176.529886
 10
235.594467
 20
-176.442215
 10
235.661582
 20
-176.361835
 10
235.746005
 20
-176.294928
 10
235.854583
 20
-176.240165
 10
235.977565
 20
-176.206123
 10
236.128257
 20
-176.193893
 10
236.253269
 20
-176.201016
 10
236.359814
 20
-176.221053
 10
236.450621
 20
-176.252475
 10
236.53205
 20
-176.299671
 10
236.602955
 20
-176.361725
 10
236.661117
 20
-176.436357
 10
236.705061
 20
-176.522412
 10
236.732517
 20
-176.61537
 10
236.741661
 20
-176.711676
 10
236.733036
 20
-176.812119
 10
236.707692
 20
-176.904776
 10
236.665604
 20
-176.991285
 10
236.5856
 20
-177.107551
 10
236.510741
 20
-177.188133
 10
236.246849
 20
-177.410699
 10
236.078787
 20
-177.556562
 10
235.993179
 20
-177.645795
  0
LWPOLYLINE
  5
8D
100
AcDbEntity
  8
0
  6
ByLayer
 62
  256
370
   -1
100
AcDbPolyline
 90
   35
 70
    1
 43
0
 10
220.731901
 20
-180.705611
 10
220.840696
 20
-180.725542
 10
220.915774
 20
-180.753844
 10
220.982066
 20
-180.797866
 10
221.041366
 20
-180.858993
 10
221.094071
 20
-180.940079
 10
221.132096
 20
-181.029375
 10
221.155624
 20
-181.129442
 10
221.163802
 20
-181.242329
 10
221.149581
 20
-181.389131
 10
221.109606
 20
-181.509687
 10
221.045589
 20
-181.609426
 10
220.982312
 20
-181.671331
 10
220.905502
 20
-181.721853
 10
220.813031
 20
-181.761089
 10
220.702061
 20
-181.788212
 10
220.786016
 20
-181.845492
 10
220.841402
 20
-181.898121
 10
220.932018
 20
-182.018525
 10
221.012249
 20
-182.153599
 10
221.299113
 20
-182.69875
 10
221.025805
 20
-182.69875
 10
220.807208
 20
-182.283537
 10
220.685019
 20
-182.060991
 10
220.615233
 20
-181.953687
 10
220.54752
 20
-181.878047
 10
220.48957
 20
-181.837671
 10
220.422084
 20
-181.816214
 10
220.319577
 20
-181.807752
 10
220.068129
 20
-181.807752
 10
220.068129
 20
-182.69875
 10
219.850875
 20
-182.69875
 10
219.850875
 20
-181.573278
 10
219.850875
 20
-180.697912
 10
220.579085
 20
-180.697912
  0
LWPOLYLINE
  5
8E
100
AcDbEntity
  8
0
  6
ByLayer
 62
  256
370
   -1
100
AcDbPolyline
 90
   15
 70
    1
 43
0
 10
220.068129
 20
-181.573278
 10
220.535365
 20
-181.573278
 10
220.678516
 20
-181.562735
 10
220.76764
 20
-181.536764
 10
220.838351
 20
-181.489991
 10
220.893303
 20
-181.421726
 10
220.927809
 20
-181.338279
 10
220.939831
 20
-181.23891
 10
220.929162
 20
-181.142487
 10
220.899269
 20
-181.065196
 10
220.851049
 20
-181.002727
 10
220.78659
 20
-180.957109
 10
220.70083
 20
-180.927626
 10
220.587267
 20
-180.916754
 10
220.068129
 20
-180.916754
  0
LWPOLYLINE
  5
8F
100
AcDbEntity
  8
0
  6
ByLayer
 62
  256
370
   -1
100
AcDbPolyline
 90
   74
 70
    1
 43
0
 10
223.075092
 20
-182.220313
 10
223.710478
 20
-182.220313
 10
223.800005
 20
-182.231388
 10
223.859075
 20
-182.26032
 10
223.88774
 20
-182.290154
 10
223.904793
 20
-182.325827
 10
223.910733
 20
-182.36924
 10
223.900388
 20
-182.42614
 10
223.869737
 20
-182.473215
 10
223.821137
 20
-182.504139
 10
223.746089
 20
-182.51575
 10
222.841096
 20
-182.51575
 10
222.780731
 20
-182.509435
 10
222.73286
 20
-182.491875
 10
222.694696
 20
-182.463872
 10
222.655024
 20
-182.406943
 10
222.64205
 20
-182.341873
 10
222.649153
 20
-182.294346
 10
222.675462
 20
-182.223391
 10
222.712161
 20
-182.1552
 10
222.748772
 20
-182.107766
 10
223.044098
 20
-181.815298
 10
223.167742
 20
-181.705329
 10
223.232592
 20
-181.65505
 10
223.327115
 20
-181.581319
 10
223.399764
 20
-181.511618
 10
223.459549
 20
-181.437222
 10
223.501211
 20
-181.36423
 10
223.527645
 20
-181.288362
 10
223.536052
 20
-181.216732
 10
223.526598
 20
-181.142006
 10
223.499012
 20
-181.077037
 10
223.455339
 20
-181.022371
 10
223.398226
 20
-180.981306
 10
223.331935
 20
-180.955754
 10
223.25919
 20
-180.947124
 10
223.1834
 20
-180.956014
 10
223.117828
 20
-180.981787
 10
223.060057
 20
-181.024819
 10
223.008817
 20
-181.087698
 10
222.967711
 20
-181.188705
 10
222.935
 20
-181.265614
 10
222.901765
 20
-181.316969
 10
222.85761
 20
-181.350393
 10
222.793175
 20
-181.362362
 10
222.735068
 20
-181.351792
 10
222.688541
 20
-181.320816
 10
222.657914
 20
-181.273245
 10
222.646996
 20
-181.207939
 10
222.656205
 20
-181.122509
 10
222.685354
 20
-181.029886
 10
222.732764
 20
-180.942215
 10
222.79988
 20
-180.861835
 10
222.884302
 20
-180.794928
 10
222.99288
 20
-180.740165
 10
223.115862
 20
-180.706123
 10
223.266554
 20
-180.693893
 10
223.391566
 20
-180.701016
 10
223.498111
 20
-180.721053
 10
223.588918
 20
-180.752475
 10
223.670347
 20
-180.799671
 10
223.741253
 20
-180.861725
 10
223.799415
 20
-180.936357
 10
223.843358
 20
-181.022412
 10
223.870814
 20
-181.11537
 10
223.879958
 20
-181.211676
 10
223.871333
 20
-181.312119
 10
223.845989
 20
-181.404776
 10
223.803901
 20
-181.491285
 10
223.723898
 20
-181.607551
 10
223.649039
 20
-181.688133
 10
223.385146
 20
-181.910699
 10
223.217085
 20
-182.056562
 10
223.131476
 20
-182.145795
  0
LWPOLYLINE
  5
90
100
AcDbEntity
  8
0
  6
ByLayer
 62
  256
370
   -1
100
AcDbPolyline
 90
   41
 70
    1
 43
0
 10
224.86669
 20
-180.704584
 10
224.974655
 20
-180.735329
 10
225.072263
 20
-180.786333
 10
225.157104
 20
-180.856449
 10
225.228443
 20
-180.943784
 10
225.290094
 20
-181.053516
 10
225.327625
 20
-181.153882
 10
225.357144
 20
-181.279868
 10
225.376705
 20
-181.436363
 10
225.383847
 20
-181.628782
 10
225.377145
 20
-181.824574
 10
225.359117
 20
-181.977744
 10
225.323516
 20
-182.11838
 10
225.267783
 20
-182.242845
 10
225.205172
 20
-182.332937
 10
225.132805
 20
-182.406627
 10
225.050052
 20
-182.465521
 10
224.958312
 20
-182.50884
 10
224.859919
 20
-182.534981
 10
224.753187
 20
-182.543886
 10
224.631256
 20
-182.531959
 10
224.519709
 20
-182.496887
 10
224.416096
 20
-182.438263
 10
224.326004
 20
-182.360011
 10
224.251376
 20
-182.263497
 10
224.191661
 20
-182.146125
 10
224.15898
 20
-182.039816
 10
224.135497
 20
-181.918832
 10
224.122308
 20
-181.791827
 10
224.117692
 20
-181.649774
 10
224.118715
 20
-181.613944
 10
224.12289
 20
-181.467677
 10
224.137366
 20
-181.313452
 10
224.163765
 20
-181.169616
 10
224.199025
 20
-181.055825
 10
224.256656
 20
-180.944874
 10
224.327234
 20
-180.85611
 10
224.41115
 20
-180.786547
 10
224.507786
 20
-180.735932
 10
224.617547
 20
-180.704754
 10
224.743405
 20
-180.693893
  0
LWPOLYLINE
  5
91
100
AcDbEntity
  8
0
  6
ByLayer
 62
  256
370
   -1
100
AcDbPolyline
 90
   31
 70
    1
 43
0
 10
224.462917
 20
-181.613944
 10
224.470428
 20
-181.835278
 10
224.489845
 20
-181.993241
 10
224.51385
 20
-182.089828
 10
224.544289
 20
-182.162379
 10
224.57986
 20
-182.215697
 10
224.626456
 20
-182.257031
 10
224.682448
 20
-182.281929
 10
224.750769
 20
-182.290655
 10
224.821416
 20
-182.281525
 10
224.878555
 20
-182.255588
 10
224.925415
 20
-182.21262
 10
224.961077
 20
-182.157411
 10
224.991093
 20
-182.084055
 10
225.014222
 20
-181.988295
 10
225.032712
 20
-181.830599
 10
225.039941
 20
-181.604052
 10
225.032426
 20
-181.388738
 10
225.013013
 20
-181.235306
 10
224.989037
 20
-181.141701
 10
224.958582
 20
-181.071369
 10
224.922887
 20
-181.019664
 10
224.876452
 20
-180.979977
 10
224.819353
 20
-180.955721
 10
224.748351
 20
-180.947124
 10
224.674058
 20
-180.95742
 10
224.614123
 20
-180.986804
 10
224.565008
 20
-181.036082
 10
224.525675
 20
-181.1099
 10
224.494143
 20
-181.221306
 10
224.471643
 20
-181.38425
  0
LWPOLYLINE
  5
92
100
AcDbEntity
  8
0
  6
ByLayer
 62
  256
370
   -1
100
AcDbPolyline
 90
   60
 70
    1
 43
0
 10
226.376692
 20
-180.70406
 10
226.493271
 20
-180.732362
 10
226.597177
 20
-180.779106
 10
226.678908
 20
-180.838424
 10
226.744181
 20
-180.911281
 10
226.789147
 20
-180.991308
 10
226.816026
 20
-181.078634
 10
226.825087
 20
-181.171999
 10
226.817936
 20
-181.251373
 10
226.797036
 20
-181.323409
 10
226.762439
 20
-181.389619
 10
226.715668
 20
-181.448144
 10
226.65648
 20
-181.499052
 10
226.583177
 20
-181.542613
 10
226.674608
 20
-181.587986
 10
226.750129
 20
-181.646477
 10
226.811176
 20
-181.71797
 10
226.854873
 20
-181.799581
 10
226.881149
 20
-181.889942
 10
226.890263
 20
-181.992691
 10
226.881683
 20
-182.094123
 10
226.856501
 20
-182.187511
 10
226.814756
 20
-182.274499
 10
226.757461
 20
-182.351762
 10
226.684343
 20
-182.417539
 10
226.593288
 20
-182.472445
 10
226.493592
 20
-182.511151
 10
226.379927
 20
-182.535388
 10
226.249822
 20
-182.543886
 10
226.114708
 20
-182.535281
 10
225.998745
 20
-182.510942
 10
225.898992
 20
-182.472445
 10
225.80791
 20
-182.417569
 10
225.735234
 20
-182.352214
 10
225.678733
 20
-182.275818
 10
225.637723
 20
-182.189667
 10
225.61291
 20
-182.096655
 10
225.604435
 20
-181.995109
 10
225.605225
 20
-181.985767
 10
225.613605
 20
-181.886633
 10
225.639616
 20
-181.794514
 10
225.68131
 20
-181.715734
 10
225.739045
 20
-181.648095
 10
225.814657
 20
-181.590409
 10
225.911301
 20
-181.542613
 10
225.819415
 20
-181.488229
 10
225.751541
 20
-181.424824
 10
225.703929
 20
-181.351891
 10
225.674827
 20
-181.267536
 10
225.666812
 20
-181.189584
 10
225.664665
 20
-181.168701
 10
225.672113
 20
-181.087844
 10
225.694392
 20
-181.010328
 10
225.732149
 20
-180.934924
 10
225.783144
 20
-180.867769
 10
225.848504
 20
-180.809424
 10
225.930206
 20
-180.759509
 10
226.019467
 20
-180.72386
 10
226.120397
 20
-180.70165
 10
226.235094
 20
-180.693893
  0
LWPOLYLINE
  5
93
100
AcDbEntity
  8
0
  6
ByLayer
 62
  256
370
   -1
100
AcDbPolyline
 90
   24
 70
    1
 43
0
 10
225.948341
 20
-181.985767
 10
225.958557
 20
-182.076659
 10
225.987798
 20
-182.153269
 10
226.034799
 20
-182.217812
 10
226.095399
 20
-182.265266
 10
226.166788
 20
-182.294702
 10
226.247294
 20
-182.304724
 10
226.328808
 20
-182.294509
 10
226.400398
 20
-182.264607
 10
226.460845
 20
-182.216596
 10
226.507339
 20
-182.15151
 10
226.53618
 20
-182.074355
 10
226.546247
 20
-181.983239
 10
226.536113
 20
-181.892582
 10
226.507339
 20
-181.817606
 10
226.460556
 20
-181.755216
 10
226.39798
 20
-181.709345
 10
226.324137
 20
-181.681286
 10
226.23993
 20
-181.671646
 10
226.160669
 20
-181.681098
 10
226.092249
 20
-181.708498
 10
226.032092
 20
-181.754298
 10
225.986874
 20
-181.814324
 10
225.958539
 20
-181.889964
  0
LWPOLYLINE
  5
94
100
AcDbEntity
  8
0
  6
ByLayer
 62
  256
370
   -1
100
AcDbPolyline
 90
   26
 70
    1
 43
0
 10
225.988897
 20
-181.189584
 10
225.997059
 20
-181.256099
 10
226.020713
 20
-181.313231
 10
226.060338
 20
-181.363241
 10
226.111724
 20
-181.40121
 10
226.172358
 20
-181.424365
 10
226.244876
 20
-181.432484
 10
226.300238
 20
-181.427744
 10
226.34863
 20
-181.414129
 10
226.392368
 20
-181.391933
 10
226.428644
 20
-181.363241
 10
226.458042
 20
-181.327827
 10
226.480082
 20
-181.285975
 10
226.493638
 20
-181.239591
 10
226.498327
 20
-181.187166
 10
226.490089
 20
-181.117585
 10
226.466123
 20
-181.056924
 10
226.427591
 20
-181.005449
 10
226.375888
 20
-180.966139
 10
226.314424
 20
-180.941574
 10
226.242348
 20
-180.933056
 10
226.169327
 20
-180.941495
 10
226.10903
 20
-180.965488
 10
226.05858
 20
-181.004827
 10
226.020344
 20
-181.05638
 10
225.997055
 20
-181.117092
  0
LWPOLYLINE
  5
95
100
AcDbEntity
  8
0
  6
ByLayer
 62
  256
370
   -1
100
AcDbPolyline
 90
   19
 70
    1
 43
0
 10
227.611048
 20
-182.009288
 10
227.222409
 20
-182.009288
 10
227.140105
 20
-181.997799
 10
227.085352
 20
-181.967302
 10
227.050146
 20
-181.919466
 10
227.038201
 20
-181.858712
 10
227.049945
 20
-181.796741
 10
227.084143
 20
-181.748912
 10
227.13819
 20
-181.718458
 10
227.222409
 20
-181.706817
 10
227.611048
 20
-181.706817
 10
227.69525
 20
-181.718462
 10
227.749204
 20
-181.748912
 10
227.783488
 20
-181.79675
 10
227.795256
 20
-181.858712
 10
227.78372
 20
-181.919621
 10
227.749974
 20
-181.967302
 10
227.717174
 20
-181.989335
 10
227.672156
 20
-182.003856
  0
LWPOLYLINE
  5
96
100
AcDbEntity
  8
0
  6
ByLayer
 62
  256
370
   -1
100
AcDbPolyline
 90
   36
 70
    1
 43
0
 10
228.5422
 20
-182.341543
 10
228.5422
 20
-181.232119
 10
228.324629
 20
-181.384861
 10
228.196089
 20
-181.451514
 10
228.125204
 20
-181.467655
 10
228.075674
 20
-181.457377
 10
228.031012
 20
-181.425449
 10
228.000199
 20
-181.379454
 10
227.990126
 20
-181.32752
 10
228.000846
 20
-181.270011
 10
228.030242
 20
-181.232888
 10
228.078699
 20
-181.202209
 10
228.170377
 20
-181.155732
 10
228.309038
 20
-181.080756
 10
228.407561
 20
-181.008564
 10
228.491346
 20
-180.926677
 10
228.565171
 20
-180.835456
 10
228.655406
 20
-180.716754
 10
228.682969
 20
-180.700641
 10
228.7363
 20
-180.693893
 10
228.778417
 20
-180.699759
 10
228.813554
 20
-180.716718
 10
228.843461
 20
-180.745441
 10
228.872787
 20
-180.803635
 10
228.883688
 20
-180.886674
 10
228.883688
 20
-182.293403
 10
228.874566
 20
-182.395487
 10
228.851104
 20
-182.463993
 10
228.816824
 20
-182.508376
 10
228.771596
 20
-182.534581
 10
228.71168
 20
-182.543886
 10
228.662961
 20
-182.537908
 10
228.622617
 20
-182.520829
 10
228.588691
 20
-182.492559
 10
228.564083
 20
-182.455519
 10
228.5481
 20
-182.406382
  0
LWPOLYLINE
  5
97
100
AcDbEntity
  8
0
  6
ByLayer
 62
  256
370
   -1
100
AcDbPolyline
 90
   72
 70
    1
 43
0
 10
230.136215
 20
-180.700691
 10
230.230476
 20
-180.720313
 10
230.315586
 20
-180.752035
 10
230.394469
 20
-180.796633
 10
230.464286
 20
-180.852683
 10
230.525843
 20
-180.920966
 10
230.576575
 20
-180.998037
 10
230.620405
 20
-181.090161
 10
230.656745
 20
-181.199586
 10
230.690449
 20
-181.373734
 10
230.702467
 20
-181.579542
 10
230.696665
 20
-181.737118
 10
230.680204
 20
-181.875563
 10
230.654327
 20
-181.996978
 10
230.615901
 20
-182.114802
 10
230.568962
 20
-182.215394
 10
230.514082
 20
-182.300877
 10
230.447627
 20
-182.376894
 10
230.37428
 20
-182.437446
 10
230.293384
 20
-182.483876
 10
230.205803
 20
-182.516645
 10
230.109089
 20
-182.536884
 10
230.001685
 20
-182.543886
 10
229.896019
 20
-182.53658
 10
229.803538
 20
-182.515699
 10
229.722186
 20
-182.482227
 10
229.647028
 20
-182.436075
 10
229.587402
 20
-182.384885
 10
229.541275
 20
-182.328574
 10
229.505523
 20
-182.265103
 10
229.485614
 20
-182.206473
 10
229.479286
 20
-182.15129
 10
229.488898
 20
-182.101095
 10
229.518414
 20
-182.055889
 10
229.562552
 20
-182.024547
 10
229.618102
 20
-182.013904
 10
229.670594
 20
-182.021828
 10
229.71724
 20
-182.045448
 10
229.754929
 20
-182.083462
 10
229.783625
 20
-182.13964
 10
229.81928
 20
-182.207096
 10
229.872102
 20
-182.259441
 10
229.937791
 20
-182.293373
 10
230.011467
 20
-182.304724
 10
230.078537
 20
-182.295869
 10
230.142589
 20
-182.269003
 10
230.199387
 20
-182.226329
 10
230.248322
 20
-182.167557
 10
230.293568
 20
-182.074327
 10
230.330257
 20
-181.928637
 10
230.352955
 20
-181.711653
 10
230.271249
 20
-181.789991
 10
230.1771
 20
-181.848161
 10
230.072042
 20
-181.884328
 10
229.953765
 20
-181.89674
 10
229.840558
 20
-181.885332
 10
229.736474
 20
-181.851678
 10
229.642273
 20
-181.797516
 10
229.561938
 20
-181.725722
 10
229.497163
 20
-181.638728
 10
229.448732
 20
-181.537007
 10
229.419128
 20
-181.426852
 10
229.409164
 20
-181.310594
 10
229.409889
 20
-181.302571
 10
229.42039
 20
-181.186339
 10
229.453678
 20
-181.069563
 10
229.50816
 20
-180.962573
 10
229.581172
 20
-180.871617
 10
229.671369
 20
-180.797305
 10
229.778459
 20
-180.740825
 10
229.897118
 20
-180.705953
 10
230.031251
 20
-180.693893
  0
LWPOLYLINE
  5
98
100
AcDbEntity
  8
0
  6
ByLayer
 62
  256
370
   -1
100
AcDbPolyline
 90
   26
 70
    1
 43
0
 10
229.743288
 20
-181.302571
 10
229.753106
 20
-181.408185
 10
229.780395
 20
-181.493015
 10
229.823522
 20
-181.561407
 10
229.882408
 20
-181.615306
 10
229.949059
 20
-181.646819
 10
230.026305
 20
-181.657578
 10
230.099391
 20
-181.647815
 10
230.170176
 20
-181.61801
 10
230.231918
 20
-181.570106
 10
230.282064
 20
-181.502935
 10
230.31401
 20
-181.422393
 10
230.325258
 20
-181.324663
 10
230.319429
 20
-181.243567
 10
230.302617
 20
-181.171229
 10
230.275052
 20
-181.104765
 10
230.239309
 20
-181.04967
 10
230.194429
 20
-181.00383
 10
230.142039
 20
-180.969326
 10
230.083444
 20
-180.947487
 10
230.018941
 20
-180.94009
 10
229.946759
 20
-180.950888
 10
229.882463
 20
-180.98308
 10
229.823522
 20
-181.039338
 10
229.780339
 20
-181.109595
 10
229.753069
 20
-181.195952
  0
LWPOLYLINE
  5
99
100
AcDbEntity
  8
0
  6
ByLayer
 62
  256
370
   -1
100
AcDbPolyline
 90
   41
 70
    1
 43
0
 10
231.691617
 20
-180.704584
 10
231.799581
 20
-180.735329
 10
231.897189
 20
-180.786333
 10
231.982031
 20
-180.856449
 10
232.053369
 20
-180.943784
 10
232.115021
 20
-181.053516
 10
232.152551
 20
-181.153882
 10
232.182071
 20
-181.279868
 10
232.201632
 20
-181.436363
 10
232.208773
 20
-181.628782
 10
232.202071
 20
-181.824574
 10
232.184044
 20
-181.977744
 10
232.148442
 20
-182.11838
 10
232.092709
 20
-182.242845
 10
232.030099
 20
-182.332937
 10
231.957731
 20
-182.406627
 10
231.874979
 20
-182.465521
 10
231.783238
 20
-182.50884
 10
231.684846
 20
-182.534981
 10
231.578114
 20
-182.543886
 10
231.456182
 20
-182.531959
 10
231.344635
 20
-182.496887
 10
231.241022
 20
-182.438263
 10
231.15093
 20
-182.360011
 10
231.076303
 20
-182.263497
 10
231.016588
 20
-182.146125
 10
230.983907
 20
-182.039816
 10
230.960424
 20
-181.918832
 10
230.947235
 20
-181.791827
 10
230.942619
 20
-181.649774
 10
230.943642
 20
-181.613944
 10
230.947816
 20
-181.467677
 10
230.962292
 20
-181.313452
 10
230.988692
 20
-181.169616
 10
231.023951
 20
-181.055825
 10
231.081583
 20
-180.944874
 10
231.152161
 20
-180.85611
 10
231.236076
 20
-180.786547
 10
231.332713
 20
-180.735932
 10
231.442474
 20
-180.704754
 10
231.568332
 20
-180.693893
  0
LWPOLYLINE
  5
9A
100
AcDbEntity
  8
0
  6
ByLayer
 62
  256
370
   -1
100
AcDbPolyline
 90
   31
 70
    1
 43
0
 10
231.287844
 20
-181.613944
 10
231.295355
 20
-181.835278
 10
231.314771
 20
-181.993241
 10
231.338777
 20
-182.089828
 10
231.369215
 20
-182.162379
 10
231.404787
 20
-182.215697
 10
231.451383
 20
-182.257031
 10
231.507375
 20
-182.281929
 10
231.575696
 20
-182.290655
 10
231.646342
 20
-182.281525
 10
231.703482
 20
-182.255588
 10
231.750342
 20
-182.21262
 10
231.786004
 20
-182.157411
 10
231.81602
 20
-182.084055
 10
231.839149
 20
-181.988295
 10
231.857638
 20
-181.830599
 10
231.864867
 20
-181.604052
 10
231.857352
 20
-181.388738
 10
231.83794
 20
-181.235306
 10
231.813964
 20
-181.141701
 10
231.783509
 20
-181.071369
 10
231.747814
 20
-181.019664
 10
231.701378
 20
-180.979977
 10
231.64428
 20
-180.955721
 10
231.573278
 20
-180.947124
 10
231.498985
 20
-180.95742
 10
231.43905
 20
-180.986804
 10
231.389935
 20
-181.036082
 10
231.350602
 20
-181.1099
 10
231.31907
 20
-181.221306
 10
231.29657
 20
-181.38425
  0
LWPOLYLINE
  5
9B
100
AcDbEntity
  8
0
  6
ByLayer
 62
  256
370
   -1
100
AcDbPolyline
 90
   41
 70
    1
 43
0
 10
233.188141
 20
-180.704584
 10
233.296106
 20
-180.735329
 10
233.393714
 20
-180.786333
 10
233.478555
 20
-180.856449
 10
233.549894
 20
-180.943784
 10
233.611546
 20
-181.053516
 10
233.649076
 20
-181.153882
 10
233.678596
 20
-181.279868
 10
233.698157
 20
-181.436363
 10
233.705298
 20
-181.628782
 10
233.698596
 20
-181.824574
 10
233.680569
 20
-181.977744
 10
233.644967
 20
-182.11838
 10
233.589234
 20
-182.242845
 10
233.526624
 20
-182.332937
 10
233.454256
 20
-182.406627
 10
233.371504
 20
-182.465521
 10
233.279763
 20
-182.50884
 10
233.181371
 20
-182.534981
 10
233.074639
 20
-182.543886
 10
232.952707
 20
-182.531959
 10
232.84116
 20
-182.496887
 10
232.737547
 20
-182.438263
 10
232.647455
 20
-182.360011
 10
232.572828
 20
-182.263497
 10
232.513112
 20
-182.146125
 10
232.480431
 20
-182.039816
 10
232.456949
 20
-181.918832
 10
232.44376
 20
-181.791827
 10
232.439143
 20
-181.649774
 10
232.440166
 20
-181.613944
 10
232.444341
 20
-181.467677
 10
232.458817
 20
-181.313452
 10
232.485217
 20
-181.169616
 10
232.520476
 20
-181.055825
 10
232.578108
 20
-180.944874
 10
232.648686
 20
-180.85611
 10
232.732601
 20
-180.786547
 10
232.829238
 20
-180.735932
 10
232.938999
 20
-180.704754
 10
233.064857
 20
-180.693893
  0
LWPOLYLINE
  5
9C
100
AcDbEntity
  8
0
  6
ByLayer
 62
  256
370
   -1
100
AcDbPolyline
 90
   31
 70
    1
 43
0
 10
232.784368
 20
-181.613944
 10
232.79188
 20
-181.835278
 10
232.811296
 20
-181.993241
 10
232.835301
 20
-182.089828
 10
232.86574
 20
-182.162379
 10
232.901312
 20
-182.215697
 10
232.947907
 20
-182.257031
 10
233.0039
 20
-182.281929
 10
233.072221
 20
-182.290655
 10
233.142867
 20
-182.281525
 10
233.200007
 20
-182.255588
 10
233.246867
 20
-182.21262
 10
233.282529
 20
-182.157411
 10
233.312545
 20
-182.084055
 10
233.335673
 20
-181.988295
 10
233.354163
 20
-181.830599
 10
233.361392
 20
-181.604052
 10
233.353877
 20
-181.388738
 10
233.334464
 20
-181.235306
 10
233.310489
 20
-181.141701
 10
233.280034
 20
-181.071369
 10
233.244339
 20
-181.019664
 10
233.197903
 20
-180.979977
 10
233.140805
 20
-180.955721
 10
233.069803
 20
-180.947124
 10
232.995509
 20
-180.95742
 10
232.935575
 20
-180.986804
 10
232.88646
 20
-181.036082
 10
232.847127
 20
-181.1099
 10
232.815595
 20
-181.221306
 10
232.793095
 20
-181.38425
  0
LWPOLYLINE
  5
9D
100
AcDbEntity
  8
0
  6
ByLayer
 62
  256
370
   -1
100
AcDbPolyline
 90
   46
 70
    1
 43
0
 10
234.893247
 20
-180.688972
 10
234.944044
 20
-180.713891
 10
234.98062
 20
-180.753999
 10
235.004576
 20
-180.812917
 10
235.013658
 20
-180.897665
 10
235.013658
 20
-181.847501
 10
235.063008
 20
-181.847501
 10
235.153274
 20
-181.854806
 10
235.216991
 20
-181.873879
 10
235.248245
 20
-181.896862
 10
235.268044
 20
-181.9335
 10
235.275572
 20
-181.989394
 10
235.269714
 20
-182.035513
 10
235.25361
 20
-182.069923
 10
235.227652
 20
-182.095566
 10
235.172594
 20
-182.119443
 10
235.085209
 20
-182.128869
 10
235.013658
 20
-182.128869
 10
235.013658
 20
-182.353743
 10
235.008131
 20
-182.416299
 10
234.993317
 20
-182.462683
 10
234.970794
 20
-182.496735
 10
234.921713
 20
-182.531735
 10
234.856488
 20
-182.543886
 10
234.792196
 20
-182.53154
 10
234.742622
 20
-182.495526
 10
234.719646
 20
-182.46073
 10
234.704719
 20
-182.414592
 10
234.699208
 20
-182.353743
 10
234.699208
 20
-182.128869
 10
234.085474
 20
-182.128869
 10
234.008514
 20
-182.121979
 10
233.950806
 20
-182.103415
 10
233.907861
 20
-182.075013
 10
233.875308
 20
-182.035556
 10
233.855427
 20
-181.98757
 10
233.8484
 20
-181.928504
 10
233.857083
 20
-181.880034
 10
233.873734
 20
-181.847501
 10
233.883241
 20
-181.828926
 10
233.919072
 20
-181.777599
 10
233.964574
 20
-181.717259
 10
234.616336
 20
-180.844909
 10
234.722179
 20
-180.719172
 10
234.768183
 20
-180.689734
 10
234.823186
 20
-180.679825
  0
LWPOLYLINE
  5
9E
100
AcDbEntity
  8
0
  6
ByLayer
 62
  256
370
   -1
100
AcDbPolyline
 90
    3
 70
    1
 43
0
 10
234.181096
 20
-181.847501
 10
234.699208
 20
-181.847501
 10
234.699208
 20
-181.151226
  0
LWPOLYLINE
  5
9F
100
AcDbEntity
  8
0
  6
ByLayer
 62
  256
370
   -1
100
AcDbPolyline
 90
   80
 70
    1
 43
0
 10
236.483365
 20
-181.017466
 10
235.902275
 20
-181.017466
 10
235.833911
 20
-181.402149
 10
235.949209
 20
-181.350788
 10
236.054334
 20
-181.322026
 10
236.151329
 20
-181.312902
 10
236.26699
 20
-181.324182
 10
236.373346
 20
-181.357416
 10
236.470493
 20
-181.410569
 10
236.554586
 20
-181.480514
 10
236.623862
 20
-181.565696
 10
236.677135
 20
-181.66659
 10
236.71044
 20
-181.777255
 10
236.721758
 20
-181.89762
 10
236.712582
 20
-182.014967
 10
236.685692
 20
-182.123133
 10
236.641305
 20
-182.22383
 10
236.580101
 20
-182.314809
 10
236.50333
 20
-182.392321
 10
236.409396
 20
-182.457388
 10
236.305321
 20
-182.504739
 10
236.189751
 20
-182.533825
 10
236.060324
 20
-182.543886
 10
235.914725
 20
-182.533738
 10
235.796761
 20
-182.505707
 10
235.701361
 20
-182.462334
 10
235.614517
 20
-182.402112
 10
235.550535
 20
-182.3397
 10
235.505722
 20
-182.274828
 10
235.460989
 20
-182.170423
 10
235.44813
 20
-182.089411
 10
235.457858
 20
-182.042584
 10
235.489126
 20
-181.995989
 10
235.535143
 20
-181.963007
 10
235.591891
 20
-181.951915
 10
235.654555
 20
-181.964714
 10
235.705894
 20
-182.003191
 10
235.748732
 20
-182.074134
 10
235.786224
 20
-182.143318
 10
235.830052
 20
-182.1994
 10
235.880293
 20
-182.244054
 10
235.937885
 20
-182.277875
 10
235.999097
 20
-182.297942
 10
236.06527
 20
-182.304724
 10
236.153922
 20
-182.292229
 10
236.229255
 20
-182.255814
 10
236.291062
 20
-182.19844
 10
236.338065
 20
-182.121065
 10
236.366555
 20
-182.031078
 10
236.376533
 20
-181.925756
 10
236.365538
 20
-181.813356
 10
236.335098
 20
-181.724403
 10
236.285786
 20
-181.650545
 10
236.224529
 20
-181.600095
 10
236.151859
 20
-181.569489
 10
236.070216
 20
-181.559099
 10
235.973421
 20
-181.566763
 10
235.92041
 20
-181.584708
 10
235.789618
 20
-181.675053
 10
235.704998
 20
-181.726365
 10
235.647175
 20
-181.7399
 10
235.589367
 20
-181.728983
 10
235.537706
 20
-181.695606
 10
235.501489
 20
-181.647238
 10
235.490005
 20
-181.59471
 10
235.503524
 20
-181.511069
 10
235.606839
 20
-180.926241
 10
235.633795
 20
-180.829409
 10
235.671905
 20
-180.77083
 10
235.70701
 20
-180.745357
 10
235.756936
 20
-180.728433
 10
235.826767
 20
-180.72203
 10
236.476001
 20
-180.72203
 10
236.569289
 20
-180.733529
 10
236.626658
 20
-180.762768
 10
236.659534
 20
-180.807175
 10
236.67131
 20
-180.871617
 10
236.659214
 20
-180.931037
 10
236.6235
 20
-180.977239
 10
236.56814
 20
-181.006347
  0
LWPOLYLINE
  5
A0
100
AcDbEntity
  8
0
  6
ByLayer
 62
  256
370
   -1
100
AcDbPolyline
 90
    8
 70
    1
 43
0
 10
216.839781
 20
-182.14259
 10
216.839781
 20
-182.350671
 10
215.503124
 20
-182.350671
 10
214.166468
 20
-182.350671
 10
214.166468
 20
-182.14259
 10
214.166468
 20
-181.934509
 10
215.503124
 20
-181.934509
 10
216.839781
 20
-181.934509
  0
LWPOLYLINE
  5
A1
100
AcDbEntity
  8
0
  6
ByLayer
 62
  256
370
   -1
100
AcDbPolyline
 90
   16
 70
    1
 43
0
 10
216.839781
 20
-182.812682
 10
216.839781
 20
-183.020763
 10
216.296654
 20
-183.020763
 10
215.753527
 20
-183.020763
 10
215.753527
 20
-183.352282
 10
215.753527
 20
-183.683801
 10
215.503124
 20
-183.683801
 10
215.252722
 20
-183.683801
 10
215.252722
 20
-183.352282
 10
215.252722
 20
-183.020763
 10
214.709595
 20
-183.020763
 10
214.166468
 20
-183.020763
 10
214.166468
 20
-182.812682
 10
214.166468
 20
-182.604601
 10
215.503124
 20
-182.604601
 10
216.839781
 20
-182.604601
  0
LWPOLYLINE
  5
A2
100
AcDbEntity
  8
0
  6
ByLayer
 62
  256
370
   -1
100
AcDbPolyline
 90
  243
 70
    1
 43
0
 10
215.672051
 20
-179.274057
 10
215.85692
 20
-179.293332
 10
216.00393
 20
-179.318692
 10
216.182704
 20
-179.362157
 10
216.357265
 20
-179.41876
 10
216.526878
 20
-179.487987
 10
216.690812
 20
-179.56932
 10
216.848332
 20
-179.662244
 10
216.998705
 20
-179.766241
 10
217.141198
 20
-179.880796
 10
217.275077
 20
-180.005393
 10
217.399611
 20
-180.139515
 10
217.514064
 20
-180.282646
 10
217.617705
 20
-180.434269
 10
217.640297
 20
-180.470888
 10
217.663504
 20
-180.510803
 10
217.688396
 20
-180.556325
 10
217.714255
 20
-180.605876
 10
217.740361
 20
-180.65788
 10
217.765994
 20
-180.710758
 10
217.790436
 20
-180.762934
 10
217.812965
 20
-180.812831
 10
217.832864
 20
-180.858871
 10
217.849413
 20
-180.899477
 10
217.861892
 20
-180.933072
 10
217.869581
 20
-180.958078
 10
217.871762
 20
-180.972918
 10
217.870676
 20
-180.975935
 10
217.863644
 20
-180.978391
 10
217.84395
 20
-180.984792
 10
217.812401
 20
-180.994887
 10
217.769804
 20
-181.008423
 10
217.716966
 20
-181.025147
 10
217.654692
 20
-181.044807
 10
217.58379
 20
-181.067151
 10
217.505066
 20
-181.091926
 10
217.419327
 20
-181.11888
 10
217.327379
 20
-181.147761
 10
217.230029
 20
-181.178316
 10
217.128084
 20
-181.210293
 10
217.02235
 20
-181.24344
 10
216.913634
 20
-181.277503
 10
216.802743
 20
-181.312232
 10
216.690482
 20
-181.347373
 10
216.577659
 20
-181.382674
 10
216.465081
 20
-181.417882
 10
216.353553
 20
-181.452746
 10
216.243883
 20
-181.487013
 10
216.136877
 20
-181.520431
 10
216.033342
 20
-181.552746
 10
215.934084
 20
-181.583708
 10
215.83991
 20
-181.613063
 10
215.751627
 20
-181.640559
 10
215.670041
 20
-181.665944
 10
215.595959
 20
-181.688965
 10
215.530187
 20
-181.709371
 10
215.473532
 20
-181.726908
 10
215.426801
 20
-181.741324
 10
215.3908
 20
-181.752367
 10
215.366337
 20
-181.759785
 10
215.354216
 20
-181.763325
 10
215.353235
 20
-181.76357
 10
215.337365
 20
-181.766867
 10
215.337365
 20
-181.406311
 10
215.337291
 20
-181.321766
 10
215.337054
 20
-181.250432
 10
215.336634
 20
-181.191413
 10
215.336009
 20
-181.143816
 10
215.335158
 20
-181.106743
 10
215.334059
 20
-181.079301
 10
215.332692
 20
-181.060594
 10
215.331034
 20
-181.049726
 10
215.329066
 20
-181.045802
 10
215.328796
 20
-181.045756
 10
215.320801
 20
-181.047824
 10
215.300296
 20
-181.05384
 10
215.268192
 20
-181.063518
 10
215.225401
 20
-181.076573
 10
215.172833
 20
-181.092718
 10
215.1114
 20
-181.11167
 10
215.042013
 20
-181.133143
 10
214.965584
 20
-181.15685
 10
214.883023
 20
-181.182508
 10
214.795243
 20
-181.209831
 10
214.703153
 20
-181.238533
 10
214.607666
 20
-181.26833
 10
214.509692
 20
-181.298935
 10
214.410144
 20
-181.330064
 10
214.309931
 20
-181.361432
 10
214.209966
 20
-181.392752
 10
214.11116
 20
-181.42374
 10
214.014423
 20
-181.454111
 10
213.920668
 20
-181.483578
 10
213.830805
 20
-181.511858
 10
213.745745
 20
-181.538664
 10
213.666401
 20
-181.563711
 10
213.593683
 20
-181.586714
 10
213.528502
 20
-181.607388
 10
213.47177
 20
-181.625447
 10
213.424397
 20
-181.640606
 10
213.387296
 20
-181.652579
 10
213.361377
 20
-181.661083
 10
213.347552
 20
-181.66583
 10
213.34545
 20
-181.666714
 10
213.342741
 20
-181.676394
 10
213.340893
 20
-181.697869
 10
213.339866
 20
-181.728855
 10
213.339622
 20
-181.767069
 10
213.340121
 20
-181.810226
 10
213.341323
 20
-181.856043
 10
213.343191
 20
-181.902237
 10
213.345684
 20
-181.946523
 10
213.348763
 20
-181.986618
 10
213.351379
 20
-182.012098
 10
213.378672
 20
-182.185373
 10
213.418928
 20
-182.353861
 10
213.471692
 20
-182.517002
 10
213.536512
 20
-182.674232
 10
213.612934
 20
-182.824989
 10
213.700504
 20
-182.96871
 10
213.798769
 20
-183.104833
 10
213.907275
 20
-183.232795
 10
214.025568
 20
-183.352034
 10
214.153196
 20
-183.461986
 10
214.289704
 20
-183.562091
 10
214.434639
 20
-183.651784
 10
214.587547
 20
-183.730503
 10
214.747975
 20
-183.797686
 10
214.808345
 20
-183.819233
 10
214.96303
 20
-183.865795
 10
215.11775
 20
-183.899762
 10
215.275021
 20
-183.921544
 10
215.437358
 20
-183.931551
 10
215.503124
 20
-183.93235
 10
215.585021
 20
-183.931363
 10
215.657602
 20
-183.928335
 10
215.725564
 20
-183.922879
 10
215.7936
 20
-183.914611
 10
215.866406
 20
-183.903145
 10
215.873438
 20
-183.901928
 10
216.042141
 20
-183.865545
 10
216.206307
 20
-183.816213
 10
216.365249
 20
-183.754439
 10
216.518281
 20
-183.680732
 10
216.664714
 20
-183.5956
 10
216.803862
 20
-183.49955
 10
216.935038
 20
-183.39309
 10
217.057554
 20
-183.276729
 10
217.170724
 20
-183.150975
 10
217.273861
 20
-183.016336
 10
217.366276
 20
-182.873319
 10
217.43494
 20
-182.747436
 10
217.467692
 20
-182.68219
 10
217.647964
 20
-182.68219
 10
217.828235
 20
-182.68219
 10
217.823221
 20
-182.698061
 10
217.810023
 20
-182.733924
 10
217.790431
 20
-182.779236
 10
217.765697
 20
-182.831588
 10
217.73707
 20
-182.888573
 10
217.705802
 20
-182.947782
 10
217.673142
 20
-183.006808
 10
217.640341
 20
-183.063242
 10
217.608649
 20
-183.114675
 10
217.599656
 20
-183.128601
 10
217.489992
 20
-183.283738
 10
217.370669
 20
-183.428763
 10
217.242156
 20
-183.563383
 10
217.104926
 20
-183.687302
 10
216.959448
 20
-183.800227
 10
216.806194
 20
-183.901864
 10
216.645634
 20
-183.991918
 10
216.47824
 20
-184.070096
 10
216.304482
 20
-184.136103
 10
216.124831
 20
-184.189645
 10
215.939757
 20
-184.230429
 10
215.801453
 20
-184.251981
 10
215.772274
 20
-184.254932
 10
215.732873
 20
-184.257735
 10
215.685798
 20
-184.260318
 10
215.633594
 20
-184.262606
 10
215.578809
 20
-184.264526
 10
215.523989
 20
-184.266005
 10
215.47168
 20
-184.26697
 10
215.424429
 20
-184.267346
 10
215.384782
 20
-184.267061
 10
215.355287
 20
-184.266041
 10
215.344418
 20
-184.265153
 10
215.32715
 20
-184.263303
 10
215.299999
 20
-184.260534
 10
215.267127
 20
-184.257266
 10
215.242141
 20
-184.254829
 10
215.071317
 20
-184.231481
 10
214.900194
 20
-184.194762
 10
214.730283
 20
-184.145293
 10
214.563094
 20
-184.083695
 10
214.400138
 20
-184.010587
 10
214.242926
 20
-183.926591
 10
214.09297
 20
-183.832325
 10
213.951779
 20
-183.728411
 10
213.943152
 20
-183.721507
 10
213.799729
 20
-183.597289
 10
213.667235
 20
-183.464302
 10
213.545916
 20
-183.322988
 10
213.43602
 20
-183.173794
 10
213.337792
 20
-183.017163
 10
213.251479
 20
-182.853539
 10
213.177328
 20
-182.683367
 10
213.115585
 20
-182.507092
 10
213.066498
 20
-182.325157
 10
213.030312
 20
-182.138007
 10
213.018749
 20
-182.055794
 10
213.014296
 20
-182.010156
 10
213.010792
 20
-181.95395
 10
213.008254
 20
-181.890137
 10
213.006698
 20
-181.821676
 10
213.006142
 20
-181.751527
 10
213.006601
 20
-181.682652
 10
213.008092
 20
-181.61801
 10
213.010633
 20
-181.560562
 10
213.014239
 20
-181.513267
 10
213.015627
 20
-181.500713
 10
213.045578
 20
-181.310735
 10
213.051726
 20
-181.284155
 10
213.088341
 20
-181.125864
 10
213.143629
 20
-180.946579
 10
213.211153
 20
-180.773359
 10
213.290626
 20
-180.606683
 10
213.381759
 20
-180.447029
 10
213.484266
 20
-180.294877
 10
213.597857
 20
-180.150705
 10
213.722245
 20
-180.014993
 10
213.857142
 20
-179.888218
 10
214.002259
 20
-179.770861
 10
214.096204
 20
-179.703743
 10
214.254854
 20
-179.604126
 10
214.419291
 20
-179.517139
 10
214.588798
 20
-179.442927
 10
214.762656
 20
-179.381635
 10
214.940146
 20
-179.333409
 10
215.12055
 20
-179.298393
 10
215.303147
 20
-179.276732
 10
215.487221
 20
-179.268572
  0
LWPOLYLINE
  5
A3
100
AcDbEntity
  8
0
  6
ByLayer
 62
  256
370
   -1
100
AcDbPolyline
 90
  136
 70
    1
 43
0
 10
213.399603
 20
-181.284155
 10
213.399758
 20
-181.290062
 10
213.406755
 20
-181.288372
 10
213.426513
 20
-181.282681
 10
213.45833
 20
-181.273206
 10
213.501505
 20
-181.260162
 10
213.555337
 20
-181.243767
 10
213.619124
 20
-181.224235
 10
213.692165
 20
-181.201784
 10
213.773759
 20
-181.176629
 10
213.863205
 20
-181.148987
 10
213.9598
 20
-181.119073
 10
214.062844
 20
-181.087106
 10
214.171635
 20
-181.053299
 10
214.285472
 20
-181.01787
 10
214.403654
 20
-180.981035
 10
214.523715
 20
-180.943561
 10
214.645665
 20
-180.905471
 10
214.764056
 20
-180.868497
 10
214.878178
 20
-180.832858
 10
214.987322
 20
-180.798776
 10
215.090778
 20
-180.766473
 10
215.187839
 20
-180.736169
 10
215.277795
 20
-180.708086
 10
215.359936
 20
-180.682446
 10
215.433555
 20
-180.65947
 10
215.497941
 20
-180.639378
 10
215.552386
 20
-180.622393
 10
215.596181
 20
-180.608736
 10
215.628616
 20
-180.598628
 10
215.648984
 20
-180.59229
 10
215.65654
 20
-180.589953
 10
215.659286
 20
-180.589784
 10
215.661593
 20
-180.591771
 10
215.663499
 20
-180.597029
 10
215.665042
 20
-180.606671
 10
215.666259
 20
-180.621812
 10
215.66719
 20
-180.643566
 10
215.667872
 20
-180.673047
 10
215.668343
 20
-180.711369
 10
215.668641
 20
-180.759646
 10
215.668806
 20
-180.818992
 10
215.668873
 20
-180.890521
 10
215.668884
 20
-180.950812
 10
215.668948
 20
-181.034795
 10
215.669157
 20
-181.105613
 10
215.669533
 20
-181.164206
 10
215.670099
 20
-181.211516
 10
215.670879
 20
-181.248484
 10
215.671895
 20
-181.276051
 10
215.673169
 20
-181.295158
 10
215.674726
 20
-181.306746
 10
215.676588
 20
-181.311756
 10
215.677701
 20
-181.312069
 10
215.685405
 20
-181.309604
 10
215.70577
 20
-181.303187
 10
215.73799
 20
-181.293071
 10
215.781258
 20
-181.279507
 10
215.83477
 20
-181.262748
 10
215.89772
 20
-181.243045
 10
215.969301
 20
-181.220651
 10
216.048708
 20
-181.195818
 10
216.135135
 20
-181.168798
 10
216.227777
 20
-181.139842
 10
216.325828
 20
-181.109204
 10
216.428481
 20
-181.077135
 10
216.534932
 20
-181.043886
 10
216.552347
 20
-181.038448
 10
216.659167
 20
-181.005043
 10
216.762199
 20
-180.972734
 10
216.860646
 20
-180.941774
 10
216.953713
 20
-180.912418
 10
217.040604
 20
-180.884919
 10
217.120525
 20
-180.859531
 10
217.19268
 20
-180.836508
 10
217.256273
 20
-180.816105
 10
217.310509
 20
-180.798574
 10
217.354593
 20
-180.784169
 10
217.387728
 20
-180.773146
 10
217.409121
 20
-180.765757
 10
217.417975
 20
-180.762257
 10
217.418176
 20
-180.762064
 10
217.414555
 20
-180.752071
 10
217.40456
 20
-180.732464
 10
217.389494
 20
-180.705465
 10
217.370659
 20
-180.673295
 10
217.349357
 20
-180.638178
 10
217.326892
 20
-180.602334
 10
217.304564
 20
-180.567986
 10
217.303317
 20
-180.566111
 10
217.201817
 20
-180.426298
 10
217.089897
 20
-180.295643
 10
216.968284
 20
-180.174662
 10
216.837707
 20
-180.063867
 10
216.698891
 20
-179.963773
 10
216.552565
 20
-179.874895
 10
216.399457
 20
-179.797746
 10
216.240292
 20
-179.73284
 10
216.075799
 20
-179.680691
 10
216.035671
 20
-179.670147
 10
215.914
 20
-179.642678
 10
215.796633
 20
-179.62322
 10
215.678487
 20
-179.611152
 10
215.554479
 20
-179.605853
 10
215.506651
 20
-179.605483
 10
215.421943
 20
-179.606565
 10
215.346195
 20
-179.609991
 10
215.274389
 20
-179.616198
 10
215.201506
 20
-179.625626
 10
215.122529
 20
-179.638713
 10
215.118703
 20
-179.639404
 10
214.950865
 20
-179.676885
 10
214.787341
 20
-179.727522
 10
214.628851
 20
-179.790825
 10
214.476114
 20
-179.86631
 10
214.32985
 20
-179.953488
 10
214.190779
 20
-180.051872
 10
214.059621
 20
-180.160975
 10
213.937096
 20
-180.280311
 10
213.823923
 20
-180.409391
 10
213.720822
 20
-180.54773
 10
213.676253
 20
-180.615486
 10
213.647066
 20
-180.664441
 10
213.61494
 20
-180.72294
 10
213.581715
 20
-180.787253
 10
213.54923
 20
-180.853651
 10
213.519326
 20
-180.918404
 10
213.493841
 20
-180.977784
 10
213.479669
 20
-181.014015
 10
213.46762
 20
-181.047973
 10
213.454828
 20
-181.086458
 10
213.441956
 20
-181.127178
 10
213.429667
 20
-181.167844
 10
213.418624
 20
-181.206165
 10
213.409491
 20
-181.239851
 10
213.402929
 20
-181.266611
  0
LWPOLYLINE
  5
A4
100
AcDbEntity
  8
0
  6
ByLayer
 62
  256
370
   -1
100
AcDbPolyline
 90
   89
 70
    1
 43
0
 10
176.738363
 20
-175.211746
 10
176.877466
 20
-175.243852
 10
177.006507
 20
-175.300349
 10
177.122007
 20
-175.379006
 10
177.220396
 20
-175.477484
 10
177.298152
 20
-175.593571
 10
177.351777
 20
-175.724918
 10
177.373989
 20
-175.831791
 10
177.375844
 20
-175.862649
 10
177.377569
 20
-175.923623
 10
177.379148
 20
-176.012769
 10
177.380616
 20
-176.128017
 10
177.381947
 20
-176.267366
 10
177.38316
 20
-176.428826
 10
177.384226
 20
-176.610379
 10
177.385185
 20
-176.810021
 10
177.386009
 20
-177.025737
 10
177.386709
 20
-177.255511
 10
177.387276
 20
-177.497346
 10
177.387733
 20
-177.749212
 10
177.388062
 20
-178.009119
 10
177.388278
 20
-178.27505
 10
177.388364
 20
-178.544999
 10
177.388325
 20
-178.816958
 10
177.388165
 20
-179.0889
 10
177.387883
 20
-179.358825
 10
177.387495
 20
-179.624735
 10
177.386979
 20
-179.884598
 10
177.386349
 20
-180.136425
 10
177.385612
 20
-180.378204
 10
177.38475
 20
-180.607912
 10
177.383778
 20
-180.823538
 10
177.382696
 20
-181.023083
 10
177.381495
 20
-181.204541
 10
177.380185
 20
-181.365897
 10
177.378759
 20
-181.50513
 10
177.377216
 20
-181.620246
 10
177.375577
 20
-181.709226
 10
177.373824
 20
-181.770069
 10
177.371952
 20
-181.800749
 10
177.371791
 20
-181.801926
 10
177.333368
 20
-181.942874
 10
177.266034
 20
-182.073231
 10
177.172887
 20
-182.187192
 10
177.164216
 20
-182.195592
 10
177.040006
 20
-182.294128
 10
176.905456
 20
-182.363945
 10
176.763728
 20
-182.404163
 10
176.617942
 20
-182.413897
 10
176.475785
 20
-182.393367
 10
176.32045
 20
-182.340379
 10
176.187803
 20
-182.264558
 10
176.076803
 20
-182.164997
 10
175.986281
 20
-182.040763
 10
175.931311
 20
-181.931001
 10
175.893718
 20
-181.842404
 10
175.889465
 20
-178.852401
 10
175.888916
 20
-178.480527
 10
175.888409
 20
-178.139566
 10
175.88796
 20
-177.828152
 10
175.887627
 20
-177.544829
 10
175.887449
 20
-177.288244
 10
175.887465
 20
-177.056949
 10
175.887707
 20
-176.849555
 10
175.888213
 20
-176.664655
 10
175.889012
 20
-176.500851
 10
175.89016
 20
-176.356715
 10
175.891675
 20
-176.230871
 10
175.893629
 20
-176.121885
 10
175.896026
 20
-176.028357
 10
175.898913
 20
-175.948891
 10
175.902329
 20
-175.882074
 10
175.906324
 20
-175.826498
 10
175.910931
 20
-175.780756
 10
175.916185
 20
-175.743458
 10
175.922121
 20
-175.713154
 10
175.928775
 20
-175.688499
 10
175.936197
 20
-175.66805
 10
175.94441
 20
-175.650394
 10
175.953476
 20
-175.634164
 10
175.963401
 20
-175.61789
 10
175.974261
 20
-175.600209
 10
175.978062
 20
-175.593817
 10
176.061816
 20
-175.47809
 10
176.166397
 20
-175.376912
 10
176.284855
 20
-175.295674
 10
176.410235
 20
-175.239838
 10
176.444059
 20
-175.229895
 10
176.592704
 20
-175.206347
  0
LWPOLYLINE
  5
A5
100
AcDbEntity
  8
0
  6
ByLayer
 62
  256
370
   -1
100
AcDbPolyline
 90
  121
 70
    1
 43
0
 10
180.731937
 20
-177.400224
 10
180.995784
 20
-177.438984
 10
181.091974
 20
-177.461165
 10
181.301348
 20
-177.525878
 10
181.509531
 20
-177.612005
 10
181.709437
 20
-177.715729
 10
181.894
 20
-177.833267
 10
182.05614
 20
-177.960764
 10
182.106212
 20
-178.006991
 10
182.143433
 20
-178.04103
 10
182.170523
 20
-178.062163
 10
182.180286
 20
-178.06599
 10
182.186488
 20
-178.04756
 10
182.196707
 20
-178.007195
 10
182.205781
 20
-177.967024
 10
182.237291
 20
-177.874583
 10
182.289229
 20
-177.778697
 10
182.353904
 20
-177.691756
 10
182.413897
 20
-177.633534
 10
182.519089
 20
-177.56307
 10
182.628864
 20
-177.517377
 10
182.752571
 20
-177.493117
 10
182.822033
 20
-177.48801
 10
182.962873
 20
-177.492018
 10
183.087383
 20
-177.518335
 10
183.204815
 20
-177.569392
 10
183.268378
 20
-177.608017
 10
183.345382
 20
-177.667892
 10
183.407235
 20
-177.738005
 10
183.461488
 20
-177.827598
 10
183.48191
 20
-177.869166
 10
183.525368
 20
-177.961898
 10
183.529672
 20
-179.901174
 10
183.530351
 20
-180.19948
 10
183.530958
 20
-180.46724
 10
183.531409
 20
-180.706218
 10
183.531621
 20
-180.918169
 10
183.531546
 20
-181.1049
 10
183.531057
 20
-181.268175
 10
183.530121
 20
-181.409767
 10
183.528638
 20
-181.531458
 10
183.526541
 20
-181.635029
 10
183.523742
 20
-181.722238
 10
183.520179
 20
-181.794881
 10
183.515756
 20
-181.854726
 10
183.510399
 20
-181.903559
 10
183.504061
 20
-181.943142
 10
183.49663
 20
-181.975255
 10
183.488049
 20
-182.001676
 10
183.478222
 20
-182.024187
 10
183.46707
 20
-182.044585
 10
183.454534
 20
-182.064591
 10
183.440541
 20
-182.086019
 10
183.434222
 20
-182.09582
 10
183.342383
 20
-182.211438
 10
183.230985
 20
-182.302316
 10
183.102803
 20
-182.367091
 10
182.960687
 20
-182.404457
 10
182.807391
 20
-182.412992
 10
182.78346
 20
-182.411705
 10
182.653124
 20
-182.389256
 10
182.529855
 20
-182.342367
 10
182.421577
 20
-182.274709
 10
182.353616
 20
-182.211006
 10
182.293644
 20
-182.13139
 10
182.243862
 20
-182.043338
 10
182.208577
 20
-181.956069
 10
182.192125
 20
-181.878852
 10
182.191438
 20
-181.863013
 10
182.189277
 20
-181.817194
 10
182.183867
 20
-181.786298
 10
182.181056
 20
-181.780815
 10
182.165272
 20
-181.786095
 10
182.132616
 20
-181.809321
 10
182.089319
 20
-181.845928
 10
182.076618
 20
-181.857506
 10
181.930231
 20
-181.977022
 10
181.758363
 20
-182.090052
 10
181.567713
 20
-182.193242
 10
181.365036
 20
-182.283288
 10
181.156979
 20
-182.35691
 10
180.962616
 20
-182.408107
 10
180.896463
 20
-182.4185
 10
180.805531
 20
-182.427324
 10
180.697383
 20
-182.434374
 10
180.579547
 20
-182.439399
 10
180.459551
 20
-182.442202
 10
180.344933
 20
-182.442551
 10
180.24326
 20
-182.440241
 10
180.162057
 20
-182.435045
 10
180.138024
 20
-182.432241
 10
179.862933
 20
-182.378112
 10
179.597859
 20
-182.294154
 10
179.344928
 20
-182.181899
 10
179.106247
 20
-182.04291
 10
178.884016
 20
-181.878714
 10
178.680337
 20
-181.690873
 10
178.497375
 20
-181.480887
 10
178.337247
 20
-181.250327
 10
178.230361
 20
-181.058739
 10
178.131899
 20
-180.829016
 10
178.057747
 20
-180.582535
 10
178.008441
 20
-180.324415
 10
177.984465
 20
-180.059834
 10
177.985468
 20
-179.918324
 10
177.986362
 20
-179.793922
 10
178.014657
 20
-179.531817
 10
178.05466
 20
-179.336254
 10
178.132767
 20
-179.073102
 10
178.230781
 20
-178.832157
 10
178.351194
 20
-178.60841
 10
178.496603
 20
-178.396762
 10
178.56891
 20
-178.306449
 10
178.756907
 20
-178.105424
 10
178.964504
 20
-177.927298
 10
179.188906
 20
-177.773021
 10
179.427331
 20
-177.64352
 10
179.676974
 20
-177.539711
 10
179.935056
 20
-177.462545
 10
180.19876
 20
-177.412954
 10
180.465329
 20
-177.391864
  0
LWPOLYLINE
  5
A6
100
AcDbEntity
  8
0
  6
ByLayer
 62
  256
370
   -1
100
AcDbPolyline
 90
   60
 70
    1
 43
0
 10
179.53198
 20
-179.918324
 10
179.532421
 20
-180.021078
 10
179.533962
 20
-180.098229
 10
179.537381
 20
-180.15654
 10
179.543361
 20
-180.202731
 10
179.55268
 20
-180.243558
 10
179.566049
 20
-180.285785
 10
179.574894
 20
-180.310613
 10
179.654628
 20
-180.483611
 10
179.763995
 20
-180.646593
 10
179.90127
 20
-180.797195
 10
180.013378
 20
-180.894313
 10
180.085382
 20
-180.94037
 10
180.179564
 20
-180.985246
 10
180.285948
 20
-181.024926
 10
180.394493
 20
-181.055402
 10
180.439873
 20
-181.064786
 10
180.524369
 20
-181.078963
 10
180.590361
 20
-181.08628
 10
180.650842
 20
-181.087105
 10
180.71879
 20
-181.08184
 10
180.779425
 20
-181.074503
 10
180.964158
 20
-181.03669
 10
181.132381
 20
-180.972414
 10
181.288787
 20
-180.879551
 10
181.388956
 20
-180.800617
 10
181.53187
 20
-180.657294
 10
181.645355
 20
-180.500783
 10
181.729834
 20
-180.330422
 10
181.779214
 20
-180.173978
 10
181.796786
 20
-180.064316
 10
181.803216
 20
-179.935841
 10
181.799021
 20
-179.799861
 10
181.784679
 20
-179.667738
 10
181.760667
 20
-179.550838
 10
181.750954
 20
-179.518296
 10
181.678182
 20
-179.346672
 10
181.579362
 20
-179.19145
 10
181.457534
 20
-179.054946
 10
181.31574
 20
-178.939473
 10
181.157051
 20
-178.84736
 10
180.984539
 20
-178.780923
 10
180.801199
 20
-178.742473
 10
180.720095
 20
-178.73515
 10
180.579603
 20
-178.735041
 10
180.449214
 20
-178.752517
 10
180.318865
 20
-178.789799
 10
180.178497
 20
-178.849064
 10
180.16227
 20
-178.856893
 10
179.994309
 20
-178.955867
 10
179.849278
 20
-179.077488
 10
179.728047
 20
-179.220758
 10
179.631474
 20
-179.384755
 10
179.581573
 20
-179.504124
 10
179.563269
 20
-179.55652
 10
179.55011
 20
-179.600301
 10
179.541239
 20
-179.642438
 10
179.535831
 20
-179.689906
 10
179.533048
 20
-179.749702
 10
179.532049
 20
-179.828809
  0
LWPOLYLINE
  5
A7
100
AcDbEntity
  8
0
  6
ByLayer
 62
  256
370
   -1
100
AcDbPolyline
 90
  157
 70
    1
 43
0
 10
186.260033
 20
-175.538247
 10
186.312935
 20
-175.541773
 10
186.362741
 20
-175.549535
 10
186.412193
 20
-175.563105
 10
186.464047
 20
-175.584137
 10
186.521049
 20
-175.61425
 10
186.585938
 20
-175.655055
 10
186.66145
 20
-175.708195
 10
186.750364
 20
-175.775254
 10
186.855373
 20
-175.857885
 10
186.979281
 20
-175.957685
 10
187.12479
 20
-176.076307
 10
187.152414
 20
-176.098888
 10
187.578052
 20
-176.447092
 10
187.75065
 20
-176.332414
 10
187.826001
 20
-176.283448
 10
187.901167
 20
-176.236464
 10
187.967039
 20
-176.197017
 10
188.012196
 20
-176.171926
 10
188.143288
 20
-176.120751
 10
188.274394
 20
-176.101157
 10
188.402632
 20
-176.112736
 10
188.525184
 20
-176.15512
 10
188.639254
 20
-176.227884
 10
188.681759
 20
-176.265305
 10
188.750769
 20
-176.342008
 10
188.795763
 20
-176.420605
 10
188.82039
 20
-176.510144
 10
188.828374
 20
-176.619749
 10
188.828405
 20
-176.627974
 10
188.826047
 20
-176.709423
 10
188.817659
 20
-176.77058
 10
188.801318
 20
-176.823173
 10
188.792464
 20
-176.84359
 10
188.74325
 20
-176.922764
 10
188.669491
 20
-177.004794
 10
188.577744
 20
-177.083612
 10
188.474596
 20
-177.153094
 10
188.436334
 20
-177.174458
 10
188.304519
 20
-177.243973
 10
188.521626
 20
-177.562504
 10
188.684063
 20
-177.805615
 10
188.825892
 20
-178.028589
 10
188.948696
 20
-178.234743
 10
189.054144
 20
-178.427431
 10
189.143798
 20
-178.609985
 10
189.219333
 20
-178.785691
 10
189.282364
 20
-178.957922
 10
189.334488
 20
-179.129987
 10
189.377351
 20
-179.305214
 10
189.3821
 20
-179.327351
 10
189.397244
 20
-179.402127
 10
189.408411
 20
-179.467671
 10
189.416238
 20
-179.531352
 10
189.421302
 20
-179.600635
 10
189.424244
 20
-179.682874
 10
189.425646
 20
-179.785497
 10
189.425992
 20
-179.861732
 10
189.425896
 20
-179.981344
 10
189.424489
 20
-180.075666
 10
189.421212
 20
-180.151727
 10
189.415636
 20
-180.216548
 10
189.407181
 20
-180.27719
 10
189.395384
 20
-180.340666
 10
189.389027
 20
-180.371058
 10
189.314724
 20
-180.643181
 10
189.211057
 20
-180.903572
 10
189.079392
 20
-181.150579
 10
188.92113
 20
-181.382499
 10
188.737638
 20
-181.597669
 10
188.530271
 20
-181.794431
 10
188.300451
 20
-181.971089
 10
188.049503
 20
-182.125971
 10
187.874757
 20
-182.214626
 10
187.615229
 20
-182.319662
 10
187.344356
 20
-182.397174
 10
187.05863
 20
-182.448128
 10
186.902829
 20
-182.46443
 10
186.804319
 20
-182.472067
 10
186.727988
 20
-182.476606
 10
186.663732
 20
-182.478035
 10
186.601592
 20
-182.476344
 10
186.531465
 20
-182.471516
 10
186.443812
 20
-182.463542
 10
186.166978
 20
-182.422601
 10
185.896959
 20
-182.354114
 10
185.637887
 20
-182.259689
 10
185.393879
 20
-182.140926
 10
185.169086
 20
-181.99942
 10
185.082953
 20
-181.934815
 10
184.864257
 20
-181.742853
 10
184.67173
 20
-181.533273
 10
184.50617
 20
-181.307393
 10
184.368469
 20
-181.066493
 10
184.259442
 20
-180.811899
 10
184.179905
 20
-180.544896
 10
184.17742
 20
-180.534256
 10
184.159564
 20
-180.433286
 10
184.146129
 20
-180.308741
 10
184.137348
 20
-180.169131
 10
184.133462
 20
-180.022966
 10
184.13413
 20
-179.941018
 10
184.134636
 20
-179.87873
 10
184.141112
 20
-179.744931
 10
184.153101
 20
-179.630056
 10
184.1543
 20
-179.621928
 10
184.205475
 20
-179.387165
 10
184.287297
 20
-179.15001
 10
184.398547
 20
-178.913467
 10
184.537983
 20
-178.68042
 10
184.575854
 20
-178.624838
 10
184.64967
 20
-178.523429
 10
184.726366
 20
-178.427763
 10
184.808476
 20
-178.335767
 10
184.898585
 20
-178.245258
 10
184.999183
 20
-178.154164
 10
185.087974
 20
-178.080935
 10
185.112913
 20
-178.06038
 10
185.242282
 20
-177.961764
 10
185.389869
 20
-177.856225
 10
185.558251
 20
-177.741658
 10
185.749971
 20
-177.615911
 10
185.966856
 20
-177.477389
 10
186.097035
 20
-177.395006
 10
186.202238
 20
-177.328269
 10
186.284889
 20
-177.275646
 10
186.347361
 20
-177.235545
 10
186.392068
 20
-177.206441
 10
186.421423
 20
-177.186779
 10
186.437842
 20
-177.174993
 10
186.443697
 20
-177.169524
 10
186.443812
 20
-177.169111
 10
186.431795
 20
-177.157949
 10
186.400386
 20
-177.133477
 10
186.358939
 20
-177.102849
 10
186.303996
 20
-177.061457
 10
186.234276
 20
-177.006466
 10
186.154162
 20
-176.941575
 10
186.068086
 20
-176.870543
 10
185.980393
 20
-176.797027
 10
185.895474
 20
-176.724734
 10
185.817742
 20
-176.657427
 10
185.751546
 20
-176.59878
 10
185.701305
 20
-176.552498
 10
185.671411
 20
-176.522283
 10
185.669426
 20
-176.519978
 10
185.598119
 20
-176.409517
 10
185.555252
 20
-176.288108
 10
185.540948
 20
-176.160532
 10
185.555367
 20
-176.031562
 10
185.59863
 20
-175.905924
 10
185.647817
 20
-175.820113
 10
185.741327
 20
-175.71049
 10
185.853546
 20
-175.626604
 10
185.982177
 20
-175.569654
 10
186.124943
 20
-175.540821
 10
186.201293
 20
-175.537314
  0
LWPOLYLINE
  5
A8
100
AcDbEntity
  8
0
  6
ByLayer
 62
  256
370
   -1
100
AcDbPolyline
 90
   51
 70
    1
 43
0
 10
185.633489
 20
-179.941018
 10
185.647362
 20
-180.130765
 10
185.690123
 20
-180.315403
 10
185.76148
 20
-180.491319
 10
185.861147
 20
-180.654932
 10
185.871992
 20
-180.669625
 10
185.994598
 20
-180.806666
 10
186.136491
 20
-180.919388
 10
186.2942
 20
-181.006499
 10
186.464287
 20
-181.06673
 10
186.643397
 20
-181.09879
 10
186.828053
 20
-181.101384
 10
186.974037
 20
-181.082077
 10
187.072077
 20
-181.055437
 10
187.185004
 20
-181.012537
 10
187.26666
 20
-180.975217
 10
187.351696
 20
-180.931464
 10
187.417087
 20
-180.891547
 10
187.47345
 20
-180.847941
 10
187.531425
 20
-180.793164
 10
187.546563
 20
-180.777727
 10
187.665295
 20
-180.642091
 10
187.756555
 20
-180.505631
 10
187.824416
 20
-180.360393
 10
187.872945
 20
-180.198351
 10
187.892485
 20
-180.101656
 10
187.909333
 20
-179.912629
 10
187.895058
 20
-179.724277
 10
187.850804
 20
-179.540509
 10
187.777606
 20
-179.365373
 10
187.676532
 20
-179.202758
 10
187.633078
 20
-179.147499
 10
187.545788
 20
-179.053196
 10
187.45323
 20
-178.975831
 10
187.34478
 20
-178.907156
 10
187.276486
 20
-178.871134
 10
187.154732
 20
-178.816391
 10
187.040777
 20
-178.780353
 10
186.919837
 20
-178.759082
 10
186.831873
 20
-178.75136
 10
186.673941
 20
-178.75348
 10
186.518672
 20
-178.781072
 10
186.359602
 20
-178.835586
 10
186.265972
 20
-178.878662
 10
186.136381
 20
-178.957774
 10
186.011208
 20
-179.061131
 10
185.898369
 20
-179.180866
 10
185.80569
 20
-179.309093
 10
185.768021
 20
-179.376686
 10
185.693521
 20
-179.560398
 10
185.648774
 20
-179.7497
  0
LWPOLYLINE
  5
A9
100
AcDbEntity
  8
0
  6
ByLayer
 62
  256
370
   -1
100
AcDbPolyline
 90
   18
 70
    1
 43
0
 10
186.970066
 20
-178.080935
 10
186.98744
 20
-178.085658
 10
187.028556
 20
-178.093186
 10
187.085049
 20
-178.10235
 10
187.148617
 20
-178.111842
 10
187.210918
 20
-178.120456
 10
187.263561
 20
-178.126892
 10
187.297108
 20
-178.129904
 10
187.31373
 20
-178.128636
 10
187.317336
 20
-178.119342
 10
187.305953
 20
-178.097038
 10
187.277559
 20
-178.056738
 10
187.256682
 20
-178.028694
 10
187.179512
 20
-177.925718
 10
187.071997
 20
-178.000397
 10
187.023013
 20
-178.03553
 10
186.9872
 20
-178.063353
 10
186.970463
 20
-178.079207
  0
LWPOLYLINE
  5
AA
100
AcDbEntity
  8
0
  6
ByLayer
 62
  256
370
   -1
100
AcDbPolyline
 90
  169
 70
    1
 43
0
 10
171.227353
 20
-175.19081
 10
171.423966
 20
-175.191428
 10
171.649565
 20
-175.192475
 10
171.722154
 20
-175.192851
 10
171.953763
 20
-175.19409
 10
172.155707
 20
-175.195353
 10
172.330712
 20
-175.196803
 10
172.481427
 20
-175.19865
 10
172.610572
 20
-175.201116
 10
172.720839
 20
-175.204394
 10
172.814878
 20
-175.20866
 10
172.895405
 20
-175.214146
 10
172.965125
 20
-175.221027
 10
173.0267
 20
-175.229517
 10
173.082825
 20
-175.239822
 10
173.136198
 20
-175.25213
 10
173.189504
 20
-175.26664
 10
173.245415
 20
-175.283578
 10
173.30665
 20
-175.303106
 10
173.337982
 20
-175.313233
 10
173.570766
 20
-175.402177
 10
173.787719
 20
-175.512607
 10
173.986214
 20
-175.64237
 10
174.163581
 20
-175.789398
 10
174.317214
 20
-175.951519
 10
174.444436
 20
-176.126634
 10
174.518749
 20
-176.260723
 10
174.599795
 20
-176.462228
 10
174.656613
 20
-176.680201
 10
174.688124
 20
-176.908563
 10
174.693278
 20
-177.141238
 10
174.68773
 20
-177.234309
 10
174.678636
 20
-177.335342
 10
174.669546
 20
-177.413801
 10
174.658603
 20
-177.479413
 10
174.644015
 20
-177.541873
 10
174.623941
 20
-177.610905
 10
174.60682
 20
-177.664645
 10
174.523154
 20
-177.875967
 10
174.41443
 20
-178.068899
 10
174.278698
 20
-178.246404
 10
174.114065
 20
-178.411359
 10
174.109761
 20
-178.415164
 10
174.053195
 20
-178.465995
 10
174.006645
 20
-178.509456
 10
173.974891
 20
-178.540947
 10
173.962753
 20
-178.555869
 10
173.962751
 20
-178.555916
 10
173.975679
 20
-178.567913
 10
174.011359
 20
-178.590136
 10
174.063477
 20
-178.61878
 10
174.094798
 20
-178.634873
 10
174.310121
 20
-178.759058
 10
174.503098
 20
-178.903186
 10
174.672099
 20
-179.065553
 10
174.815605
 20
-179.244413
 10
174.932036
 20
-179.438013
 10
175.01982
 20
-179.644635
 10
175.027049
 20
-179.66619
 10
175.060381
 20
-179.779244
 10
175.084069
 20
-179.888342
 10
175.099005
 20
-180.001772
 10
175.106229
 20
-180.127765
 10
175.106684
 20
-180.274574
 10
175.105463
 20
-180.33055
 10
175.097215
 20
-180.499954
 10
175.080984
 20
-180.646431
 10
175.055022
 20
-180.778786
 10
175.017574
 20
-180.905808
 10
174.966846
 20
-181.036322
 10
174.961346
 20
-181.049061
 10
174.905694
 20
-181.160329
 10
174.832282
 20
-181.282751
 10
174.747857
 20
-181.406309
 10
174.659145
 20
-181.520974
 10
174.59681
 20
-181.591982
 10
174.433761
 20
-181.744735
 10
174.244254
 20
-181.885012
 10
174.032445
 20
-182.010961
 10
173.802422
 20
-182.120743
 10
173.558279
 20
-182.212508
 10
173.30416
 20
-182.284395
 10
173.044174
 20
-182.334512
 10
172.91289
 20
-182.350886
 10
172.866989
 20
-182.35384
 10
172.792763
 20
-182.356466
 10
172.693543
 20
-182.358764
 10
172.572617
 20
-182.360728
 10
172.433364
 20
-182.362367
 10
172.279053
 20
-182.363697
 10
172.113043
 20
-182.364685
 10
171.938639
 20
-182.365369
 10
171.759143
 20
-182.365704
 10
171.577907
 20
-182.365733
 10
171.398238
 20
-182.365439
 10
171.22345
 20
-182.364812
 10
171.056881
 20
-182.363873
 10
170.901849
 20
-182.362612
 10
170.761662
 20
-182.361018
 10
170.639654
 20
-182.35912
 10
170.539137
 20
-182.356898
 10
170.463447
 20
-182.354334
 10
170.415878
 20
-182.351464
 10
170.408448
 20
-182.350653
 10
170.188585
 20
-182.306972
 10
169.980839
 20
-182.235962
 10
169.787442
 20
-182.139668
 10
169.610567
 20
-182.020208
 10
169.452429
 20
-181.879709
 10
169.315233
 20
-181.720258
 10
169.201161
 20
-181.54395
 10
169.112435
 20
-181.352911
 10
169.05126
 20
-181.149229
 10
169.030354
 20
-181.033977
 10
169.027501
 20
-181.001897
 10
169.024968
 20
-180.948299
 10
169.022774
 20
-180.872255
 10
169.020917
 20
-180.772842
 10
169.019363
 20
-180.649186
 10
169.01816
 20
-180.50031
 10
169.017247
 20
-180.325346
 10
169.016671
 20
-180.123368
 10
169.016376
 20
-179.893453
 10
169.016381
 20
-179.861086
 10
169.016407
 20
-179.634665
 10
169.016714
 20
-179.346122
 10
169.017314
 20
-179.026909
 10
169.01801
 20
-178.746095
 10
169.01882
 20
-178.433539
 10
169.019518
 20
-178.15157
 10
169.020208
 20
-177.898417
 10
169.020944
 20
-177.672308
 10
169.021657
 20
-177.504996
 10
169.021802
 20
-177.471484
 10
169.022897
 20
-177.294207
 10
169.024293
 20
-177.138669
 10
169.026047
 20
-177.003151
 10
169.028259
 20
-176.885872
 10
169.031004
 20
-176.785065
 10
169.034386
 20
-176.698998
 10
169.038445
 20
-176.625865
 10
169.043294
 20
-176.563931
 10
169.048991
 20
-176.511423
 10
169.055625
 20
-176.466592
 10
169.063275
 20
-176.427665
 10
169.072023
 20
-176.39288
 10
169.081953
 20
-176.360489
 10
169.093132
 20
-176.328705
 10
169.105663
 20
-176.295796
 10
169.119602
 20
-176.259976
 10
169.132623
 20
-176.225989
 10
169.221887
 20
-176.03296
 10
169.338068
 20
-175.852671
 10
169.477688
 20
-175.688298
 10
169.637275
 20
-175.543045
 10
169.813311
 20
-175.420076
 10
170.002337
 20
-175.322581
 10
170.195913
 20
-175.255044
 10
170.24475
 20
-175.242342
 10
170.291766
 20
-175.231319
 10
170.339537
 20
-175.221865
 10
170.390634
 20
-175.213899
 10
170.447631
 20
-175.20732
 10
170.513093
 20
-175.201983
 10
170.589585
 20
-175.197828
 10
170.679672
 20
-175.194729
 10
170.785922
 20
-175.192574
 10
170.910906
 20
-175.191273
 10
171.057187
 20
-175.190724
  0
LWPOLYLINE
  5
AB
100
AcDbEntity
  8
0
  6
ByLayer
 62
  256
370
   -1
100
AcDbPolyline
 90
   74
 70
    1
 43
0
 10
170.664818
 20
-179.861086
 10
170.665513
 20
-180.007512
 10
170.666328
 20
-180.104715
 10
170.667704
 20
-180.251391
 10
170.669078
 20
-180.369399
 10
170.670731
 20
-180.462405
 10
170.67288
 20
-180.534091
 10
170.675796
 20
-180.588141
 10
170.679761
 20
-180.628196
 10
170.685019
 20
-180.657937
 10
170.691808
 20
-180.681055
 10
170.700405
 20
-180.701214
 10
170.709286
 20
-180.718678
 10
170.754862
 20
-180.790315
 10
170.812381
 20
-180.858775
 10
170.872748
 20
-180.91417
 10
170.910919
 20
-180.939342
 10
170.935242
 20
-180.950771
 10
170.962874
 20
-180.960384
 10
170.996657
 20
-180.968328
 10
171.039393
 20
-180.974727
 10
171.093875
 20
-180.979731
 10
171.162927
 20
-180.983473
 10
171.249342
 20
-180.986128
 10
171.355951
 20
-180.98779
 10
171.485529
 20
-180.988619
 10
171.640925
 20
-180.988766
 10
171.82491
 20
-180.988341
 10
171.891931
 20
-180.988112
 10
172.692282
 20
-180.98514
 10
172.818865
 20
-180.940533
 10
172.977542
 20
-180.870116
 10
173.111655
 20
-180.779871
 10
173.220332
 20
-180.670723
 10
173.302792
 20
-180.543653
 10
173.358207
 20
-180.399608
 10
173.380379
 20
-180.289655
 10
173.385242
 20
-180.138126
 10
173.360295
 20
-179.99173
 10
173.307961
 20
-179.853517
 10
173.230696
 20
-179.72654
 10
173.130939
 20
-179.613844
 10
173.011126
 20
-179.518482
 10
172.873707
 20
-179.443508
 10
172.721159
 20
-179.391956
 10
172.649013
 20
-179.377342
 10
172.609829
 20
-179.373705
 10
172.540959
 20
-179.370433
 10
172.445045
 20
-179.367563
 10
172.324736
 20
-179.365168
 10
172.182702
 20
-179.363257
 10
172.021563
 20
-179.36189
 10
171.843976
 20
-179.361153
 10
171.697909
 20
-179.360987
 10
171.509639
 20
-179.361097
 10
171.350953
 20
-179.361373
 10
171.219014
 20
-179.361897
 10
171.111075
 20
-179.362791
 10
171.024344
 20
-179.364147
 10
170.956046
 20
-179.365999
 10
170.903363
 20
-179.368526
 10
170.863597
 20
-179.37176
 10
170.833881
 20
-179.375809
 10
170.81145
 20
-179.380783
 10
170.793579
 20
-179.386746
 10
170.782316
 20
-179.39153
 10
170.752057
 20
-179.406476
 10
170.727299
 20
-179.423311
 10
170.707534
 20
-179.445213
 10
170.692241
 20
-179.475339
 10
170.68091
 20
-179.516915
 10
170.673028
 20
-179.5731
 10
170.668048
 20
-179.647055
 10
170.66549
 20
-179.741999
  0
LWPOLYLINE
  5
AC
100
AcDbEntity
  8
0
  6
ByLayer
 62
  256
370
   -1
100
AcDbPolyline
 90
   84
 70
    1
 43
0
 10
170.664742
 20
-177.504996
 10
170.665012
 20
-177.634609
 10
170.667632
 20
-177.738434
 10
170.673393
 20
-177.819726
 10
170.683019
 20
-177.881771
 10
170.697329
 20
-177.9278049999999
 10
170.717043
 20
-177.961115
 10
170.742962
 20
-177.98496
 10
170.775839
 20
-178.002601
 10
170.816444
 20
-178.017328
 10
170.824286
 20
-178.019812
 10
170.848296
 20
-178.022301
 10
170.901317
 20
-178.024485
 10
170.98002
 20
-178.026338
 10
171.081061
 20
-178.027808
 10
171.20114
 20
-178.028864
 10
171.336906
 20
-178.029475
 10
171.485031
 20
-178.02958
 10
171.642205
 20
-178.02917
 10
171.649403
 20
-178.029139
 10
171.831779
 20
-178.028241
 10
171.984818
 20
-178.027211
 10
172.111389
 20
-178.025927
 10
172.214475
 20
-178.024308
 10
172.297055
 20
-178.022234
 10
172.362063
 20
-178.019602
 10
172.41245
 20
-178.016297
 10
172.451174
 20
-178.012213
 10
172.481181
 20
-178.007234
 10
172.505433
 20
-178.001271
 10
172.517719
 20
-177.997426
 10
172.617513
 20
-177.953732
 10
172.718523
 20
-177.891819
 10
172.811051
 20
-177.818783
 10
172.88542
 20
-177.74176
 10
172.908183
 20
-177.710996
 10
172.95867
 20
-177.628849
 10
172.993752
 20
-177.553003
 10
173.015877
 20
-177.47428
 10
173.027488
 20
-177.383481
 10
173.031038
 20
-177.271474
 10
173.031019
 20
-177.250472
 10
173.029667
 20
-177.160344
 10
173.025664
 20
-177.093614
 10
173.01783
 20
-177.041398
 10
173.005009
 20
-176.99478
 10
172.992918
 20
-176.961973
 10
172.927702
 20
-176.839503
 10
172.837322
 20
-176.733587
 10
172.726478
 20
-176.648331
 10
172.599866
 20
-176.587863
 10
172.547406
 20
-176.571894
 10
172.518539
 20
-176.565765
 10
172.482064
 20
-176.560676
 10
172.434967
 20
-176.556565
 10
172.37422
 20
-176.553343
 10
172.296747
 20
-176.550892
 10
172.199515
 20
-176.549142
 10
172.079498
 20
-176.548004
 10
171.933642
 20
-176.547354
 10
171.758896
 20
-176.54713
 10
171.732768
 20
-176.547124
 10
171.535317
 20
-176.547478
 10
171.368841
 20
-176.548541
 10
171.231928
 20
-176.550345
 10
171.123226
 20
-176.552927
 10
171.041364
 20
-176.55632
 10
170.98496
 20
-176.560558
 10
170.952659
 20
-176.56568
 10
170.951011
 20
-176.566154
 10
170.880573
 20
-176.600048
 10
170.809375
 20
-176.655875
 10
170.747009
 20
-176.724888
 10
170.70894
 20
-176.785802
 10
170.698148
 20
-176.808753
 10
170.689594
 20
-176.831612
 10
170.682954
 20
-176.858339
 10
170.677933
 20
-176.892913
 10
170.674205
 20
-176.939312
 10
170.671489
 20
-177.001528
 10
170.669471
 20
-177.083518
 10
170.667841
 20
-177.189257
 10
170.666304
 20
-177.322758
 10
170.666056
 20
-177.346308
  0
LWPOLYLINE
  5
AD
100
AcDbEntity
  8
0
  6
ByLayer
 62
  256
370
   -1
100
AcDbPolyline
 90
  150
 70
    1
 43
0
 10
167.013291
 20
-173.240964
 10
167.115252
 20
-173.2603
 10
167.161744
 20
-173.277595
 10
167.289374
 20
-173.350628
 10
167.38905
 20
-173.439513
 10
167.461213
 20
-173.544665
 10
167.46566
 20
-173.553494
 10
167.49336
 20
-173.613927
 10
167.509158
 20
-173.663738
 10
167.516165
 20
-173.71715
 10
167.517488
 20
-173.788297
 10
167.517477
 20
-173.79007
 10
167.510928
 20
-173.888472
 10
167.49055
 20
-173.974336
 10
167.453328
 20
-174.052104
 10
167.396211
 20
-174.126169
 10
167.316208
 20
-174.200965
 10
167.210273
 20
-174.280905
 10
167.156567
 20
-174.317586
 10
167.032327
 20
-174.404929
 10
166.932725
 20
-174.485489
 10
166.852367
 20
-174.5642
 10
166.785769
 20
-174.646065
 10
166.767941
 20
-174.671548
 10
166.702823
 20
-174.778942
 10
166.656091
 20
-174.88462
 10
166.625817
 20
-174.996162
 10
166.61013
 20
-175.121177
 10
166.607088
 20
-175.267245
 10
166.608181
 20
-175.310473
 10
166.615584
 20
-175.432692
 10
166.630508
 20
-175.556111
 10
166.654164
 20
-175.68654
 10
166.687728
 20
-175.829911
 10
166.7324
 20
-175.992083
 10
166.778089
 20
-176.142917
 10
166.853542
 20
-176.391671
 10
166.917095
 20
-176.617502
 10
166.970277
 20
-176.826879
 10
167.014653
 20
-177.026296
 10
167.051733
 20
-177.222194
 10
167.080878
 20
-177.405537
 10
167.121455
 20
-177.795776
 10
167.130108
 20
-178.187232
 10
167.107192
 20
-178.578687
 10
167.053021
 20
-178.968941
 10
166.967934
 20
-179.356809
 10
166.852259
 20
-179.741067
 10
166.706342
 20
-180.120512
 10
166.530515
 20
-180.493939
 10
166.325096
 20
-180.86014
 10
166.090413
 20
-181.217947
 10
165.98861
 20
-181.358169
 10
165.733065
 20
-181.673706
 10
165.452957
 20
-181.969401
 10
165.149942
 20
-182.244304
 10
164.825806
 20
-182.497449
 10
164.482152
 20
-182.72791
 10
164.120731
 20
-182.934692
 10
163.743225
 20
-183.116848
 10
163.351327
 20
-183.273438
 10
162.946739
 20
-183.403454
 10
162.531135
 20
-183.505985
 10
162.106235
 20
-183.580049
 10
162.045164
 20
-183.588213
 10
161.897208
 20
-183.605009
 10
161.73904
 20
-183.619005
 10
161.575643
 20
-183.630052
 10
161.41198
 20
-183.63803
 10
161.252981
 20
-183.642835
 10
161.103592
 20
-183.644319
 10
160.968826
 20
-183.64239
 10
160.853554
 20
-183.63689
 10
160.762776
 20
-183.627707
 10
160.725823
 20
-183.621205
 10
160.609371
 20
-183.586743
 10
160.500688
 20
-183.534634
 10
160.398188
 20
-183.463051
 10
160.300194
 20
-183.370054
 10
160.205149
 20
-183.25376
 10
160.111378
 20
-183.112279
 10
160.017279
 20
-182.943689
 10
159.921208
 20
-182.746115
 10
159.862252
 20
-182.61358
 10
159.694175
 20
-182.18569
 10
159.630225
 20
-181.98538
 10
159.553238
 20
-181.744188
 10
159.44071
 20
-181.293972
 10
159.376779
 20
-180.943754
 10
159.357849
 20
-180.839892
 10
159.312144
 20
-180.46024
 10
159.304489
 20
-180.349134
 10
159.299191
 20
-180.214391
 10
159.296249
 20
-180.064434
 10
159.29565
 20
-179.907749
 10
159.297105
 20
-179.776278
 10
159.297354
 20
-179.752781
 10
159.301408
 20
-179.60797
 10
159.307787
 20
-179.481764
 10
159.312856
 20
-179.417108
 10
159.364864
 20
-179.017852
 10
159.44525
 20
-178.622599
 10
159.552809
 20
-178.234263
 10
159.627245
 20
-178.023241
 10
159.686341
 20
-177.85576
 10
159.844652
 20
-177.489954
 10
160.026493
 20
-177.139789
 10
160.230726
 20
-176.808132
 10
160.45611
 20
-176.497911
 10
160.591855
 20
-176.333788
 10
160.868319
 20
-176.037796
 10
161.163058
 20
-175.766905
 10
161.4784
 20
-175.519278
 10
161.816628
 20
-175.29302
 10
162.035807
 20
-175.164368
 10
162.329295
 20
-175.009598
 10
162.619392
 20
-174.876022
 10
162.91482
 20
-174.760212
 10
163.224276
 20
-174.658763
 10
163.556453
 20
-174.568242
 10
163.557396
 20
-174.568018
 10
163.721374
 20
-174.529382
 10
163.880906
 20
-174.496535
 10
164.042068
 20
-174.468657
 10
164.210938
 20
-174.444875
 10
164.393552
 20
-174.424356
 10
164.595994
 20
-174.406227
 10
164.824317
 20
-174.389675
 10
164.839762
 20
-174.388669
 10
164.978246
 20
-174.379354
 10
165.089831
 20
-174.371035
 10
165.179876
 20
-174.363103
 10
165.253748
 20
-174.354892
 10
165.316878
 20
-174.345785
 10
165.374595
 20
-174.335105
 10
165.432305
 20
-174.322251
 10
165.465893
 20
-174.314017
 10
165.624132
 20
-174.259904
 10
165.774182
 20
-174.178271
 10
165.917704
 20
-174.067909
 10
166.056327
 20
-173.927522
 10
166.172614
 20
-173.782274
 10
166.282003
 20
-173.640011
 10
166.382353
 20
-173.524097
 10
166.477278
 20
-173.431099
 10
166.570357
 20
-173.357639
 10
166.665219
 20
-173.300263
 10
166.698219
 20
-173.28397
 10
166.793004
 20
-173.252945
 10
166.901923
 20
-173.238573
  0
LWPOLYLINE
  5
AE
100
AcDbEntity
  8
0
  6
ByLayer
 62
  256
370
   -1
100
AcDbPolyline
 90
   86
 70
    1
 43
0
 10
160.867218
 20
-181.98538
 10
160.87338
 20
-182.088097
 10
160.888183
 20
-182.165899
 10
160.913549
 20
-182.222371
 10
160.951478
 20
-182.261029
 10
161.003858
 20
-182.285433
 10
161.07271
 20
-182.299126
 10
161.115452
 20
-182.303174
 10
161.149602
 20
-182.304483
 10
161.213329
 20
-182.305713
 10
161.303876
 20
-182.306846
 10
161.418453
 20
-182.307908
 10
161.554307
 20
-182.30886
 10
161.708685
 20
-182.309682
 10
161.878832
 20
-182.310339
 10
162.061956
 20
-182.310858
 10
162.255314
 20
-182.311187
 10
162.456136
 20
-182.311315
 10
162.481719
 20
-182.311319
 10
162.713101
 20
-182.311286
 10
162.914368
 20
-182.31117
 10
163.087755
 20
-182.310897
 10
163.235471
 20
-182.310425
 10
163.359734
 20
-182.309722
 10
163.462787
 20
-182.308713
 10
163.546831
 20
-182.307338
 10
163.614117
 20
-182.305596
 10
163.66683
 20
-182.303373
 10
163.707225
 20
-182.300671
 10
163.737531
 20
-182.297398
 10
163.759947
 20
-182.293518
 10
163.776692
 20
-182.288993
 10
163.790018
 20
-182.283742
 10
163.795752
 20
-182.281012
 10
163.841284
 20
-182.2557
 10
163.875211
 20
-182.22793
 10
163.899324
 20
-182.192655
 10
163.915447
 20
-182.144778
 10
163.925332
 20
-182.079195
 10
163.930808
 20
-181.990832
 10
163.933401
 20
-181.890917
 10
163.934329
 20
-181.778337
 10
163.931541
 20
-181.692791
 10
163.923636
 20
-181.629122
 10
163.909034
 20
-181.582125
 10
163.886291
 20
-181.546562
 10
163.853887
 20
-181.517258
 10
163.819823
 20
-181.494702
 10
163.809742
 20
-181.489002
 10
163.798011
 20
-181.484022
 10
163.782534
 20
-181.479702
 10
163.761129
 20
-181.475997
 10
163.73176
 20
-181.472878
 10
163.692275
 20
-181.47028
 10
163.640555
 20
-181.468154
 10
163.574493
 20
-181.466468
 10
163.491954
 20
-181.465158
 10
163.390819
 20
-181.464167
 10
163.269009
 20
-181.46347
 10
163.124357
 20
-181.463009
 10
162.954756
 20
-181.462728
 10
162.758128
 20
-181.462583
 10
162.532326
 20
-181.462539
 10
162.408956
 20
-181.462534
 10
162.166901
 20
-181.462555
 10
161.95508
 20
-181.462689
 10
161.77136
 20
-181.462955
 10
161.613637
 20
-181.46341
 10
161.479843
 20
-181.464089
 10
161.36784
 20
-181.465038
 10
161.275493
 20
-181.466295
 10
161.200714
 20
-181.4679
 10
161.141403
 20
-181.469918
 10
161.095417
 20
-181.472343
 10
161.060696
 20
-181.475262
 10
161.035095
 20
-181.478696
 10
161.016501
 20
-181.482703
 10
161.002814
 20
-181.487307
 10
160.995323
 20
-181.490758
 10
160.952176
 20
-181.51544
 10
160.920377
 20
-181.542521
 10
160.898105
 20
-181.577346
 10
160.88346
 20
-181.625197
 10
160.874591
 20
-181.691341
 10
160.869668
 20
-181.781086
 10
160.867674
 20
-181.854213
  0
LWPOLYLINE
  5
AF
100
AcDbEntity
  8
0
  6
ByLayer
 62
  256
370
   -1
100
AcDbPolyline
 90
   47
 70
    1
 43
0
 10
160.604168
 20
-180.943754
 10
160.610831
 20
-181.017744
 10
160.630883
 20
-181.073388
 10
160.667176
 20
-181.113027
 10
160.722519
 20
-181.13902
 10
160.799771
 20
-181.153678
 10
160.901718
 20
-181.159365
 10
161.031192
 20
-181.158374
 10
161.132451
 20
-181.155233
 10
161.229821
 20
-181.150953
 10
161.300412
 20
-181.145616
 10
161.349816
 20
-181.138471
 10
161.383579
 20
-181.12874
 10
161.403056
 20
-181.118632
 10
161.433902
 20
-181.095152
 10
161.457729
 20
-181.06719
 10
161.476336
 20
-181.029527
 10
161.491524
 20
-180.976936
 10
161.495263
 20
-180.956795
 10
161.50505
 20
-180.90424
 10
161.51871
 20
-180.80624
 10
161.523564
 20
-180.767185
 10
161.536361
 20
-180.654067
 10
161.542876
 20
-180.567702
 10
161.542523
 20
-180.502912
 10
161.534644
 20
-180.454623
 10
161.51862
 20
-180.417712
 10
161.493833
 20
-180.387057
 10
161.474938
 20
-180.369917
 10
161.45779
 20
-180.356324
 10
161.440014
 20
-180.346284
 10
161.416707
 20
-180.339286
 10
161.382952
 20
-180.334754
 10
161.333793
 20
-180.33218
 10
161.264352
 20
-180.331026
 10
161.169666
 20
-180.330701
 10
161.118269
 20
-180.330691
 10
160.985322
 20
-180.33151
 10
160.880863
 20
-180.335961
 10
160.800919
 20
-180.347166
 10
160.7417
 20
-180.368281
 10
160.699259
 20
-180.402395
 10
160.669728
 20
-180.452642
 10
160.649233
 20
-180.52216
 10
160.633885
 20
-180.614045
 10
160.619782
 20
-180.731423
 10
160.608119
 20
-180.849098
  0
LWPOLYLINE
  5
B0
100
AcDbEntity
  8
0
  6
ByLayer
 62
  256
370
   -1
100
AcDbPolyline
 90
   51
 70
    1
 43
0
 10
161.738061
 20
-180.956795
 10
161.742456
 20
-181.008236
 10
161.753601
 20
-181.047124
 10
161.77171
 20
-181.07829
 10
161.782637
 20
-181.091568
 10
161.807499
 20
-181.116137
 10
161.835266
 20
-181.134386
 10
161.870792
 20
-181.147082
 10
161.918957
 20
-181.155052
 10
161.984562
 20
-181.159028
 10
162.072495
 20
-181.159816
 10
162.187607
 20
-181.158203
 10
162.195137
 20
-181.15805
 10
162.29967
 20
-181.155312
 10
162.377119
 20
-181.151563
 10
162.432639
 20
-181.146223
 10
162.471512
 20
-181.138751
 10
162.498951
 20
-181.128605
 10
162.505406
 20
-181.125141
 10
162.542687
 20
-181.097921
 10
162.571512
 20
-181.061418
 10
162.593935
 20
-181.010416
 10
162.612045
 20
-180.939607
 10
162.612459
 20
-180.937174
 10
162.627913
 20
-180.843757
 10
162.633855
 20
-180.798826
 10
162.647172
 20
-180.688074
 10
162.655249
 20
-180.603923
 10
162.658069
 20
-180.5411
 10
162.655688
 20
-180.494314
 10
162.648102
 20
-180.458283
 10
162.635411
 20
-180.427818
 10
162.617134
 20
-180.39558
 10
162.59701
 20
-180.371397
 10
162.570444
 20
-180.35409
 10
162.532729
 20
-180.342504
 10
162.47923
 20
-180.335536
 10
162.405282
 20
-180.332009
 10
162.306211
 20
-180.330797
 10
162.239625
 20
-180.330691
 10
162.11029
 20
-180.331621
 10
162.009244
 20
-180.336287
 10
161.932506
 20
-180.347621
 10
161.876065
 20
-180.368583
 10
161.835898
 20
-180.402074
 10
161.80801
 20
-180.451041
 10
161.788357
 20
-180.518426
 10
161.772944
 20
-180.607144
 10
161.763123
 20
-180.679066
 10
161.74862
 20
-180.797027
 10
161.740189
 20
-180.88799
  0
LWPOLYLINE
  5
B1
100
AcDbEntity
  8
0
  6
ByLayer
 62
  256
370
   -1
100
AcDbPolyline
 90
   48
 70
    1
 43
0
 10
162.843372
 20
-180.937174
 10
162.844895
 20
-181.000625
 10
162.853817
 20
-181.046773
 10
162.870849
 20
-181.08044
 10
162.89664
 20
-181.106474
 10
162.913069
 20
-181.118194
 10
162.946443
 20
-181.136259
 10
162.986136
 20
-181.148854
 10
163.038094
 20
-181.156679
 10
163.108227
 20
-181.160532
 10
163.202478
 20
-181.161166
 10
163.244742
 20
-181.160731
 10
163.331384
 20
-181.158831
 10
163.392186
 20
-181.155199
 10
163.433685
 20
-181.148948
 10
163.462375
 20
-181.139146
 10
163.481432
 20
-181.127387
 10
163.51904
 20
-181.095878
 10
163.546796
 20
-181.061874
 10
163.567237
 20
-181.018963
 10
163.578054
 20
-180.978666
 10
163.582866
 20
-180.960776
 10
163.596159
 20
-180.880898
 10
163.604895
 20
-180.813054
 10
163.617988
 20
-180.698298
 10
163.62577
 20
-180.610359
 10
163.628238
 20
-180.544144
 10
163.625462
 20
-180.494541
 10
163.617376
 20
-180.456505
 10
163.605171
 20
-180.427111
 10
163.582756
 20
-180.391994
 10
163.553828
 20
-180.36636
 10
163.513414
 20
-180.348824
 10
163.456414
 20
-180.337964
 10
163.37779
 20
-180.332368
 10
163.272505
 20
-180.330646
 10
163.259175
 20
-180.330629
 10
163.032586
 20
-180.330629
 10
162.974813
 20
-180.381355
 10
162.936834
 20
-180.417711
 10
162.908632
 20
-180.450029
 10
162.902236
 20
-180.459708
 10
162.895438
 20
-180.484812
 10
162.886373
 20
-180.535815
 10
162.876025
 20
-180.606429
 10
162.865375
 20
-180.69041
 10
162.859816
 20
-180.738864
 10
162.848565
 20
-180.851539
  0
LWPOLYLINE
  5
B2
100
AcDbEntity
  8
0
  6
ByLayer
 62
  256
370
   -1
100
AcDbPolyline
 90
   53
 70
    1
 43
0
 10
163.820997
 20
-180.978666
 10
163.827037
 20
-181.022385
 10
163.839812
 20
-181.056141
 10
163.859788
 20
-181.085453
 10
163.869324
 20
-181.096489
 10
163.888967
 20
-181.115526
 10
163.912172
 20
-181.129803
 10
163.943621
 20
-181.140019
 10
163.988041
 20
-181.146876
 10
164.050128
 20
-181.151046
 10
164.13463
 20
-181.153224
 10
164.246236
 20
-181.154137
 10
164.260261
 20
-181.154194
 10
164.36991
 20
-181.154142
 10
164.45235
 20
-181.152896
 10
164.512764
 20
-181.150059
 10
164.55628
 20
-181.145238
 10
164.58801
 20
-181.138038
 10
164.613143
 20
-181.12806
 10
164.615432
 20
-181.12691
 10
164.65571
 20
-181.101328
 10
164.686559
 20
-181.067177
 10
164.710212
 20
-181.01927
 10
164.728826
 20
-180.952318
 10
164.744607
 20
-180.861106
 10
164.752759
 20
-180.799659
 10
164.766111
 20
-180.688249
 10
164.774503
 20
-180.603715
 10
164.777433
 20
-180.540893
 10
164.774421
 20
-180.494608
 10
164.764978
 20
-180.45972
 10
164.748594
 20
-180.431079
 10
164.72479
 20
-180.403492
 10
164.713956
 20
-180.392468
 10
164.650272
 20
-180.328767
 10
164.319092
 20
-180.333742
 10
164.207666
 20
-180.335526
 10
164.123878
 20
-180.33743
 10
164.063089
 20
-180.34
 10
164.020638
 20
-180.343839
 10
163.991824
 20
-180.349504
 10
163.971981
 20
-180.357551
 10
163.956451
 20
-180.36856
 10
163.944774
 20
-180.379129
 10
163.917933
 20
-180.406166
 10
163.897566
 20
-180.433628
 10
163.881996
 20
-180.467101
 10
163.869553
 20
-180.512216
 10
163.858535
 20
-180.574527
 10
163.847277
 20
-180.659672
 10
163.838714
 20
-180.732668
 10
163.827293
 20
-180.839301
 10
163.821236
 20
-180.919458
  0
LINE
  5
B3
100
AcDbEntity
  8
0
  6
ByLayer
 62
  256
370
   -1
100
AcDbLine
 10
160.619782
 20
-180.731423
 11
160.619782
 21
-180.731423
  0
LWPOLYLINE
  5
B4
100
AcDbEntity
  8
0
  6
ByLayer
 62
  256
370
   -1
100
AcDbPolyline
 90
   58
 70
    1
 43
0
 10
160.989149
 20
-179.776278
 10
160.990556
 20
-179.841801
 10
161.000595
 20
-179.890274
 10
161.020116
 20
-179.926539
 10
161.04999
 20
-179.955542
 10
161.078119
 20
-179.974511
 10
161.09976
 20
-179.986111
 10
161.12444
 20
-179.994627
 10
161.157283
 20
-180.000489
 10
161.20352
 20
-180.004209
 10
161.268305
 20
-180.006242
 10
161.356809
 20
-180.007081
 10
161.431004
 20
-180.007202
 10
161.539581
 20
-180.00686
 10
161.621033
 20
-180.005484
 10
161.680498
 20
-180.002651
 10
161.723213
 20
-179.997904
 10
161.754329
 20
-179.990828
 10
161.779037
 20
-179.981
 10
161.786188
 20
-179.97733
 10
161.82374
 20
-179.954948
 10
161.852505
 20
-179.930112
 10
161.874462
 20
-179.897795
 10
161.8916
 20
-179.852963
 10
161.898973
 20
-179.82075
 10
161.905884
 20
-179.790576
 10
161.9193
 20
-179.70558
 10
161.932317
 20
-179.605029
 10
161.944276
 20
-179.506663
 10
161.952167
 20
-179.434752
 10
161.956037
 20
-179.383631
 10
161.955994
 20
-179.347713
 10
161.952102
 20
-179.321342
 10
161.9444
 20
-179.298904
 10
161.93639
 20
-179.281667
 10
161.915148
 20
-179.244112
 10
161.890031
 20
-179.215585
 10
161.856622
 20
-179.194916
 10
161.810506
 20
-179.18106
 10
161.747287
 20
-179.172877
 10
161.662577
 20
-179.169261
 10
161.551969
 20
-179.1691
 10
161.492529
 20
-179.169871
 10
161.385295
 20
-179.17181
 10
161.305426
 20
-179.174155
 10
161.247888
 20
-179.177486
 10
161.207704
 20
-179.182317
 10
161.179884
 20
-179.189225
 10
161.159409
 20
-179.198743
 10
161.145886
 20
-179.207915
 10
161.10965
 20
-179.237303
 10
161.082123
 20
-179.267493
 10
161.061263
 20
-179.304117
 10
161.044958
 20
-179.352726
 10
161.031081
 20
-179.419021
 10
161.017539
 20
-179.508552
 10
161.008884
 20
-179.57442
 10
160.995533
 20
-179.688775
  0
LWPOLYLINE
  5
B5
100
AcDbEntity
  8
0
  6
ByLayer
 62
  256
370
   -1
100
AcDbPolyline
 90
   49
 70
    1
 43
0
 10
162.193041
 20
-179.82075
 10
162.200302
 20
-179.87577
 10
162.216265
 20
-179.916397
 10
162.241719
 20
-179.947073
 10
162.277405
 20
-179.972128
 10
162.295763
 20
-179.982086
 10
162.335132
 20
-179.993235
 10
162.399739
 20
-180.001477
 10
162.482649
 20
-180.00692
 10
162.576896
 20
-180.009556
 10
162.675537
 20
-180.009423
 10
162.771603
 20
-180.006575
 10
162.858147
 20
-180.001018
 10
162.928217
 20
-179.992804
 10
162.974848
 20
-179.98193
 10
162.981808
 20
-179.97894
 10
163.021169
 20
-179.955937
 10
163.051269
 20
-179.929117
 10
163.07425
 20
-179.893249
 10
163.092332
 20
-179.843156
 10
163.098744
 20
-179.814133
 10
163.107681
 20
-179.773641
 10
163.122484
 20
-179.679467
 10
163.129693
 20
-179.62642
 10
163.140472
 20
-179.53735
 10
163.14842
 20
-179.455771
 10
163.153007
 20
-179.388887
 10
163.153679
 20
-179.343879
 10
163.152679
 20
-179.333454
 10
163.129756
 20
-179.28165
 10
163.085031
 20
-179.231684
 10
163.028269
 20
-179.192415
 10
162.977209
 20
-179.173934
 10
162.942445
 20
-179.170755
 10
162.882317
 20
-179.168654
 10
162.803731
 20
-179.167781
 10
162.713593
 20
-179.168182
 10
162.657522
 20
-179.169092
 10
162.533415
 20
-179.172909
 10
162.437418
 20
-179.180816
 10
162.365442
 20
-179.196202
 10
162.313212
 20
-179.222432
 10
162.276621
 20
-179.262919
 10
162.25142
 20
-179.321006
 10
162.233488
 20
-179.400081
 10
162.218585
 20
-179.503499
 10
162.215791
 20
-179.525868
 10
162.201532
 20
-179.650185
 10
162.193694
 20
-179.747016
  0
LWPOLYLINE
  5
B6
100
AcDbEntity
  8
0
  6
ByLayer
 62
  256
370
   -1
100
AcDbPolyline
 90
   49
 70
    1
 43
0
 10
163.377041
 20
-179.814133
 10
163.379813
 20
-179.85116
 10
163.386771
 20
-179.876925
 10
163.386854
 20
-179.87715
 10
163.418928
 20
-179.929705
 10
163.463728
 20
-179.974414
 10
163.500345
 20
-179.995839
 10
163.52953
 20
-180.000327
 10
163.584377
 20
-180.003494
 10
163.658154
 20
-180.00539
 10
163.744219
 20
-180.006085
 10
163.835914
 20
-180.005616
 10
163.926535
 20
-180.004083
 10
164.009409
 20
-180.001508
 10
164.077894
 20
-179.997969
 10
164.125279
 20
-179.993543
 10
164.142005
 20
-179.990059
 10
164.198305
 20
-179.958352
 10
164.247214
 20
-179.912757
 10
164.278712
 20
-179.863342
 10
164.283696
 20
-179.847335
 10
164.291825
 20
-179.801093
 10
164.30168
 20
-179.733764
 10
164.312241
 20
-179.653904
 10
164.322486
 20
-179.570097
 10
164.331363
 20
-179.490903
 10
164.337847
 20
-179.424848
 10
164.340881
 20
-179.380541
 10
164.340978
 20
-179.375021
 10
164.326935
 20
-179.306204
 10
164.289316
 20
-179.243859
 10
164.23545
 20
-179.198526
 10
164.211215
 20
-179.187612
 10
164.17083
 20
-179.179762
 10
164.102763
 20
-179.173661
 10
164.011593
 20
-179.169571
 10
163.90193
 20
-179.167801
 10
163.888398
 20
-179.16776
 10
163.756136
 20
-179.168888
 10
163.652239
 20
-179.175167
 10
163.572744
 20
-179.189874
 10
163.513782
 20
-179.216328
 10
163.47139
 20
-179.257831
 10
163.441636
 20
-179.317715
 10
163.42063
 20
-179.399276
 10
163.404399
 20
-179.50584
 10
163.395268
 20
-179.583666
 10
163.384622
 20
-179.685549
 10
163.37859
 20
-179.760655
  0
LWPOLYLINE
  5
B7
100
AcDbEntity
  8
0
  6
ByLayer
 62
  256
370
   -1
100
AcDbPolyline
 90
   71
 70
    1
 43
0
 10
162.500935
 20
-178.023241
 10
162.507389
 20
-178.064096
 10
162.5192
 20
-178.091902
 10
162.564559
 20
-178.152181
 10
162.629143
 20
-178.193415
 10
162.703919
 20
-178.212372
 10
162.779885
 20
-178.20585
 10
162.808369
 20
-178.195498
 10
162.843425
 20
-178.170442
 10
162.8776
 20
-178.133009
 10
162.879155
 20
-178.130849
 10
162.920427
 20
-178.07699
 10
162.980185
 20
-178.00511
 10
163.054063
 20
-177.920007
 10
163.137669
 20
-177.826591
 10
163.226611
 20
-177.729602
 10
163.316514
 20
-177.633924
 10
163.403006
 20
-177.544379
 10
163.481694
 20
-177.465755
 10
163.490998
 20
-177.456735
 10
163.635025
 20
-177.320951
 10
163.783589
 20
-177.188586
 10
163.940015
 20
-177.05707
 10
164.107584
 20
-176.923875
 10
164.289632
 20
-176.786443
 10
164.489471
 20
-176.642262
 10
164.710408
 20
-176.488738
 10
164.955732
 20
-176.323363
 10
165.025434
 20
-176.277106
 10
165.151309
 20
-176.193479
 10
165.252684
 20
-176.125271
 10
165.332221
 20
-176.070455
 10
165.392638
 20
-176.027002
 10
165.43667
 20
-175.992906
 10
165.466999
 20
-175.966137
 10
165.486332
 20
-175.944675
 10
165.497388
 20
-175.926501
 10
165.49837
 20
-175.924258
 10
165.518438
 20
-175.858173
 10
165.515648
 20
-175.799767
 10
165.495005
 20
-175.744468
 10
165.451934
 20
-175.688252
 10
165.390442
 20
-175.653079
 10
165.317782
 20
-175.640297
 10
165.241181
 20
-175.651242
 10
165.172022
 20
-175.684392
 10
165.143578
 20
-175.703602
 10
165.091946
 20
-175.738295
 10
165.020848
 20
-175.786011
 10
164.933975
 20
-175.844284
 10
164.835035
 20
-175.910612
 10
164.727714
 20
-175.982514
 10
164.656416
 20
-176.030269
 10
164.434778
 20
-176.180039
 10
164.237327
 20
-176.316642
 10
164.060253
 20
-176.443101
 10
163.899718
 20
-176.562469
 10
163.751931
 20
-176.677757
 10
163.613047
 20
-176.791998
 10
163.479262
 20
-176.908203
 10
163.346778
 20
-177.029426
 10
163.211775
 20
-177.158654
 10
163.119266
 20
-177.250011
 10
162.998162
 20
-177.373356
 10
162.885135
 20
-177.493374
 10
162.782562
 20
-177.607271
 10
162.69279
 20
-177.712243
 10
162.618137
 20
-177.805489
 10
162.560987
 20
-177.884191
 10
162.523697
 20
-177.945534
 10
162.51129
 20
-177.97459
  0
CIRCLE
  5
B8
100
AcDbEntity
  8
0
  6
ByLayer
 62
  256
370
   -1
100
AcDbCircle
 10
96.83750000000002
 20
-116.68125
 40
4.200000000000004
  0
CIRCLE
  5
B9
100
AcDbEntity
  8
0
  6
ByLayer
 62
  256
370
   -1
100
AcDbCircle
 10
96.850995
 20
-178.59375
 40
4.200000000000004
  0
CIRCLE
  5
BA
100
AcDbEntity
  8
0
  6
ByLayer
 62
  256
370
   -1
100
AcDbCircle
 10
311.15
 20
-116.68125
 40
4.199999999999986
  0
CIRCLE
  5
BB
100
AcDbEntity
  8
0
  6
ByLayer
 62
  256
370
   -1
100
AcDbCircle
 10
311.15
 20
-178.59375
 40
4.199999999999986
  0
LWPOLYLINE
  5
BC
100
AcDbEntity
  8
edge
  6
ByLayer
 62
  256
370
   -1
100
AcDbPolyline
 90
   22
 70
    1
 43
0
 10
318.2937499999907
 20
-111.124999
 42
0.4142448549239564
 10
316.70625
 20
-109.5374999999027
 10
91.28125
 20
-109.5375
 42
0.4142265872039191
 10
89.69374999999935
 20
-111.124999
 10
89.69374999999999
 20
-184.149999
 42
0.4142442249819915
 10
91.28125
 20
-185.7374979999971
 10
191.112499
 20
-185.737498
 42
0.4142148284041049
 10
191.6124979999978
 20
-185.237499
 10
191.6124990000001
 20
-177.7999990123263
 42
-0.9999998506312082
 10
211.6124999999999
 20
-177.799999
 10
211.612499
 20
-185.237498
 42
0.4142100000033719
 10
212.112499
 20
-185.7374979999968
 10
316.70625
 20
-185.737498
 42
0.414227217105825
 10
318.2937499999964
 20
-184.149999
 10
318.29375
 20
-157.106249
 42
0.4142720000364548
 10
317.79375
 20
-156.6062489999286
 10
311.993749
 20
-156.6062489999532
 42
-0.4141528282814402
 10
311.4937499999967
 20
-156.10625
 10
311.4937499999922
 20
-147.10625
 42
-0.4141560000556335
 10
311.99375
 20
-146.6062499999123
 10
317.79375
 20
-146.606249
 42
0.4141559999911615
 10
318.2937499999977
 20
-146.106249
  0
CIRCLE
  5
BD
100
AcDbEntity
  8
edge
  6
ByLayer
 62
  256
370
   -1
100
AcDbCircle
 10
112.315625
 20
-176.2125
 40
1.1
  0
CIRCLE
  5
BE
100
AcDbEntity
  8
edge
  6
ByLayer
 62
  256
370
   -1
100
AcDbCircle
 10
295.671875
 20
-176.2125
 40
1.1
  0
CIRCLE
  5
BF
100
AcDbEntity
  8
edge
  6
ByLayer
 62
  256
370
   -1
100
AcDbCircle
 10
119.459375
 20
-129.778125
 40
1.1
  0
CIRCLE
  5
C0
100
AcDbEntity
  8
edge
  6
ByLayer
 62
  256
370
   -1
100
AcDbCircle
 10
295.671875
 20
-129.778125
 40
1.1
  0
LWPOLYLINE
  5
C1
100
AcDbEntity
  8
0
  6
ByLayer
 62
  256
370
   -1
100
AcDbPolyline
 90
    4
 70
    1
 43
0
 10
221.903125
 20
-180.36875
 10
221.903125
 20
-183.16875
 10
219.103125
 20
-183.16875
 10
219.103125
 20
-180.36875
  0
LWPOLYLINE
  5
C2
100
AcDbEntity
  8
0
  6
ByLayer
 62
  256
370
   -1
100
AcDbPolyline
 90
    4
 70
    1
 43
0
 10
222.103125
 20
-180.16875
 10
222.103125
 20
-183.36875
 10
218.903125
 20
-183.36875
 10
218.903125
 20
-180.16875
  0
ENDSEC
  0
SECTION
  2
OBJECTS
  0
DICTIONARY
  5
C
330
0
100
AcDbDictionary
281
    1
  3
ACAD_GROUP
350
D
  0
DICTIONARY
  5
D
330
C
100
AcDbDictionary
281
    1
  0
PLOTSETTINGS
  5
C3
100
AcDbPlotSettings
  6
1x1
 40
0
 41
0
 42
0
 43
0
  0
ENDSEC
  0
EOF
