ISO-10303-21;
HEADER;
/* Generated by software containing ST-Developer
 * from STEP Tools, Inc. (www.steptools.com) 
 */

FILE_DESCRIPTION(
/* description */ (''),
/* implementation_level */ '2;1');

FILE_NAME(
/* name */ 'Low Profile Keycap 1U.step',
/* time_stamp */ '2026-01-27T13:22:24+09:00',
/* author */ (''),
/* organization */ (''),
/* preprocessor_version */ 'ST-DEVELOPER v20.1',
/* originating_system */ 'Autodesk Translation Framework v14.24.0.0',
/* authorisation */ '');

FILE_SCHEMA (('AUTOMOTIVE_DESIGN { 1 0 10303 214 3 1 1 }'));
ENDSEC;

DATA;
#10=MECHANICAL_DESIGN_GEOMETRIC_PRESENTATION_REPRESENTATION('',(#13),#1570);
#11=SHAPE_REPRESENTATION_RELATIONSHIP('SRR','None',#1577,#12);
#12=ADVANCED_BREP_SHAPE_REPRESENTATION('',(#14),#1569);
#13=STYLED_ITEM('',(#1587),#14);
#14=MANIFOLD_SOLID_BREP('\X2\30DC30C730A3\X0\1',#704);
#15=FACE_BOUND('',#260,.T.);
#16=SPHERICAL_SURFACE('',#724,86.5758181262);
#17=SPHERICAL_SURFACE('',#769,87.2258181262);
#18=B_SPLINE_CURVE_WITH_KNOTS('',3,(#987,#988,#989,#990,#991,#992,#993,
#994,#995,#996),.UNSPECIFIED.,.F.,.F.,(4,2,2,2,4),(4.86480598516706E-6,
0.0516288107878438,0.102420233212396,0.153211655636955,0.204835617290462),
 .UNSPECIFIED.);
#19=B_SPLINE_CURVE_WITH_KNOTS('',3,(#999,#1000,#1001,#1002,#1003,#1004,
#1005,#1006,#1007,#1008),.UNSPECIFIED.,.F.,.F.,(4,2,2,2,4),(-0.647417344975012,
-0.493786931425059,-0.323708696736127,-0.153630461274747,0.),
 .UNSPECIFIED.);
#20=B_SPLINE_CURVE_WITH_KNOTS('',3,(#1054,#1055,#1056,#1057,#1058,#1059,
#1060,#1061,#1062,#1063),.UNSPECIFIED.,.F.,.F.,(4,2,2,2,4),(6.41032564795054E-6,
0.0516303711079695,0.102421792675407,0.153213214242827,0.204837491730846),
 .UNSPECIFIED.);
#21=B_SPLINE_CURVE_WITH_KNOTS('',3,(#1064,#1065,#1066,#1067,#1068,#1069,
#1070,#1071,#1072,#1073),.UNSPECIFIED.,.F.,.F.,(4,2,2,2,4),(-0.647417345028493,
-0.493786927322726,-0.323708692550602,-0.15363045714015,0.),
 .UNSPECIFIED.);
#22=B_SPLINE_CURVE_WITH_KNOTS('',3,(#1079,#1080,#1081,#1082,#1083,#1084,
#1085,#1086,#1087,#1088),.UNSPECIFIED.,.F.,.F.,(4,2,2,2,4),(-0.647417344670546,
-0.493786967244098,-0.323708733218091,-0.153630497252476,0.),
 .UNSPECIFIED.);
#23=B_SPLINE_CURVE_WITH_KNOTS('',3,(#1092,#1093,#1094,#1095,#1096,#1097,
#1098,#1099,#1100,#1101),.UNSPECIFIED.,.F.,.F.,(4,2,2,2,4),(0.,0.153630382882361,
0.32370861725853,0.493786853405379,0.647417345675395),.UNSPECIFIED.);
#24=B_SPLINE_CURVE_WITH_KNOTS('',3,(#1143,#1144,#1145,#1146,#1147,#1148,
#1149,#1150,#1151,#1152),.UNSPECIFIED.,.F.,.F.,(4,2,2,2,4),(4.54810054587489E-6,
0.0516288107878745,0.102420233212428,0.15321165563698,0.204835617290474),
 .UNSPECIFIED.);
#25=B_SPLINE_CURVE_WITH_KNOTS('',3,(#1195,#1196,#1197,#1198,#1199,#1200,
#1201,#1202,#1203,#1204),.UNSPECIFIED.,.F.,.F.,(4,2,2,2,4),(4.54810046355515E-6,
0.0516288107878764,0.102420233212432,0.153211655636984,0.204835617290477),
 .UNSPECIFIED.);
#26=B_SPLINE_CURVE_WITH_KNOTS('',3,(#1273,#1274,#1275,#1276,#1277,#1278,
#1279,#1280,#1281,#1282,#1283,#1284,#1285,#1286),.UNSPECIFIED.,.F.,.F.,
(4,2,2,2,2,2,4),(1.10138944054108E-5,0.0143863926973327,0.028489507230779,
0.0520967808599157,0.0757039972438282,0.0898069101653197,0.104176570134937),
 .UNSPECIFIED.);
#27=B_SPLINE_CURVE_WITH_KNOTS('',3,(#1292,#1293,#1294,#1295,#1296,#1297,
#1298,#1299,#1300,#1301,#1302,#1303,#1304,#1305),.UNSPECIFIED.,.F.,.F.,
(4,2,2,2,2,2,4),(1.93590753759E-5,0.0143885226625875,0.0284934364750237,
0.0521006271397091,0.0757078049948894,0.0898137069689705,0.104186423614948),
 .UNSPECIFIED.);
#28=B_SPLINE_CURVE_WITH_KNOTS('',3,(#1310,#1311,#1312,#1313,#1314,#1315),
 .UNSPECIFIED.,.F.,.F.,(4,2,4),(1.70024218364963E-5,0.0111836921138231,
0.0204865782582579),.UNSPECIFIED.);
#29=B_SPLINE_CURVE_WITH_KNOTS('',3,(#1318,#1319,#1320,#1321,#1322,#1323),
 .UNSPECIFIED.,.F.,.F.,(4,2,4),(0.,0.00152882057751815,0.00336219288680308),
 .UNSPECIFIED.);
#30=B_SPLINE_CURVE_WITH_KNOTS('',3,(#1329,#1330,#1331,#1332,#1333,#1334),
 .UNSPECIFIED.,.F.,.F.,(4,2,4),(-0.00336388319089358,-0.00152889966871171,
-1.58257744149043E-10),.UNSPECIFIED.);
#31=B_SPLINE_CURVE_WITH_KNOTS('',3,(#1336,#1337,#1338,#1339,#1340,#1341),
 .UNSPECIFIED.,.F.,.F.,(4,2,4),(1.70024917824794E-5,0.0111836921166371,
0.0204865265800425),.UNSPECIFIED.);
#32=B_SPLINE_CURVE_WITH_KNOTS('',3,(#1346,#1347,#1348,#1349,#1350,#1351,
#1352,#1353,#1354,#1355,#1356,#1357,#1358,#1359),.UNSPECIFIED.,.F.,.F.,
(4,2,2,2,2,2,4),(-0.104168404607867,-0.0897985035253836,-0.0756953546467564,
-0.0520880509325718,-0.0284806926890461,-0.0143818058632967,-1.31910851267666E-5),
 .UNSPECIFIED.);
#33=B_SPLINE_CURVE_WITH_KNOTS('',3,(#1366,#1367,#1368,#1369,#1370,#1371,
#1372,#1373,#1374,#1375,#1376,#1377,#1378,#1379),.UNSPECIFIED.,.F.,.F.,
(4,2,2,2,2,2,4),(1.69939697321358E-5,0.0143921200266254,0.0285000869602218,
0.0521074351838069,0.0757148377033532,0.089825003539006,0.104202080472395),
 .UNSPECIFIED.);
#34=B_SPLINE_CURVE_WITH_KNOTS('',3,(#1382,#1383,#1384,#1385,#1386,#1387),
 .UNSPECIFIED.,.F.,.F.,(4,2,4),(1.70025121781177E-5,0.011183691494413,0.0204865232041283),
 .UNSPECIFIED.);
#35=B_SPLINE_CURVE_WITH_KNOTS('',3,(#1390,#1391,#1392,#1393,#1394,#1395),
 .UNSPECIFIED.,.F.,.F.,(4,2,4),(1.61436424116083E-10,0.00152794235325033,
0.00336213725281767),.UNSPECIFIED.);
#36=B_SPLINE_CURVE_WITH_KNOTS('',3,(#1440,#1441,#1442,#1443,#1444,#1445,
#1446,#1447,#1448,#1449),.UNSPECIFIED.,.F.,.F.,(4,2,2,2,4),(-0.417521744377524,
-0.319835988528199,-0.208761645005246,-0.0976883353568799,-9.96941418307529E-12),
 .UNSPECIFIED.);
#37=B_SPLINE_CURVE_WITH_KNOTS('',3,(#1474,#1475,#1476,#1477,#1478,#1479,
#1480,#1481,#1482,#1483),.UNSPECIFIED.,.F.,.F.,(4,2,2,2,4),(-0.417521758757204,
-0.319836001245915,-0.208761654124339,-0.0976883436111413,-1.91071047872526E-11),
 .UNSPECIFIED.);
#38=B_SPLINE_CURVE_WITH_KNOTS('',3,(#1507,#1508,#1509,#1510,#1511,#1512,
#1513,#1514,#1515,#1516),.UNSPECIFIED.,.F.,.F.,(4,2,2,2,4),(-0.417521759145273,
-0.319836001675604,-0.208761654308344,-0.0976883435058379,-2.38886133097083E-11),
 .UNSPECIFIED.);
#39=B_SPLINE_CURVE_WITH_KNOTS('',3,(#1519,#1520,#1521,#1522,#1523,#1524),
 .UNSPECIFIED.,.F.,.F.,(4,2,4),(-0.0204865110850941,-0.0111848918263776,
-1.70025138205362E-5),.UNSPECIFIED.);
#40=B_SPLINE_CURVE_WITH_KNOTS('',3,(#1528,#1529,#1530,#1531,#1532,#1533),
 .UNSPECIFIED.,.F.,.F.,(4,2,4),(1.52085569868483E-10,0.00152660319850471,
0.00335936630877792),.UNSPECIFIED.);
#41=B_SPLINE_CURVE_WITH_KNOTS('',3,(#1554,#1555,#1556,#1557,#1558,#1559,
#1560,#1561,#1562,#1563),.UNSPECIFIED.,.F.,.F.,(4,2,2,2,4),(-0.417512723834246,
-0.319826376774005,-0.208755500056569,-0.0976834700369188,-2.04053995922493E-11),
 .UNSPECIFIED.);
#42=B_SPLINE_SURFACE_WITH_KNOTS('',5,5,((#947,#948,#949,#950,#951,#952),
(#953,#954,#955,#956,#957,#958),(#959,#960,#961,#962,#963,#964),(#965,#966,
#967,#968,#969,#970),(#971,#972,#973,#974,#975,#976),(#977,#978,#979,#980,
#981,#982)),.UNSPECIFIED.,.F.,.F.,.F.,(6,6),(6,6),(0.,5.4014592483),(6.59734457254,
13.1946891451),.UNSPECIFIED.);
#43=B_SPLINE_SURFACE_WITH_KNOTS('',5,5,((#1015,#1016,#1017,#1018,#1019,
#1020),(#1021,#1022,#1023,#1024,#1025,#1026),(#1027,#1028,#1029,#1030,#1031,
#1032),(#1033,#1034,#1035,#1036,#1037,#1038),(#1039,#1040,#1041,#1042,#1043,
#1044),(#1045,#1046,#1047,#1048,#1049,#1050)),.UNSPECIFIED.,.F.,.F.,.F.,
(6,6),(6,6),(0.,5.4014592483),(0.,6.59734457254),.UNSPECIFIED.);
#44=B_SPLINE_SURFACE_WITH_KNOTS('',5,5,((#1106,#1107,#1108,#1109,#1110,
#1111),(#1112,#1113,#1114,#1115,#1116,#1117),(#1118,#1119,#1120,#1121,#1122,
#1123),(#1124,#1125,#1126,#1127,#1128,#1129),(#1130,#1131,#1132,#1133,#1134,
#1135),(#1136,#1137,#1138,#1139,#1140,#1141)),.UNSPECIFIED.,.F.,.F.,.F.,
(6,6),(6,6),(0.,5.4014592483),(13.1946891451,19.7920337176),
 .UNSPECIFIED.);
#45=B_SPLINE_SURFACE_WITH_KNOTS('',5,5,((#1158,#1159,#1160,#1161,#1162,
#1163),(#1164,#1165,#1166,#1167,#1168,#1169),(#1170,#1171,#1172,#1173,#1174,
#1175),(#1176,#1177,#1178,#1179,#1180,#1181),(#1182,#1183,#1184,#1185,#1186,
#1187),(#1188,#1189,#1190,#1191,#1192,#1193)),.UNSPECIFIED.,.F.,.F.,.F.,
(6,6),(6,6),(0.,5.4014592483),(19.7920337176,26.3893782902),
 .UNSPECIFIED.);
#46=B_SPLINE_SURFACE_WITH_KNOTS('',3,5,((#1402,#1403,#1404,#1405,#1406,
#1407,#1408,#1409,#1410),(#1411,#1412,#1413,#1414,#1415,#1416,#1417,#1418,
#1419),(#1420,#1421,#1422,#1423,#1424,#1425,#1426,#1427,#1428),(#1429,#1430,
#1431,#1432,#1433,#1434,#1435,#1436,#1437)),.UNSPECIFIED.,.F.,.F.,.F.,(4,
4),(6,3,6),(0.386038050394,5.25350761027),(6.59734457244,9.89601685877,
13.1946891451),.UNSPECIFIED.);
#47=B_SPLINE_SURFACE_WITH_KNOTS('',1,5,((#1454,#1455,#1456,#1457,#1458,
#1459,#1460,#1461,#1462),(#1463,#1464,#1465,#1466,#1467,#1468,#1469,#1470,
#1471)),.UNSPECIFIED.,.F.,.F.,.F.,(2,2),(6,3,6),(0.386057343546,5.25350761049),
(0.,3.29867228629,6.59734457257),.UNSPECIFIED.);
#48=B_SPLINE_SURFACE_WITH_KNOTS('',1,5,((#1488,#1489,#1490,#1491,#1492,
#1493,#1494,#1495,#1496),(#1497,#1498,#1499,#1500,#1501,#1502,#1503,#1504,
#1505)),.UNSPECIFIED.,.F.,.F.,.F.,(2,2),(6,3,6),(0.386057343547,5.25350924456),
(13.1946891451,16.4933614313,19.7920337176),.UNSPECIFIED.);
#49=B_SPLINE_SURFACE_WITH_KNOTS('',1,5,((#1534,#1535,#1536,#1537,#1538,
#1539,#1540,#1541,#1542),(#1543,#1544,#1545,#1546,#1547,#1548,#1549,#1550,
#1551)),.UNSPECIFIED.,.F.,.F.,.F.,(2,2),(6,3,6),(0.386038041067,5.25350761047),
(19.7920337176,23.0907060039,26.3893782902),.UNSPECIFIED.);
#50=LINE('',#946,#107);
#51=LINE('',#985,#108);
#52=LINE('',#998,#109);
#53=LINE('',#1012,#110);
#54=LINE('',#1013,#111);
#55=LINE('',#1053,#112);
#56=LINE('',#1104,#113);
#57=LINE('',#1105,#114);
#58=LINE('',#1153,#115);
#59=LINE('',#1156,#116);
#60=LINE('',#1157,#117);
#61=LINE('',#1205,#118);
#62=LINE('',#1207,#119);
#63=LINE('',#1210,#120);
#64=LINE('',#1212,#121);
#65=LINE('',#1213,#122);
#66=LINE('',#1216,#123);
#67=LINE('',#1220,#124);
#68=LINE('',#1221,#125);
#69=LINE('',#1224,#126);
#70=LINE('',#1228,#127);
#71=LINE('',#1229,#128);
#72=LINE('',#1232,#129);
#73=LINE('',#1234,#130);
#74=LINE('',#1235,#131);
#75=LINE('',#1239,#132);
#76=LINE('',#1244,#133);
#77=LINE('',#1246,#134);
#78=LINE('',#1247,#135);
#79=LINE('',#1250,#136);
#80=LINE('',#1254,#137);
#81=LINE('',#1256,#138);
#82=LINE('',#1261,#139);
#83=LINE('',#1264,#140);
#84=LINE('',#1267,#141);
#85=LINE('',#1269,#142);
#86=LINE('',#1287,#143);
#87=LINE('',#1288,#144);
#88=LINE('',#1306,#145);
#89=LINE('',#1307,#146);
#90=LINE('',#1317,#147);
#91=LINE('',#1327,#148);
#92=LINE('',#1335,#149);
#93=LINE('',#1343,#150);
#94=LINE('',#1360,#151);
#95=LINE('',#1363,#152);
#96=LINE('',#1365,#153);
#97=LINE('',#1389,#154);
#98=LINE('',#1398,#155);
#99=LINE('',#1400,#156);
#100=LINE('',#1439,#157);
#101=LINE('',#1453,#158);
#102=LINE('',#1473,#159);
#103=LINE('',#1487,#160);
#104=LINE('',#1518,#161);
#105=LINE('',#1527,#162);
#106=LINE('',#1553,#163);
#107=VECTOR('',#782,2.8);
#108=VECTOR('',#783,10.);
#109=VECTOR('',#784,10.);
#110=VECTOR('',#787,0.999999999999362);
#111=VECTOR('',#788,1.);
#112=VECTOR('',#791,10.);
#113=VECTOR('',#802,0.999999999999362);
#114=VECTOR('',#803,1.);
#115=VECTOR('',#804,10.);
#116=VECTOR('',#807,1.);
#117=VECTOR('',#808,1.00000000000001);
#118=VECTOR('',#809,10.);
#119=VECTOR('',#812,1.);
#120=VECTOR('',#815,1.);
#121=VECTOR('',#816,1.);
#122=VECTOR('',#817,1.);
#123=VECTOR('',#820,1.);
#124=VECTOR('',#825,1.);
#125=VECTOR('',#826,1.);
#126=VECTOR('',#829,1.);
#127=VECTOR('',#834,1.);
#128=VECTOR('',#835,1.);
#129=VECTOR('',#838,10.);
#130=VECTOR('',#839,10.);
#131=VECTOR('',#840,10.);
#132=VECTOR('',#843,10.);
#133=VECTOR('',#850,10.);
#134=VECTOR('',#851,10.);
#135=VECTOR('',#852,10.);
#136=VECTOR('',#855,10.);
#137=VECTOR('',#862,1.);
#138=VECTOR('',#865,1.);
#139=VECTOR('',#872,10.);
#140=VECTOR('',#875,10.);
#141=VECTOR('',#878,10.);
#142=VECTOR('',#881,10.);
#143=VECTOR('',#884,1.);
#144=VECTOR('',#885,1.);
#145=VECTOR('',#888,1.);
#146=VECTOR('',#889,1.);
#147=VECTOR('',#892,1.);
#148=VECTOR('',#895,1.);
#149=VECTOR('',#896,1.);
#150=VECTOR('',#899,10.);
#151=VECTOR('',#902,1.);
#152=VECTOR('',#905,1.);
#153=VECTOR('',#906,1.);
#154=VECTOR('',#909,1.);
#155=VECTOR('',#912,10.);
#156=VECTOR('',#913,10.);
#157=VECTOR('',#916,10.);
#158=VECTOR('',#921,10.);
#159=VECTOR('',#922,10.);
#160=VECTOR('',#927,10.);
#161=VECTOR('',#928,10.);
#162=VECTOR('',#931,1.);
#163=VECTOR('',#932,10.);
#164=CYLINDRICAL_SURFACE('',#720,2.8);
#165=CYLINDRICAL_SURFACE('',#732,1.30015820542);
#166=CYLINDRICAL_SURFACE('',#735,1.30015820542);
#167=CYLINDRICAL_SURFACE('',#746,1.30015820542);
#168=CYLINDRICAL_SURFACE('',#748,1.30015820542);
#169=CYLINDRICAL_SURFACE('',#754,0.650158205423);
#170=CYLINDRICAL_SURFACE('',#755,0.650158205423);
#171=CYLINDRICAL_SURFACE('',#759,0.650158205423);
#172=CYLINDRICAL_SURFACE('',#760,0.650158205423);
#173=FACE_OUTER_BOUND('',#217,.T.);
#174=FACE_OUTER_BOUND('',#218,.T.);
#175=FACE_OUTER_BOUND('',#219,.T.);
#176=FACE_OUTER_BOUND('',#220,.T.);
#177=FACE_OUTER_BOUND('',#221,.T.);
#178=FACE_OUTER_BOUND('',#222,.T.);
#179=FACE_OUTER_BOUND('',#223,.T.);
#180=FACE_OUTER_BOUND('',#224,.T.);
#181=FACE_OUTER_BOUND('',#225,.T.);
#182=FACE_OUTER_BOUND('',#226,.T.);
#183=FACE_OUTER_BOUND('',#227,.T.);
#184=FACE_OUTER_BOUND('',#228,.T.);
#185=FACE_OUTER_BOUND('',#229,.T.);
#186=FACE_OUTER_BOUND('',#230,.T.);
#187=FACE_OUTER_BOUND('',#231,.T.);
#188=FACE_OUTER_BOUND('',#232,.T.);
#189=FACE_OUTER_BOUND('',#233,.T.);
#190=FACE_OUTER_BOUND('',#234,.T.);
#191=FACE_OUTER_BOUND('',#235,.T.);
#192=FACE_OUTER_BOUND('',#236,.T.);
#193=FACE_OUTER_BOUND('',#237,.T.);
#194=FACE_OUTER_BOUND('',#238,.T.);
#195=FACE_OUTER_BOUND('',#239,.T.);
#196=FACE_OUTER_BOUND('',#240,.T.);
#197=FACE_OUTER_BOUND('',#241,.T.);
#198=FACE_OUTER_BOUND('',#242,.T.);
#199=FACE_OUTER_BOUND('',#243,.T.);
#200=FACE_OUTER_BOUND('',#244,.T.);
#201=FACE_OUTER_BOUND('',#245,.T.);
#202=FACE_OUTER_BOUND('',#246,.T.);
#203=FACE_OUTER_BOUND('',#247,.T.);
#204=FACE_OUTER_BOUND('',#248,.T.);
#205=FACE_OUTER_BOUND('',#249,.T.);
#206=FACE_OUTER_BOUND('',#250,.T.);
#207=FACE_OUTER_BOUND('',#251,.T.);
#208=FACE_OUTER_BOUND('',#252,.T.);
#209=FACE_OUTER_BOUND('',#253,.T.);
#210=FACE_OUTER_BOUND('',#254,.T.);
#211=FACE_OUTER_BOUND('',#255,.T.);
#212=FACE_OUTER_BOUND('',#256,.T.);
#213=FACE_OUTER_BOUND('',#257,.T.);
#214=FACE_OUTER_BOUND('',#258,.T.);
#215=FACE_OUTER_BOUND('',#259,.T.);
#216=FACE_OUTER_BOUND('',#261,.T.);
#217=EDGE_LOOP('',(#437));
#218=EDGE_LOOP('',(#438,#439,#440,#441));
#219=EDGE_LOOP('',(#442,#443,#444,#445));
#220=EDGE_LOOP('',(#446,#447,#448,#449));
#221=EDGE_LOOP('',(#450,#451,#452,#453));
#222=EDGE_LOOP('',(#454,#455,#456,#457,#458,#459,#460,#461));
#223=EDGE_LOOP('',(#462,#463,#464,#465));
#224=EDGE_LOOP('',(#466,#467,#468,#469));
#225=EDGE_LOOP('',(#470,#471,#472,#473));
#226=EDGE_LOOP('',(#474,#475,#476,#477));
#227=EDGE_LOOP('',(#478,#479,#480,#481));
#228=EDGE_LOOP('',(#482,#483,#484,#485));
#229=EDGE_LOOP('',(#486,#487,#488,#489));
#230=EDGE_LOOP('',(#490,#491,#492,#493));
#231=EDGE_LOOP('',(#494,#495,#496,#497));
#232=EDGE_LOOP('',(#498,#499,#500,#501));
#233=EDGE_LOOP('',(#502,#503,#504,#505));
#234=EDGE_LOOP('',(#506,#507,#508,#509));
#235=EDGE_LOOP('',(#510,#511,#512,#513));
#236=EDGE_LOOP('',(#514,#515,#516,#517));
#237=EDGE_LOOP('',(#518,#519,#520,#521));
#238=EDGE_LOOP('',(#522,#523,#524,#525));
#239=EDGE_LOOP('',(#526,#527,#528,#529));
#240=EDGE_LOOP('',(#530,#531,#532,#533));
#241=EDGE_LOOP('',(#534,#535,#536,#537));
#242=EDGE_LOOP('',(#538,#539,#540,#541));
#243=EDGE_LOOP('',(#542,#543,#544,#545));
#244=EDGE_LOOP('',(#546,#547,#548,#549));
#245=EDGE_LOOP('',(#550,#551,#552,#553,#554,#555));
#246=EDGE_LOOP('',(#556,#557,#558,#559,#560,#561));
#247=EDGE_LOOP('',(#562,#563,#564,#565));
#248=EDGE_LOOP('',(#566,#567,#568,#569));
#249=EDGE_LOOP('',(#570,#571,#572,#573));
#250=EDGE_LOOP('',(#574,#575,#576,#577,#578,#579));
#251=EDGE_LOOP('',(#580,#581,#582,#583));
#252=EDGE_LOOP('',(#584,#585,#586,#587,#588,#589));
#253=EDGE_LOOP('',(#590,#591,#592,#593));
#254=EDGE_LOOP('',(#594,#595,#596,#597,#598,#599));
#255=EDGE_LOOP('',(#600,#601,#602,#603));
#256=EDGE_LOOP('',(#604,#605,#606,#607,#608,#609));
#257=EDGE_LOOP('',(#610,#611,#612,#613,#614,#615));
#258=EDGE_LOOP('',(#616,#617,#618,#619,#620,#621));
#259=EDGE_LOOP('',(#622,#623,#624,#625,#626,#627,#628,#629));
#260=EDGE_LOOP('',(#630));
#261=EDGE_LOOP('',(#631,#632,#633,#634));
#262=CIRCLE('',#719,2.8);
#263=CIRCLE('',#721,2.8);
#264=CIRCLE('',#723,83.9769871469581);
#265=CIRCLE('',#725,83.9768997079361);
#266=CIRCLE('',#726,83.9769002075573);
#267=CIRCLE('',#727,83.9769002066422);
#268=CIRCLE('',#733,1.30015820542);
#269=CIRCLE('',#736,1.30015820542);
#270=CIRCLE('',#740,0.650158205423);
#271=CIRCLE('',#741,1.30015820542);
#272=CIRCLE('',#744,0.650158205423);
#273=CIRCLE('',#745,1.30015820542);
#274=CIRCLE('',#750,0.650158205423);
#275=CIRCLE('',#752,0.650158205423);
#276=CIRCLE('',#763,84.4825253101852);
#277=CIRCLE('',#765,84.4825253652951);
#278=CIRCLE('',#767,84.4825253106641);
#279=CIRCLE('',#770,84.4825253656581);
#280=VERTEX_POINT('',#941);
#281=VERTEX_POINT('',#944);
#282=VERTEX_POINT('',#983);
#283=VERTEX_POINT('',#984);
#284=VERTEX_POINT('',#986);
#285=VERTEX_POINT('',#997);
#286=VERTEX_POINT('',#1010);
#287=VERTEX_POINT('',#1011);
#288=VERTEX_POINT('',#1051);
#289=VERTEX_POINT('',#1052);
#290=VERTEX_POINT('',#1075);
#291=VERTEX_POINT('',#1076);
#292=VERTEX_POINT('',#1078);
#293=VERTEX_POINT('',#1090);
#294=VERTEX_POINT('',#1103);
#295=VERTEX_POINT('',#1142);
#296=VERTEX_POINT('',#1155);
#297=VERTEX_POINT('',#1194);
#298=VERTEX_POINT('',#1209);
#299=VERTEX_POINT('',#1211);
#300=VERTEX_POINT('',#1215);
#301=VERTEX_POINT('',#1219);
#302=VERTEX_POINT('',#1223);
#303=VERTEX_POINT('',#1227);
#304=VERTEX_POINT('',#1231);
#305=VERTEX_POINT('',#1233);
#306=VERTEX_POINT('',#1237);
#307=VERTEX_POINT('',#1238);
#308=VERTEX_POINT('',#1243);
#309=VERTEX_POINT('',#1245);
#310=VERTEX_POINT('',#1249);
#311=VERTEX_POINT('',#1259);
#312=VERTEX_POINT('',#1263);
#313=VERTEX_POINT('',#1265);
#314=VERTEX_POINT('',#1271);
#315=VERTEX_POINT('',#1272);
#316=VERTEX_POINT('',#1290);
#317=VERTEX_POINT('',#1291);
#318=VERTEX_POINT('',#1309);
#319=VERTEX_POINT('',#1316);
#320=VERTEX_POINT('',#1325);
#321=VERTEX_POINT('',#1326);
#322=VERTEX_POINT('',#1328);
#323=VERTEX_POINT('',#1345);
#324=VERTEX_POINT('',#1362);
#325=VERTEX_POINT('',#1364);
#326=VERTEX_POINT('',#1381);
#327=VERTEX_POINT('',#1388);
#328=VERTEX_POINT('',#1397);
#329=VERTEX_POINT('',#1399);
#330=VERTEX_POINT('',#1438);
#331=VERTEX_POINT('',#1451);
#332=VERTEX_POINT('',#1472);
#333=VERTEX_POINT('',#1485);
#334=VERTEX_POINT('',#1506);
#335=VERTEX_POINT('',#1517);
#336=VERTEX_POINT('',#1526);
#337=VERTEX_POINT('',#1552);
#338=EDGE_CURVE('',#280,#280,#262,.T.);
#339=EDGE_CURVE('',#281,#281,#263,.T.);
#340=EDGE_CURVE('',#281,#280,#50,.T.);
#341=EDGE_CURVE('',#282,#283,#51,.T.);
#342=EDGE_CURVE('',#283,#284,#18,.T.);
#343=EDGE_CURVE('',#285,#284,#52,.T.);
#344=EDGE_CURVE('',#285,#282,#19,.T.);
#345=EDGE_CURVE('',#286,#287,#53,.T.);
#346=EDGE_CURVE('',#283,#287,#54,.T.);
#347=EDGE_CURVE('',#286,#282,#264,.T.);
#348=EDGE_CURVE('',#288,#289,#55,.T.);
#349=EDGE_CURVE('',#289,#287,#20,.T.);
#350=EDGE_CURVE('',#286,#288,#21,.T.);
#351=EDGE_CURVE('',#290,#291,#265,.T.);
#352=EDGE_CURVE('',#292,#291,#22,.T.);
#353=EDGE_CURVE('',#292,#288,#266,.T.);
#354=EDGE_CURVE('',#285,#293,#267,.T.);
#355=EDGE_CURVE('',#293,#290,#23,.T.);
#356=EDGE_CURVE('',#293,#294,#56,.T.);
#357=EDGE_CURVE('',#294,#284,#57,.T.);
#358=EDGE_CURVE('',#294,#295,#24,.T.);
#359=EDGE_CURVE('',#290,#295,#58,.T.);
#360=EDGE_CURVE('',#296,#295,#59,.T.);
#361=EDGE_CURVE('',#291,#296,#60,.T.);
#362=EDGE_CURVE('',#296,#297,#25,.T.);
#363=EDGE_CURVE('',#292,#297,#61,.T.);
#364=EDGE_CURVE('',#289,#297,#62,.T.);
#365=EDGE_CURVE('',#289,#298,#63,.T.);
#366=EDGE_CURVE('',#297,#299,#64,.T.);
#367=EDGE_CURVE('',#299,#298,#65,.T.);
#368=EDGE_CURVE('',#296,#300,#66,.F.);
#369=EDGE_CURVE('',#300,#299,#268,.T.);
#370=EDGE_CURVE('',#295,#301,#67,.T.);
#371=EDGE_CURVE('',#301,#300,#68,.T.);
#372=EDGE_CURVE('',#294,#302,#69,.F.);
#373=EDGE_CURVE('',#301,#302,#269,.T.);
#374=EDGE_CURVE('',#284,#303,#70,.T.);
#375=EDGE_CURVE('',#303,#302,#71,.T.);
#376=EDGE_CURVE('',#304,#303,#72,.T.);
#377=EDGE_CURVE('',#304,#305,#73,.T.);
#378=EDGE_CURVE('',#305,#302,#74,.T.);
#379=EDGE_CURVE('',#306,#307,#75,.T.);
#380=EDGE_CURVE('',#304,#306,#270,.T.);
#381=EDGE_CURVE('',#303,#307,#271,.T.);
#382=EDGE_CURVE('',#308,#307,#76,.T.);
#383=EDGE_CURVE('',#309,#308,#77,.T.);
#384=EDGE_CURVE('',#309,#306,#78,.T.);
#385=EDGE_CURVE('',#310,#298,#79,.T.);
#386=EDGE_CURVE('',#309,#310,#272,.T.);
#387=EDGE_CURVE('',#308,#298,#273,.T.);
#388=EDGE_CURVE('',#287,#308,#80,.F.);
#389=EDGE_CURVE('',#283,#307,#81,.T.);
#390=EDGE_CURVE('',#311,#305,#274,.T.);
#391=EDGE_CURVE('',#311,#301,#82,.T.);
#392=EDGE_CURVE('',#312,#300,#83,.T.);
#393=EDGE_CURVE('',#312,#313,#275,.T.);
#394=EDGE_CURVE('',#313,#299,#84,.T.);
#395=EDGE_CURVE('',#313,#310,#85,.T.);
#396=EDGE_CURVE('',#314,#315,#26,.T.);
#397=EDGE_CURVE('',#315,#304,#86,.F.);
#398=EDGE_CURVE('',#314,#306,#87,.F.);
#399=EDGE_CURVE('',#316,#317,#27,.T.);
#400=EDGE_CURVE('',#317,#309,#88,.F.);
#401=EDGE_CURVE('',#316,#310,#89,.F.);
#402=EDGE_CURVE('',#317,#318,#28,.T.);
#403=EDGE_CURVE('',#319,#318,#90,.F.);
#404=EDGE_CURVE('',#319,#314,#29,.T.);
#405=EDGE_CURVE('',#320,#321,#91,.F.);
#406=EDGE_CURVE('',#322,#320,#30,.T.);
#407=EDGE_CURVE('',#322,#305,#92,.T.);
#408=EDGE_CURVE('',#315,#321,#31,.T.);
#409=EDGE_CURVE('',#311,#312,#93,.T.);
#410=EDGE_CURVE('',#323,#322,#32,.T.);
#411=EDGE_CURVE('',#323,#311,#94,.F.);
#412=EDGE_CURVE('',#324,#313,#95,.F.);
#413=EDGE_CURVE('',#325,#312,#96,.F.);
#414=EDGE_CURVE('',#325,#324,#33,.T.);
#415=EDGE_CURVE('',#324,#326,#34,.T.);
#416=EDGE_CURVE('',#327,#326,#97,.F.);
#417=EDGE_CURVE('',#327,#316,#35,.T.);
#418=EDGE_CURVE('',#328,#320,#98,.T.);
#419=EDGE_CURVE('',#329,#321,#99,.T.);
#420=EDGE_CURVE('',#328,#329,#276,.T.);
#421=EDGE_CURVE('',#330,#319,#100,.T.);
#422=EDGE_CURVE('',#329,#330,#36,.T.);
#423=EDGE_CURVE('',#330,#331,#277,.T.);
#424=EDGE_CURVE('',#331,#318,#101,.T.);
#425=EDGE_CURVE('',#332,#327,#102,.T.);
#426=EDGE_CURVE('',#331,#332,#37,.T.);
#427=EDGE_CURVE('',#332,#333,#278,.T.);
#428=EDGE_CURVE('',#333,#326,#103,.T.);
#429=EDGE_CURVE('',#334,#328,#38,.T.);
#430=EDGE_CURVE('',#334,#335,#104,.T.);
#431=EDGE_CURVE('',#335,#323,#39,.T.);
#432=EDGE_CURVE('',#336,#335,#105,.F.);
#433=EDGE_CURVE('',#336,#325,#40,.T.);
#434=EDGE_CURVE('',#337,#336,#106,.T.);
#435=EDGE_CURVE('',#333,#337,#41,.T.);
#436=EDGE_CURVE('',#337,#334,#279,.T.);
#437=ORIENTED_EDGE('',*,*,#338,.T.);
#438=ORIENTED_EDGE('',*,*,#339,.F.);
#439=ORIENTED_EDGE('',*,*,#340,.T.);
#440=ORIENTED_EDGE('',*,*,#338,.F.);
#441=ORIENTED_EDGE('',*,*,#340,.F.);
#442=ORIENTED_EDGE('',*,*,#341,.T.);
#443=ORIENTED_EDGE('',*,*,#342,.T.);
#444=ORIENTED_EDGE('',*,*,#343,.F.);
#445=ORIENTED_EDGE('',*,*,#344,.T.);
#446=ORIENTED_EDGE('',*,*,#345,.T.);
#447=ORIENTED_EDGE('',*,*,#346,.F.);
#448=ORIENTED_EDGE('',*,*,#341,.F.);
#449=ORIENTED_EDGE('',*,*,#347,.F.);
#450=ORIENTED_EDGE('',*,*,#348,.T.);
#451=ORIENTED_EDGE('',*,*,#349,.T.);
#452=ORIENTED_EDGE('',*,*,#345,.F.);
#453=ORIENTED_EDGE('',*,*,#350,.T.);
#454=ORIENTED_EDGE('',*,*,#351,.T.);
#455=ORIENTED_EDGE('',*,*,#352,.F.);
#456=ORIENTED_EDGE('',*,*,#353,.T.);
#457=ORIENTED_EDGE('',*,*,#350,.F.);
#458=ORIENTED_EDGE('',*,*,#347,.T.);
#459=ORIENTED_EDGE('',*,*,#344,.F.);
#460=ORIENTED_EDGE('',*,*,#354,.T.);
#461=ORIENTED_EDGE('',*,*,#355,.T.);
#462=ORIENTED_EDGE('',*,*,#356,.F.);
#463=ORIENTED_EDGE('',*,*,#354,.F.);
#464=ORIENTED_EDGE('',*,*,#343,.T.);
#465=ORIENTED_EDGE('',*,*,#357,.F.);
#466=ORIENTED_EDGE('',*,*,#356,.T.);
#467=ORIENTED_EDGE('',*,*,#358,.T.);
#468=ORIENTED_EDGE('',*,*,#359,.F.);
#469=ORIENTED_EDGE('',*,*,#355,.F.);
#470=ORIENTED_EDGE('',*,*,#359,.T.);
#471=ORIENTED_EDGE('',*,*,#360,.F.);
#472=ORIENTED_EDGE('',*,*,#361,.F.);
#473=ORIENTED_EDGE('',*,*,#351,.F.);
#474=ORIENTED_EDGE('',*,*,#361,.T.);
#475=ORIENTED_EDGE('',*,*,#362,.T.);
#476=ORIENTED_EDGE('',*,*,#363,.F.);
#477=ORIENTED_EDGE('',*,*,#352,.T.);
#478=ORIENTED_EDGE('',*,*,#363,.T.);
#479=ORIENTED_EDGE('',*,*,#364,.F.);
#480=ORIENTED_EDGE('',*,*,#348,.F.);
#481=ORIENTED_EDGE('',*,*,#353,.F.);
#482=ORIENTED_EDGE('',*,*,#365,.F.);
#483=ORIENTED_EDGE('',*,*,#364,.T.);
#484=ORIENTED_EDGE('',*,*,#366,.T.);
#485=ORIENTED_EDGE('',*,*,#367,.T.);
#486=ORIENTED_EDGE('',*,*,#366,.F.);
#487=ORIENTED_EDGE('',*,*,#362,.F.);
#488=ORIENTED_EDGE('',*,*,#368,.T.);
#489=ORIENTED_EDGE('',*,*,#369,.T.);
#490=ORIENTED_EDGE('',*,*,#368,.F.);
#491=ORIENTED_EDGE('',*,*,#360,.T.);
#492=ORIENTED_EDGE('',*,*,#370,.T.);
#493=ORIENTED_EDGE('',*,*,#371,.T.);
#494=ORIENTED_EDGE('',*,*,#372,.T.);
#495=ORIENTED_EDGE('',*,*,#373,.F.);
#496=ORIENTED_EDGE('',*,*,#370,.F.);
#497=ORIENTED_EDGE('',*,*,#358,.F.);
#498=ORIENTED_EDGE('',*,*,#372,.F.);
#499=ORIENTED_EDGE('',*,*,#357,.T.);
#500=ORIENTED_EDGE('',*,*,#374,.T.);
#501=ORIENTED_EDGE('',*,*,#375,.T.);
#502=ORIENTED_EDGE('',*,*,#375,.F.);
#503=ORIENTED_EDGE('',*,*,#376,.F.);
#504=ORIENTED_EDGE('',*,*,#377,.T.);
#505=ORIENTED_EDGE('',*,*,#378,.T.);
#506=ORIENTED_EDGE('',*,*,#379,.F.);
#507=ORIENTED_EDGE('',*,*,#380,.F.);
#508=ORIENTED_EDGE('',*,*,#376,.T.);
#509=ORIENTED_EDGE('',*,*,#381,.T.);
#510=ORIENTED_EDGE('',*,*,#382,.F.);
#511=ORIENTED_EDGE('',*,*,#383,.F.);
#512=ORIENTED_EDGE('',*,*,#384,.T.);
#513=ORIENTED_EDGE('',*,*,#379,.T.);
#514=ORIENTED_EDGE('',*,*,#385,.F.);
#515=ORIENTED_EDGE('',*,*,#386,.F.);
#516=ORIENTED_EDGE('',*,*,#383,.T.);
#517=ORIENTED_EDGE('',*,*,#387,.T.);
#518=ORIENTED_EDGE('',*,*,#365,.T.);
#519=ORIENTED_EDGE('',*,*,#387,.F.);
#520=ORIENTED_EDGE('',*,*,#388,.F.);
#521=ORIENTED_EDGE('',*,*,#349,.F.);
#522=ORIENTED_EDGE('',*,*,#389,.F.);
#523=ORIENTED_EDGE('',*,*,#346,.T.);
#524=ORIENTED_EDGE('',*,*,#388,.T.);
#525=ORIENTED_EDGE('',*,*,#382,.T.);
#526=ORIENTED_EDGE('',*,*,#389,.T.);
#527=ORIENTED_EDGE('',*,*,#381,.F.);
#528=ORIENTED_EDGE('',*,*,#374,.F.);
#529=ORIENTED_EDGE('',*,*,#342,.F.);
#530=ORIENTED_EDGE('',*,*,#378,.F.);
#531=ORIENTED_EDGE('',*,*,#390,.F.);
#532=ORIENTED_EDGE('',*,*,#391,.T.);
#533=ORIENTED_EDGE('',*,*,#373,.T.);
#534=ORIENTED_EDGE('',*,*,#369,.F.);
#535=ORIENTED_EDGE('',*,*,#392,.F.);
#536=ORIENTED_EDGE('',*,*,#393,.T.);
#537=ORIENTED_EDGE('',*,*,#394,.T.);
#538=ORIENTED_EDGE('',*,*,#367,.F.);
#539=ORIENTED_EDGE('',*,*,#394,.F.);
#540=ORIENTED_EDGE('',*,*,#395,.T.);
#541=ORIENTED_EDGE('',*,*,#385,.T.);
#542=ORIENTED_EDGE('',*,*,#396,.T.);
#543=ORIENTED_EDGE('',*,*,#397,.T.);
#544=ORIENTED_EDGE('',*,*,#380,.T.);
#545=ORIENTED_EDGE('',*,*,#398,.F.);
#546=ORIENTED_EDGE('',*,*,#399,.T.);
#547=ORIENTED_EDGE('',*,*,#400,.T.);
#548=ORIENTED_EDGE('',*,*,#386,.T.);
#549=ORIENTED_EDGE('',*,*,#401,.F.);
#550=ORIENTED_EDGE('',*,*,#398,.T.);
#551=ORIENTED_EDGE('',*,*,#384,.F.);
#552=ORIENTED_EDGE('',*,*,#400,.F.);
#553=ORIENTED_EDGE('',*,*,#402,.T.);
#554=ORIENTED_EDGE('',*,*,#403,.F.);
#555=ORIENTED_EDGE('',*,*,#404,.T.);
#556=ORIENTED_EDGE('',*,*,#405,.F.);
#557=ORIENTED_EDGE('',*,*,#406,.F.);
#558=ORIENTED_EDGE('',*,*,#407,.T.);
#559=ORIENTED_EDGE('',*,*,#377,.F.);
#560=ORIENTED_EDGE('',*,*,#397,.F.);
#561=ORIENTED_EDGE('',*,*,#408,.T.);
#562=ORIENTED_EDGE('',*,*,#371,.F.);
#563=ORIENTED_EDGE('',*,*,#391,.F.);
#564=ORIENTED_EDGE('',*,*,#409,.T.);
#565=ORIENTED_EDGE('',*,*,#392,.T.);
#566=ORIENTED_EDGE('',*,*,#390,.T.);
#567=ORIENTED_EDGE('',*,*,#407,.F.);
#568=ORIENTED_EDGE('',*,*,#410,.F.);
#569=ORIENTED_EDGE('',*,*,#411,.T.);
#570=ORIENTED_EDGE('',*,*,#412,.T.);
#571=ORIENTED_EDGE('',*,*,#393,.F.);
#572=ORIENTED_EDGE('',*,*,#413,.F.);
#573=ORIENTED_EDGE('',*,*,#414,.T.);
#574=ORIENTED_EDGE('',*,*,#401,.T.);
#575=ORIENTED_EDGE('',*,*,#395,.F.);
#576=ORIENTED_EDGE('',*,*,#412,.F.);
#577=ORIENTED_EDGE('',*,*,#415,.T.);
#578=ORIENTED_EDGE('',*,*,#416,.F.);
#579=ORIENTED_EDGE('',*,*,#417,.T.);
#580=ORIENTED_EDGE('',*,*,#418,.T.);
#581=ORIENTED_EDGE('',*,*,#405,.T.);
#582=ORIENTED_EDGE('',*,*,#419,.F.);
#583=ORIENTED_EDGE('',*,*,#420,.F.);
#584=ORIENTED_EDGE('',*,*,#404,.F.);
#585=ORIENTED_EDGE('',*,*,#421,.F.);
#586=ORIENTED_EDGE('',*,*,#422,.F.);
#587=ORIENTED_EDGE('',*,*,#419,.T.);
#588=ORIENTED_EDGE('',*,*,#408,.F.);
#589=ORIENTED_EDGE('',*,*,#396,.F.);
#590=ORIENTED_EDGE('',*,*,#423,.F.);
#591=ORIENTED_EDGE('',*,*,#421,.T.);
#592=ORIENTED_EDGE('',*,*,#403,.T.);
#593=ORIENTED_EDGE('',*,*,#424,.F.);
#594=ORIENTED_EDGE('',*,*,#417,.F.);
#595=ORIENTED_EDGE('',*,*,#425,.F.);
#596=ORIENTED_EDGE('',*,*,#426,.F.);
#597=ORIENTED_EDGE('',*,*,#424,.T.);
#598=ORIENTED_EDGE('',*,*,#402,.F.);
#599=ORIENTED_EDGE('',*,*,#399,.F.);
#600=ORIENTED_EDGE('',*,*,#427,.F.);
#601=ORIENTED_EDGE('',*,*,#425,.T.);
#602=ORIENTED_EDGE('',*,*,#416,.T.);
#603=ORIENTED_EDGE('',*,*,#428,.F.);
#604=ORIENTED_EDGE('',*,*,#406,.T.);
#605=ORIENTED_EDGE('',*,*,#418,.F.);
#606=ORIENTED_EDGE('',*,*,#429,.F.);
#607=ORIENTED_EDGE('',*,*,#430,.T.);
#608=ORIENTED_EDGE('',*,*,#431,.T.);
#609=ORIENTED_EDGE('',*,*,#410,.T.);
#610=ORIENTED_EDGE('',*,*,#413,.T.);
#611=ORIENTED_EDGE('',*,*,#409,.F.);
#612=ORIENTED_EDGE('',*,*,#411,.F.);
#613=ORIENTED_EDGE('',*,*,#431,.F.);
#614=ORIENTED_EDGE('',*,*,#432,.F.);
#615=ORIENTED_EDGE('',*,*,#433,.T.);
#616=ORIENTED_EDGE('',*,*,#414,.F.);
#617=ORIENTED_EDGE('',*,*,#433,.F.);
#618=ORIENTED_EDGE('',*,*,#434,.F.);
#619=ORIENTED_EDGE('',*,*,#435,.F.);
#620=ORIENTED_EDGE('',*,*,#428,.T.);
#621=ORIENTED_EDGE('',*,*,#415,.F.);
#622=ORIENTED_EDGE('',*,*,#429,.T.);
#623=ORIENTED_EDGE('',*,*,#420,.T.);
#624=ORIENTED_EDGE('',*,*,#422,.T.);
#625=ORIENTED_EDGE('',*,*,#423,.T.);
#626=ORIENTED_EDGE('',*,*,#426,.T.);
#627=ORIENTED_EDGE('',*,*,#427,.T.);
#628=ORIENTED_EDGE('',*,*,#435,.T.);
#629=ORIENTED_EDGE('',*,*,#436,.T.);
#630=ORIENTED_EDGE('',*,*,#339,.T.);
#631=ORIENTED_EDGE('',*,*,#436,.F.);
#632=ORIENTED_EDGE('',*,*,#434,.T.);
#633=ORIENTED_EDGE('',*,*,#432,.T.);
#634=ORIENTED_EDGE('',*,*,#430,.F.);
#635=PLANE('',#718);
#636=PLANE('',#722);
#637=PLANE('',#728);
#638=PLANE('',#729);
#639=PLANE('',#730);
#640=PLANE('',#731);
#641=PLANE('',#734);
#642=PLANE('',#737);
#643=PLANE('',#738);
#644=PLANE('',#739);
#645=PLANE('',#742);
#646=PLANE('',#743);
#647=PLANE('',#747);
#648=PLANE('',#749);
#649=PLANE('',#751);
#650=PLANE('',#753);
#651=PLANE('',#756);
#652=PLANE('',#757);
#653=PLANE('',#758);
#654=PLANE('',#761);
#655=PLANE('',#762);
#656=PLANE('',#764);
#657=PLANE('',#766);
#658=PLANE('',#768);
#659=PLANE('',#771);
#660=ADVANCED_FACE('',(#173),#635,.F.);
#661=ADVANCED_FACE('',(#174),#164,.T.);
#662=ADVANCED_FACE('',(#175),#42,.T.);
#663=ADVANCED_FACE('',(#176),#636,.T.);
#664=ADVANCED_FACE('',(#177),#43,.T.);
#665=ADVANCED_FACE('',(#178),#16,.F.);
#666=ADVANCED_FACE('',(#179),#637,.T.);
#667=ADVANCED_FACE('',(#180),#44,.T.);
#668=ADVANCED_FACE('',(#181),#638,.T.);
#669=ADVANCED_FACE('',(#182),#45,.T.);
#670=ADVANCED_FACE('',(#183),#639,.T.);
#671=ADVANCED_FACE('',(#184),#640,.T.);
#672=ADVANCED_FACE('',(#185),#165,.T.);
#673=ADVANCED_FACE('',(#186),#641,.T.);
#674=ADVANCED_FACE('',(#187),#166,.T.);
#675=ADVANCED_FACE('',(#188),#642,.T.);
#676=ADVANCED_FACE('',(#189),#643,.F.);
#677=ADVANCED_FACE('',(#190),#644,.T.);
#678=ADVANCED_FACE('',(#191),#645,.F.);
#679=ADVANCED_FACE('',(#192),#646,.T.);
#680=ADVANCED_FACE('',(#193),#167,.T.);
#681=ADVANCED_FACE('',(#194),#647,.T.);
#682=ADVANCED_FACE('',(#195),#168,.T.);
#683=ADVANCED_FACE('',(#196),#648,.T.);
#684=ADVANCED_FACE('',(#197),#649,.T.);
#685=ADVANCED_FACE('',(#198),#650,.F.);
#686=ADVANCED_FACE('',(#199),#169,.F.);
#687=ADVANCED_FACE('',(#200),#170,.F.);
#688=ADVANCED_FACE('',(#201),#651,.F.);
#689=ADVANCED_FACE('',(#202),#652,.F.);
#690=ADVANCED_FACE('',(#203),#653,.F.);
#691=ADVANCED_FACE('',(#204),#171,.F.);
#692=ADVANCED_FACE('',(#205),#172,.F.);
#693=ADVANCED_FACE('',(#206),#654,.F.);
#694=ADVANCED_FACE('',(#207),#655,.F.);
#695=ADVANCED_FACE('',(#208),#46,.F.);
#696=ADVANCED_FACE('',(#209),#656,.F.);
#697=ADVANCED_FACE('',(#210),#47,.F.);
#698=ADVANCED_FACE('',(#211),#657,.F.);
#699=ADVANCED_FACE('',(#212),#48,.F.);
#700=ADVANCED_FACE('',(#213),#658,.F.);
#701=ADVANCED_FACE('',(#214),#49,.F.);
#702=ADVANCED_FACE('',(#215,#15),#17,.T.);
#703=ADVANCED_FACE('',(#216),#659,.F.);
#704=CLOSED_SHELL('',(#660,#661,#662,#663,#664,#665,#666,#667,#668,#669,
#670,#671,#672,#673,#674,#675,#676,#677,#678,#679,#680,#681,#682,#683,#684,
#685,#686,#687,#688,#689,#690,#691,#692,#693,#694,#695,#696,#697,#698,#699,
#700,#701,#702,#703));
#705=DERIVED_UNIT_ELEMENT(#707,1.);
#706=DERIVED_UNIT_ELEMENT(#1572,-3.);
#707=(
MASS_UNIT()
NAMED_UNIT(*)
SI_UNIT(.KILO.,.GRAM.)
);
#708=DERIVED_UNIT((#705,#706));
#709=MEASURE_REPRESENTATION_ITEM('density measure',
POSITIVE_RATIO_MEASURE(7850.),#708);
#710=PROPERTY_DEFINITION_REPRESENTATION(#715,#712);
#711=PROPERTY_DEFINITION_REPRESENTATION(#716,#713);
#712=REPRESENTATION('material name',(#714),#1569);
#713=REPRESENTATION('density',(#709),#1569);
#714=DESCRIPTIVE_REPRESENTATION_ITEM('\X2\92FC\X0\','\X2\92FC\X0\');
#715=PROPERTY_DEFINITION('material property','material name',#1579);
#716=PROPERTY_DEFINITION('material property','density of part',#1579);
#717=AXIS2_PLACEMENT_3D('',#939,#772,#773);
#718=AXIS2_PLACEMENT_3D('',#940,#774,#775);
#719=AXIS2_PLACEMENT_3D('',#942,#776,#777);
#720=AXIS2_PLACEMENT_3D('',#943,#778,#779);
#721=AXIS2_PLACEMENT_3D('',#945,#780,#781);
#722=AXIS2_PLACEMENT_3D('',#1009,#785,#786);
#723=AXIS2_PLACEMENT_3D('',#1014,#789,#790);
#724=AXIS2_PLACEMENT_3D('',#1074,#792,#793);
#725=AXIS2_PLACEMENT_3D('',#1077,#794,#795);
#726=AXIS2_PLACEMENT_3D('',#1089,#796,#797);
#727=AXIS2_PLACEMENT_3D('',#1091,#798,#799);
#728=AXIS2_PLACEMENT_3D('',#1102,#800,#801);
#729=AXIS2_PLACEMENT_3D('',#1154,#805,#806);
#730=AXIS2_PLACEMENT_3D('',#1206,#810,#811);
#731=AXIS2_PLACEMENT_3D('',#1208,#813,#814);
#732=AXIS2_PLACEMENT_3D('',#1214,#818,#819);
#733=AXIS2_PLACEMENT_3D('',#1217,#821,#822);
#734=AXIS2_PLACEMENT_3D('',#1218,#823,#824);
#735=AXIS2_PLACEMENT_3D('',#1222,#827,#828);
#736=AXIS2_PLACEMENT_3D('',#1225,#830,#831);
#737=AXIS2_PLACEMENT_3D('',#1226,#832,#833);
#738=AXIS2_PLACEMENT_3D('',#1230,#836,#837);
#739=AXIS2_PLACEMENT_3D('',#1236,#841,#842);
#740=AXIS2_PLACEMENT_3D('',#1240,#844,#845);
#741=AXIS2_PLACEMENT_3D('',#1241,#846,#847);
#742=AXIS2_PLACEMENT_3D('',#1242,#848,#849);
#743=AXIS2_PLACEMENT_3D('',#1248,#853,#854);
#744=AXIS2_PLACEMENT_3D('',#1251,#856,#857);
#745=AXIS2_PLACEMENT_3D('',#1252,#858,#859);
#746=AXIS2_PLACEMENT_3D('',#1253,#860,#861);
#747=AXIS2_PLACEMENT_3D('',#1255,#863,#864);
#748=AXIS2_PLACEMENT_3D('',#1257,#866,#867);
#749=AXIS2_PLACEMENT_3D('',#1258,#868,#869);
#750=AXIS2_PLACEMENT_3D('',#1260,#870,#871);
#751=AXIS2_PLACEMENT_3D('',#1262,#873,#874);
#752=AXIS2_PLACEMENT_3D('',#1266,#876,#877);
#753=AXIS2_PLACEMENT_3D('',#1268,#879,#880);
#754=AXIS2_PLACEMENT_3D('',#1270,#882,#883);
#755=AXIS2_PLACEMENT_3D('',#1289,#886,#887);
#756=AXIS2_PLACEMENT_3D('',#1308,#890,#891);
#757=AXIS2_PLACEMENT_3D('',#1324,#893,#894);
#758=AXIS2_PLACEMENT_3D('',#1342,#897,#898);
#759=AXIS2_PLACEMENT_3D('',#1344,#900,#901);
#760=AXIS2_PLACEMENT_3D('',#1361,#903,#904);
#761=AXIS2_PLACEMENT_3D('',#1380,#907,#908);
#762=AXIS2_PLACEMENT_3D('',#1396,#910,#911);
#763=AXIS2_PLACEMENT_3D('',#1401,#914,#915);
#764=AXIS2_PLACEMENT_3D('',#1450,#917,#918);
#765=AXIS2_PLACEMENT_3D('',#1452,#919,#920);
#766=AXIS2_PLACEMENT_3D('',#1484,#923,#924);
#767=AXIS2_PLACEMENT_3D('',#1486,#925,#926);
#768=AXIS2_PLACEMENT_3D('',#1525,#929,#930);
#769=AXIS2_PLACEMENT_3D('',#1564,#933,#934);
#770=AXIS2_PLACEMENT_3D('',#1565,#935,#936);
#771=AXIS2_PLACEMENT_3D('',#1566,#937,#938);
#772=DIRECTION('axis',(0.,0.,1.));
#773=DIRECTION('refdir',(1.,0.,0.));
#774=DIRECTION('center_axis',(0.,0.,1.));
#775=DIRECTION('ref_axis',(1.,0.,0.));
#776=DIRECTION('center_axis',(0.,0.,-1.));
#777=DIRECTION('ref_axis',(1.,0.,0.));
#778=DIRECTION('center_axis',(0.,0.,1.));
#779=DIRECTION('ref_axis',(1.,0.,0.));
#780=DIRECTION('center_axis',(0.,0.,1.));
#781=DIRECTION('ref_axis',(1.,0.,0.));
#782=DIRECTION('',(0.,0.,-1.));
#783=DIRECTION('',(-0.72679921990897,0.226747562087012,-0.648342839111615));
#784=DIRECTION('',(-0.226747562079103,0.726799219910363,-0.64834283911282));
#785=DIRECTION('center_axis',(2.77555756156135E-17,0.943936607320459,0.330126765592161));
#786=DIRECTION('ref_axis',(0.726799219867858,0.226747562097746,-0.648342839153947));
#787=DIRECTION('',(0.726799219909464,0.226747562083145,-0.648342839112414));
#788=DIRECTION('',(1.,0.,-5.68252347857E-17));
#789=DIRECTION('center_axis',(1.1936208652452E-14,0.943936607312195,0.330126765615791));
#790=DIRECTION('ref_axis',(-0.0437686302071123,0.329810403264489,-0.943032027509304));
#791=DIRECTION('',(0.22674756208278,0.726799219909138,-0.648342839112907));
#792=DIRECTION('center_axis',(-0.707106781186548,0.707106781186548,-1.64143464338819E-16));
#793=DIRECTION('ref_axis',(0.0758854911588807,0.0758854911588806,-0.994224715274747));
#794=DIRECTION('center_axis',(-5.72385420278037E-11,-0.943935272921308,
0.33013058103571));
#795=DIRECTION('ref_axis',(0.0437686757787699,-0.329814214371321,-0.943030692511756));
#796=DIRECTION('center_axis',(0.943935280764719,1.13746699156566E-11,0.330130558609215));
#797=DIRECTION('ref_axis',(0.329814191966974,0.0437686755372903,-0.943030700358627));
#798=DIRECTION('center_axis',(-0.943935280749948,-1.13015666805602E-11,
0.330130558651448));
#799=DIRECTION('ref_axis',(-0.329814192009164,-0.0437686755376859,-0.943030700343854));
#800=DIRECTION('center_axis',(-0.943936607320459,0.,0.330126765592161));
#801=DIRECTION('ref_axis',(-0.226747562097746,0.726799219867858,-0.648342839153947));
#802=DIRECTION('',(-0.226747562083145,-0.726799219909464,-0.648342839112414));
#803=DIRECTION('',(1.13650469571E-16,1.,8.52378521785E-17));
#804=DIRECTION('',(-0.726799219909991,-0.226747562082499,-0.648342839112049));
#805=DIRECTION('center_axis',(2.77555756156135E-17,-0.943936607320459,0.330126765592161));
#806=DIRECTION('ref_axis',(-0.726799219878891,-0.226747562093892,-0.648342839142928));
#807=DIRECTION('',(-1.,0.,-8.52378521785E-17));
#808=DIRECTION('',(0.726799219908993,-0.226747562082998,-0.648342839112994));
#809=DIRECTION('',(0.226747562082499,-0.726799219909991,-0.648342839112049));
#810=DIRECTION('center_axis',(0.943936607320459,0.,0.330126765592161));
#811=DIRECTION('ref_axis',(0.226747562093892,-0.726799219878891,-0.648342839142928));
#812=DIRECTION('',(0.,-1.,1.13650469571E-16));
#813=DIRECTION('center_axis',(1.,0.,0.));
#814=DIRECTION('ref_axis',(0.,0.,-1.));
#815=DIRECTION('',(0.,0.,-1.));
#816=DIRECTION('',(0.,0.,-1.));
#817=DIRECTION('',(0.,1.,0.));
#818=DIRECTION('center_axis',(8.24793882469E-16,-8.24793882469E-16,1.));
#819=DIRECTION('ref_axis',(0.000194606478699031,-0.999999981064159,-8.24954377083954E-16));
#820=DIRECTION('',(0.,0.,1.));
#821=DIRECTION('center_axis',(1.03124959267108E-15,-1.03124959406707E-15,
1.));
#822=DIRECTION('ref_axis',(0.999999981063468,-0.000194610032030393,-8.53913792949922E-16));
#823=DIRECTION('center_axis',(0.,-1.,0.));
#824=DIRECTION('ref_axis',(0.,0.,-1.));
#825=DIRECTION('',(0.,0.,-1.));
#826=DIRECTION('',(1.,0.,0.));
#827=DIRECTION('center_axis',(-4.12396941234E-15,-4.12396941234E-15,1.));
#828=DIRECTION('ref_axis',(-0.999999981064159,-0.000194606478702031,-4.12477188541478E-15));
#829=DIRECTION('',(-3.5527136788E-15,-3.5527136788E-15,1.));
#830=DIRECTION('center_axis',(4.12499837068434E-15,4.12499837626828E-15,
-1.));
#831=DIRECTION('ref_axis',(-0.999999981063468,-0.000194610032030393,-4.26956896474961E-15));
#832=DIRECTION('center_axis',(-1.,0.,0.));
#833=DIRECTION('ref_axis',(0.,0.,-1.));
#834=DIRECTION('',(0.,0.,-1.));
#835=DIRECTION('',(0.,-1.,0.));
#836=DIRECTION('center_axis',(0.,0.,1.));
#837=DIRECTION('ref_axis',(1.,0.,0.));
#838=DIRECTION('',(-0.999999995266039,9.73032456939814E-5,0.));
#839=DIRECTION('',(0.,-1.,3.55160592158706E-17));
#840=DIRECTION('',(-0.999999995266039,-9.73032450261608E-5,0.));
#841=DIRECTION('center_axis',(0.,0.,-1.));
#842=DIRECTION('ref_axis',(-1.,0.,0.));
#843=DIRECTION('',(-9.73032452342399E-5,0.999999995266039,0.));
#844=DIRECTION('center_axis',(0.,0.,-1.));
#845=DIRECTION('ref_axis',(0.707106781186547,-0.707106781186547,5.83217347374303E-15));
#846=DIRECTION('center_axis',(4.12499838021857E-15,-4.12499838021857E-15,
-1.));
#847=DIRECTION('ref_axis',(-0.000194610032031247,0.999999981063468,-4.26956896474961E-15));
#848=DIRECTION('center_axis',(0.,0.,1.));
#849=DIRECTION('ref_axis',(1.,0.,0.));
#850=DIRECTION('',(-1.,7.10315435869388E-17,0.));
#851=DIRECTION('',(9.73032456939814E-5,0.999999995266039,0.));
#852=DIRECTION('',(-1.,0.,3.55160592158706E-17));
#853=DIRECTION('center_axis',(0.,0.,-1.));
#854=DIRECTION('ref_axis',(-1.,0.,0.));
#855=DIRECTION('',(0.999999995266039,9.73032452342399E-5,0.));
#856=DIRECTION('center_axis',(0.,0.,-1.));
#857=DIRECTION('ref_axis',(-0.707106781186547,-0.707106781186547,1.74965204212008E-15));
#858=DIRECTION('center_axis',(-1.03124959505464E-15,-1.03124959505464E-15,
-1.));
#859=DIRECTION('ref_axis',(0.999999981063468,0.000194610032030393,-8.53913792949922E-16));
#860=DIRECTION('center_axis',(1.06638728145E-15,1.40799436595E-15,1.));
#861=DIRECTION('ref_axis',(0.999999981064159,0.000194606478698031,-1.06666126608264E-15));
#862=DIRECTION('',(1.7763568394E-15,1.7763568394E-15,1.));
#863=DIRECTION('center_axis',(0.,1.,0.));
#864=DIRECTION('ref_axis',(0.,0.,-1.));
#865=DIRECTION('',(0.,0.,-1.));
#866=DIRECTION('center_axis',(-4.46557649684E-15,3.78236232784E-15,1.));
#867=DIRECTION('ref_axis',(-0.000194606478694031,0.999999981064159,-3.78323128633518E-15));
#868=DIRECTION('center_axis',(0.,0.,-1.));
#869=DIRECTION('ref_axis',(-1.,0.,0.));
#870=DIRECTION('center_axis',(0.,0.,-1.));
#871=DIRECTION('ref_axis',(0.707106781186547,0.707106781186547,5.83217347374303E-15));
#872=DIRECTION('',(-9.73032454855705E-5,-0.999999995266039,0.));
#873=DIRECTION('center_axis',(0.,0.,-1.));
#874=DIRECTION('ref_axis',(-1.,0.,0.));
#875=DIRECTION('',(9.73032452342399E-5,-0.999999995266039,0.));
#876=DIRECTION('center_axis',(0.,0.,1.));
#877=DIRECTION('ref_axis',(-0.707106781186547,0.707106781186547,1.16643469475002E-15));
#878=DIRECTION('',(0.999999995266039,-9.73032454855706E-5,0.));
#879=DIRECTION('center_axis',(0.,0.,1.));
#880=DIRECTION('ref_axis',(1.,0.,0.));
#881=DIRECTION('',(0.,1.,3.55160592368441E-17));
#882=DIRECTION('center_axis',(-4.46557649684E-15,3.78236232784E-15,1.));
#883=DIRECTION('ref_axis',(-0.707106781186547,0.707106781186548,-5.83217347374303E-15));
#884=DIRECTION('',(-3.99232584844E-15,3.99232584844E-15,1.));
#885=DIRECTION('',(-4.99040731055E-15,3.99232584844E-15,1.));
#886=DIRECTION('center_axis',(1.06638728145E-15,1.40799436595E-15,1.));
#887=DIRECTION('ref_axis',(0.707106781186548,0.707106781186547,-1.74965204212008E-15));
#888=DIRECTION('',(9.9808146211E-16,1.99616292422E-15,1.));
#889=DIRECTION('',(1.99616292422E-15,1.99616292422E-15,1.));
#890=DIRECTION('center_axis',(0.,1.,0.));
#891=DIRECTION('ref_axis',(0.,0.,-1.));
#892=DIRECTION('',(-1.,0.,0.));
#893=DIRECTION('center_axis',(-1.,0.,0.));
#894=DIRECTION('ref_axis',(0.,0.,-1.));
#895=DIRECTION('',(0.,-1.,0.));
#896=DIRECTION('',(0.,0.,-1.));
#897=DIRECTION('center_axis',(0.,0.,1.));
#898=DIRECTION('ref_axis',(1.,0.,0.));
#899=DIRECTION('',(1.,0.,3.55160592368441E-17));
#900=DIRECTION('center_axis',(-4.12396941234E-15,-4.12396941234E-15,1.));
#901=DIRECTION('ref_axis',(-0.707063808209335,-0.707149751552323,-5.83217346297355E-15));
#902=DIRECTION('',(-3.99232584844E-15,-3.99232584844E-15,1.));
#903=DIRECTION('center_axis',(8.24793882469E-16,-8.24793882469E-16,1.));
#904=DIRECTION('ref_axis',(0.707072556854886,-0.707141003861814,-1.16643469338384E-15));
#905=DIRECTION('',(0.,0.,1.));
#906=DIRECTION('',(0.,0.,1.));
#907=DIRECTION('center_axis',(1.,0.,0.));
#908=DIRECTION('ref_axis',(0.,0.,-1.));
#909=DIRECTION('',(0.,1.,0.));
#910=DIRECTION('center_axis',(-0.943936607320459,-2.77555756156135E-17,
0.330126765592161));
#911=DIRECTION('ref_axis',(-0.226747562097746,0.726799219867858,-0.648342839153947));
#912=DIRECTION('',(-0.226747562165196,-0.726799219910321,-0.648342839082757));
#913=DIRECTION('',(-0.226747562050245,0.726799219909668,-0.648342839123691));
#914=DIRECTION('center_axis',(0.943935142569773,-7.21436963049266E-13,-0.330130953746816));
#915=DIRECTION('ref_axis',(-0.329725464857597,0.0495482083924023,-0.94277573837554));
#916=DIRECTION('',(-0.726799219841365,0.226747562123266,-0.648342839174722));
#917=DIRECTION('center_axis',(0.,0.943936607320459,0.330126765592161));
#918=DIRECTION('ref_axis',(0.726799219867858,0.226747562097746,-0.648342839153947));
#919=DIRECTION('center_axis',(-5.40057113142021E-13,-0.943935143409349,
-0.330130951346236));
#920=DIRECTION('ref_axis',(0.0495482083611069,0.329725462460486,-0.942775739215548));
#921=DIRECTION('',(0.726799219935642,0.22674756187097,-0.648342839157273));
#922=DIRECTION('',(0.226747562159261,0.726799219931862,-0.648342839060684));
#923=DIRECTION('center_axis',(0.943936607320459,0.,0.330126765592161));
#924=DIRECTION('ref_axis',(0.226747562093892,-0.726799219878891,-0.648342839142928));
#925=DIRECTION('center_axis',(-0.94393514257758,1.39028180746012E-13,-0.330130953724494));
#926=DIRECTION('ref_axis',(0.329725464835275,-0.0495482083956702,-0.942775738383175));
#927=DIRECTION('',(0.226747562166295,-0.726799219909096,-0.648342839083746));
#928=DIRECTION('',(-0.726799219945281,-0.22674756215352,-0.64834283904765));
#929=DIRECTION('center_axis',(0.,-1.,0.));
#930=DIRECTION('ref_axis',(0.,0.,-1.));
#931=DIRECTION('',(1.,0.,0.));
#932=DIRECTION('',(0.726799219929623,-0.22674756215092,-0.648342839066111));
#933=DIRECTION('center_axis',(-0.707106781186548,0.707106781186548,-1.62920280032702E-16));
#934=DIRECTION('ref_axis',(1.09271404623814E-13,1.0916346076728E-13,-1.));
#935=DIRECTION('center_axis',(1.32756219431099E-13,0.943935143414905,-0.33013095133035));
#936=DIRECTION('ref_axis',(-0.0495482083633843,-0.329725462444601,-0.942775739220984));
#937=DIRECTION('center_axis',(2.77555756156135E-17,-0.943936607320459,0.330126765592161));
#938=DIRECTION('ref_axis',(-0.726799219878891,-0.226747562093892,-0.648342839142928));
#939=CARTESIAN_POINT('',(0.,0.,0.));
#940=CARTESIAN_POINT('Origin',(0.,0.,-1.));
#941=CARTESIAN_POINT('',(-2.8,-3.42901103761259E-16,-1.));
#942=CARTESIAN_POINT('Origin',(0.,0.,-1.));
#943=CARTESIAN_POINT('Origin',(0.,0.,0.));
#944=CARTESIAN_POINT('',(-2.8,-3.42901103761259E-16,3.65495240564799));
#945=CARTESIAN_POINT('Origin',(0.,0.,3.65495240564799));
#946=CARTESIAN_POINT('',(-2.8,-3.42901103761259E-16,0.));
#947=CARTESIAN_POINT('Ctrl Pts',(-3.6,7.8,4.76));
#948=CARTESIAN_POINT('Ctrl Pts',(-4.91946891451,7.8,4.76));
#949=CARTESIAN_POINT('Ctrl Pts',(-6.24016890212,7.28333698301,4.76));
#950=CARTESIAN_POINT('Ctrl Pts',(-7.28333698301,6.24016890212,4.76));
#951=CARTESIAN_POINT('Ctrl Pts',(-7.8,4.91946891451,4.76));
#952=CARTESIAN_POINT('Ctrl Pts',(-7.8,3.6,4.76));
#953=CARTESIAN_POINT('Ctrl Pts',(-4.44300000003,8.06299999971,4.007999999975));
#954=CARTESIAN_POINT('Ctrl Pts',(-5.58025654047,8.06300000001,4.007999999975));
#955=CARTESIAN_POINT('Ctrl Pts',(-6.71857414899,7.61768568522,4.007999999975));
#956=CARTESIAN_POINT('Ctrl Pts',(-7.61768568522,6.71857414899,4.007999999974));
#957=CARTESIAN_POINT('Ctrl Pts',(-8.06300000001,5.58025654047,4.007999999975));
#958=CARTESIAN_POINT('Ctrl Pts',(-8.0630000003,4.44300000003,4.007999999975));
#959=CARTESIAN_POINT('Ctrl Pts',(-5.28600000006,8.32599999943,3.25599999995));
#960=CARTESIAN_POINT('Ctrl Pts',(-6.24104416644,8.32600000002,3.25599999995));
#961=CARTESIAN_POINT('Ctrl Pts',(-7.19697939585,7.95203438743,3.25599999995));
#962=CARTESIAN_POINT('Ctrl Pts',(-7.95203438743,7.19697939585,3.25599999995));
#963=CARTESIAN_POINT('Ctrl Pts',(-8.32600000002,6.24104416644,3.25599999995));
#964=CARTESIAN_POINT('Ctrl Pts',(-8.32600000061,5.28600000006,3.25599999995));
#965=CARTESIAN_POINT('Ctrl Pts',(-6.12899999992,8.58899999996,2.50399999992));
#966=CARTESIAN_POINT('Ctrl Pts',(-6.90183179273,8.58899999939,2.50399999992));
#967=CARTESIAN_POINT('Ctrl Pts',(-7.67538464262,8.28638308825,2.50399999992));
#968=CARTESIAN_POINT('Ctrl Pts',(-8.28638308942,7.67538464204,2.50399999992));
#969=CARTESIAN_POINT('Ctrl Pts',(-8.58899999939,6.90183179273,2.50399999992));
#970=CARTESIAN_POINT('Ctrl Pts',(-8.58900000056,6.12899999992,2.50399999992));
#971=CARTESIAN_POINT('Ctrl Pts',(-6.97199999996,8.85199999998,1.75199999996));
#972=CARTESIAN_POINT('Ctrl Pts',(-7.56261941885,8.85199999969,1.75199999996));
#973=CARTESIAN_POINT('Ctrl Pts',(-8.15378988949,8.62073179149,1.75199999996));
#974=CARTESIAN_POINT('Ctrl Pts',(-8.62073179208,8.15378988921,1.75199999996));
#975=CARTESIAN_POINT('Ctrl Pts',(-8.85199999969,7.56261941885,1.75199999996));
#976=CARTESIAN_POINT('Ctrl Pts',(-8.85200000028,6.97199999996,1.75199999996));
#977=CARTESIAN_POINT('Ctrl Pts',(-7.815,9.115,1.));
#978=CARTESIAN_POINT('Ctrl Pts',(-8.22340704497,9.115,1.));
#979=CARTESIAN_POINT('Ctrl Pts',(-8.63219513637,8.95508049474,1.));
#980=CARTESIAN_POINT('Ctrl Pts',(-8.95508049474,8.63219513637,1.));
#981=CARTESIAN_POINT('Ctrl Pts',(-9.115,8.22340704497,1.));
#982=CARTESIAN_POINT('Ctrl Pts',(-9.115,7.815,1.));
#983=CARTESIAN_POINT('',(-3.67555769743,7.82357256804,4.692598589742));
#984=CARTESIAN_POINT('',(-7.81499489276202,9.11496792637754,1.00009168057995));
#985=CARTESIAN_POINT('',(-3.6755576979,7.82357256765,4.6925985897706));
#986=CARTESIAN_POINT('',(-9.11496815676818,7.81499027043571,1.00009102202231));
#987=CARTESIAN_POINT('Ctrl Pts',(-7.81497102077911,9.11490514844382,1.00027112764363));
#988=CARTESIAN_POINT('Ctrl Pts',(-7.98705051745189,9.11487549369445,1.00025218140804));
#989=CARTESIAN_POINT('Ctrl Pts',(-8.15742819456439,9.08068334063013,1.00033458494161));
#990=CARTESIAN_POINT('Ctrl Pts',(-8.4724131323856,8.94901020342217,1.00026032659852));
#991=CARTESIAN_POINT('Ctrl Pts',(-8.61437594917601,8.85381934281962,1.00019906054468));
#992=CARTESIAN_POINT('Ctrl Pts',(-8.85381934281963,8.614375949176,1.00019906054471));
#993=CARTESIAN_POINT('Ctrl Pts',(-8.94901020342218,8.47241313238558,1.00026032659858));
#994=CARTESIAN_POINT('Ctrl Pts',(-9.08068336077882,8.15742814636521,1.00033458495311));
#995=CARTESIAN_POINT('Ctrl Pts',(-9.11487549400419,7.98705046296181,1.00025218141136));
#996=CARTESIAN_POINT('Ctrl Pts',(-9.11490514844421,7.81497101850983,1.00027112764419));
#997=CARTESIAN_POINT('',(-7.82357256771,3.67555769794,4.6925985897347));
#998=CARTESIAN_POINT('',(-7.82357256771,3.67555769794,4.6925985897347));
#999=CARTESIAN_POINT('Ctrl Pts',(-7.82357256771206,3.67555769794319,4.69259858973449));
#1000=CARTESIAN_POINT('Ctrl Pts',(-7.81617311411637,4.18716832709291,4.71375596269966));
#1001=CARTESIAN_POINT('Ctrl Pts',(-7.70730702411663,4.69314238775711,4.73002866714088));
#1002=CARTESIAN_POINT('Ctrl Pts',(-7.29333615909668,5.6906846126334,4.75377703173917));
#1003=CARTESIAN_POINT('Ctrl Pts',(-6.9713511486741,6.16818789443571,4.75998794827347));
#1004=CARTESIAN_POINT('Ctrl Pts',(-6.16818827775572,6.97135085341922,4.7599879518122));
#1005=CARTESIAN_POINT('Ctrl Pts',(-5.69068502853429,7.29333591751025,4.7537770387468));
#1006=CARTESIAN_POINT('Ctrl Pts',(-4.69314270025472,7.70730695674571,4.73002867719378));
#1007=CARTESIAN_POINT('Ctrl Pts',(-4.18716848569689,7.81617311180808,4.71375596925737));
#1008=CARTESIAN_POINT('Ctrl Pts',(-3.67555769795002,7.82357256766077,4.69259858973012));
#1009=CARTESIAN_POINT('Origin',(5.99520433298E-15,8.4575,2.88));
#1010=CARTESIAN_POINT('',(3.67555769794,7.82357256771,4.6925985897347));
#1011=CARTESIAN_POINT('',(7.81499391608029,9.11489108598711,1.00009138505037));
#1012=CARTESIAN_POINT('',(5.74527884897,8.46928628384,2.84629929487));
#1013=CARTESIAN_POINT('',(1.15463194561E-14,9.115,1.));
#1014=CARTESIAN_POINT('Origin',(-1.55736590290445E-9,-19.8729114282051,
83.8855870430916));
#1015=CARTESIAN_POINT('Ctrl Pts',(7.8,3.6,4.76));
#1016=CARTESIAN_POINT('Ctrl Pts',(7.8,4.91946891451,4.76));
#1017=CARTESIAN_POINT('Ctrl Pts',(7.28333698301,6.24016890212,4.76));
#1018=CARTESIAN_POINT('Ctrl Pts',(6.24016890212,7.28333698301,4.76));
#1019=CARTESIAN_POINT('Ctrl Pts',(4.91946891451,7.8,4.76));
#1020=CARTESIAN_POINT('Ctrl Pts',(3.6,7.8,4.76));
#1021=CARTESIAN_POINT('Ctrl Pts',(8.06300000001,4.44300000003,4.007999999975));
#1022=CARTESIAN_POINT('Ctrl Pts',(8.06300000001,5.58025654047,4.007999999975));
#1023=CARTESIAN_POINT('Ctrl Pts',(7.61768568522,6.71857414899,4.007999999975));
#1024=CARTESIAN_POINT('Ctrl Pts',(6.71857414899,7.61768568522,4.007999999975));
#1025=CARTESIAN_POINT('Ctrl Pts',(5.58025654047,8.06300000001,4.007999999975));
#1026=CARTESIAN_POINT('Ctrl Pts',(4.44300000003,8.0630000003,4.007999999975));
#1027=CARTESIAN_POINT('Ctrl Pts',(8.32600000002,5.28600000006,3.25599999995));
#1028=CARTESIAN_POINT('Ctrl Pts',(8.32600000002,6.24104416644,3.25599999995));
#1029=CARTESIAN_POINT('Ctrl Pts',(7.95203438743,7.19697939585,3.25599999995));
#1030=CARTESIAN_POINT('Ctrl Pts',(7.19697939585,7.95203438743,3.25599999995));
#1031=CARTESIAN_POINT('Ctrl Pts',(6.24104416644,8.32600000002,3.25599999995));
#1032=CARTESIAN_POINT('Ctrl Pts',(5.28600000006,8.32600000061,3.25599999995));
#1033=CARTESIAN_POINT('Ctrl Pts',(8.58900000056,6.12899999992,2.50399999992));
#1034=CARTESIAN_POINT('Ctrl Pts',(8.58900000056,6.90183179273,2.50399999992));
#1035=CARTESIAN_POINT('Ctrl Pts',(8.28638308942,7.67538464262,2.50399999992));
#1036=CARTESIAN_POINT('Ctrl Pts',(7.67538464262,8.28638308885,2.50399999992));
#1037=CARTESIAN_POINT('Ctrl Pts',(6.90183179273,8.58899999939,2.50399999992));
#1038=CARTESIAN_POINT('Ctrl Pts',(6.12899999992,8.58899999939,2.50399999992));
#1039=CARTESIAN_POINT('Ctrl Pts',(8.85200000028,6.97199999996,1.75199999996));
#1040=CARTESIAN_POINT('Ctrl Pts',(8.85200000028,7.56261941885,1.75199999996));
#1041=CARTESIAN_POINT('Ctrl Pts',(8.62073179208,8.15378988949,1.75199999996));
#1042=CARTESIAN_POINT('Ctrl Pts',(8.15378988949,8.62073179179,1.75199999996));
#1043=CARTESIAN_POINT('Ctrl Pts',(7.56261941885,8.85199999969,1.75199999996));
#1044=CARTESIAN_POINT('Ctrl Pts',(6.97199999996,8.85199999969,1.75199999996));
#1045=CARTESIAN_POINT('Ctrl Pts',(9.115,7.815,1.));
#1046=CARTESIAN_POINT('Ctrl Pts',(9.115,8.22340704497,1.));
#1047=CARTESIAN_POINT('Ctrl Pts',(8.95508049474,8.63219513637,1.));
#1048=CARTESIAN_POINT('Ctrl Pts',(8.63219513637,8.95508049474,1.));
#1049=CARTESIAN_POINT('Ctrl Pts',(8.22340704497,9.115,1.));
#1050=CARTESIAN_POINT('Ctrl Pts',(7.815,9.115,1.));
#1051=CARTESIAN_POINT('',(7.82357256752,3.67555769757,4.6925985897017));
#1052=CARTESIAN_POINT('',(9.11496792633061,7.81499489233322,1.00009168071466));
#1053=CARTESIAN_POINT('',(7.82357256769,3.67555769795,4.6925985897325));
#1054=CARTESIAN_POINT('Ctrl Pts',(9.1149051484442,7.81497101850983,1.0002711276442));
#1055=CARTESIAN_POINT('Ctrl Pts',(9.11487549400418,7.9870504629618,1.00025218141162));
#1056=CARTESIAN_POINT('Ctrl Pts',(9.08068336077883,8.15742814636518,1.0003345849533));
#1057=CARTESIAN_POINT('Ctrl Pts',(8.9490102034222,8.47241313238554,1.00026032659869));
#1058=CARTESIAN_POINT('Ctrl Pts',(8.85381934281965,8.61437594917598,1.00019906054478));
#1059=CARTESIAN_POINT('Ctrl Pts',(8.61437594917602,8.85381934281961,1.00019906054474));
#1060=CARTESIAN_POINT('Ctrl Pts',(8.47241313238563,8.94901020342215,1.00026032659858));
#1061=CARTESIAN_POINT('Ctrl Pts',(8.1574271723169,9.0806837679602,1.00033458518259));
#1062=CARTESIAN_POINT('Ctrl Pts',(7.98704837247521,9.11487591353074,1.00025217786035));
#1063=CARTESIAN_POINT('Ctrl Pts',(7.81496785146054,9.11490514898613,1.00027112799232));
#1064=CARTESIAN_POINT('Ctrl Pts',(3.67555769794322,7.823572567712,4.69259858973448));
#1065=CARTESIAN_POINT('Ctrl Pts',(4.18716834086688,7.81617311391718,4.71375596326927));
#1066=CARTESIAN_POINT('Ctrl Pts',(4.69314241489542,7.70730701826665,4.73002866801396));
#1067=CARTESIAN_POINT('Ctrl Pts',(5.690684648764,7.29333613811123,4.75377703234801));
#1068=CARTESIAN_POINT('Ctrl Pts',(6.16818792773947,6.97135112300989,4.75998794858814));
#1069=CARTESIAN_POINT('Ctrl Pts',(6.97135087903782,6.16818824448066,4.75998795151223));
#1070=CARTESIAN_POINT('Ctrl Pts',(7.29333593848542,5.69068499242759,4.75377703813847));
#1071=CARTESIAN_POINT('Ctrl Pts',(7.70730696259856,4.69314267311848,4.73002867632107));
#1072=CARTESIAN_POINT('Ctrl Pts',(7.81617311201411,4.18716847192784,4.71375596868858));
#1073=CARTESIAN_POINT('Ctrl Pts',(7.82357256768679,3.67555769794995,4.69259858973248));
#1074=CARTESIAN_POINT('Origin',(0.,8.881784197E-16,90.8358181262));
#1075=CARTESIAN_POINT('',(-3.67555769794,-7.82357256769,4.6925985897322));
#1076=CARTESIAN_POINT('',(3.67555769795,-7.82357256769,4.6925985897325));
#1077=CARTESIAN_POINT('Origin',(1.20705168082935E-9,19.8732026344721,83.8853924763076));
#1078=CARTESIAN_POINT('',(7.82357256769,-3.67555769794,4.6925985897322));
#1079=CARTESIAN_POINT('Ctrl Pts',(7.82357256768693,-3.67555769794057,4.69259858973209));
#1080=CARTESIAN_POINT('Ctrl Pts',(7.81617311584201,-4.18716820728515,4.71375595774441));
#1081=CARTESIAN_POINT('Ctrl Pts',(7.70730707499392,-4.69314215171375,4.7300286595466));
#1082=CARTESIAN_POINT('Ctrl Pts',(7.29333634158432,-5.69068429847504,4.75377702644595));
#1083=CARTESIAN_POINT('Ctrl Pts',(6.97135137169788,-6.16818760488984,4.75998794560093));
#1084=CARTESIAN_POINT('Ctrl Pts',(6.16818856730368,-6.97135063039207,4.75998795448576));
#1085=CARTESIAN_POINT('Ctrl Pts',(5.69068534269434,-7.29333573502182,4.75377704404003));
#1086=CARTESIAN_POINT('Ctrl Pts',(4.69314293630385,-7.70730690586581,4.73002868478816));
#1087=CARTESIAN_POINT('Ctrl Pts',(4.18716860550746,-7.81617311008214,4.71375597421269));
#1088=CARTESIAN_POINT('Ctrl Pts',(3.67555769794995,-7.82357256768679,4.69259858973248));
#1089=CARTESIAN_POINT('Origin',(-19.8732009183267,-2.41954234425634E-10,
83.8853936063804));
#1090=CARTESIAN_POINT('',(-7.82357256752,-3.67555769757,4.6925985897018));
#1091=CARTESIAN_POINT('Origin',(19.8732009215679,2.35118036151505E-10,83.8853936042769));
#1092=CARTESIAN_POINT('Ctrl Pts',(-7.82357256768679,-3.67555769794995,4.69259858973248));
#1093=CARTESIAN_POINT('Ctrl Pts',(-7.81617311559066,-4.18716822463908,4.71375595846209));
#1094=CARTESIAN_POINT('Ctrl Pts',(-7.70730706762486,-4.69314218589758,4.73002866064636));
#1095=CARTESIAN_POINT('Ctrl Pts',(-7.2933363151548,-5.69068434397764,4.75377702721271));
#1096=CARTESIAN_POINT('Ctrl Pts',(-6.97135133938067,-6.16818764683107,4.75998794599525));
#1097=CARTESIAN_POINT('Ctrl Pts',(-6.1681885253914,-6.97135066266364,4.75998795410595));
#1098=CARTESIAN_POINT('Ctrl Pts',(-5.69068529721565,-7.29333576144124,4.75377704327384));
#1099=CARTESIAN_POINT('Ctrl Pts',(-4.69314290212088,-7.70730691323467,4.73002868368844));
#1100=CARTESIAN_POINT('Ctrl Pts',(-4.18716858815397,-7.81617311033348,4.71375597349502));
#1101=CARTESIAN_POINT('Ctrl Pts',(-3.67555769794057,-7.82357256768693,4.69259858973209));
#1102=CARTESIAN_POINT('Origin',(-8.4575,-2.22044604925E-15,2.88));
#1103=CARTESIAN_POINT('',(-9.11489108578517,-7.81499391658648,1.00009138497249));
#1104=CARTESIAN_POINT('',(-8.46928628384,-5.74527884897,2.84629929487));
#1105=CARTESIAN_POINT('',(-9.115,-4.4408920985E-15,1.));
#1106=CARTESIAN_POINT('Ctrl Pts',(-7.8,-3.6,4.76));
#1107=CARTESIAN_POINT('Ctrl Pts',(-7.8,-4.91946891451,4.76));
#1108=CARTESIAN_POINT('Ctrl Pts',(-7.28333698301,-6.24016890212,4.76));
#1109=CARTESIAN_POINT('Ctrl Pts',(-6.24016890212,-7.28333698301,4.76));
#1110=CARTESIAN_POINT('Ctrl Pts',(-4.91946891451,-7.8,4.76));
#1111=CARTESIAN_POINT('Ctrl Pts',(-3.6,-7.8,4.76));
#1112=CARTESIAN_POINT('Ctrl Pts',(-8.06300000001,-4.44300000003,4.007999999975));
#1113=CARTESIAN_POINT('Ctrl Pts',(-8.06300000001,-5.58025654047,4.007999999975));
#1114=CARTESIAN_POINT('Ctrl Pts',(-7.61768568522,-6.71857414899,4.007999999975));
#1115=CARTESIAN_POINT('Ctrl Pts',(-6.71857414899,-7.61768568522,4.007999999975));
#1116=CARTESIAN_POINT('Ctrl Pts',(-5.58025654047,-8.06300000001,4.007999999975));
#1117=CARTESIAN_POINT('Ctrl Pts',(-4.44299999995,-8.06300000001,4.007999999975));
#1118=CARTESIAN_POINT('Ctrl Pts',(-8.32600000002,-5.28600000006,3.25599999995));
#1119=CARTESIAN_POINT('Ctrl Pts',(-8.32600000002,-6.24104416644,3.25599999995));
#1120=CARTESIAN_POINT('Ctrl Pts',(-7.95203438743,-7.19697939585,3.25599999995));
#1121=CARTESIAN_POINT('Ctrl Pts',(-7.19697939585,-7.95203438743,3.25599999995));
#1122=CARTESIAN_POINT('Ctrl Pts',(-6.24104416644,-8.32600000002,3.25599999995));
#1123=CARTESIAN_POINT('Ctrl Pts',(-5.28599999991,-8.32600000002,3.25599999995));
#1124=CARTESIAN_POINT('Ctrl Pts',(-8.58900000056,-6.12899999992,2.50399999992));
#1125=CARTESIAN_POINT('Ctrl Pts',(-8.58900000056,-6.90183179273,2.50399999992));
#1126=CARTESIAN_POINT('Ctrl Pts',(-8.28638309002,-7.67538464262,2.50399999992));
#1127=CARTESIAN_POINT('Ctrl Pts',(-7.67538464262,-8.28638308942,2.50399999992));
#1128=CARTESIAN_POINT('Ctrl Pts',(-6.90183179273,-8.58900000056,2.50399999992));
#1129=CARTESIAN_POINT('Ctrl Pts',(-6.12899999992,-8.58900000056,2.50399999992));
#1130=CARTESIAN_POINT('Ctrl Pts',(-8.85200000028,-6.97199999996,1.75199999996));
#1131=CARTESIAN_POINT('Ctrl Pts',(-8.85200000028,-7.56261941885,1.75199999996));
#1132=CARTESIAN_POINT('Ctrl Pts',(-8.62073179238,-8.15378988949,1.75199999996));
#1133=CARTESIAN_POINT('Ctrl Pts',(-8.15378988949,-8.62073179208,1.75199999996));
#1134=CARTESIAN_POINT('Ctrl Pts',(-7.56261941885,-8.85200000028,1.75199999996));
#1135=CARTESIAN_POINT('Ctrl Pts',(-6.97199999996,-8.85200000028,1.75199999996));
#1136=CARTESIAN_POINT('Ctrl Pts',(-9.115,-7.815,1.));
#1137=CARTESIAN_POINT('Ctrl Pts',(-9.115,-8.22340704497,1.));
#1138=CARTESIAN_POINT('Ctrl Pts',(-8.95508049474,-8.63219513637,1.));
#1139=CARTESIAN_POINT('Ctrl Pts',(-8.63219513637,-8.95508049474,1.));
#1140=CARTESIAN_POINT('Ctrl Pts',(-8.22340704497,-9.115,1.));
#1141=CARTESIAN_POINT('Ctrl Pts',(-7.815,-9.115,1.));
#1142=CARTESIAN_POINT('',(-7.81499027043571,-9.11496815676818,1.00009102202231));
#1143=CARTESIAN_POINT('Ctrl Pts',(-9.11490514898574,-7.81496785373006,1.00027112799267));
#1144=CARTESIAN_POINT('Ctrl Pts',(-9.1148759132211,-7.98704842696608,1.00025217785736));
#1145=CARTESIAN_POINT('Ctrl Pts',(-9.08068374781127,-8.15742722051661,1.00033458517161));
#1146=CARTESIAN_POINT('Ctrl Pts',(-8.9490102034222,-8.47241313238555,1.00026032659875));
#1147=CARTESIAN_POINT('Ctrl Pts',(-8.85381934281965,-8.61437594917599,1.00019906054483));
#1148=CARTESIAN_POINT('Ctrl Pts',(-8.61437594917599,-8.85381934281964,1.00019906054482));
#1149=CARTESIAN_POINT('Ctrl Pts',(-8.47241313238556,-8.94901020342219,1.00026032659872));
#1150=CARTESIAN_POINT('Ctrl Pts',(-8.1574281463652,-9.08068336077883,1.0003345849533));
#1151=CARTESIAN_POINT('Ctrl Pts',(-7.98705046296181,-9.11487549400418,1.00025218141162));
#1152=CARTESIAN_POINT('Ctrl Pts',(-7.81497101850983,-9.11490514844421,1.00027112764419));
#1153=CARTESIAN_POINT('',(-3.67555769794,-7.82357256769,4.6925985897322));
#1154=CARTESIAN_POINT('Origin',(2.6645352591E-15,-8.4575,2.88));
#1155=CARTESIAN_POINT('',(7.8149939165863,-9.11489108578525,1.00009138497251));
#1156=CARTESIAN_POINT('',(6.2172489379E-15,-9.115,1.));
#1157=CARTESIAN_POINT('',(5.74527884895,-8.46928628384,2.84629929489));
#1158=CARTESIAN_POINT('Ctrl Pts',(3.6,-7.8,4.76));
#1159=CARTESIAN_POINT('Ctrl Pts',(4.91946891451,-7.8,4.76));
#1160=CARTESIAN_POINT('Ctrl Pts',(6.24016890212,-7.28333698301,4.76));
#1161=CARTESIAN_POINT('Ctrl Pts',(7.28333698301,-6.24016890212,4.76));
#1162=CARTESIAN_POINT('Ctrl Pts',(7.8,-4.91946891451,4.76));
#1163=CARTESIAN_POINT('Ctrl Pts',(7.8,-3.6,4.76));
#1164=CARTESIAN_POINT('Ctrl Pts',(4.44300000003,-8.06300000001,4.007999999975));
#1165=CARTESIAN_POINT('Ctrl Pts',(5.58025654047,-8.06300000001,4.007999999975));
#1166=CARTESIAN_POINT('Ctrl Pts',(6.71857414899,-7.61768568522,4.007999999975));
#1167=CARTESIAN_POINT('Ctrl Pts',(7.61768568522,-6.71857414899,4.007999999975));
#1168=CARTESIAN_POINT('Ctrl Pts',(8.06300000001,-5.58025654047,4.007999999975));
#1169=CARTESIAN_POINT('Ctrl Pts',(8.06300000001,-4.44299999995,4.007999999975));
#1170=CARTESIAN_POINT('Ctrl Pts',(5.28600000006,-8.32600000002,3.25599999995));
#1171=CARTESIAN_POINT('Ctrl Pts',(6.24104416644,-8.32600000002,3.25599999995));
#1172=CARTESIAN_POINT('Ctrl Pts',(7.19697939585,-7.95203438743,3.25599999995));
#1173=CARTESIAN_POINT('Ctrl Pts',(7.95203438743,-7.19697939585,3.25599999995));
#1174=CARTESIAN_POINT('Ctrl Pts',(8.32600000002,-6.24104416644,3.25599999995));
#1175=CARTESIAN_POINT('Ctrl Pts',(8.32600000002,-5.28599999991,3.25599999995));
#1176=CARTESIAN_POINT('Ctrl Pts',(6.12899999992,-8.58900000056,2.50399999978));
#1177=CARTESIAN_POINT('Ctrl Pts',(6.9018317933,-8.58900000056,2.50399999992));
#1178=CARTESIAN_POINT('Ctrl Pts',(7.67538464204,-8.28638308942,2.50399999992));
#1179=CARTESIAN_POINT('Ctrl Pts',(8.28638308942,-7.67538464262,2.50399999992));
#1180=CARTESIAN_POINT('Ctrl Pts',(8.58900000056,-6.90183179273,2.50399999992));
#1181=CARTESIAN_POINT('Ctrl Pts',(8.58900000056,-6.12899999992,2.50399999992));
#1182=CARTESIAN_POINT('Ctrl Pts',(6.97199999996,-8.85200000028,1.75199999989));
#1183=CARTESIAN_POINT('Ctrl Pts',(7.56261941914,-8.85200000028,1.75199999996));
#1184=CARTESIAN_POINT('Ctrl Pts',(8.15378988921,-8.62073179208,1.75199999996));
#1185=CARTESIAN_POINT('Ctrl Pts',(8.62073179208,-8.15378988949,1.75199999996));
#1186=CARTESIAN_POINT('Ctrl Pts',(8.85200000028,-7.56261941885,1.75199999996));
#1187=CARTESIAN_POINT('Ctrl Pts',(8.85200000028,-6.97199999996,1.75199999996));
#1188=CARTESIAN_POINT('Ctrl Pts',(7.815,-9.115,1.));
#1189=CARTESIAN_POINT('Ctrl Pts',(8.22340704497,-9.115,1.));
#1190=CARTESIAN_POINT('Ctrl Pts',(8.63219513637,-8.95508049474,1.));
#1191=CARTESIAN_POINT('Ctrl Pts',(8.95508049474,-8.63219513637,1.));
#1192=CARTESIAN_POINT('Ctrl Pts',(9.115,-8.22340704497,1.));
#1193=CARTESIAN_POINT('Ctrl Pts',(9.115,-7.815,1.));
#1194=CARTESIAN_POINT('',(9.11496815676817,-7.81499027043571,1.00009102202232));
#1195=CARTESIAN_POINT('Ctrl Pts',(7.81496785372924,-9.11490514898574,1.00027112799265));
#1196=CARTESIAN_POINT('Ctrl Pts',(7.98704842696554,-9.1148759132212,1.00025217785735));
#1197=CARTESIAN_POINT('Ctrl Pts',(8.15742722051637,-9.08068374781136,1.00033458517158));
#1198=CARTESIAN_POINT('Ctrl Pts',(8.47241313238556,-8.94901020342219,1.00026032659871));
#1199=CARTESIAN_POINT('Ctrl Pts',(8.61437594917599,-8.85381934281964,1.0001990605448));
#1200=CARTESIAN_POINT('Ctrl Pts',(8.85381934281963,-8.614375949176,1.00019906054479));
#1201=CARTESIAN_POINT('Ctrl Pts',(8.94901020342219,-8.47241313238556,1.00026032659869));
#1202=CARTESIAN_POINT('Ctrl Pts',(9.08068336077883,-8.15742814636519,1.00033458495329));
#1203=CARTESIAN_POINT('Ctrl Pts',(9.11487549400418,-7.9870504629618,1.00025218141162));
#1204=CARTESIAN_POINT('Ctrl Pts',(9.1149051484442,-7.81497101850983,1.00027112764419));
#1205=CARTESIAN_POINT('',(7.82357256769,-3.67555769794,4.6925985897322));
#1206=CARTESIAN_POINT('Origin',(8.4575,-2.6645352591E-15,2.88));
#1207=CARTESIAN_POINT('',(9.115,4.4408920985E-15,1.));
#1208=CARTESIAN_POINT('Origin',(9.115,6.43929354283E-15,0.5));
#1209=CARTESIAN_POINT('',(9.11499999999545,7.815,0.));
#1210=CARTESIAN_POINT('',(9.115,7.815,0.5));
#1211=CARTESIAN_POINT('',(9.11499999999545,-7.815,0.));
#1212=CARTESIAN_POINT('',(9.115,-7.815,0.5));
#1213=CARTESIAN_POINT('',(9.115,7.1054273576E-15,0.));
#1214=CARTESIAN_POINT('Origin',(7.81474696233,-7.81474696233,0.5));
#1215=CARTESIAN_POINT('',(7.81499998154,-9.1149051431314,0.));
#1216=CARTESIAN_POINT('',(7.81499998154,-9.11490514313,0.5));
#1217=CARTESIAN_POINT('Origin',(7.81474696233,-7.81474696233,1.11022302462516E-15));
#1218=CARTESIAN_POINT('Origin',(-5.55111512313E-15,-9.115,0.5));
#1219=CARTESIAN_POINT('',(-7.815,-9.11499999999545,0.));
#1220=CARTESIAN_POINT('',(-7.815,-9.115,0.5));
#1221=CARTESIAN_POINT('',(-3.28626015289E-14,-9.115,0.));
#1222=CARTESIAN_POINT('Origin',(-7.81474696233,-7.81474696233,0.5));
#1223=CARTESIAN_POINT('',(-9.1149051431314,-7.81499998154,0.));
#1224=CARTESIAN_POINT('',(-9.11490514313,-7.81499998154,0.5));
#1225=CARTESIAN_POINT('Origin',(-7.81474696233,-7.81474696233,5.55111512312578E-15));
#1226=CARTESIAN_POINT('Origin',(-9.115,4.4408920985E-15,0.5));
#1227=CARTESIAN_POINT('',(-9.11499999999545,7.815,0.));
#1228=CARTESIAN_POINT('',(-9.115,7.815,0.5));
#1229=CARTESIAN_POINT('',(-9.115,7.1054273576E-15,0.));
#1230=CARTESIAN_POINT('Origin',(-8.46490514006,2.22044604925031E-15,0.));
#1231=CARTESIAN_POINT('',(-8.46491015973861,7.81487598882898,1.11022302462516E-15));
#1232=CARTESIAN_POINT('',(-8.465,7.81493674828,0.));
#1233=CARTESIAN_POINT('',(-8.46499498942826,-7.81499749161805,1.11022302462516E-15));
#1234=CARTESIAN_POINT('',(-8.465,7.81493674828,0.));
#1235=CARTESIAN_POINT('',(-8.46490514006,-7.81493673905,0.));
#1236=CARTESIAN_POINT('Origin',(-8.27449996591295,8.27449995563638,0.));
#1237=CARTESIAN_POINT('',(-7.81487598915682,8.46491016015104,1.11022302462516E-15));
#1238=CARTESIAN_POINT('',(-7.8150000207662,9.11499999998159,0.));
#1239=CARTESIAN_POINT('',(-7.81493673905,8.46490514006,0.));
#1240=CARTESIAN_POINT('Origin',(-7.81474696233,7.81474696233,3.88578058618805E-15));
#1241=CARTESIAN_POINT('Origin',(-7.81474696233,7.81474696233,5.55111512312578E-15));
#1242=CARTESIAN_POINT('Origin',(2.22044604925031E-15,8.46490514006,0.));
#1243=CARTESIAN_POINT('',(7.81499998154,9.11490514313275,0.));
#1244=CARTESIAN_POINT('',(7.81499998154,9.115,0.));
#1245=CARTESIAN_POINT('',(7.81487598882898,8.46491015973861,0.));
#1246=CARTESIAN_POINT('',(7.81493674828,8.465,0.));
#1247=CARTESIAN_POINT('',(7.81493674828,8.465,0.));
#1248=CARTESIAN_POINT('Origin',(8.27449995563638,8.27449996591295,0.));
#1249=CARTESIAN_POINT('',(8.46491016015104,7.81487598915682,5.55111512312578E-16));
#1250=CARTESIAN_POINT('',(8.46490514006,7.81493673905,0.));
#1251=CARTESIAN_POINT('Origin',(7.81474696233,7.81474696233,1.11022302462516E-15));
#1252=CARTESIAN_POINT('Origin',(7.81474696233,7.81474696233,1.11022302462516E-15));
#1253=CARTESIAN_POINT('Origin',(7.81474696233,7.81474696233,0.5));
#1254=CARTESIAN_POINT('',(7.81499998154,9.11490514313,0.5));
#1255=CARTESIAN_POINT('Origin',(2.88657986403E-15,9.115,0.5));
#1256=CARTESIAN_POINT('',(-7.815,9.115,0.5));
#1257=CARTESIAN_POINT('Origin',(-7.81474696233,7.81474696233,0.5));
#1258=CARTESIAN_POINT('Origin',(-8.27449995563638,-8.27449996591295,0.));
#1259=CARTESIAN_POINT('',(-7.81487598915681,-8.46491016015103,1.11022302462516E-15));
#1260=CARTESIAN_POINT('Origin',(-7.81474696233,-7.81474696233,3.88578058618805E-15));
#1261=CARTESIAN_POINT('',(-7.81493674828,-8.465,0.));
#1262=CARTESIAN_POINT('Origin',(8.27449996591295,-8.27449995563638,0.));
#1263=CARTESIAN_POINT('',(7.81487598915682,-8.46491016015104,0.));
#1264=CARTESIAN_POINT('',(7.81493673905,-8.46490514006,0.));
#1265=CARTESIAN_POINT('',(8.46491016015103,-7.81487598915681,0.));
#1266=CARTESIAN_POINT('Origin',(7.81474696233,-7.81474696233,5.55111512312578E-16));
#1267=CARTESIAN_POINT('',(8.465,-7.81493674828,0.));
#1268=CARTESIAN_POINT('Origin',(8.46490514006,-2.22044604925031E-15,0.));
#1269=CARTESIAN_POINT('',(8.465,-7.81493673905,0.));
#1270=CARTESIAN_POINT('Origin',(-7.81474696233,7.81474696233,0.5));
#1271=CARTESIAN_POINT('',(-7.81490962838963,8.46490514532613,0.856115160490453));
#1272=CARTESIAN_POINT('',(-8.46491037700807,7.81486477355717,0.856222148549897));
#1273=CARTESIAN_POINT('Ctrl Pts',(-7.81498434366027,8.46490512441747,0.856282987011134));
#1274=CARTESIAN_POINT('Ctrl Pts',(-7.85946308680671,8.46488888464101,0.838457832284318));
#1275=CARTESIAN_POINT('Ctrl Pts',(-7.90511467004921,8.46027675349765,0.824166068756108));
#1276=CARTESIAN_POINT('Ctrl Pts',(-7.99534622916172,8.4409877657197,0.801053236905855));
#1277=CARTESIAN_POINT('Ctrl Pts',(-8.03947476718214,8.42661258764375,0.792265094641781));
#1278=CARTESIAN_POINT('Ctrl Pts',(-8.15319207813802,8.37533494137142,0.774393854840557));
#1279=CARTESIAN_POINT('Ctrl Pts',(-8.21878333218428,8.33018541956972,0.769068021738297));
#1280=CARTESIAN_POINT('Ctrl Pts',(-8.33027427224828,8.21866991778858,0.769074882375508));
#1281=CARTESIAN_POINT('Ctrl Pts',(-8.37540924949887,8.15306893009732,0.774406777478365));
#1282=CARTESIAN_POINT('Ctrl Pts',(-8.42666161358578,8.03934110487625,0.792289951414065));
#1283=CARTESIAN_POINT('Ctrl Pts',(-8.44102683111373,7.99521035877636,0.80108284865865));
#1284=CARTESIAN_POINT('Ctrl Pts',(-8.46029211997895,7.90499488329594,0.824202057899295));
#1285=CARTESIAN_POINT('Ctrl Pts',(-8.46489452904805,7.85936187949052,0.838493390612059));
#1286=CARTESIAN_POINT('Ctrl Pts',(-8.46490514920404,7.8149022669079,0.856315884489561));
#1287=CARTESIAN_POINT('',(-8.46490515544,7.81487348733,0.444942849569999));
#1288=CARTESIAN_POINT('',(-7.81487348733,8.46490515544,0.444942849569999));
#1289=CARTESIAN_POINT('Origin',(7.81474696233,7.81474696233,0.5));
#1290=CARTESIAN_POINT('',(8.46490514644273,7.81490650442823,0.856116376505314));
#1291=CARTESIAN_POINT('',(7.81486477310709,8.46491037660212,0.85622214730272));
#1292=CARTESIAN_POINT('Ctrl Pts',(8.464905127832,7.81497479982304,0.856286812289652));
#1293=CARTESIAN_POINT('Ctrl Pts',(8.46488954786438,7.85943387035122,0.838468959382908));
#1294=CARTESIAN_POINT('Ctrl Pts',(8.46028217941749,7.90506522261282,0.824181400036622));
#1295=CARTESIAN_POINT('Ctrl Pts',(8.44100616380813,7.99528375226171,0.801066628233936));
#1296=CARTESIAN_POINT('Ctrl Pts',(8.42663348969658,8.03941906406564,0.792275292102597));
#1297=CARTESIAN_POINT('Ctrl Pts',(8.3753629822768,8.15314552555042,0.774398756636631));
#1298=CARTESIAN_POINT('Ctrl Pts',(8.33021931080515,8.21873990150852,0.769070685851705));
#1299=CARTESIAN_POINT('Ctrl Pts',(8.21871463304898,8.33023910699989,0.769072214229006));
#1300=CARTESIAN_POINT('Ctrl Pts',(8.15311808859163,8.37537953796895,0.774401635336328));
#1301=CARTESIAN_POINT('Ctrl Pts',(8.03938616875204,8.42664581676996,0.792281319271917));
#1302=CARTESIAN_POINT('Ctrl Pts',(7.99524703089216,8.4410169626914,0.801074505594585));
#1303=CARTESIAN_POINT('Ctrl Pts',(7.90501342291381,8.46029023533288,0.824196230809118));
#1304=CARTESIAN_POINT('Ctrl Pts',(7.85937093598363,8.46489452690896,0.838489759046552));
#1305=CARTESIAN_POINT('Ctrl Pts',(7.81490226655335,8.46490514920413,0.85631588348513));
#1306=CARTESIAN_POINT('',(7.81487348733,8.46490515544,0.444942849569999));
#1307=CARTESIAN_POINT('',(8.46490515544,7.81487348733,0.444942849569999));
#1308=CARTESIAN_POINT('Origin',(2.88657986403E-15,8.465,0.5));
#1309=CARTESIAN_POINT('',(7.69819416264543,8.464999999979,0.889614507434868));
#1310=CARTESIAN_POINT('Ctrl Pts',(7.81484730760118,8.465,0.856178763449152));
#1311=CARTESIAN_POINT('Ctrl Pts',(7.78032079645408,8.465,0.870020879606804));
#1312=CARTESIAN_POINT('Ctrl Pts',(7.75248356461633,8.46499999980836,0.879022504240074));
#1313=CARTESIAN_POINT('Ctrl Pts',(7.71380499490574,8.46499999980836,0.888532176833608));
#1314=CARTESIAN_POINT('Ctrl Pts',(7.70328550845741,8.465,0.889614506461069));
#1315=CARTESIAN_POINT('Ctrl Pts',(7.69819416428405,8.465,0.889614506757221));
#1316=CARTESIAN_POINT('',(-7.69819416039841,8.46500000002897,0.889614508419905));
#1317=CARTESIAN_POINT('',(6.2172489379E-15,8.465,0.889614508609999));
#1318=CARTESIAN_POINT('Ctrl Pts',(-7.69819416109992,8.465,0.889614508449086));
#1319=CARTESIAN_POINT('Ctrl Pts',(-7.70329022969164,8.465,0.889614508364857));
#1320=CARTESIAN_POINT('Ctrl Pts',(-7.71382410399324,8.4650000001383,0.888530170865391));
#1321=CARTESIAN_POINT('Ctrl Pts',(-7.75254441497986,8.4650000001383,0.879004308117767));
#1322=CARTESIAN_POINT('Ctrl Pts',(-7.78039386595629,8.465,0.869995010020905));
#1323=CARTESIAN_POINT('Ctrl Pts',(-7.81492939504117,8.465,0.8561458505776));
#1324=CARTESIAN_POINT('Origin',(-8.465,4.4408920985E-15,0.5));
#1325=CARTESIAN_POINT('',(-8.46500000013553,-7.69819415968165,0.889614509095444));
#1326=CARTESIAN_POINT('',(-8.465,7.69819415947,0.889614508709999));
#1327=CARTESIAN_POINT('',(-8.465,1.06581410364E-14,0.889614508609999));
#1328=CARTESIAN_POINT('',(-8.46497095791613,-7.81502559706356,0.856097991978448));
#1329=CARTESIAN_POINT('Ctrl Pts',(-8.465,-7.8150287147462,0.856106016810203));
#1330=CARTESIAN_POINT('Ctrl Pts',(-8.465,-7.78044796087664,0.869977462448892));
#1331=CARTESIAN_POINT('Ctrl Pts',(-8.46499999979467,-7.75256630559411,0.878998746962607));
#1332=CARTESIAN_POINT('Ctrl Pts',(-8.46499999979467,-7.71382515525726,0.888530061580183));
#1333=CARTESIAN_POINT('Ctrl Pts',(-8.465,-7.70329049162293,0.889614509668448));
#1334=CARTESIAN_POINT('Ctrl Pts',(-8.465,-7.69819415968165,0.889614509919465));
#1335=CARTESIAN_POINT('',(-8.465,-7.815,0.444942849569999));
#1336=CARTESIAN_POINT('Ctrl Pts',(-8.465,7.81484730795581,0.85617876445424));
#1337=CARTESIAN_POINT('Ctrl Pts',(-8.465,7.78032079713293,0.870020880553324));
#1338=CARTESIAN_POINT('Ctrl Pts',(-8.46499999980772,7.752483565163,0.879022505369421));
#1339=CARTESIAN_POINT('Ctrl Pts',(-8.46499999980772,7.71380509227864,0.888532154388784));
#1340=CARTESIAN_POINT('Ctrl Pts',(-8.465,7.70328556572185,0.889614508724641));
#1341=CARTESIAN_POINT('Ctrl Pts',(-8.465,7.69819415949277,0.889614508571804));
#1342=CARTESIAN_POINT('Origin',(-2.22044604925031E-15,-8.46490514006,0.));
#1343=CARTESIAN_POINT('',(-7.81493673905,-8.465,0.));
#1344=CARTESIAN_POINT('Origin',(-7.81474696233,-7.81474696233,0.5));
#1345=CARTESIAN_POINT('',(-7.81486477370269,-8.4649103771393,0.856222149004463));
#1346=CARTESIAN_POINT('Ctrl Pts',(-7.81490226702267,-8.46490514920402,0.856315884865446));
#1347=CARTESIAN_POINT('Ctrl Pts',(-7.85936243222852,-8.46489452890817,0.838493169344546));
#1348=CARTESIAN_POINT('Ctrl Pts',(-7.90499601467538,-8.46029200497552,0.824201702557776));
#1349=CARTESIAN_POINT('Ctrl Pts',(-7.99521259654652,-8.44102622898915,0.801082339628866));
#1350=CARTESIAN_POINT('Ctrl Pts',(-8.03934385467635,-8.42666064976189,0.792289424678378));
#1351=CARTESIAN_POINT('Ctrl Pts',(-8.15307192974018,-8.37540743667216,0.774406463583902));
#1352=CARTESIAN_POINT('Ctrl Pts',(-8.21867264631326,-8.33027212664341,0.769074719427126));
#1353=CARTESIAN_POINT('Ctrl Pts',(-8.33018748762443,-8.21878068223979,0.769068184184686));
#1354=CARTESIAN_POINT('Ctrl Pts',(-8.3753366524316,-8.15318923772348,0.774394153887314));
#1355=CARTESIAN_POINT('Ctrl Pts',(-8.4266078923358,-8.03948460998057,0.792263635921981));
#1356=CARTESIAN_POINT('Ctrl Pts',(-8.44097997668343,-7.99536982883314,0.801048613346066));
#1357=CARTESIAN_POINT('Ctrl Pts',(-8.46026691188131,-7.90517377919599,0.824149481021788));
#1358=CARTESIAN_POINT('Ctrl Pts',(-8.4648820561384,-7.8595434994526,0.838431668362836));
#1359=CARTESIAN_POINT('Ctrl Pts',(-8.46490508057016,-7.81508365992916,0.856243192693558));
#1360=CARTESIAN_POINT('',(-7.81487348733,-8.46490515544,0.444942849569999));
#1361=CARTESIAN_POINT('Origin',(7.81474696233,-7.81474696233,0.5));
#1362=CARTESIAN_POINT('',(8.4649103771329,-7.81486477369561,0.856222148986743));
#1363=CARTESIAN_POINT('',(8.46490515544,-7.81487348733,0.444942849569999));
#1364=CARTESIAN_POINT('',(7.81485572406934,-8.46492917956032,0.856250332603526));
#1365=CARTESIAN_POINT('',(7.81487348733,-8.46490515544,0.444942849569999));
#1366=CARTESIAN_POINT('Ctrl Pts',(7.81481055287102,-8.46490516464318,0.856352656014408));
#1367=CARTESIAN_POINT('Ctrl Pts',(7.85928468026504,-8.46490081472678,0.838518745785031));
#1368=CARTESIAN_POINT('Ctrl Pts',(7.90493433210063,-8.46030180519555,0.824219257301969));
#1369=CARTESIAN_POINT('Ctrl Pts',(7.99518298994088,-8.44103585762982,0.801088213256893));
#1370=CARTESIAN_POINT('Ctrl Pts',(8.03932970359465,-8.42666705209011,0.792291641240281));
#1371=CARTESIAN_POINT('Ctrl Pts',(8.15307220120863,-8.37540727260245,0.774406435071603));
#1372=CARTESIAN_POINT('Ctrl Pts',(8.21867289320484,-8.33027193248802,0.769074704526976));
#1373=CARTESIAN_POINT('Ctrl Pts',(8.33018767471283,-8.21878044250592,0.769068198644646));
#1374=CARTESIAN_POINT('Ctrl Pts',(8.37533680721799,-8.1531889807693,0.774394180679744));
#1375=CARTESIAN_POINT('Ctrl Pts',(8.426623294527,-8.03945040082939,0.792269019845829));
#1376=CARTESIAN_POINT('Ctrl Pts',(8.44100289277046,-7.99529930241465,0.801062617510235));
#1377=CARTESIAN_POINT('Ctrl Pts',(8.46028754823176,-7.90503984957388,0.824187927946359));
#1378=CARTESIAN_POINT('Ctrl Pts',(8.46489452379347,-7.85938384568885,0.83848458531633));
#1379=CARTESIAN_POINT('Ctrl Pts',(8.46490514920402,-7.8149022670171,0.856315884851515));
#1380=CARTESIAN_POINT('Origin',(8.465,6.43929354283E-15,0.5));
#1381=CARTESIAN_POINT('',(8.46500000013779,-7.69819415962,0.889614509100369));
#1382=CARTESIAN_POINT('Ctrl Pts',(8.465,-7.81484730806495,0.856178764817038));
#1383=CARTESIAN_POINT('Ctrl Pts',(8.465,-7.78032079773197,0.870020880828099));
#1384=CARTESIAN_POINT('Ctrl Pts',(8.46499999980753,-7.75248356581559,0.87902250580184));
#1385=CARTESIAN_POINT('Ctrl Pts',(8.46499999980753,-7.71380509660328,0.888532154258809));
#1386=CARTESIAN_POINT('Ctrl Pts',(8.465,-7.70328556972729,0.889614509694667));
#1387=CARTESIAN_POINT('Ctrl Pts',(8.465,-7.69819415962,0.889614509936538));
#1388=CARTESIAN_POINT('',(8.46500000013771,7.69819415968306,0.889614509106342));
#1389=CARTESIAN_POINT('',(8.465,1.50990331349E-14,0.889614508609999));
#1390=CARTESIAN_POINT('Ctrl Pts',(8.465,7.69819415968306,0.889614509945126));
#1391=CARTESIAN_POINT('Ctrl Pts',(8.465,7.703287300567,0.889614509682308));
#1392=CARTESIAN_POINT('Ctrl Pts',(8.46500000014176,7.71381208303354,0.888531418545843));
#1393=CARTESIAN_POINT('Ctrl Pts',(8.46500000014176,7.75251451706363,0.879013714557087));
#1394=CARTESIAN_POINT('Ctrl Pts',(8.465,7.78037042547121,0.870004011807885));
#1395=CARTESIAN_POINT('Ctrl Pts',(8.465,7.81491985020895,0.8561496785742));
#1396=CARTESIAN_POINT('Origin',(-7.84394120524,-2.22044604925E-15,2.66541760237));
#1397=CARTESIAN_POINT('',(-7.36924890809,-4.18595776995,4.022712687771));
#1398=CARTESIAN_POINT('',(-7.36924890809675,-4.18595776995,4.02271268777336));
#1399=CARTESIAN_POINT('',(-7.36924890809,4.18595776957,4.022712687753));
#1400=CARTESIAN_POINT('',(-7.36924890812511,4.1859577696,4.02271268813075));
#1401=CARTESIAN_POINT('Origin',(20.4867910221545,-1.54548596142945E-11,
83.6707878668932));
#1402=CARTESIAN_POINT('Ctrl Pts',(-3.90124273952,7.28042322241,4.276693355525));
#1403=CARTESIAN_POINT('Ctrl Pts',(-4.43232053692,7.31399371319,4.180704727829));
#1404=CARTESIAN_POINT('Ctrl Pts',(-4.97701728761,7.25146902987,4.123770923711));
#1405=CARTESIAN_POINT('Ctrl Pts',(-5.50851007029,7.05873278923,4.096304800888));
#1406=CARTESIAN_POINT('Ctrl Pts',(-6.45240921412,6.45240921412,4.065508589477));
#1407=CARTESIAN_POINT('Ctrl Pts',(-7.05873278924,5.50851007031,4.09630480089));
#1408=CARTESIAN_POINT('Ctrl Pts',(-7.25146902983,4.97701728774,4.123770923716));
#1409=CARTESIAN_POINT('Ctrl Pts',(-7.31399371337,4.43232053705,4.180704727695));
#1410=CARTESIAN_POINT('Ctrl Pts',(-7.28042322267,3.90124273954,4.276693354936));
#1411=CARTESIAN_POINT('Ctrl Pts',(-5.16734406909,7.67542280583,3.14726488687));
#1412=CARTESIAN_POINT('Ctrl Pts',(-5.56158952398,7.70899329683,3.05127625931));
#1413=CARTESIAN_POINT('Ctrl Pts',(-5.96939009959,7.67325825972,2.99434245521));
#1414=CARTESIAN_POINT('Ctrl Pts',(-6.37114998519,7.53435647301,2.96687633233));
#1415=CARTESIAN_POINT('Ctrl Pts',(-7.08359179183,7.08359179202,2.93608012085));
#1416=CARTESIAN_POINT('Ctrl Pts',(-7.53435647323,6.37114998525,2.96687633221));
#1417=CARTESIAN_POINT('Ctrl Pts',(-7.67325826025,5.9693900995,2.99434245503));
#1418=CARTESIAN_POINT('Ctrl Pts',(-7.70899329783,5.56158952357,3.05127625898));
#1419=CARTESIAN_POINT('Ctrl Pts',(-7.67542280742,5.16734406847,3.14726488619));
#1420=CARTESIAN_POINT('Ctrl Pts',(-6.43344539647,8.0704223913,2.01783641664));
#1421=CARTESIAN_POINT('Ctrl Pts',(-6.69085850968,8.10399288175,1.92184778941));
#1422=CARTESIAN_POINT('Ctrl Pts',(-6.96176291113,8.09504748999,1.8649139859));
#1423=CARTESIAN_POINT('Ctrl Pts',(-7.23378990009,8.00998015633,1.83744786312));
#1424=CARTESIAN_POINT('Ctrl Pts',(-7.7147743698,7.71477436885,1.8066516518));
#1425=CARTESIAN_POINT('Ctrl Pts',(-8.00998015707,7.2337898996,1.83744786308));
#1426=CARTESIAN_POINT('Ctrl Pts',(-8.09504749019,6.96176291111,1.86491398591));
#1427=CARTESIAN_POINT('Ctrl Pts',(-8.10399288188,6.69085850992,1.92184778989));
#1428=CARTESIAN_POINT('Ctrl Pts',(-8.07042239175,6.43344539598,2.01783641656));
#1429=CARTESIAN_POINT('Ctrl Pts',(-7.69954672599,8.46542197498,0.888407948809999));
#1430=CARTESIAN_POINT('Ctrl Pts',(-7.82012749714,8.49899246587,0.792419321089999));
#1431=CARTESIAN_POINT('Ctrl Pts',(-7.95413572343,8.51683672121,0.735485516859999));
#1432=CARTESIAN_POINT('Ctrl Pts',(-8.09642981553,8.48560384188,0.708019394079999));
#1433=CARTESIAN_POINT('Ctrl Pts',(-8.34595694835,8.34595694844,0.677223182689999));
#1434=CARTESIAN_POINT('Ctrl Pts',(-8.48560384174,8.09642981553,0.70801939419));
#1435=CARTESIAN_POINT('Ctrl Pts',(-8.51683672105,7.95413572349,0.73548551704));
#1436=CARTESIAN_POINT('Ctrl Pts',(-8.49899246591,7.82012749715,0.792419321139999));
#1437=CARTESIAN_POINT('Ctrl Pts',(-8.46542197504,7.69954672588,0.888407948759999));
#1438=CARTESIAN_POINT('',(-4.18595777026,7.3692489079,4.02271268777));
#1439=CARTESIAN_POINT('',(-4.18595777022,7.36924890781942,4.02271268811972));
#1440=CARTESIAN_POINT('Ctrl Pts',(-7.36924890825235,4.18595776957201,4.02271268776691));
#1441=CARTESIAN_POINT('Ctrl Pts',(-7.36392281027841,4.51117024053158,4.03794168252777));
#1442=CARTESIAN_POINT('Ctrl Pts',(-7.28982369281625,4.86674149319024,4.05065545789017));
#1443=CARTESIAN_POINT('Ctrl Pts',(-6.97620575929972,5.62589698003231,4.07052383937327));
#1444=CARTESIAN_POINT('Ctrl Pts',(-6.71857589018458,6.02249933494722,4.07651995255414));
#1445=CARTESIAN_POINT('Ctrl Pts',(-6.02255020156176,6.71853624037555,4.07652043908014));
#1446=CARTESIAN_POINT('Ctrl Pts',(-5.62595142302074,6.97617549455654,4.07052489721502));
#1447=CARTESIAN_POINT('Ctrl Pts',(-4.86677497729141,7.28981669588332,4.05065665697122));
#1448=CARTESIAN_POINT('Ctrl Pts',(-4.51118559788787,7.36392255858449,4.0379424016666));
#1449=CARTESIAN_POINT('Ctrl Pts',(-4.18595777026049,7.36924890794046,4.02271268777364));
#1450=CARTESIAN_POINT('Origin',(5.97716320883E-15,7.84394120524,2.66541760237));
#1451=CARTESIAN_POINT('',(4.18595776969,7.369248908,4.022712688001));
#1452=CARTESIAN_POINT('Origin',(-1.21058718605127E-11,-20.4867908378116,
83.6707879898198));
#1453=CARTESIAN_POINT('',(4.18595776969,7.36924890840894,4.02271268814402));
#1454=CARTESIAN_POINT('Ctrl Pts',(7.28042791954,3.90125779508,4.276679924911));
#1455=CARTESIAN_POINT('Ctrl Pts',(7.31399841028,4.43233396527,4.180691297522));
#1456=CARTESIAN_POINT('Ctrl Pts',(7.25147404528,4.97702908812,4.123757493628));
#1457=CARTESIAN_POINT('Ctrl Pts',(7.05873844475,5.50852032801,4.096291370814));
#1458=CARTESIAN_POINT('Ctrl Pts',(6.45241671934,6.45241671945,4.065495159503));
#1459=CARTESIAN_POINT('Ctrl Pts',(5.50852032782,7.05873844481,4.096291370959));
#1460=CARTESIAN_POINT('Ctrl Pts',(4.9770290879,7.25147404534,4.123757493842));
#1461=CARTESIAN_POINT('Ctrl Pts',(4.43233396504,7.31399841049,4.180691297841));
#1462=CARTESIAN_POINT('Ctrl Pts',(3.90125779476,7.28042792003,4.276679925133));
#1463=CARTESIAN_POINT('Ctrl Pts',(8.46542197557,7.69954672615,0.88840794862));
#1464=CARTESIAN_POINT('Ctrl Pts',(8.4989924664,7.82012749699,0.7924193208));
#1465=CARTESIAN_POINT('Ctrl Pts',(8.51683672143,7.9541357233,0.73548551685));
#1466=CARTESIAN_POINT('Ctrl Pts',(8.48560384185,8.09642981519,0.70801939404));
#1467=CARTESIAN_POINT('Ctrl Pts',(8.34595694827,8.3459569477,0.677223182689999));
#1468=CARTESIAN_POINT('Ctrl Pts',(8.09642981551,8.48560384096,0.7080193941));
#1469=CARTESIAN_POINT('Ctrl Pts',(7.95413572355,8.51683672037,0.73548551693));
#1470=CARTESIAN_POINT('Ctrl Pts',(7.8201274972,8.49899246528,0.79241932093));
#1471=CARTESIAN_POINT('Ctrl Pts',(7.69954672617,8.46542197443,0.88840794869));
#1472=CARTESIAN_POINT('',(7.3692489081,4.18595776991,4.02271268777));
#1473=CARTESIAN_POINT('',(7.36924890817557,4.18595776999,4.02271268754896));
#1474=CARTESIAN_POINT('Ctrl Pts',(4.18595776970823,7.36924890853028,4.02271268779709));
#1475=CARTESIAN_POINT('Ctrl Pts',(4.5111702284566,7.36392281069188,4.03794168198114));
#1476=CARTESIAN_POINT('Ctrl Pts',(4.86674146737187,7.28982369839253,4.05065545697843));
#1477=CARTESIAN_POINT('Ctrl Pts',(5.62589693410752,6.97620578415397,4.07052383844752));
#1478=CARTESIAN_POINT('Ctrl Pts',(6.02249928283018,6.71857592774555,4.07651995191985));
#1479=CARTESIAN_POINT('Ctrl Pts',(6.71853617553903,6.02255028071068,4.07652043969704));
#1480=CARTESIAN_POINT('Ctrl Pts',(6.97617544129325,5.62595151761452,4.07052489901773));
#1481=CARTESIAN_POINT('Ctrl Pts',(7.28981668344975,4.86677503734431,4.05065665912661));
#1482=CARTESIAN_POINT('Ctrl Pts',(7.36392255823696,4.5111856249862,4.0379424029424));
#1483=CARTESIAN_POINT('Ctrl Pts',(7.36924890809822,4.18595776990997,4.02271268777013));
#1484=CARTESIAN_POINT('Origin',(7.84394120524,-2.6645352591E-15,2.66541760237));
#1485=CARTESIAN_POINT('',(7.36924890807,-4.1859577699,4.022712687817));
#1486=CARTESIAN_POINT('Origin',(-20.4867910204266,5.25468557555087E-12,
83.6707878680046));
#1487=CARTESIAN_POINT('',(7.36924890808231,-4.1859577699,4.0227126878213));
#1488=CARTESIAN_POINT('Ctrl Pts',(-7.28042791954,-3.90125779507,4.276679924912));
#1489=CARTESIAN_POINT('Ctrl Pts',(-7.3139984103,-4.43233396523,4.180691297485));
#1490=CARTESIAN_POINT('Ctrl Pts',(-7.25147404534,-4.97702908809,4.123757493561));
#1491=CARTESIAN_POINT('Ctrl Pts',(-7.0587384448,-5.508520328,4.09629137075));
#1492=CARTESIAN_POINT('Ctrl Pts',(-6.45241671942,-6.45241671945,4.065495159411));
#1493=CARTESIAN_POINT('Ctrl Pts',(-5.50852032795,-7.05873844477,4.096291370794));
#1494=CARTESIAN_POINT('Ctrl Pts',(-4.97702908807,-7.25147404528,4.123757493628));
#1495=CARTESIAN_POINT('Ctrl Pts',(-4.4323339652,-7.31399841028,4.180691297537));
#1496=CARTESIAN_POINT('Ctrl Pts',(-3.90125779493,-7.28042791954,4.276679924913));
#1497=CARTESIAN_POINT('Ctrl Pts',(-8.46542237338,-7.69954800129,0.88840681113));
#1498=CARTESIAN_POINT('Ctrl Pts',(-8.49899286415,-7.82012863452,0.792418183499999));
#1499=CARTESIAN_POINT('Ctrl Pts',(-8.51683714622,-7.95413672285,0.7354843794));
#1500=CARTESIAN_POINT('Ctrl Pts',(-8.485604321,-8.09643068411,0.7080182566));
#1501=CARTESIAN_POINT('Ctrl Pts',(-8.34595758405,-8.34595758377,0.677222045229999));
#1502=CARTESIAN_POINT('Ctrl Pts',(-8.0964306842,-8.4856043208,0.70801825661));
#1503=CARTESIAN_POINT('Ctrl Pts',(-7.95413672276,-8.51683714624,0.735484379369999));
#1504=CARTESIAN_POINT('Ctrl Pts',(-7.82012863433,-8.49899286422,0.792418183299999));
#1505=CARTESIAN_POINT('Ctrl Pts',(-7.69954800131,-8.46542237338,0.88840681114));
#1506=CARTESIAN_POINT('',(-4.1859577699,-7.36924890807,4.022712687817));
#1507=CARTESIAN_POINT('Ctrl Pts',(-4.18595776990268,-7.36924890809857,4.0227126877698));
#1508=CARTESIAN_POINT('Ctrl Pts',(-4.51117022775357,-7.36392281038934,4.0379416819223));
#1509=CARTESIAN_POINT('Ctrl Pts',(-4.86674146582734,-7.28982369857447,4.0506554569089));
#1510=CARTESIAN_POINT('Ctrl Pts',(-5.62589693306236,-6.97620578477744,4.07052383842639));
#1511=CARTESIAN_POINT('Ctrl Pts',(-6.02249928243938,-6.71857592807904,4.07651995191528));
#1512=CARTESIAN_POINT('Ctrl Pts',(-6.71853617611557,-6.02255028010727,4.07652043969543));
#1513=CARTESIAN_POINT('Ctrl Pts',(-6.97617544210152,-5.62595151633941,4.07052489899742));
#1514=CARTESIAN_POINT('Ctrl Pts',(-7.2898166836278,-4.86677503631203,4.05065665908801));
#1515=CARTESIAN_POINT('Ctrl Pts',(-7.36392255824087,-4.51118562468127,4.03794240292818));
#1516=CARTESIAN_POINT('Ctrl Pts',(-7.36924890809723,-4.18595776995007,4.02271268777198));
#1517=CARTESIAN_POINT('',(-7.69819415968627,-8.46500000013496,0.889614509103751));
#1518=CARTESIAN_POINT('',(-4.18595776982,-7.36924890815927,4.02271268759625));
#1519=CARTESIAN_POINT('Ctrl Pts',(-7.69819415968627,-8.465,0.889614509929463));
#1520=CARTESIAN_POINT('Ctrl Pts',(-7.70328502387807,-8.465,0.889614509676968));
#1521=CARTESIAN_POINT('Ctrl Pts',(-7.71380271783894,-8.46500000059347,0.888532386152321));
#1522=CARTESIAN_POINT('Ctrl Pts',(-7.75247789347265,-8.46500000059347,0.87902432042065));
#1523=CARTESIAN_POINT('Ctrl Pts',(-7.7803170873025,-8.465,0.87002236839276));
#1524=CARTESIAN_POINT('Ctrl Pts',(-7.81484730807052,-8.465,0.856178764830884));
#1525=CARTESIAN_POINT('Origin',(-5.55111512313E-15,-8.465,0.5));
#1526=CARTESIAN_POINT('',(7.69819415967362,-8.46500000012534,0.889614509056932));
#1527=CARTESIAN_POINT('',(-1.24344978758E-14,-8.465,0.889614508609999));
#1528=CARTESIAN_POINT('Ctrl Pts',(7.69819415967362,-8.465,0.889614509817998));
#1529=CARTESIAN_POINT('Ctrl Pts',(7.7032828367254,-8.465,0.889614509583599));
#1530=CARTESIAN_POINT('Ctrl Pts',(7.71379389482955,-8.46500000014747,0.888533315354282));
#1531=CARTESIAN_POINT('Ctrl Pts',(7.75243905079221,-8.46500000014747,0.879035358477316));
#1532=CARTESIAN_POINT('Ctrl Pts',(7.78025466587105,-8.465,0.870043560327451));
#1533=CARTESIAN_POINT('Ctrl Pts',(7.81475558513717,-8.465,0.856215532619167));
#1534=CARTESIAN_POINT('Ctrl Pts',(3.90124273247,-7.2804232203,4.276693361547));
#1535=CARTESIAN_POINT('Ctrl Pts',(4.43232053051,-7.31399371104,4.18070473414));
#1536=CARTESIAN_POINT('Ctrl Pts',(4.97701728202,-7.25146902735,4.123770930227));
#1537=CARTESIAN_POINT('Ctrl Pts',(5.50851006532,-7.05873278634,4.096304807422));
#1538=CARTESIAN_POINT('Ctrl Pts',(6.45240921035,-6.45240921033,4.065508596079));
#1539=CARTESIAN_POINT('Ctrl Pts',(7.05873278633,-5.50851006529,4.096304807441));
#1540=CARTESIAN_POINT('Ctrl Pts',(7.25146902732,-4.977017282,4.123770930257));
#1541=CARTESIAN_POINT('Ctrl Pts',(7.31399371104,-4.43232053048,4.180704734153));
#1542=CARTESIAN_POINT('Ctrl Pts',(7.2804232203,-3.90124273234,4.276693361528));
#1543=CARTESIAN_POINT('Ctrl Pts',(7.69954672617,-8.46542197555,0.88840794855));
#1544=CARTESIAN_POINT('Ctrl Pts',(7.82012749734,-8.49899246635,0.79241932085));
#1545=CARTESIAN_POINT('Ctrl Pts',(7.95413572333,-8.51683672142,0.73548551675));
#1546=CARTESIAN_POINT('Ctrl Pts',(8.09642981523,-8.48560384187,0.70801939407));
#1547=CARTESIAN_POINT('Ctrl Pts',(8.34595694799,-8.34595694814,0.67722318273));
#1548=CARTESIAN_POINT('Ctrl Pts',(8.4856038418,-8.09642981524,0.70801939409));
#1549=CARTESIAN_POINT('Ctrl Pts',(8.51683672147,-7.95413572321,0.735485516809999));
#1550=CARTESIAN_POINT('Ctrl Pts',(8.4989924664,-7.82012749699,0.792419320809999));
#1551=CARTESIAN_POINT('Ctrl Pts',(8.46542197556,-7.69954672615,0.88840794864));
#1552=CARTESIAN_POINT('',(4.18595776992,-7.3692489081,4.02271268777));
#1553=CARTESIAN_POINT('',(4.18595776999,-7.36924890817802,4.02271268755631));
#1554=CARTESIAN_POINT('Ctrl Pts',(7.36924890810027,-4.1859577699027,4.02271268776995));
#1555=CARTESIAN_POINT('Ctrl Pts',(7.36392254341104,-4.51118652960739,4.03794244530292));
#1556=CARTESIAN_POINT('Ctrl Pts',(7.28981627131629,-4.86677700950355,4.05065672974899));
#1557=CARTESIAN_POINT('Ctrl Pts',(6.97617355372949,-5.62595497833734,4.07052496797154));
#1558=CARTESIAN_POINT('Ctrl Pts',(6.71853364410303,-6.02255344504422,4.07652046714814));
#1559=CARTESIAN_POINT('Ctrl Pts',(6.02249670631634,-6.7185778712146,4.07651992445971));
#1560=CARTESIAN_POINT('Ctrl Pts',(5.62589425029605,-6.97620731225541,4.07052378800605));
#1561=CARTESIAN_POINT('Ctrl Pts',(4.86673966031576,-7.28982407582046,4.05065539225114));
#1562=CARTESIAN_POINT('Ctrl Pts',(4.51116939971685,-7.36392282396326,4.0379416431483));
#1563=CARTESIAN_POINT('Ctrl Pts',(4.18595776992,-7.36924890810293,4.02271268777101));
#1564=CARTESIAN_POINT('Origin',(0.,8.881784197E-16,90.8358181262));
#1565=CARTESIAN_POINT('Origin',(2.52575738102223E-12,20.4867908365894,83.6707879906318));
#1566=CARTESIAN_POINT('Origin',(2.64649413495E-15,-7.84394120524,2.66541760237));
#1567=UNCERTAINTY_MEASURE_WITH_UNIT(LENGTH_MEASURE(0.01),#1571,
'DISTANCE_ACCURACY_VALUE',
'Maximum model space distance between geometric entities at asserted c
onnectivities');
#1568=UNCERTAINTY_MEASURE_WITH_UNIT(LENGTH_MEASURE(0.01),#1571,
'DISTANCE_ACCURACY_VALUE',
'Maximum model space distance between geometric entities at asserted c
onnectivities');
#1569=(
GEOMETRIC_REPRESENTATION_CONTEXT(3)
GLOBAL_UNCERTAINTY_ASSIGNED_CONTEXT((#1567))
GLOBAL_UNIT_ASSIGNED_CONTEXT((#1571,#1573,#1574))
REPRESENTATION_CONTEXT('','3D')
);
#1570=(
GEOMETRIC_REPRESENTATION_CONTEXT(3)
GLOBAL_UNCERTAINTY_ASSIGNED_CONTEXT((#1568))
GLOBAL_UNIT_ASSIGNED_CONTEXT((#1571,#1573,#1574))
REPRESENTATION_CONTEXT('','3D')
);
#1571=(
LENGTH_UNIT()
NAMED_UNIT(*)
SI_UNIT(.MILLI.,.METRE.)
);
#1572=(
LENGTH_UNIT()
NAMED_UNIT(*)
SI_UNIT($,.METRE.)
);
#1573=(
NAMED_UNIT(*)
PLANE_ANGLE_UNIT()
SI_UNIT($,.RADIAN.)
);
#1574=(
NAMED_UNIT(*)
SI_UNIT($,.STERADIAN.)
SOLID_ANGLE_UNIT()
);
#1575=SHAPE_DEFINITION_REPRESENTATION(#1576,#1577);
#1576=PRODUCT_DEFINITION_SHAPE('',$,#1579);
#1577=SHAPE_REPRESENTATION('',(#717),#1569);
#1578=PRODUCT_DEFINITION_CONTEXT('part definition',#1583,'design');
#1579=PRODUCT_DEFINITION('Low Profile Keycap 1U',
'Low Profile Keycap 1U v3',#1580,#1578);
#1580=PRODUCT_DEFINITION_FORMATION('',$,#1585);
#1581=PRODUCT_RELATED_PRODUCT_CATEGORY('Low Profile Keycap 1U v3',
'Low Profile Keycap 1U v3',(#1585));
#1582=APPLICATION_PROTOCOL_DEFINITION('international standard',
'automotive_design',2009,#1583);
#1583=APPLICATION_CONTEXT(
'Core Data for Automotive Mechanical Design Process');
#1584=PRODUCT_CONTEXT('part definition',#1583,'mechanical');
#1585=PRODUCT('Low Profile Keycap 1U','Low Profile Keycap 1U v3',$,(#1584));
#1586=PRESENTATION_STYLE_ASSIGNMENT((#1588));
#1587=PRESENTATION_STYLE_ASSIGNMENT((#1589));
#1588=SURFACE_STYLE_USAGE(.BOTH.,#1590);
#1589=SURFACE_STYLE_USAGE(.BOTH.,#1591);
#1590=SURFACE_SIDE_STYLE('',(#1592));
#1591=SURFACE_SIDE_STYLE('',(#1593));
#1592=SURFACE_STYLE_FILL_AREA(#1594);
#1593=SURFACE_STYLE_FILL_AREA(#1595);
#1594=FILL_AREA_STYLE('\X2\92FC\X0\ - \X2\30B530C630F3\X0\',(#1596));
#1595=FILL_AREA_STYLE('\X2\30D730E930B930C130C330AF\X0\ - \X2\30DE30C330C8\X0\(
\X2\9ED2\X0\)',(#1597));
#1596=FILL_AREA_STYLE_COLOUR('\X2\92FC\X0\ - \X2\30B530C630F3\X0\',#1598);
#1597=FILL_AREA_STYLE_COLOUR('\X2\30D730E930B930C130C330AF\X0\ - \X2\30DE30C330C8\X0\(
\X2\9ED2\X0\)',#1599);
#1598=COLOUR_RGB('\X2\92FC\X0\ - \X2\30B530C630F3\X0\',0.627450980392157,
0.627450980392157,0.627450980392157);
#1599=COLOUR_RGB('\X2\30D730E930B930C130C330AF\X0\ - \X2\30DE30C330C8\X0\(
\X2\9ED2\X0\)',0.0980392156862745,0.0980392156862745,0.0980392156862745);
ENDSEC;
END-ISO-10303-21;
